<svg width="187" height="156" viewBox="0 0 187 156" fill="none" xmlns="http://www.w3.org/2000/svg">
<path fill-rule="evenodd" clip-rule="evenodd" d="M87.5277 103.471C108.631 114.907 132.767 123.306 156.697 121.661C165.404 121.063 173.464 118.552 181.739 116.056C182.319 115.882 182.65 115.267 182.476 114.683C182.299 114.1 181.683 113.769 181.1 113.946C172.985 116.393 165.085 118.874 156.546 119.461C132.956 121.083 109.177 112.73 88.3927 101.434L88.5407 101.1C90.1573 97.4809 89.156 92.1986 86.5148 86.655C82.7301 78.7084 75.6832 70.1696 69.3415 65.4532C66.4914 63.3345 63.7603 61.9878 61.508 61.7063C59.7521 61.4857 58.2458 61.8804 57.0819 62.9311C54.6033 65.1717 54.6903 68.9941 56.6552 73.426C60.7621 82.6962 72.8243 94.9036 79.3663 98.8189C81.4095 100.041 83.4877 101.242 85.5977 102.412C85.3307 103.056 85.0665 103.686 84.7821 104.287C83.9665 105.996 82.9652 107.491 81.0351 108.516C78.0254 110.109 74.4178 110.385 70.726 109.973C64.9648 109.325 59.0004 106.983 54.6091 104.972C30.1537 93.7687 18.0422 74.3374 11.5467 54.8306C4.99022 35.1293 4.13112 15.3351 2.18944 3.65891C2.09076 3.05812 1.52189 2.65469 0.921104 2.75337C0.320314 2.85205 -0.0860165 3.42092 0.0155664 4.02171C1.96886 15.7734 2.85406 35.6953 9.45694 55.5272C16.1208 75.5535 28.5865 95.4753 53.689 106.977C58.2632 109.073 64.48 111.491 70.4792 112.164C74.6325 112.628 78.6813 112.257 82.0684 110.463C85.1072 108.852 86.3145 106.339 87.5277 103.471ZM86.4539 100.366L86.5293 100.2C87.9428 97.0368 86.8341 92.4511 84.5238 87.6041C80.8871 79.968 74.1217 71.7572 68.0238 67.2237C65.9341 65.668 63.9344 64.5506 62.1756 64.0804C60.7244 63.6944 59.4648 63.7496 58.5621 64.568C57.7059 65.3372 57.3663 66.3965 57.3808 67.63C57.3953 69.0783 57.8772 70.7414 58.6695 72.5321C62.6167 81.4395 74.2117 93.1651 80.4982 96.9265C82.4515 98.0933 84.4367 99.2426 86.4539 100.366Z" fill="#E155B0"/>
<path fill-rule="evenodd" clip-rule="evenodd" d="M184.536 112.644C184.44 113.117 184.118 113.712 183.764 114.347C182.922 115.862 181.724 117.476 181.189 118.26C180.847 118.765 180.981 119.45 181.483 119.792C181.988 120.135 182.673 120.004 183.015 119.499C183.668 118.538 185.262 116.385 186.118 114.6C186.576 113.642 186.814 112.757 186.762 112.121C186.675 111.039 185.819 110.362 184.121 110.403C182.112 110.452 178.383 111.46 175.26 110.249C174.694 110.029 174.053 110.313 173.835 110.879C173.614 111.448 173.896 112.086 174.465 112.307C177.443 113.459 180.914 112.905 183.25 112.673C183.694 112.629 184.222 112.635 184.536 112.644Z" fill="#E155B0"/>
</svg>
