<?xml-stylesheet type="text/css" href='svg.css'?>
<svg width="12" height="21" viewBox="0 0 12 21" xmlns="http://www.w3.org/2000/svg">
<path d="M4.03353 12.5876C4.14311 10.2522 4.19846 7.91805 4.36226 5.58143C4.46881 4.30405 4.65608 2.99772 4.89881 1.74438C4.99491 1.19966 5.33317 0.56807 5.99006 0.824437C6.31788 0.925508 6.57609 1.54356 6.6402 1.97614C6.73697 2.65211 6.61684 3.33301 6.57743 3.98495C6.41553 7.59649 6.25364 11.208 6.09174 14.8196C6.20143 14.8713 6.31111 14.9231 6.4208 14.9749C6.83978 14.3143 7.20331 13.6008 7.67653 12.939C8.33521 12.0831 9.04812 11.226 9.84422 10.4484C10.0297 10.2543 10.6551 10.3215 10.9842 10.4768C11.1216 10.5551 11.1629 11.178 11.0329 11.4251C9.62562 13.9527 8.24606 16.5068 6.72785 18.9284C5.78512 20.4146 4.50896 20.3622 3.82121 18.7502C2.59053 15.9298 1.57552 13.0503 0.506283 10.1719C0.304762 9.66111 0.181489 9.01287 0.826024 8.72698C1.47056 8.44109 1.86125 8.9205 2.11699 9.43011C2.45593 10.0192 2.76837 10.636 3.05308 11.2264C3.2811 11.7095 3.50913 12.1926 3.71065 12.7034C3.84436 12.619 3.95281 12.6166 4.03353 12.5876Z"/>
</svg>
