<svg width="40" height="40" viewBox="0 0 40 40" fill="none" xmlns="http://www.w3.org/2000/svg" xmlns:xlink="http://www.w3.org/1999/xlink" >
<path d="M22.9329 15.8248C22.7138 20.4956 22.6031 25.1639 22.2755 29.8371C22.0624 32.3919 21.6878 35.0046 21.2024 37.5112C21.0102 38.6007 20.3337 39.8639 19.0199 39.3511C18.3642 39.149 17.8478 37.9129 17.7196 37.0477C17.5261 35.6958 17.7663 34.334 17.8451 33.0301C18.1689 25.807 18.4927 18.5839 18.8165 11.3609C18.5971 11.2573 18.3778 11.1538 18.1584 11.0503C17.3204 12.3714 16.5934 13.7985 15.6469 15.122C14.3296 16.8338 12.9038 18.548 11.3116 20.1032C10.9406 20.4914 9.68974 20.357 9.03162 20.0464C8.75679 19.8899 8.67416 18.6439 8.93417 18.1497C11.7488 13.0945 14.5079 7.98637 17.5443 3.14317C19.4298 0.170708 21.9821 0.275584 23.3576 3.4996C25.8189 9.14039 27.849 14.8995 29.9874 20.6561C30.3905 21.6778 30.637 22.9743 29.348 23.546C28.0589 24.1178 27.2775 23.159 26.766 22.1398C26.0881 20.9616 25.4633 19.7279 24.8938 18.5472C24.4378 17.581 23.9817 16.6148 23.5787 15.5931C23.3113 15.762 23.0944 15.7669 22.9329 15.8248Z" fill="#F4D36D"/>
</svg>
