<svg width="680" height="427" viewBox="0 0 680 427" fill="none" xmlns="http://www.w3.org/2000/svg">
<path d="M1 414.553C11.8901 318.945 7.53404 213.947 4.82656 5.43824M6.28306 6.72157C166.415 2.87805 324.805 15.7876 679 9.2794L6.28306 6.72157ZM7.87576 6.47375C146.378 5.35354 290.733 5.97321 664.794 4.77683L7.87576 6.47375ZM665.145 6.65604C665.408 171.398 671.629 326.19 665.103 425.045L665.145 6.65604ZM673.08 6.10766C659.255 129.867 666.407 247.182 670.607 416.629L673.08 6.10766ZM678.808 426C421.588 417.02 193.132 414.928 16.7564 415.799L678.808 426ZM673.857 416.1C456.514 419.471 248.174 416.027 6.20645 419.628L673.857 416.1ZM3.76368 410.686C11.7445 279.092 2.58186 163.277 11.0771 1L3.76368 410.686Z" stroke="#F2F2F2"/>
</svg>
