<svg width="1222" height="406" viewBox="0 0 1222 406" fill="none" xmlns="http://www.w3.org/2000/svg">
<path d="M1 394.118C20.5958 303.235 12.7574 203.425 7.88555 5.21894M10.5064 6.43886C298.649 2.78526 583.658 15.0569 1221 8.8703L10.5064 6.43886ZM13.3723 6.20328C262.594 5.13842 522.348 5.72747 1195.44 4.59021L13.3723 6.20328ZM1196.07 6.37657C1196.54 162.978 1207.74 310.122 1195.99 404.092L1196.07 6.37657ZM1210.35 5.85528C1185.47 123.499 1198.34 235.017 1205.9 396.092L1210.35 5.85528ZM1220.65 405C757.811 396.464 346.723 394.475 29.3523 395.303L1220.65 405ZM1211.75 395.59C820.656 398.794 445.767 395.52 10.3685 398.942L1211.75 395.59ZM5.97299 390.442C20.3338 265.351 3.84641 155.259 19.1328 1L5.97299 390.442Z" stroke="#F2F2F2"/>
</svg>
