<svg width="932" height="406" viewBox="0 0 932 406" fill="none" xmlns="http://www.w3.org/2000/svg">
<path d="M1 394.118C15.9377 303.235 9.96262 203.425 6.24882 5.21894M8.24668 6.43886C227.896 2.78526 445.157 15.0569 931 8.8703L8.24668 6.43886ZM10.4314 6.20328C200.412 5.13842 398.421 5.72747 911.514 4.59021L10.4314 6.20328ZM911.995 6.37657C912.356 162.978 920.889 310.122 911.937 404.092L911.995 6.37657ZM922.88 5.85528C903.917 123.499 913.727 235.017 919.487 396.092L922.88 5.85528ZM930.737 405C577.913 396.464 264.543 394.475 22.6128 395.303L930.737 405ZM923.946 395.59C625.82 398.794 340.044 395.52 8.1416 398.942L923.946 395.59ZM4.79089 390.442C15.738 265.351 3.1698 155.259 14.8226 1L4.79089 390.442Z" stroke="#F2F2F2"/>
</svg>
