<svg width="292" height="477" viewBox="0 0 292 477" fill="none" xmlns="http://www.w3.org/2000/svg">
<path d="M1 463.206C5.65801 356.35 3.7948 238.999 2.63673 5.96039M3.25972 7.3947C71.7525 3.099 139.501 17.5273 291 10.2534L3.25972 7.3947ZM3.94096 7.11772C63.1823 5.86572 124.927 6.55829 284.924 5.22116L3.94096 7.11772ZM285.074 7.32146C285.186 191.445 287.847 364.448 285.056 474.933L285.074 7.32146ZM288.468 6.70856C282.555 145.028 285.614 276.144 287.41 465.526L288.468 6.70856ZM290.918 476C180.898 465.964 83.1801 463.626 7.73948 464.599L290.918 476ZM288.8 464.936C195.836 468.703 106.723 464.854 3.22695 468.878L288.8 464.936ZM2.18211 458.884C5.59573 311.809 1.67661 182.369 5.31026 1L2.18211 458.884Z" stroke="#F2F2F2"/>
</svg>
