<svg width="1110" height="170" viewBox="0 0 1110 170" fill="none" xmlns="http://www.w3.org/2000/svg">
<path d="M1109.96 71.0256C1109.96 69.9042 1108.91 69.1032 1108.91 67.9818C1108.91 67.6614 1108.39 67.5012 1107.87 67.5012C1107.6 67.3411 1107.08 67.0206 1106.82 66.8604C1106.56 66.54 1106.03 66.0595 1106.03 65.7391C1106.03 65.5789 1106.03 65.2585 1106.03 65.0983C1106.03 64.9381 1106.03 64.6176 1105.77 64.4574C1105.24 63.4963 1104.72 62.6953 1104.46 61.7342C1104.46 61.4138 1104.46 61.0934 1104.46 60.9332C1104.46 60.773 1104.46 60.6127 1104.46 60.4525C1104.46 60.2923 1103.93 59.972 1103.67 59.8118C1103.93 59.6516 1103.93 59.4914 1103.67 59.3312C1102.1 58.8506 1101.57 58.2097 1103.15 57.2485C1103.93 56.7679 1105.51 56.6078 1104.72 55.8068C1103.67 55.0058 1103.15 53.8845 1101.31 53.7243C1098.43 53.4039 1097.9 52.2824 1099.74 50.8406C1101.31 49.7192 1100.79 48.5979 1098.69 48.2775C1098.17 48.1173 1097.38 48.2775 1096.86 48.2775C1092.4 47.7969 1087.42 49.3989 1083.22 47.3163C1082.96 47.3163 1082.7 47.3163 1082.44 47.3163C1079.03 47.7969 1075.36 47.6367 1071.95 47.7969C1065.13 48.1173 1058.32 48.4376 1051.5 48.4376C1044.69 48.4376 1037.87 47.7968 1031.05 47.6366C1030.79 47.6366 1030.27 47.4765 1030.01 47.4765C1021.88 46.8357 1014.01 46.0347 1005.89 45.3939C1005.1 45.3939 1004.05 45.3939 1004.05 44.5929C1004.05 43.9521 1004.58 43.4715 1005.89 43.4715C1007.72 43.4715 1009.56 43.1511 1011.39 43.1511C1012.44 43.1511 1012.97 42.8308 1013.49 42.19C1014.54 40.7482 1015.32 39.1461 1017.16 38.0248C1018.73 37.0636 1017.68 34.8209 1015.59 34.1801C1013.23 33.5393 1010.34 34.1801 1007.98 33.3791C1006.15 32.8985 1005.36 31.9373 1004.31 30.9761C1002.48 29.2139 999.071 28.2527 996.449 26.9711C995.663 26.3304 994.09 25.8498 995.663 24.8886C996.187 24.408 995.401 24.0876 994.614 23.7672C992.779 22.806 990.158 23.1263 988.585 22.005C986.75 20.5632 984.39 20.403 981.506 20.403C979.147 20.403 977.312 21.0438 975.215 21.0438C969.447 21.204 963.68 20.7234 957.912 20.403C956.339 20.2428 955.553 19.9224 955.553 18.9612C955.815 17.6797 954.504 17.3592 952.931 17.199C951.621 17.0388 950.572 16.8786 949.261 16.7184C946.377 16.2378 944.018 15.9174 942.183 13.995C940.61 12.3931 937.202 11.2717 934.318 9.99009C933.532 9.3493 931.959 8.86873 933.27 7.90754C933.794 7.42694 933.008 7.10653 932.483 6.78613C930.648 5.98514 928.289 6.14534 926.716 5.18415C924.881 3.90257 922.521 3.58225 919.9 3.26185C898.665 1.17928 877.43 0.698605 856.196 0.378209C834.174 0.218011 812.153 0.218069 790.394 0.538466C770.208 0.698664 750.022 0.218089 729.836 0.0578909C702.047 -0.262505 673.997 0.858823 646.208 0.698625C616.322 0.538427 586.437 0.21803 556.551 0.698625C537.938 1.01902 519.062 1.82001 500.449 1.49962C482.623 1.17922 464.796 0.538466 446.969 0.538466C406.859 0.378268 366.75 0.218069 326.902 0.538466C273.684 0.858862 220.728 0.698625 167.51 2.30061C150.732 2.7812 133.692 2.621 116.914 3.90259C106.69 4.70358 96.7283 5.82502 86.5042 6.46582C82.3097 6.78621 79.426 8.22797 77.853 10.1504C76.5422 11.7523 75.2315 12.3931 72.6099 12.3931C71.5613 12.3931 70.2504 12.7135 69.2017 12.7135C68.1531 12.8737 67.3666 13.1941 67.891 13.8349C68.9396 15.4369 67.1045 15.4368 65.2694 15.597C58.9776 16.0776 52.4238 16.5583 46.132 16.8787C41.9375 17.0389 39.0538 18.6408 37.4809 20.403C35.9079 22.005 34.335 22.806 31.4513 22.9662C30.4027 22.9662 29.354 23.2866 28.3054 23.4468C26.9946 23.607 26.7324 24.0876 27.2567 24.8886C29.0918 27.4518 31.1891 30.0149 36.1701 30.9761C36.6944 30.9761 37.2188 31.1363 37.2188 31.2965C38.5296 32.8985 41.6754 33.5392 42.724 35.1412C43.2483 35.782 44.297 35.782 45.0835 35.782C46.3943 35.782 47.4428 36.2627 48.2292 36.9035C49.0157 37.5442 47.1806 37.5442 46.9184 38.0248C46.132 38.6656 46.3943 39.1462 47.705 39.3064C49.278 39.4666 50.8508 40.1074 52.6859 39.787C53.7345 39.4666 55.3076 39.6268 54.2589 40.9084C53.7346 41.7094 54.2589 42.6706 55.5697 43.3114C57.4048 45.2338 59.2398 47.1561 63.1722 47.9571C63.6965 48.1173 63.9586 48.2774 64.483 48.4376C66.3181 49.8794 68.1532 51.4815 69.9883 52.9233C70.7748 52.9233 71.0369 53.7242 72.0856 53.564C72.3477 53.7242 72.8719 53.564 73.1341 53.8844C73.6584 55.166 74.9692 56.1272 76.28 57.0884C76.28 58.2098 76.28 59.1709 76.28 60.2923C76.5422 61.7341 75.4936 62.0546 73.3963 61.7342C67.8911 60.9332 62.6479 60.1321 57.1426 59.4913C55.0454 59.171 52.6859 58.5302 50.5887 58.6904C45.8699 59.0107 41.4132 58.6904 36.9565 57.8894C35.9079 57.7292 35.1215 58.0496 34.0729 58.2098C31.7135 58.8506 30.1405 60.1321 27.5189 60.4525C25.4217 60.6127 25.6838 62.0545 25.1595 62.8555C24.6352 63.6565 26.4702 63.6565 27.2567 63.8167C29.3539 64.1371 29.8783 64.7778 29.0918 66.0594C28.8297 66.54 28.5676 66.8605 28.0433 67.3411C27.519 67.8217 27.7811 68.4624 28.8297 68.4624C31.7135 68.7828 32.2378 70.2246 32.7621 71.5062C33.0242 72.3072 33.8107 72.7878 34.8593 73.1082C35.1215 73.2684 35.1215 76.7928 34.8593 76.953C34.5971 76.953 34.335 77.1131 34.0729 77.1131C31.7135 76.6325 30.6648 77.9141 29.0918 78.3947C27.5189 79.0355 26.2081 79.6763 24.373 79.9967C22.5379 80.3171 22.5379 81.4385 22.0136 82.2395C21.4893 83.0405 23.3244 83.0404 24.373 83.2006C25.1595 83.521 26.2081 83.6813 26.4703 84.322C26.9946 85.6036 28.5675 86.4046 29.6162 87.526C29.6162 88.4872 28.8297 89.128 26.9946 89.128C24.373 89.128 21.4894 89.4484 18.8678 89.4484C14.4112 89.4484 9.95443 89.128 6.02209 90.73C5.75993 90.8902 5.49774 90.8902 5.49774 91.0504C5.49774 91.2106 5.49774 91.3708 5.49774 91.3708C5.23558 91.531 4.97352 91.6911 4.44921 91.6911C2.61411 91.6911 1.3033 91.8513 1.3033 93.2931C1.04114 93.4533 0.778923 93.6135 0.25461 93.6135C-0.00754643 94.8951 -0.794016 96.3369 2.87617 95.6961C3.13833 95.6961 3.40055 96.0166 3.92487 96.1767C5.23565 96.8175 4.71127 97.9389 5.49774 98.7399C5.7599 98.9001 6.02212 99.0603 6.54643 99.0603C7.3329 99.3807 7.59499 99.8613 8.11931 100.342H7.85721C6.54643 102.104 7.3329 103.706 9.168 105.308C10.4788 106.429 10.7408 108.031 10.2165 109.153C9.43006 111.396 9.16793 111.716 12.0517 113.158C12.8381 113.478 13.6247 113.638 13.6247 114.279C13.3625 115.721 13.8867 117.002 16.7704 117.163C17.2948 117.163 17.557 117.483 17.8191 117.643C18.6056 118.284 19.3921 118.284 20.4407 117.803C21.2272 117.483 22.0137 117.643 22.8002 117.483C26.9947 117.323 31.1891 116.842 35.3836 117.483C35.908 117.643 36.6945 117.323 37.2188 117.163C38.5296 117.163 39.5781 117.163 40.8889 117.163C42.1997 117.002 43.7727 116.842 45.0835 116.842C53.9968 116.682 63.1722 116.362 72.0856 115.881C75.4936 115.721 79.1638 115.08 82.0475 115.881C84.9312 116.682 87.8149 116.522 90.6986 116.522V116.362C90.6986 116.362 90.6987 116.362 90.9609 116.522C91.223 116.682 91.7472 116.842 92.0094 117.003C92.7959 117.163 93.5824 117.163 93.5824 117.803C93.5824 118.444 92.7959 118.604 91.7473 118.765C90.9608 118.925 90.4365 119.085 89.9122 119.566C87.0284 121.648 84.9312 124.211 79.4259 124.372C78.9016 124.372 78.1151 124.692 77.5908 124.852C76.5422 125.173 76.28 125.653 76.8043 126.134C78.3773 128.697 80.7367 130.619 84.669 132.061C87.2906 133.022 90.4364 133.983 91.485 136.066C92.0094 136.226 92.2716 136.707 93.0581 136.707C93.3202 136.707 93.5824 136.867 93.8445 136.867C95.4175 137.187 97.7769 137.187 94.8932 138.629C94.631 138.789 94.631 139.11 94.8932 139.43C96.7283 141.993 99.0876 144.236 103.282 145.357C104.069 145.518 104.593 145.678 105.117 146.158C106.952 147.28 109.05 148.081 110.36 149.683C110.623 150.003 111.671 150.163 112.195 150.163C113.244 150.163 114.293 150.484 115.079 150.804C116.914 151.285 116.914 152.086 115.341 152.727C114.293 153.207 114.293 153.367 115.341 153.688C116.914 154.008 118.225 154.489 120.06 154.329C121.371 154.168 122.42 154.649 123.468 154.969C123.992 155.13 124.517 155.29 123.993 155.77C122.682 157.693 123.468 158.494 127.138 158.173C149.16 156.411 171.443 156.251 193.726 156.571C203.688 156.732 213.912 156.571 223.874 156.732C228.593 156.732 230.69 157.693 231.215 159.775C231.477 159.936 231.739 160.096 232.263 160.256C232.525 160.256 232.525 160.096 232.787 160.096C235.409 160.576 238.031 160.897 239.079 162.979C238.293 163.139 237.768 163.139 236.982 163.3C238.031 164.101 239.341 164.421 240.652 164.581C241.963 164.741 243.274 164.902 244.847 165.222C245.633 165.382 246.158 165.542 245.633 166.183C244.322 167.625 245.633 168.106 247.73 168.426C249.041 168.586 250.614 168.746 251.925 168.746C264.771 169.708 277.616 169.708 290.462 169.868C317.988 170.348 345.777 169.387 373.303 169.067C401.354 168.746 429.405 168.106 457.456 167.465C476.593 166.984 495.73 166.664 514.868 165.863C537.413 165.062 559.959 164.581 582.504 164.101C591.418 163.94 600.593 163.62 609.506 163.3C631.528 162.499 653.549 161.698 675.57 160.897C687.629 160.416 699.426 160.096 711.485 159.615C715.155 159.615 719.088 159.775 722.758 159.295H723.02H723.282C737.963 158.974 752.644 158.654 767.062 158.334C789.346 158.013 811.367 157.372 833.65 156.732C850.953 156.251 868.517 155.77 886.081 155.45C907.84 154.969 929.337 154.649 951.096 154.168C961.583 154.008 972.069 153.688 982.555 153.207C986.487 153.047 990.42 152.887 993.041 150.804C995.139 149.202 998.284 148.722 1001.17 148.561C1004.31 148.241 1004.84 146.96 1005.36 145.518C1005.36 145.358 1005.36 145.197 1005.62 144.877C1006.94 144.557 1007.72 143.756 1008.51 143.115C1009.82 141.993 1008.51 139.911 1006.41 139.43C1004.58 138.95 1002.48 138.629 1000.38 138.309C996.187 137.828 994.876 135.746 993.303 133.823C992.779 133.022 993.041 132.542 994.614 132.702C996.974 132.862 999.071 132.862 1001.43 133.022C1016.64 133.663 1031.58 133.343 1046.78 132.381C1052.55 132.061 1054.12 131.1 1054.12 127.576C1054.12 126.294 1053.08 125.012 1053.6 123.571C1052.29 122.449 1051.24 121.328 1050.98 120.046C1050.72 119.726 1050.45 119.566 1049.93 119.726C1049.67 117.964 1050.19 116.201 1047.83 114.76C1047.05 114.279 1047.05 113.638 1047.83 113.158C1049.41 112.357 1048.88 111.556 1048.09 110.595C1047.31 109.794 1046.26 109.473 1045.21 108.993C1043.64 108.352 1042.85 107.711 1044.16 106.59C1045.21 105.789 1044.69 104.988 1043.9 104.347C1042.85 103.546 1041.8 103.065 1040.23 102.745C1037.35 102.104 1034.2 101.623 1031.05 101.303C1028.43 100.983 1025.81 100.983 1025.02 98.9C1025.02 98.5796 1024.5 98.5797 1023.98 98.4195C1023.19 98.2593 1022.66 97.9389 1022.93 97.4583C1023.19 96.8175 1023.98 96.8175 1024.76 96.8175C1031.58 96.4971 1038.66 96.3369 1045.47 95.8563C1049.4 95.5359 1053.6 95.3757 1057.53 95.0553C1057.79 94.8951 1058.06 94.8951 1058.06 94.7349C1061.73 94.5747 1065.66 94.2543 1068.54 92.8125C1070.9 91.5309 1073.52 90.73 1076.41 89.929C1080.6 89.4484 1084.8 89.2882 1088.99 89.128C1090.56 89.128 1091.61 88.8076 1091.87 88.0066C1092.66 85.2832 1092.66 82.5599 1089.78 80.3171C1088.99 79.6763 1088.73 79.0355 1089.25 78.3947C1089.51 77.5937 1090.83 77.754 1091.61 77.754C1095.81 77.4336 1100.26 77.2733 1104.2 76.4723C1109.18 75.6713 1110.23 74.55 1109.96 71.0256ZM1101.57 59.8118C1101.31 59.8118 1101.31 59.6515 1101.31 59.4913C1101.31 59.4913 1101.31 59.4913 1101.31 59.6515L1101.57 59.8118ZM1104.2 62.5351C1104.46 62.8555 1104.46 63.3361 1104.72 63.6565C1104.2 63.4963 1103.93 63.0157 1104.2 62.5351Z" fill="#F3BBE0"/>
</svg>
