<?xml-stylesheet type="text/css" href='svg.css'?>
<svg  width="21" height="21" viewBox="0 0 21 21" xmlns="http://www.w3.org/2000/svg" xmlns:xlink="http://www.w3.org/1999/xlink">
<path d="M9.03353 12.5876C9.14311 10.2522 9.19846 7.91805 9.36226 5.58143C9.46881 4.30405 9.65608 2.99772 9.89881 1.74438C9.99491 1.19966 10.3332 0.56807 10.9901 0.824438C11.3179 0.925508 11.5761 1.54356 11.6402 1.97614C11.737 2.65211 11.6168 3.33301 11.5774 3.98495C11.4155 7.59649 11.2536 11.208 11.0917 14.8196C11.2014 14.8713 11.3111 14.9231 11.4208 14.9749C11.8398 14.3143 12.2033 13.6008 12.6765 12.939C13.3352 12.0831 14.0481 11.226 14.8442 10.4484C15.0297 10.2543 15.6551 10.3215 15.9842 10.4768C16.1216 10.5551 16.1629 11.178 16.0329 11.4251C14.6256 13.9527 13.2461 16.5068 11.7278 18.9284C10.7851 20.4146 9.50896 20.3622 8.82121 18.7502C7.59053 15.9298 6.57552 13.0503 5.50628 10.1719C5.30476 9.66111 5.18149 9.01287 5.82602 8.72698C6.47056 8.44109 6.86125 8.9205 7.11699 9.43011C7.45593 10.0192 7.76837 10.636 8.05308 11.2264C8.2811 11.7095 8.50913 12.1926 8.71065 12.7034C8.84436 12.619 8.95281 12.6166 9.03353 12.5876Z"/>
</svg>