
<?xml-stylesheet type="text/css" href='svg.css'?>
<svg width="40" height="40" viewBox="0 0 40 40" xmlns="http://www.w3.org/2000/svg">
<path d="M12.8252 31.2654L12.4574 31.919L12.8252 31.2654ZM10.5097 21.5994L11.2526 21.7026L10.5097 21.5994ZM10.31 28.3768L9.61205 28.6512L10.31 28.3768ZM30.4778 21.5994L29.7349 21.7026L30.4778 21.5994ZM30.6775 28.3768L31.3755 28.6512L30.6775 28.3768ZM28.1623 31.2654L28.5302 31.919L28.1623 31.2654ZM26.7884 14.2341L26.4759 14.9159L26.7884 14.2341ZM29.2247 16.3553L29.857 15.952L29.2247 16.3553ZM14.1991 14.2341L14.5116 14.9159L14.1991 14.2341ZM11.7629 16.3553L11.1306 15.952L11.7629 16.3553ZM24.3152 18.2857C24.3152 18.6999 24.651 19.0357 25.0652 19.0357C25.4794 19.0357 25.8152 18.6999 25.8152 18.2857H24.3152ZM15.1723 18.2857C15.1723 18.6999 15.5081 19.0357 15.9223 19.0357C16.3365 19.0357 16.6723 18.6999 16.6723 18.2857H15.1723ZM19.5657 14.4643H21.4219V12.9643H19.5657V14.4643ZM21.4219 31.25H19.5657V32.75H21.4219V31.25ZM19.5657 31.25C17.7407 31.25 16.4197 31.2494 15.3902 31.1609C14.3682 31.0731 13.7112 30.9035 13.1931 30.6119L12.4574 31.919C13.2443 32.362 14.1459 32.5596 15.2619 32.6554C16.3705 32.7507 17.7671 32.75 19.5657 32.75V31.25ZM9.76685 21.4962C9.51943 23.2777 9.32665 24.6609 9.26846 25.7721C9.20987 26.8907 9.28159 27.8108 9.61205 28.6512L11.008 28.1023C10.7904 27.549 10.7128 26.875 10.7664 25.8505C10.8204 24.8187 11.0015 23.5102 11.2526 21.7026L9.76685 21.4962ZM13.1931 30.6119C12.1977 30.0516 11.426 29.1653 11.008 28.1023L9.61205 28.6512C10.1563 30.0354 11.1612 31.1895 12.4574 31.919L13.1931 30.6119ZM29.7349 21.7026C29.986 23.5102 30.1671 24.8187 30.2211 25.8505C30.2748 26.875 30.1971 27.549 29.9795 28.1023L31.3755 28.6512C31.7059 27.8108 31.7776 26.8907 31.7191 25.7721C31.6609 24.6609 31.4681 23.2777 31.2207 21.4962L29.7349 21.7026ZM21.4219 32.75C23.2204 32.75 24.6171 32.7507 25.7257 32.6554C26.8417 32.5596 27.7432 32.362 28.5302 31.919L27.7944 30.6119C27.2763 30.9035 26.6194 31.0731 25.5973 31.1609C24.5679 31.2494 23.2468 31.25 21.4219 31.25V32.75ZM29.9795 28.1023C29.5615 29.1653 28.7898 30.0516 27.7944 30.6119L28.5302 31.919C29.8263 31.1895 30.8312 30.0354 31.3755 28.6512L29.9795 28.1023ZM31.2207 21.4962C31.0282 20.1101 30.8785 19.0287 30.69 18.1639C30.4996 17.29 30.2589 16.5821 29.857 15.952L28.5924 16.7587C28.8613 17.1802 29.0531 17.6969 29.2244 18.4833C29.3978 19.2789 29.5393 20.2937 29.7349 21.7026L31.2207 21.4962ZM26.4759 14.9159C27.3439 15.3138 28.0788 15.9537 28.5924 16.7587L29.857 15.952C29.1882 14.9037 28.2313 14.0705 27.101 13.5523L26.4759 14.9159ZM11.2526 21.7026C11.4483 20.2937 11.5897 19.2789 11.7631 18.4833C11.9345 17.6969 12.1263 17.1802 12.3952 16.7587L11.1306 15.952C10.7286 16.5821 10.4879 17.29 10.2975 18.1639C10.109 19.0287 9.95937 20.1101 9.76685 21.4962L11.2526 21.7026ZM13.8865 13.5523C12.7562 14.0705 11.7993 14.9037 11.1306 15.952L12.3952 16.7587C12.9087 15.9537 13.6436 15.3138 14.5116 14.9159L13.8865 13.5523ZM20.4938 8.75C22.6043 8.75 24.3152 10.4609 24.3152 12.5714H25.8152C25.8152 9.63249 23.4327 7.25 20.4938 7.25V8.75ZM20.4938 7.25C17.5548 7.25 15.1723 9.63248 15.1723 12.5714H16.6723C16.6723 10.4609 18.3832 8.75 20.4938 8.75V7.25ZM16.6723 18.2857V13.8088H15.1723V18.2857H16.6723ZM16.6723 13.8088V12.5714H15.1723V13.8088H16.6723ZM19.5657 12.9643C17.9838 12.9643 16.7915 12.9633 15.8439 13.0629L16.0007 14.5547C16.8514 14.4653 17.9505 14.4643 19.5657 14.4643V12.9643ZM15.8439 13.0629C15.1055 13.1405 14.4758 13.2822 13.8865 13.5523L14.5116 14.9159C14.9055 14.7353 15.363 14.6217 16.0007 14.5547L15.8439 13.0629ZM24.3152 12.5714V13.8088H25.8152V12.5714H24.3152ZM24.3152 13.8088V18.2857H25.8152V13.8088H24.3152ZM21.4219 14.4643C23.037 14.4643 24.1361 14.4653 24.9868 14.5547L25.1436 13.0629C24.1961 12.9633 23.0037 12.9643 21.4219 12.9643V14.4643ZM24.9868 14.5547C25.6245 14.6217 26.082 14.7353 26.4759 14.9159L27.101 13.5523C26.5118 13.2822 25.882 13.1405 25.1436 13.0629L24.9868 14.5547Z"/>
</svg>
