<svg width="100" height="40" viewBox="0 0 100 40" fill="none" xmlns="http://www.w3.org/2000/svg">
<path fill-rule="evenodd" clip-rule="evenodd" d="M75.5722 6.82635C80.2398 7.84609 83.7117 9.79168 87.1521 11.8889C98.4329 18.773 101.043 26.6153 91.2024 31.957C75.905 40.234 44.0569 41.4889 21.1894 33.7495C16.1243 32.039 9.19593 30.0617 4.7548 25.5767C0.623207 21.4061 1.63533 17.5772 4.59318 14.4176C7.61016 11.1751 12.652 8.62243 16.5579 7.10844C33.6309 0.508631 65.6474 -2.34473 92.0153 7.40272C92.5584 7.59724 93.1519 7.5539 93.3696 7.31146C93.5874 7.06902 93.368 6.72275 92.8652 6.53584C65.7222 -3.49693 32.704 -0.64217 15.1317 6.14967C10.2708 8.03933 3.70583 11.4892 1.11959 15.8604C-0.634446 18.8505 -0.558091 22.2636 3.01771 25.9014C7.73191 30.6757 15.081 32.8356 20.4572 34.6539C44.0646 42.6454 76.9986 41.3833 92.7711 32.8299C103.363 27.0912 100.625 18.6674 88.493 11.2667C84.7966 8.99811 80.9768 6.91848 75.9102 5.81181C75.3516 5.69003 74.824 5.81878 74.764 6.10504C74.6638 6.38377 75.0537 6.71218 75.5722 6.82635Z" fill="#F4D36D"/>
</svg>
