<svg width="570" height="410" viewBox="0 0 570 410" fill="none" xmlns="http://www.w3.org/2000/svg">
<path d="M353.368 260.717C356.641 259.972 359.899 259.144 363.192 258.497C376.121 255.957 388.847 252.855 400.913 247.305C417.917 239.485 428.551 226.659 432.332 208.329C437.869 181.483 422.017 160.135 405.561 150.198C392.519 142.322 378.394 137.565 363.337 135.371C335.021 131.245 307.578 134.579 281.178 145.438C264.473 152.309 250.848 163.037 241.632 179.029C228.391 202.005 232.455 223.065 249.158 241.794C261.301 255.409 277.188 261.859 294.98 263.999C300.806 264.7 306.701 264.811 312.555 265.301C317.374 265.704 318.276 266.67 317.666 271.459C317.106 275.853 316.471 280.303 315.187 284.521C313.908 288.721 311.783 292.664 309.601 297.708C326.28 289.114 339.219 277.334 351.434 264.493C350.235 271.481 345.403 275.985 340.707 280.261C329.188 290.751 316.082 299.038 302.378 306.39C300.701 307.29 299.011 308.526 297.466 305.37C306.889 295.562 314.166 284.4 314.002 269.381C306.755 268.625 299.821 268.027 292.92 267.16C266.86 263.884 246.812 251.447 235.189 227.499C226.297 209.178 229.442 191.365 239.993 174.576C250.974 157.102 267.158 146.313 286.228 139.492C305.674 132.537 325.878 129.287 346.416 130.131C366.705 130.964 386.533 134.753 404.44 145.325C416.679 152.551 426.445 161.957 432.322 175.181C443.538 200.416 433.457 232.677 411.129 245.846C395.235 255.22 377.931 259.765 359.947 262.427C358.566 262.632 357.126 262.481 355.715 262.435C355.021 262.412 354.331 262.25 353.639 262.151C353.549 261.673 353.458 261.194 353.368 260.717Z" fill="#E77AC1"/>
<path d="M379.381 269.724C383.575 268.626 386.644 267.786 389.731 267.021C415.357 260.672 434.719 246.307 445.991 222.154C451.09 211.23 451.973 199.584 449.185 187.736C448.231 183.682 447.565 179.561 446.631 174.774C449.145 174.774 451.221 174.386 453.097 174.834C469.113 178.666 483.825 185.019 495.299 197.377C508.78 211.897 511.27 234.824 500.842 250.8C496.966 256.738 491.923 261.661 485.477 264.947C484.032 265.684 482.662 266.568 481.021 267.521C487.364 281.795 501.44 287.652 513.001 297.514C503.692 298.733 495.632 297.697 487.643 296.128C474.994 293.645 462.292 291.339 450.455 285.819C448.973 285.128 446.725 285.341 445.071 285.874C431.694 290.192 418.227 289.891 404.789 286.595C397.465 284.798 390.509 281.854 384.914 276.542C383.123 274.841 381.76 272.691 379.381 269.724ZM499.423 294.417C499.591 293.817 499.758 293.218 499.926 292.619C491.226 285.667 481.801 279.367 477.138 267.96C479.266 266.165 481.245 264.583 483.126 262.893C487.647 258.828 492.892 255.289 496.477 250.512C508.9 233.958 504.953 210.702 489.348 196.391C481.406 189.108 471.89 184.562 461.818 181.1C458.385 179.92 454.83 179.092 451.646 178.191C451.006 179.033 450.716 179.25 450.749 179.396C451.101 180.974 451.441 182.561 451.906 184.108C454.661 193.289 455.085 202.615 452.884 211.896C446.286 239.714 427.526 256.511 402.078 266.964C397.028 269.039 391.662 270.348 385.42 272.335C388.14 274.378 390.023 276.095 392.173 277.355C404.625 284.65 418.144 286.179 432.249 284.69C440.804 283.787 449.326 281.556 457.962 284.877C463.409 286.972 469.079 288.63 474.781 289.887C482.932 291.684 491.203 292.933 499.423 294.417Z" fill="#E77AC1"/>
<path d="M195.124 41.7968C202.32 43.4117 209.669 44.5416 216.688 46.7299C240.613 54.1898 264.427 62.0084 288.271 69.7263C292.309 71.033 296.235 72.6971 300.302 73.8872C314.701 78.0994 321.884 88.1847 318.967 106.056C315.963 124.472 311.218 142.626 306.769 160.781C295.599 206.371 284.462 251.973 272.629 297.392C269.731 308.518 264.9 319.306 259.723 329.63C253.367 342.302 241.433 346.222 228.341 344.09C215.873 342.059 203.752 337.931 191.444 334.862C179.474 331.876 167.423 329.212 155.478 326.134C144.907 323.409 133.9 321.5 124.047 317.086C110.647 311.084 105.154 301.997 107.543 287.696C112.12 260.29 120.287 233.831 126.541 206.882C134.756 171.488 143.218 136.15 151.836 100.851C154.512 89.887 157.689 79.0139 161.258 68.3058C166.837 51.562 178.9 42.6427 195.124 41.7968ZM110.787 290.257C109.958 297.488 115.782 307.149 122.834 310.298C129.581 313.31 136.541 316.119 143.685 317.911C159.068 321.77 174.685 324.692 190.1 328.431C202.101 331.342 213.965 334.828 225.847 338.209C237.758 341.6 252.576 336.551 257.801 322.302C262.407 309.74 266.782 297.021 270.119 284.078C280.791 242.671 291.011 201.147 301.244 159.629C305.719 141.471 310.167 123.292 313.955 104.984C317.052 90.0214 308.505 81.7069 297.387 78.3467C277.75 72.4117 258.133 66.4113 238.526 60.378C226.374 56.6387 214.35 52.4476 202.099 49.0705C185.306 44.4412 171.876 54.3923 167.632 67.7814C163.254 81.5888 158.563 95.3408 155.1 109.386C142.511 160.462 130.41 211.658 118.045 262.789C115.82 271.992 113.216 281.104 110.787 290.257Z" fill="#F4D36D"/>
<path d="M396.926 121.181C401.843 70.5903 388.941 30.1235 334.29 12.8206C338.318 8.55983 342.037 10.0427 345.4 11.1396C360.223 15.9758 372.776 24.1945 382.414 36.6056C397.751 56.3556 405.361 78.5879 403.298 103.673C402.797 109.77 400.836 115.747 399.546 121.779C398.672 121.58 397.8 121.38 396.926 121.181Z" fill="#F4D36D"/>
<path d="M332.184 42.6542C352.611 52.4398 368.171 79.9235 364.734 97.7372C360.317 87.6316 356.494 77.3603 351.435 67.7392C346.507 58.3682 336.852 52.2935 332.184 42.6542Z" fill="#F4D36D"/>
<path d="M183.467 64.7554C186.623 65.0213 189.479 64.8101 192.063 65.5476C226.348 75.332 260.611 85.193 294.836 95.1831C301.504 97.1294 302.158 98.4681 300.327 106.375C295.552 127.006 290.682 147.616 285.579 168.168C275.039 210.622 264.324 253.033 253.658 295.457C253.493 296.11 253.029 296.688 252.703 297.301C245.694 298.087 149.581 275.75 136.759 270.297C132.625 260.378 135.288 250.215 137.039 240.256C145.314 193.196 160.18 147.845 173.319 102.048C176.81 89.8789 179.977 77.6174 183.467 64.7554ZM248.157 292.564C268.076 228.772 279.889 164.977 295.857 101.779C259.53 89.1979 224.405 77.8654 188.757 70.8981C187.512 72.2511 187.135 72.4744 187.051 72.7782C173.952 120.081 160.473 167.283 148.01 214.752C143.505 231.911 141.438 249.708 138.499 265.885C175.902 274.985 211.806 283.72 248.157 292.564Z" fill="#F4D36D"/>
<path d="M199.145 318.32C195.489 316.856 191.486 315.253 187.483 313.649C187.61 313.085 187.736 312.521 187.862 311.957C190.781 311.767 193.7 311.578 196.369 311.404C202.2 298.307 195.074 296.717 184.165 294.076C177.7 292.511 174.634 295.916 173.288 306.022C176.598 307.736 180.086 309.543 184.338 311.746C176.916 314.211 171.929 313.104 168.976 308.936C165.874 304.556 166.898 300.343 169.475 296.132C173.865 288.96 178.654 287.089 187.316 289.305C204.531 293.708 207.621 300.112 200.556 316.788C200.428 317.09 200.093 317.305 199.145 318.32Z" fill="#F4D36D"/>
</svg>
