<svg width="30" height="30" viewBox="0 0 30 30" fill="none" xmlns="http://www.w3.org/2000/svg">
<path d="M22.6576 17.8361C20.5724 17.8361 18.8761 19.5325 18.8761 21.6176C18.8761 23.7028 20.5724 25.3992 22.6576 25.3992C24.7431 25.3992 26.4391 23.7028 26.4391 21.6176C26.4391 19.5325 24.7428 17.8361 22.6576 17.8361ZM22.6576 23.5084C21.6149 23.5084 20.7669 22.6604 20.7669 21.6176C20.7669 20.5749 21.6149 19.7269 22.6576 19.7269C23.7004 19.7269 24.5484 20.5749 24.5484 21.6176C24.5484 22.6604 23.7004 23.5084 22.6576 23.5084Z" fill="#F2F2F2"/>
<path d="M9.73746 17.8361C7.65228 17.8361 5.95593 19.5325 5.95593 21.6176C5.95593 23.7028 7.65228 25.3992 9.73746 25.3992C11.8226 25.3992 13.519 23.7028 13.519 21.6176C13.519 19.5325 11.8226 17.8361 9.73746 17.8361ZM9.73746 23.5084C8.69472 23.5084 7.84669 22.6604 7.84669 21.6176C7.84669 20.5749 8.69472 19.7269 9.73746 19.7269C10.7799 19.7269 11.6282 20.5749 11.6282 21.6176C11.6282 22.6604 10.7802 23.5084 9.73746 23.5084Z" fill="#F2F2F2"/>
<path d="M25.204 7.01221C25.0433 6.69299 24.7165 6.49161 24.3591 6.49161H19.3801V8.38237H23.7761L26.3504 13.5025L28.0401 12.6529L25.204 7.01221Z" fill="#F2F2F2"/>
<path d="M19.8216 20.7038H12.6682V22.5946H19.8216V20.7038Z" fill="#F2F2F2"/>
<path d="M6.90108 20.7038H3.62382C3.10163 20.7038 2.67847 21.127 2.67847 21.6491C2.67847 22.1713 3.10169 22.5945 3.62382 22.5945H6.90114C7.42333 22.5945 7.84649 22.1713 7.84649 21.6491C7.84649 21.127 7.42327 20.7038 6.90108 20.7038Z" fill="#F2F2F2"/>
<path d="M29.8013 14.9244L27.9418 12.5294C27.7631 12.2987 27.4874 12.1638 27.1952 12.1638H20.3255V5.54618C20.3255 5.02399 19.9023 4.60083 19.3801 4.60083H3.62382C3.10163 4.60083 2.67847 5.02405 2.67847 5.54618C2.67847 6.06831 3.10169 6.49153 3.62382 6.49153H18.4347V13.1092C18.4347 13.6314 18.8579 14.0545 19.3801 14.0545H26.7323L28.1091 15.828V20.7037H25.4935C24.9713 20.7037 24.5481 21.1269 24.5481 21.649C24.5481 22.1712 24.9714 22.5944 25.4935 22.5944H29.0544C29.5766 22.5944 29.9998 22.1712 29.9998 21.649V15.5042C29.9998 15.2943 29.9299 15.0901 29.8013 14.9244Z" fill="#F2F2F2"/>
<path d="M6.83819 15.9139H2.48942C1.96723 15.9139 1.54407 16.3371 1.54407 16.8592C1.54407 17.3814 1.96729 17.8046 2.48942 17.8046H6.83813C7.36032 17.8046 7.78348 17.3814 7.78348 16.8592C7.78354 16.3371 7.36032 15.9139 6.83819 15.9139Z" fill="#F2F2F2"/>
<path d="M9.0126 12.1953H0.945352C0.423223 12.1953 0 12.6186 0 13.1408C0 13.6629 0.423223 14.0861 0.945352 14.0861H9.0126C9.53479 14.0861 9.95795 13.6629 9.95795 13.1408C9.95795 12.6186 9.53479 12.1953 9.0126 12.1953Z" fill="#F2F2F2"/>
<path d="M10.5567 8.47687H2.48942C1.96723 8.47687 1.54407 8.90009 1.54407 9.42222C1.54407 9.94441 1.96729 10.3676 2.48942 10.3676H10.5567C11.0789 10.3676 11.502 9.94435 11.502 9.42222C11.5021 8.90009 11.0789 8.47687 10.5567 8.47687Z" fill="#F2F2F2"/>
</svg>
