<svg width="610" height="494" viewBox="0 0 610 494" fill="none" xmlns="http://www.w3.org/2000/svg">
<g clip-path="url(#clip0_492_11533)">
<path fill-rule="evenodd" clip-rule="evenodd" d="M439.968 237.234C445.726 240.113 447.453 247.599 452.635 251.629C452.06 255.084 451.484 258.539 450.908 261.418C448.029 263.721 445.15 265.449 442.847 267.176C443.998 275.813 452.635 280.996 460.121 276.965C463 275.237 466.455 274.086 468.758 272.358C471.061 270.631 472.789 268.328 475.092 266.024C476.244 266.6 477.971 267.176 479.699 267.752C482.578 268.904 484.881 267.176 486.608 265.449C487.184 264.873 486.608 262.57 486.033 261.418C484.305 259.115 482.002 256.812 479.699 253.932C479.123 253.932 478.547 253.932 477.395 253.932C475.092 251.629 475.668 249.326 477.971 247.023C477.395 246.447 477.395 246.447 477.395 246.447C471.637 245.871 471.637 245.295 472.789 240.113C473.941 236.082 472.789 233.203 471.061 229.748C469.91 230.9 468.758 232.052 466.455 233.779C465.879 230.324 464.728 228.021 465.303 226.294C466.455 220.535 465.303 215.353 460.697 211.898C463 207.292 464.152 202.685 460.697 198.079C463.576 194.048 466.455 189.442 469.334 185.411C471.637 187.714 471.637 190.593 475.092 191.169C476.244 191.169 476.82 193.472 477.395 195.2C477.971 196.351 477.395 198.079 477.971 199.806C479.123 204.989 480.274 205.564 486.033 204.413C483.153 200.958 482.578 196.351 482.578 191.745C483.153 183.684 483.729 175.622 482.002 167.561C480.85 160.651 477.971 153.741 472.789 147.408C469.91 150.287 467.031 153.741 463.576 156.62C462.424 157.772 461.273 158.348 460.121 158.348C458.394 158.348 458.969 156.62 458.394 156.045C457.242 154.317 455.515 153.166 452.635 150.862C450.332 153.741 448.605 156.62 446.302 159.5C442.847 158.924 438.816 157.772 438.24 152.59C432.482 156.045 432.482 156.045 428.451 152.59C427.3 153.741 426.724 156.045 427.876 159.5C426.148 158.924 424.997 158.924 424.997 158.348C424.421 157.196 424.421 154.893 423.269 154.893C421.542 154.317 419.238 154.893 417.511 154.893C415.784 154.893 413.48 154.317 411.177 154.317C411.753 157.772 411.177 161.227 407.722 163.53C406.571 158.924 405.419 155.469 407.722 151.438C403.692 149.711 400.237 146.256 395.054 147.983C395.63 149.135 396.206 149.711 396.782 150.862C394.479 152.59 392.751 153.741 390.448 151.438C386.993 147.407 387.569 147.983 382.387 145.68C380.083 144.528 377.78 142.801 376.628 141.074C374.901 138.77 374.325 135.891 373.174 133.588C377.204 132.436 378.356 135.315 380.659 137.043C385.266 131.861 381.235 127.254 380.659 122.648C377.204 123.223 374.325 123.799 371.446 124.951C371.446 123.799 371.446 122.072 371.446 121.496C370.87 120.344 370.295 118.617 369.143 118.617C365.688 118.041 365.112 115.162 363.961 112.283C366.264 112.859 367.415 112.859 369.143 112.859C369.719 111.707 369.719 110.556 370.295 109.404C371.446 109.98 372.022 111.131 373.749 112.859C373.749 112.859 375.477 113.435 377.204 112.859C384.114 110.556 384.114 110.556 387.569 116.89C388.72 114.01 391.024 114.586 393.327 115.162C394.479 115.162 396.782 115.162 397.933 114.01C399.085 112.859 397.933 111.131 396.782 109.98C396.782 109.98 396.782 109.404 396.782 108.828C401.388 107.101 401.964 109.98 401.964 115.162C405.419 112.283 407.722 110.556 409.45 108.828C412.329 109.98 415.208 110.556 417.511 111.131C419.814 111.707 420.966 113.435 420.39 115.738C419.814 117.465 418.663 119.769 418.087 121.496C417.511 123.223 416.935 124.375 416.935 125.527C419.814 126.102 422.693 127.254 424.997 127.254C429.603 127.83 434.21 128.982 438.816 129.557C445.15 129.557 452.06 130.133 458.394 131.861C460.121 132.436 462.424 131.285 464.152 131.285C464.152 130.709 464.728 130.133 464.728 130.133C468.182 133.588 472.213 137.619 475.668 141.074C476.244 141.649 476.244 142.225 476.244 142.225C482.002 144.528 484.305 150.862 488.912 154.317C494.094 158.348 499.276 162.379 506.186 162.954C506.762 162.954 506.762 163.53 507.338 163.53C510.792 162.954 507.913 168.137 511.368 167.561C514.247 166.985 515.399 169.288 516.55 171.592C510.792 173.895 511.944 178.501 513.671 183.108C510.792 184.259 508.489 184.835 505.61 185.987C509.641 188.29 512.52 191.169 516.55 191.745C521.157 192.897 525.763 191.745 530.37 190.018C530.946 190.018 530.946 186.563 530.946 186.563C528.067 185.411 529.218 183.108 529.218 181.38C528.642 176.774 528.067 172.743 528.067 168.137C528.067 165.258 529.218 163.53 532.673 163.53C535.552 163.53 539.007 162.379 541.886 162.379C543.614 162.379 545.341 162.954 548.22 162.954C549.948 161.227 552.251 158.348 554.554 157.196C557.433 156.045 560.312 155.469 564.343 154.893C560.312 150.862 555.706 149.711 551.099 147.408C546.493 145.104 545.341 139.346 539.583 137.043C539.583 140.498 539.007 143.953 539.007 147.408C533.825 147.408 529.218 147.408 524.036 147.408C525.763 139.922 517.702 139.346 515.975 134.74C517.702 133.588 520.005 132.436 522.884 130.709C519.43 129.557 517.126 128.406 515.399 128.406C513.096 127.83 511.368 125.527 513.096 124.375C516.551 120.92 513.671 118.041 513.671 115.162C519.43 110.556 519.43 109.98 513.671 105.373C518.278 103.646 521.733 100.767 522.309 95.0087C525.763 96.1604 528.067 95.5845 530.37 93.2813C533.249 90.978 537.28 89.8264 540.159 86.9474C543.038 84.6441 547.644 84.6441 551.675 84.0683C551.675 82.3409 551.675 80.6135 552.251 77.7344C553.402 80.0377 553.978 81.1892 554.554 82.3409C562.615 81.1892 563.767 79.4618 559.736 72.5521C563.191 73.1279 566.07 73.7037 568.949 74.2795C570.677 71.9763 569.525 70.8247 567.222 69.6731C563.191 67.9456 564.343 67.9456 565.494 63.9149C566.646 59.8843 569.525 60.4601 571.828 59.3084C572.404 59.8843 572.404 59.8843 572.98 60.4601C571.828 62.7633 570.101 64.4907 568.373 67.9456C572.404 67.3698 575.283 67.3698 577.586 66.2182C579.89 64.4908 582.769 69.673 585.072 65.6424C585.072 69.0972 587.375 70.2488 590.83 70.8247C598.316 71.9763 603.498 76.5828 608.104 81.7651C613.287 87.5232 616.166 93.8571 617.317 101.343C617.893 107.101 619.045 112.283 617.893 118.041C617.317 120.344 616.742 122.072 614.438 123.799C611.559 125.527 609.832 129.557 611.559 133.588C613.287 137.619 611.559 141.649 610.408 145.104C609.832 146.832 607.529 148.559 605.225 149.711C601.195 151.438 597.164 152.59 593.133 153.741C593.709 156.62 594.285 158.348 594.861 160.651C593.133 161.227 591.982 161.803 590.254 162.379C592.557 165.258 595.437 166.985 598.891 167.561C604.074 168.137 608.68 169.864 613.863 170.44C616.742 171.016 617.893 172.743 619.621 175.046C621.924 178.501 624.803 182.532 627.106 185.987C629.409 189.442 629.985 193.472 627.106 196.351C625.954 198.079 624.803 199.806 623.075 200.382C618.469 202.685 618.469 206.14 618.469 210.171C618.469 217.656 619.045 224.566 619.045 232.052C619.045 234.355 620.196 236.658 620.772 238.961C621.924 242.416 623.651 244.144 627.682 245.871C632.864 247.599 637.471 250.478 640.35 255.66C641.501 257.963 643.805 259.691 645.532 260.842C652.442 264.297 657.048 268.904 655.897 277.541C655.897 278.117 655.897 278.692 655.897 279.268C658.776 279.268 662.231 279.268 665.11 278.692C666.837 278.117 668.564 277.541 670.292 276.389C672.595 275.237 674.323 272.934 676.05 271.783C678.353 270.055 681.232 268.904 683.536 267.176C688.142 264.297 692.749 261.418 697.931 258.539C701.962 255.66 704.841 253.357 706.568 247.599C708.295 240.689 712.326 234.355 715.781 228.021C718.66 222.263 722.115 216.505 724.994 210.747C726.721 207.868 729.025 204.989 730.752 202.685C731.904 200.958 733.631 199.23 734.783 196.927C735.359 195.776 736.51 194.624 737.086 194.048C737.662 193.472 739.389 193.472 739.965 194.048C740.541 194.624 741.117 196.351 741.117 197.503C741.117 198.079 740.541 199.23 739.965 199.806C735.934 204.413 731.904 209.019 727.297 214.202C729.025 219.384 724.994 222.839 720.963 227.445C716.933 231.476 714.629 236.658 711.75 241.84C710.599 244.144 710.023 247.023 711.75 249.902C713.478 252.205 712.326 255.084 710.023 256.812C707.72 258.539 704.841 260.842 702.537 262.57C696.203 266.025 689.87 268.904 684.111 272.358C678.929 275.813 674.323 279.844 669.14 283.299C666.261 285.602 663.382 287.329 659.927 288.481C654.745 290.784 654.169 291.936 655.321 297.694C655.897 302.301 657.048 307.483 655.321 312.089C654.745 313.241 654.745 314.393 654.169 314.968C648.411 319.575 646.684 327.636 639.774 331.667C638.622 332.243 637.471 333.394 636.319 334.546C635.743 335.122 635.743 335.698 634.592 337.425C636.895 337.425 638.622 338.001 639.774 337.425C646.684 335.122 654.169 333.394 661.079 331.091C661.655 331.091 662.806 330.515 663.382 329.364C667.413 323.606 674.323 322.454 679.505 318.423C680.081 317.847 680.657 317.847 681.232 317.847C695.052 314.968 705.992 305.18 718.66 299.422C720.387 298.846 722.115 297.118 723.842 295.391C732.479 288.481 741.692 283.299 752.057 279.844C756.088 278.692 759.543 276.965 761.846 272.934C762.422 271.783 763.573 271.207 764.725 270.055C769.331 266.6 774.514 263.145 779.12 259.115C781.999 256.812 784.878 254.508 787.757 251.629C795.243 242.992 805.032 238.961 814.245 232.627C815.972 231.476 817.699 230.324 819.427 228.597C824.609 223.415 830.367 219.96 836.701 217.081C841.884 214.202 847.642 211.322 852.824 207.868C852.248 204.989 851.096 202.685 850.521 200.382C858.582 202.685 864.916 200.382 871.826 197.503C869.522 193.472 865.492 195.2 863.189 194.048C867.219 192.897 870.674 191.169 872.977 186.563C875.856 180.804 880.463 178.501 886.797 179.653C887.373 178.501 887.373 177.925 888.524 176.198C891.979 177.35 895.434 178.501 899.465 179.077C900.616 179.653 901.768 179.653 902.919 179.077C906.374 177.925 909.829 179.653 912.708 177.35C913.86 176.774 915.587 177.35 917.315 177.35C917.891 177.35 919.042 178.501 919.042 179.077C919.042 179.653 918.466 180.804 917.891 180.804C908.678 184.259 901.192 189.442 893.131 195.2C888.524 198.655 882.19 200.382 877.008 203.261C873.553 204.989 870.098 207.292 866.068 209.019C861.461 211.322 859.734 214.777 860.885 219.384C859.734 219.96 858.582 220.535 858.006 220.535C851.672 218.232 846.49 221.687 841.308 224.566C836.125 228.021 830.367 231.476 825.761 236.082C820.579 241.265 813.669 245.871 807.335 249.902C798.698 255.66 790.061 260.842 783.727 268.904C778.544 275.813 771.635 281.571 762.997 283.875C762.422 283.875 761.27 284.45 760.694 285.026C755.512 289.057 750.33 291.936 744.572 295.391C736.51 300.573 728.449 306.331 722.115 313.241C718.084 317.847 712.326 321.302 707.72 325.333C705.992 326.485 704.265 328.212 703.113 329.364C700.81 332.243 697.931 334.546 694.476 335.122C693.9 335.122 692.749 335.698 692.173 336.273C689.294 340.304 684.687 343.183 680.081 346.062C678.353 347.214 677.202 348.365 674.898 348.941C673.171 349.517 671.444 351.244 670.292 352.396C667.989 354.124 666.837 358.154 663.382 355.275H662.231C656.472 359.882 649.563 362.761 646.108 370.246C647.835 369.67 650.139 368.519 651.866 367.367C655.897 372.55 659.927 371.974 665.11 369.095C667.413 367.367 670.292 366.791 673.747 365.64C670.868 371.974 669.14 373.701 663.382 374.853C660.503 375.428 658.2 376.004 655.897 377.732C648.987 381.762 641.501 385.217 634.592 389.824C631.713 391.551 628.834 394.43 624.803 397.885C627.682 398.461 629.409 400.188 630.561 399.613C635.743 397.309 639.774 400.764 644.38 401.916C646.108 402.492 647.835 402.492 649.563 401.916C655.321 400.188 660.503 398.461 665.685 397.309C672.019 395.582 677.777 394.43 684.111 393.279C692.749 392.127 699.082 386.945 705.992 382.914C715.781 377.156 725.57 370.822 737.086 367.943C745.723 366.216 753.209 361.609 760.694 356.427C765.301 353.548 769.907 350.669 775.665 350.669C777.393 350.669 779.12 350.093 780.848 349.517C792.364 343.759 805.032 338.577 815.972 331.667C824.609 325.909 834.398 322.454 843.611 317.272C845.914 316.12 847.642 314.968 849.945 313.817C861.461 305.755 872.977 298.27 885.645 292.512C890.827 290.209 894.858 286.754 899.465 283.875C905.798 279.844 912.708 276.965 918.466 272.934C929.407 266.024 941.499 259.691 953.591 253.932C957.046 252.205 960.501 249.326 963.955 247.599C967.41 245.871 970.865 244.144 973.744 242.416C977.199 240.113 980.654 236.658 984.109 233.779C984.685 234.355 985.26 234.931 986.988 236.082C988.139 234.931 988.715 233.779 989.867 232.052C991.594 233.779 992.746 234.931 993.898 236.082C994.473 236.658 993.322 238.386 992.17 238.961C986.412 243.568 978.351 245.295 972.593 249.902C965.107 249.902 960.501 253.932 954.742 257.963C947.257 263.145 938.62 267.176 930.558 271.783C924.8 275.237 919.042 279.268 913.284 282.723C897.737 291.936 882.19 301.149 866.068 310.362C862.613 312.665 859.734 314.968 856.279 317.272C848.217 322.454 817.124 339.728 809.638 343.759C803.88 346.638 798.698 349.517 792.94 352.972C792.94 354.124 792.94 354.699 793.515 355.851C794.091 360.457 794.091 361.033 789.485 361.033C786.606 361.033 783.727 361.609 780.272 361.609C775.665 361.609 771.635 362.185 768.18 365.064C765.877 366.216 763.573 366.791 761.27 367.943C750.33 372.549 740.541 378.308 730.752 384.642C726.146 387.521 722.115 390.975 718.66 395.006C718.084 395.582 717.508 396.158 716.357 396.158C710.599 396.158 705.992 399.613 701.386 402.492C700.81 403.067 700.234 403.643 699.082 403.643C689.294 405.371 680.657 409.977 672.595 415.735C669.716 417.463 666.837 419.19 663.958 420.342C659.352 422.069 657.048 425.524 657.048 430.706C657.048 432.434 656.472 434.737 656.472 437.04C654.745 436.464 653.593 436.465 651.866 436.465C650.714 439.344 648.987 441.647 647.259 445.102C644.956 442.798 643.805 441.071 642.077 438.768C639.774 441.071 638.047 443.374 636.319 445.677C634.592 445.102 633.44 443.95 631.713 443.374H631.137C626.53 449.132 617.317 447.405 612.711 454.315C611.559 456.042 608.104 457.194 605.801 458.345C604.074 458.921 602.346 459.497 600.619 460.073C596.588 461.8 594.285 464.679 594.861 469.861C595.437 476.195 591.406 478.499 585.648 474.468C582.193 472.741 581.041 472.741 580.465 476.771C579.89 480.226 579.89 484.257 579.89 488.287C579.89 491.167 580.465 494.046 578.162 497.5C577.011 499.804 578.738 503.259 578.738 506.713C578.738 510.744 578.738 514.199 579.314 518.23C579.89 521.684 578.738 524.563 576.435 527.443C574.132 528.018 571.828 526.291 568.949 528.018C566.646 529.17 563.767 527.443 562.04 525.139C560.312 522.26 558.009 520.533 553.978 519.957C554.554 523.412 555.13 525.715 555.706 528.594C552.827 528.594 549.948 528.018 547.644 528.018C544.189 528.018 543.038 525.715 542.462 523.412C541.31 519.957 540.159 517.078 537.28 515.351C536.704 514.775 536.704 514.775 536.128 514.199C533.825 509.592 533.825 509.592 526.915 509.592C523.46 519.381 526.339 529.17 523.46 539.535C522.309 533.201 521.157 526.867 520.005 520.533C520.005 519.957 520.005 519.381 520.005 518.805C519.43 516.502 520.581 513.047 517.702 511.896C514.823 510.744 513.671 513.623 511.944 514.775C509.641 516.502 507.913 518.23 505.61 520.533C504.458 518.805 503.307 517.078 501.579 515.351C498.7 516.502 495.821 517.078 492.942 518.23C491.791 518.805 490.063 519.957 490.063 521.109C489.487 523.412 491.791 522.26 492.942 522.836C495.245 524.564 496.973 526.867 499.276 529.17C495.245 534.928 490.639 541.262 486.033 547.596C483.153 544.717 483.729 542.414 484.881 540.11C486.608 537.231 488.912 533.776 490.639 530.897C491.215 529.746 491.791 528.594 491.215 527.443C490.639 526.867 488.912 525.715 487.76 526.291C482.578 527.443 476.82 526.291 475.092 533.776C474.516 535.504 472.213 537.231 471.061 538.383C468.758 540.686 465.879 542.414 464.152 545.869C462.424 549.323 458.969 548.748 456.09 548.172C456.09 544.141 459.545 542.414 461.273 540.11C462.424 538.959 464.152 537.231 465.303 536.08C469.334 533.201 471.637 528.594 473.94 524.563C477.971 518.23 484.305 514.775 489.487 509.592C491.215 508.441 491.791 506.713 492.366 504.986C492.942 500.955 490.063 499.804 487.184 498.652C484.881 496.925 483.153 498.076 480.85 499.804C477.395 502.683 473.365 504.986 469.334 507.865C467.031 509.592 465.303 510.744 463.576 512.471C460.121 515.926 457.242 519.381 453.787 522.26C452.06 523.412 449.181 523.412 446.302 523.412C452.06 514.199 458.969 506.138 465.879 496.349C452.06 499.228 439.392 494.046 426.148 494.046C422.117 494.046 418.087 491.742 414.632 490.015C410.025 487.712 406.571 482.529 400.813 481.378C399.661 481.378 399.085 479.65 398.509 478.499C395.63 475.044 392.175 471.589 388.145 467.558C389.872 463.528 384.69 461.8 384.114 457.194C382.387 457.769 380.659 458.345 378.932 458.921C376.628 458.345 377.204 452.011 380.083 446.253C379.508 445.677 378.356 444.526 377.78 443.95C373.174 445.677 370.295 450.284 365.112 450.86C363.961 450.86 363.385 453.739 362.233 454.89C360.506 454.89 358.203 454.315 357.051 455.466C351.869 459.497 346.686 457.769 341.504 455.466C339.201 454.315 336.898 453.739 334.018 454.89C333.443 454.89 332.291 455.466 332.291 455.466C327.685 452.011 322.502 453.739 317.32 454.315C314.441 454.315 312.138 453.739 309.259 453.163C303.501 451.436 297.167 449.132 291.984 455.466C290.257 452.011 287.378 450.284 283.923 450.86C279.892 450.86 276.437 450.284 272.407 450.284C264.921 450.284 264.921 450.284 262.618 458.345C268.952 461.8 275.862 464.103 283.347 462.952C286.226 466.982 285.65 469.861 282.196 472.741C277.013 473.316 271.831 472.165 267.8 468.134C263.194 463.528 256.86 463.528 250.526 462.952C248.223 457.769 253.981 456.042 255.708 452.011C253.981 449.708 251.102 449.708 248.798 449.708C247.071 449.708 245.344 449.708 243.616 449.708C240.737 449.708 239.01 447.405 239.586 445.102C239.586 442.798 241.313 440.495 242.465 438.768C244.192 437.04 245.919 438.192 247.647 439.919C255.132 446.253 263.77 445.102 272.407 443.95C275.286 443.374 277.589 443.374 280.468 444.526C282.771 445.677 286.226 446.253 289.105 446.829C289.681 445.102 290.257 443.374 290.833 442.223C293.136 443.374 295.439 445.102 297.742 446.253C308.683 450.284 320.199 452.011 332.291 450.86C336.322 450.284 339.777 451.436 343.807 450.86C347.838 450.86 351.293 449.708 354.748 449.708H355.323C358.203 443.374 365.112 443.374 370.295 441.071C375.477 438.768 380.659 435.889 384.69 431.858C387.569 429.555 389.872 426.1 391.024 422.645C391.6 420.918 390.448 418.038 389.872 415.159C386.417 417.463 384.114 420.342 380.659 418.614C380.083 418.039 380.083 416.311 379.508 414.584C376.628 412.28 374.325 414.008 371.446 416.887C369.719 419.19 366.264 420.342 363.385 422.069C364.536 424.372 365.112 426.1 366.264 428.403C364.536 429.555 362.809 430.706 361.082 431.858C359.93 430.706 359.354 430.131 357.627 428.979C355.323 431.858 353.02 434.737 350.141 438.768C350.141 435.889 350.141 434.161 349.565 432.434C345.535 431.858 341.504 430.706 337.473 430.131C338.049 429.555 339.201 428.979 339.777 428.979C341.504 428.403 343.231 428.403 344.383 427.827C346.111 426.1 344.383 424.948 343.807 423.797C343.231 422.645 344.383 420.918 344.959 419.766C345.535 418.039 347.262 416.887 348.99 414.008C346.686 414.584 344.959 414.008 344.383 414.584C343.231 416.887 341.504 417.463 339.201 416.311C336.898 415.16 336.322 413.432 336.322 411.129C336.322 409.977 336.898 408.826 336.898 408.25C332.291 406.522 326.533 407.098 323.654 401.34C324.23 400.188 324.806 399.613 325.381 397.885C322.502 398.461 320.199 398.461 317.896 399.037C319.047 396.734 319.623 395.006 320.199 392.703C327.109 392.127 333.443 398.461 340.352 395.006C340.352 394.43 340.352 393.854 340.352 393.854C331.715 393.279 323.654 389.248 314.441 390.975C305.804 392.703 296.591 392.703 287.378 391.551C281.62 390.975 275.862 390.4 270.103 391.551C268.376 392.127 266.649 390.975 264.921 390.4C262.618 389.248 262.042 387.521 262.618 385.217C263.194 383.49 264.345 382.338 266.649 382.914C268.376 382.914 270.679 382.914 272.407 383.49C278.165 386.945 284.499 386.369 290.833 386.369C294.288 386.369 297.742 386.945 301.197 387.521C304.076 387.521 306.955 388.096 309.834 387.521C315.593 385.793 321.351 385.793 327.109 387.521C333.443 389.824 339.777 389.824 346.11 389.248C347.262 384.641 344.383 383.49 341.504 382.338C336.898 380.611 332.867 379.459 328.26 378.308C328.26 372.549 328.836 371.974 333.443 373.701C338.625 375.429 343.231 376.58 348.414 374.853C350.141 371.398 348.414 369.095 346.11 367.943C337.473 362.761 331.715 353.548 321.926 349.517C321.351 349.517 320.775 348.941 320.199 348.365C314.441 342.032 306.955 339.152 298.894 337.425C294.863 336.849 291.408 334.546 287.378 333.394C285.075 332.819 282.771 331.091 280.468 333.394C278.165 335.122 275.286 333.97 273.558 331.091C269.528 323.03 261.466 322.454 253.405 321.302C248.223 320.727 242.465 320.151 237.282 319.575C233.827 318.999 232.676 317.272 232.676 313.817C232.676 310.362 234.403 309.786 237.282 309.21C239.586 309.21 241.889 309.21 244.192 310.362C249.95 312.665 255.708 314.968 261.466 316.696C272.983 320.727 283.923 325.909 295.439 331.091C297.167 331.667 298.318 332.243 300.046 332.819C309.834 335.122 319.047 338.577 326.533 346.062C327.685 347.214 329.412 347.79 331.139 348.941C337.473 351.82 344.383 354.699 350.717 358.154C351.293 358.154 351.293 358.73 351.869 358.73C358.778 358.73 363.961 363.337 369.143 366.791C369.719 367.367 370.295 367.367 371.446 367.367C375.477 357.578 372.022 348.941 369.719 339.152C368.567 338.577 366.84 337.425 365.112 336.849C365.112 337.425 365.112 337.425 365.112 338.001C362.809 338.577 359.93 338.577 357.051 339.152C355.899 342.607 360.506 347.214 356.475 350.093C352.444 348.365 347.838 347.214 344.959 344.335C342.08 341.456 338.625 339.152 334.594 337.425C333.443 336.849 332.867 335.122 332.291 333.97C331.139 331.667 329.988 328.788 328.836 325.909C328.836 324.181 329.412 321.878 329.988 319.575C328.26 318.999 326.533 318.423 324.805 317.847C322.502 313.817 324.23 310.362 327.685 308.635C332.867 305.755 338.049 302.301 342.08 297.694C342.656 297.118 343.807 296.542 345.535 295.967C344.383 293.663 343.807 291.936 342.656 290.209C344.383 285.602 348.99 290.209 351.869 286.754C351.293 285.602 350.141 284.45 348.99 282.723C350.141 281.571 351.293 279.844 353.02 277.541C352.444 275.237 351.869 272.358 350.717 269.479C347.838 269.479 346.11 269.479 343.231 269.479C342.08 267.752 339.201 266.024 342.656 263.145C343.807 261.994 342.08 259.115 339.777 259.691C338.049 260.266 336.322 261.418 334.594 261.994C331.715 263.145 330.564 256.236 327.109 260.842C327.109 256.236 327.109 256.236 332.291 255.084C330.564 252.781 331.139 249.326 326.533 249.326C322.502 257.387 314.441 257.963 305.804 257.963C306.38 254.508 306.38 252.205 306.955 249.326C305.228 248.174 303.501 247.023 301.197 245.871C302.349 244.144 303.5 242.992 304.652 241.84C303.5 239.537 302.925 237.234 301.773 234.931C299.47 234.931 297.167 234.931 294.863 234.931C298.894 230.9 299.47 224.566 305.228 222.263C304.076 219.96 304.076 216.505 306.955 216.505C310.986 216.505 312.138 213.626 315.017 210.747C310.986 204.413 306.955 198.079 304.076 193.472C298.318 192.321 293.712 191.745 289.105 191.169C287.954 187.138 286.226 183.108 286.802 179.653C287.378 175.046 285.075 172.743 282.771 170.44C279.892 166.985 279.316 165.833 281.62 163.53C284.499 161.227 288.529 161.803 290.257 164.682C291.408 166.409 292.56 168.137 293.712 170.44C294.288 171.592 294.863 172.743 296.015 173.319C300.046 175.622 302.349 179.077 304.076 183.684C305.228 185.987 307.531 187.138 310.41 188.866C310.986 192.897 312.713 196.927 315.017 200.958C318.472 207.868 322.502 214.202 327.685 219.96C327.685 220.535 328.26 220.535 328.26 221.111C327.685 229.748 334.018 234.931 338.625 241.265C340.928 244.144 342.656 247.023 343.807 249.902C346.111 256.812 351.293 261.418 357.051 265.449C363.385 270.055 367.991 275.813 372.022 282.723C373.174 284.45 373.174 287.329 373.174 289.633C373.174 295.391 374.325 299.997 378.356 304.604C379.508 306.331 381.235 308.634 381.235 310.362C380.659 315.544 383.538 319.575 384.69 323.606C385.841 326.485 386.417 329.364 386.417 332.243C386.993 339.152 388.72 346.062 388.72 352.972C388.72 360.457 391.024 367.943 397.933 373.125C397.358 371.398 396.782 369.095 395.63 367.943C393.327 364.488 393.327 362.185 396.206 358.73C398.509 355.851 400.237 354.699 403.116 354.124C405.995 349.517 408.874 345.486 407.722 340.304C407.146 338.577 406.571 336.849 405.419 335.122C403.116 331.667 402.54 328.212 405.419 325.333C412.905 318.423 414.632 309.786 415.784 300.573C416.359 295.391 416.359 290.784 413.48 286.754C411.753 284.45 411.177 281.571 410.601 279.268C408.874 271.783 407.146 263.721 405.419 256.236C405.419 255.084 404.843 254.508 404.267 253.357C403.692 249.902 401.964 246.447 402.54 242.416C403.116 238.386 400.813 234.355 399.661 230.324C399.085 228.021 397.933 225.718 397.933 223.414C397.358 218.232 398.509 217.081 403.692 217.656C407.722 218.232 411.753 218.808 416.359 219.96C416.359 222.263 417.511 223.414 419.814 223.99C423.845 225.142 425.572 227.445 425.572 232.052C422.693 232.627 419.814 232.627 416.359 233.203C414.632 231.476 412.905 229.173 411.177 227.445C408.298 229.748 407.146 232.627 408.874 234.931C411.177 238.961 411.753 243.568 413.48 248.174C414.056 248.75 415.208 249.326 416.935 250.478C417.511 248.174 418.087 246.447 418.663 244.72C420.966 245.871 422.118 248.174 421.542 249.902C421.542 255.66 423.269 256.812 429.027 256.236C435.937 240.689 438.24 240.113 439.968 237.234Z" fill="#303030"/>
<path fill-rule="evenodd" clip-rule="evenodd" d="M202.728 266.6C203.304 270.631 203.88 273.51 204.456 276.965C210.214 277.541 207.91 271.207 211.365 270.055C213.093 270.631 213.669 274.086 216.548 272.934C218.851 272.358 221.154 271.783 224.033 272.358C222.306 273.51 220.578 274.662 218.275 275.813C215.396 276.965 213.669 278.116 215.972 281.571C211.365 282.723 207.335 283.875 202.728 285.026C202.152 285.026 201.001 285.026 200.425 285.026C192.364 282.723 191.788 282.723 187.181 287.905C185.454 285.602 183.726 283.875 185.454 280.996C186.03 279.844 184.302 277.541 183.726 275.813C181.423 276.389 179.12 277.541 176.241 278.692C176.241 276.965 176.241 276.389 176.817 274.662C175.089 274.086 173.362 274.086 171.059 273.51C172.21 272.934 172.786 271.783 173.362 271.783C178.544 271.207 184.302 272.358 189.485 270.631C194.667 268.328 198.122 266.6 202.728 266.6Z" fill="#303030"/>
<path fill-rule="evenodd" clip-rule="evenodd" d="M449.76 107.677C450.336 111.131 450.911 114.01 451.487 117.465C449.76 117.465 447.457 115.162 445.729 118.041C445.729 118.041 443.426 117.465 441.699 116.89C441.699 115.162 441.699 114.011 442.274 112.283C438.819 112.283 435.94 112.859 433.637 112.859C430.182 111.131 434.213 106.525 429.607 105.949C426.727 105.373 427.303 101.343 425 99.6152C427.303 99.0394 429.606 98.4636 431.91 97.8878C430.182 95.0088 424.424 92.7055 429.031 87.5232C431.334 90.4023 433.637 93.2813 436.516 96.7362C437.092 96.7362 438.244 96.7362 439.971 96.7362C444.578 97.312 445.153 99.6152 442.85 103.07C441.699 104.798 439.971 105.949 441.699 107.101C442.85 108.252 444.578 108.252 446.305 108.252C447.457 108.828 448.608 107.677 449.76 107.677Z" fill="#303030"/>
<path fill-rule="evenodd" clip-rule="evenodd" d="M559.739 49.5198C557.436 42.6101 559.739 36.8519 560.891 31.0938C561.467 27.0631 564.346 26.4874 570.104 29.3664C570.104 31.0938 567.225 34.5487 571.831 35.7003C572.407 35.7003 572.983 38.0035 572.407 39.731C572.407 40.8826 571.256 41.4584 570.68 42.0342C568.377 45.4891 563.77 47.2165 559.739 49.5198Z" fill="#303030"/>
<path fill-rule="evenodd" clip-rule="evenodd" d="M327.68 121.496C325.953 123.799 324.225 126.678 321.346 130.709C321.346 126.678 316.74 124.375 319.043 120.92C314.436 116.314 308.678 123.224 303.496 118.617C305.224 118.041 305.799 117.465 306.951 116.89C310.406 116.89 313.285 118.617 316.74 116.314C317.316 115.738 319.619 116.89 320.77 118.041C323.074 118.617 325.377 119.769 327.68 121.496Z" fill="#303030"/>
<path fill-rule="evenodd" clip-rule="evenodd" d="M457.244 97.312C457.244 94.4329 457.244 92.1297 457.244 88.6748C461.275 86.3716 461.275 86.3716 467.033 89.2507C466.457 90.4023 463.578 95.0087 463.002 96.7362C461.275 96.7362 459.547 97.312 457.244 97.312Z" fill="#303030"/>
<path fill-rule="evenodd" clip-rule="evenodd" d="M329.985 93.8571C332.288 93.8571 334.591 93.2813 336.894 93.2813C336.319 96.1604 335.743 98.4636 335.167 101.343C334.015 100.767 332.864 100.191 331.712 99.6152C329.409 104.222 329.409 108.252 331.712 112.859C328.833 110.556 327.681 107.677 328.257 103.646C328.833 100.767 329.409 97.312 329.985 93.8571Z" fill="#303030"/>
<path fill-rule="evenodd" clip-rule="evenodd" d="M198.701 333.394C199.277 332.243 200.429 331.667 201.004 330.515C202.156 327.06 203.883 326.485 206.187 328.788C208.49 331.667 207.914 334.546 206.187 337.425C203.883 336.273 201.58 335.122 198.701 333.394Z" fill="#303030"/>
<path fill-rule="evenodd" clip-rule="evenodd" d="M321.354 408.25C323.657 407.098 326.536 406.522 328.839 405.371C328.839 405.947 329.415 405.947 329.415 406.522C328.839 407.674 327.687 409.401 327.112 411.129C330.566 411.705 333.446 412.856 336.9 413.432C331.142 413.432 325.96 413.432 321.354 409.977C321.354 409.401 321.354 408.826 321.354 408.25Z" fill="#303030"/>
<path fill-rule="evenodd" clip-rule="evenodd" d="M511.363 66.794C510.787 70.8247 510.787 74.8554 510.212 78.8861C510.212 79.4619 507.908 80.6135 506.757 80.6135C506.181 80.6135 505.029 78.3103 505.029 77.7345C507.908 74.8554 507.908 71.4005 507.908 67.9456C507.908 67.3698 508.484 66.2182 509.06 65.6424C509.636 66.2182 510.212 66.794 511.363 66.794Z" fill="#303030"/>
<path fill-rule="evenodd" clip-rule="evenodd" d="M494.668 76.5828C493.517 73.7037 492.941 71.9763 492.365 69.6731C492.365 68.5215 493.517 67.3699 494.093 66.2182C495.244 66.794 496.972 67.3698 497.548 68.5214C499.851 71.4005 498.123 73.7037 494.668 76.5828Z" fill="#303030"/>
<path fill-rule="evenodd" clip-rule="evenodd" d="M457.237 97.3119C457.813 99.6152 457.813 101.343 458.389 104.797C454.934 103.07 452.631 102.494 449.752 100.767C449.752 99.6152 449.752 98.4635 449.752 96.7361C453.207 97.3119 455.51 97.3119 457.237 97.3119Z" fill="#303030"/>
<path fill-rule="evenodd" clip-rule="evenodd" d="M530.943 62.7634C530.943 60.4601 530.367 58.1569 530.367 55.2779C533.246 55.2779 534.974 55.8537 537.853 55.8537C536.125 58.7327 534.398 61.036 533.246 63.3392C532.095 63.3392 531.519 63.3392 530.943 62.7634Z" fill="#303030"/>
<path fill-rule="evenodd" clip-rule="evenodd" d="M164.729 209.595C169.911 209.019 173.366 208.443 177.972 207.292C177.972 208.443 178.548 210.171 177.972 210.747C176.821 212.474 176.245 210.747 175.093 210.171C174.517 210.171 173.366 210.171 172.79 210.747C170.487 213.05 168.183 211.322 164.729 209.595Z" fill="#303030"/>
<path fill-rule="evenodd" clip-rule="evenodd" d="M202.736 157.772C200.432 161.227 199.281 162.954 197.553 165.258C196.402 164.106 194.674 162.954 192.371 160.651C195.826 159.5 198.705 158.924 202.736 157.772Z" fill="#303030"/>
<path fill-rule="evenodd" clip-rule="evenodd" d="M545.918 65.0665C543.615 66.794 541.887 67.9456 540.16 69.0972C537.857 66.794 537.857 65.0666 539.008 63.3391C541.312 61.6117 543.039 63.3391 545.918 65.0665Z" fill="#303030"/>
<path fill-rule="evenodd" clip-rule="evenodd" d="M498.127 5.18226C498.127 3.45483 497.551 2.30324 497.551 0C500.43 0 502.733 0.575802 505.612 0.575802C505.612 1.15161 505.612 1.1516 505.612 1.72741C503.309 2.87903 501.006 4.03064 498.127 5.18226Z" fill="#303030"/>
<path fill-rule="evenodd" clip-rule="evenodd" d="M145.152 247.599C144.576 244.72 144 242.416 144 239.537C149.758 241.841 149.758 242.992 145.152 247.599Z" fill="#303030"/>
<path fill-rule="evenodd" clip-rule="evenodd" d="M246.5 379.459C249.955 378.883 251.682 379.459 251.106 382.914C251.106 384.066 249.379 385.217 248.803 385.217C245.348 384.642 247.652 381.762 246.5 379.459Z" fill="#303030"/>
<path fill-rule="evenodd" clip-rule="evenodd" d="M237.275 453.163C239.003 450.86 240.73 449.132 242.458 450.86C243.609 452.011 243.033 453.739 243.033 456.618C240.154 455.466 239.003 454.315 237.275 453.163Z" fill="#303030"/>
<path fill-rule="evenodd" clip-rule="evenodd" d="M526.916 76.5828C525.764 77.7344 525.189 78.8861 524.037 80.0377C522.885 78.3102 521.734 76.5828 520.582 74.8554L521.158 74.2796C522.885 75.4312 524.613 76.007 526.916 76.5828Z" fill="#303030"/>
<path fill-rule="evenodd" clip-rule="evenodd" d="M170.49 242.416C168.187 242.416 165.883 242.992 163.58 242.992C163.58 242.416 163.58 241.84 163.58 241.265C165.883 240.113 168.187 238.961 171.066 240.689C170.49 241.265 170.49 241.84 170.49 242.416Z" fill="#303030"/>
<path fill-rule="evenodd" clip-rule="evenodd" d="M373.75 225.142C376.629 225.142 378.356 225.142 380.084 225.142C378.356 229.749 378.356 229.749 373.75 225.142Z" fill="#303030"/>
<path fill-rule="evenodd" clip-rule="evenodd" d="M203.307 147.983C201.003 150.287 199.852 151.438 198.124 152.59C197.548 148.559 197.548 148.559 203.307 147.983Z" fill="#303030"/>
<path fill-rule="evenodd" clip-rule="evenodd" d="M320.201 336.849C317.322 338.577 315.594 339.728 313.291 341.456C313.867 336.849 313.867 336.274 320.201 336.849Z" fill="#303030"/>
<path fill-rule="evenodd" clip-rule="evenodd" d="M532.101 81.7651C531.525 84.0684 530.949 85.22 530.373 86.9474C530.373 86.9474 528.646 86.9475 528.07 86.3716C527.494 84.0684 528.07 82.3409 532.101 81.7651Z" fill="#303030"/>
<path fill-rule="evenodd" clip-rule="evenodd" d="M178.549 230.9C182.004 230.9 184.883 230.9 187.762 230.9C182.004 233.779 182.004 233.779 178.549 230.9Z" fill="#303030"/>
<path fill-rule="evenodd" clip-rule="evenodd" d="M324.803 194.048C324.227 192.321 323.652 190.593 322.5 189.442C324.803 190.018 327.682 190.593 326.531 193.472C325.955 193.472 325.379 194.048 324.803 194.048Z" fill="#303030"/>
<path fill-rule="evenodd" clip-rule="evenodd" d="M303.503 120.92C300.624 120.344 298.321 120.344 296.593 119.769C296.593 119.769 296.593 119.193 296.018 119.193C297.745 116.314 297.745 116.314 303.503 120.92Z" fill="#303030"/>
<path fill-rule="evenodd" clip-rule="evenodd" d="M575.283 45.4891C576.435 43.1858 577.586 40.8826 578.738 38.0035C579.314 43.7616 579.314 43.7616 575.283 45.4891Z" fill="#303030"/>
<path fill-rule="evenodd" clip-rule="evenodd" d="M193.516 334.546C192.94 336.849 192.364 338.577 191.789 340.88C189.485 337.425 189.485 337.425 193.516 334.546Z" fill="#303030"/>
<path fill-rule="evenodd" clip-rule="evenodd" d="M325.38 348.941C323.652 350.093 321.925 352.396 320.197 347.79C321.925 347.79 323.652 347.79 324.804 347.214C325.38 347.79 325.38 348.365 325.38 348.941Z" fill="#303030"/>
<path fill-rule="evenodd" clip-rule="evenodd" d="M516.552 84.0684C515.4 86.9475 514.249 88.0991 511.945 85.22C514.249 84.6442 515.4 84.0684 516.552 84.0684Z" fill="#303030"/>
<path fill-rule="evenodd" clip-rule="evenodd" d="M520.003 10.3646C518.852 10.9404 518.276 12.092 517.7 11.5162C517.124 11.5162 515.973 10.9404 515.973 10.3646C515.973 9.78877 517.124 8.63718 517.124 8.63718C517.7 8.63718 518.276 9.78877 520.003 10.3646Z" fill="#303030"/>
<path fill-rule="evenodd" clip-rule="evenodd" d="M439.967 236.658C438.24 236.658 436.512 236.658 434.209 236.658C435.936 234.355 435.936 234.355 439.967 236.658Z" fill="#303030"/>
<path fill-rule="evenodd" clip-rule="evenodd" d="M496.391 82.9167C500.997 84.0683 499.845 86.3716 499.845 89.2506C498.694 86.9474 497.542 85.7957 496.391 82.9167Z" fill="#303030"/>
<path fill-rule="evenodd" clip-rule="evenodd" d="M271.831 395.006C271.831 396.158 271.255 397.885 271.255 399.037C270.679 399.037 270.679 399.037 270.104 399.037C270.104 397.885 270.104 396.158 270.679 395.006C271.255 394.43 271.831 395.006 271.831 395.006Z" fill="#303030"/>
<path fill-rule="evenodd" clip-rule="evenodd" d="M416.36 39.1551C415.784 38.0035 414.057 36.8519 414.057 36.2761C414.632 34.5486 415.784 35.1244 416.936 36.2761C417.512 36.8519 417.511 37.4277 417.511 38.0035C417.511 38.5793 416.936 38.5793 416.36 39.1551Z" fill="#303030"/>
<path fill-rule="evenodd" clip-rule="evenodd" d="M505.612 13.8195C505.612 14.9711 505.036 16.6986 505.036 18.426C501.005 16.1228 504.46 14.9711 504.46 13.8195C504.46 13.2437 505.036 13.8195 505.612 13.8195Z" fill="#303030"/>
<path fill-rule="evenodd" clip-rule="evenodd" d="M437.664 34.5486C441.119 34.5486 441.119 34.5486 441.695 38.0035C440.543 37.4277 439.391 36.2761 437.664 34.5486Z" fill="#303030"/>
<path fill-rule="evenodd" clip-rule="evenodd" d="M468.753 236.658C468.753 237.81 468.177 239.537 468.177 240.689C467.601 240.689 467.601 240.689 467.025 240.689C467.025 239.537 467.025 237.81 467.025 236.658C467.601 236.658 468.177 236.658 468.753 236.658Z" fill="#303030"/>
<path fill-rule="evenodd" clip-rule="evenodd" d="M452.632 266.6C453.208 267.752 453.784 268.904 454.359 270.055C450.329 270.631 450.905 268.904 452.632 266.6Z" fill="#303030"/>
<path fill-rule="evenodd" clip-rule="evenodd" d="M316.746 351.82C315.594 351.82 314.443 352.396 313.291 352.396C313.291 351.82 313.291 351.245 313.291 351.245C314.443 351.245 315.594 350.669 316.746 350.669C316.746 350.669 316.746 351.245 316.746 351.82Z" fill="#303030"/>
<path fill-rule="evenodd" clip-rule="evenodd" d="M465.874 121.496C466.45 122.648 467.026 123.799 467.602 124.951C467.026 124.951 467.026 125.527 466.45 125.527C465.874 124.375 465.298 123.224 464.723 122.072C465.298 121.496 465.874 121.496 465.874 121.496Z" fill="#303030"/>
<path fill-rule="evenodd" clip-rule="evenodd" d="M229.797 293.664C229.797 291.936 229.797 290.784 229.797 289.057C232.1 291.936 232.1 291.936 229.797 293.664Z" fill="#303030"/>
<path d="M397.154 213.786C388.904 209.21 380.058 205.094 372.19 199.894C354.051 187.89 337.23 173.31 317.816 163.292C309.553 158.974 297.848 156.281 288.04 153.757C284.794 152.921 281.752 151.551 278.535 150.634C276.213 149.972 273.815 149.674 271.55 148.828C265.463 146.555 259.978 142.207 254.587 138.671C244.281 131.91 236.004 122.283 226.256 114.734C221.619 111.143 215.087 108.709 210.038 113.041C206.004 116.503 205.069 122.251 205.303 127.244C195.141 115.744 182.995 106.001 172.025 95.2588C169.139 92.4325 166.013 89.864 163.084 87.0851C160.655 84.7807 158.187 81.4799 154.778 80.5807C148.737 78.9872 140.82 87.2472 136.696 89.8581C123.887 97.9074 111.441 106.14 99.4542 115.366C93.4503 119.987 86.1826 122.731 81.294 128.675C80.8021 129.273 80.3765 129.986 79.8072 130.517C78.8667 131.395 78.2864 131.26 77.386 131.839C76.3115 132.528 75.3728 133.327 75.464 134.751C75.6631 137.864 81.9675 139.053 84.3558 140.362C81.5091 142.725 78.605 145.004 75.875 147.506C74.1866 149.054 70.2286 151.856 70.7682 154.498C71.3727 157.457 75.666 157.854 77.9558 158.456C81.6942 159.438 85.3712 160.63 89.0822 161.707C86.9137 164.043 85.6603 168.626 84.303 171.45C82.8124 174.552 77.47 180.643 80.9344 183.774C83.6959 186.27 91.9549 184.069 95.4859 183.839C100.794 183.493 106.012 183.405 111.29 184.104C105.092 185.031 96.5248 186.165 94.3339 193.107C91.9805 200.564 99.3124 206.139 105.74 208.021C98.9834 210.555 94.442 217.224 97.9308 224.197C101.136 230.603 108.034 234.847 114.922 236.309C110.849 240.06 111.375 247.175 114.903 250.974C119.586 256.017 127.419 256.49 133.901 256.201C148.631 255.545 163.193 252.692 177.96 253.026C185.11 253.188 192.227 253.845 199.357 254.297C205.458 254.683 211.259 255.054 216.718 258.011C222.606 261.199 227.934 265.672 233.313 269.625C239.351 274.063 245.988 277.665 252.86 280.684C265.283 286.143 279.181 290.209 292.9 290.271C298.243 290.295 303.62 290.175 308.907 289.472C312.938 288.936 314.283 290.541 317.447 292.578C324.471 297.098 332.734 300.581 338.339 306.864C341.106 309.965 343.766 313.024 346.702 315.949C366.858 336.033 387.256 355.883 407.57 375.81C417.781 385.826 427.995 395.839 438.199 405.862C440.995 408.609 443.796 411.351 446.58 414.11C446.832 414.359 448.198 415.743 448.198 415.743L454.179 413.568C454.179 413.568 447.863 407.122 446.783 406.059C442.87 402.207 438.946 398.365 435.023 394.523C423.742 383.479 412.448 372.448 401.155 361.416C383.956 344.615 365.838 328.368 349.444 310.784C343.581 304.495 338.912 298.504 331.573 293.917C327.627 291.451 323.613 289.082 319.721 286.531C316.736 284.574 315.806 283.153 312.148 283.578C288.897 286.284 265.749 282.222 245.394 270.535C234.359 264.199 225.023 253.723 212.567 250.093C206.791 248.41 200.429 248.65 194.45 248.16C187.283 247.574 180.065 247.099 172.864 247.197C165.237 247.3 157.641 248.283 150.064 249.109C142.75 249.906 134.792 251.233 127.465 250.315C123.395 249.805 114.524 246.661 118.632 240.835C119.195 240.037 120.28 239.808 120.988 239.204C121.548 238.727 122.213 237.276 122.604 237.06C123.254 236.701 125.648 237.047 126.49 237.028C128.593 236.981 130.723 236.979 132.817 236.766C139.719 236.065 145.501 232.111 152.009 230.083C159.183 227.846 166.451 225.801 173.831 224.384C180.779 223.05 187.919 222.364 194.985 222.161C197.355 222.093 202.294 222.595 201.729 218.774C201.165 214.965 195.073 216.344 192.38 216.49C177.327 217.305 162.581 220.303 148.31 225.235C141.81 227.481 136.487 230.964 129.404 231.201C122.631 231.426 115.525 231.685 109.56 228.068C104.545 225.026 98.8874 218.151 106.258 214.121C110.569 211.764 116.172 211.817 120.907 210.841C127.252 209.533 133.895 209.926 140.298 208.388C146.76 206.835 152.407 203.486 159.087 202.554C160.425 202.368 161.717 202.516 162.874 201.682C165.037 200.121 162.427 200.295 165.196 200.589C168.634 200.954 172.721 203.26 176.012 204.361C182.666 206.587 189.354 208.945 195.632 212.07C201.307 214.895 206.682 218.181 212.304 221.084C214.629 222.285 216.31 222.342 218.317 220.441C219.137 219.664 219.709 218.561 220.605 217.87C220.973 217.586 221.297 216.856 221.72 216.686C222.026 216.564 223.35 217.027 223.927 216.867C226.422 216.177 227.918 212.352 229.58 210.519C231.772 208.102 234.34 206.12 236.569 203.755C241.113 198.934 246.007 194.537 250.352 189.517C253.249 198.023 252.689 207.477 256.351 215.751C260.224 224.503 264.79 231.341 273.95 235.15C277.262 236.527 280.757 237.237 284.365 236.861C285.626 236.73 287.435 236.621 288.499 235.869C290.392 234.53 290.282 231.818 288.137 230.833C285.814 229.766 281.979 231.463 279.224 230.852C275.273 229.976 271.062 227.634 268.273 224.756C254.995 211.054 261.079 188.86 248.531 174.513C242.812 167.975 236.046 162.079 229.972 155.834C223.716 149.399 215.849 142.551 212.548 134.027C210.94 129.876 209.114 114.733 217.628 116.602C221.404 117.431 224.328 120.808 227.212 123.088C230.843 125.958 234.384 128.828 237.697 132.059C244.602 138.79 252.15 143.845 260.15 149.197C267.531 154.134 276.204 156.45 284.716 158.854C299.356 162.988 313.235 166.339 325.735 174.8C341.286 185.327 356.381 196.65 372.18 206.797C379.538 211.523 387.161 215.636 394.854 219.853C399.684 222.5 404.514 225.149 409.347 227.793C410.316 228.324 417.374 231.682 417.374 231.682L413.478 220.968C408.767 218.34 401.871 216.402 397.154 213.786ZM84.0692 154.151C82.3159 153.622 80.5511 153.147 78.7745 152.699C81.0845 150.486 83.5586 148.395 86.0523 146.391C86.7453 145.833 88.9062 143.382 89.6465 143.285C90.3988 143.187 92.6293 144.995 93.3334 145.386C100.572 149.406 108.136 153.049 115.614 156.62C128.35 162.704 140.176 170.489 152.735 176.912C141.307 172.887 130.135 168.277 118.625 164.461C107.213 160.677 95.5814 157.62 84.0692 154.151ZM152.777 198.02C147.633 199.207 143.077 201.889 137.906 202.986C133.1 204.005 128.229 204.37 123.334 204.515C118.157 204.668 113.29 204.158 108.297 202.73C105.081 201.81 98.2293 199.046 99.9768 194.605C101.623 190.422 109.399 190.166 113.145 189.655C115.232 189.37 117.344 189.104 119.442 188.924C120.469 188.836 121.37 189.084 122.324 188.517C123.696 187.701 123.24 186.607 124.564 186.449C126.71 186.193 130.288 188.068 132.269 188.707C135.132 189.633 137.995 190.571 140.821 191.604C145.844 193.442 150.75 195.564 155.805 197.32C154.796 197.553 153.787 197.786 152.777 198.02ZM214.744 215.792C195.773 204.427 175.109 198.292 154.445 190.671C143.628 186.681 133.047 182.062 121.619 179.953C109.865 177.784 98.8607 177.623 86.9472 178.749C88.6428 175.648 90.0407 172.434 91.6722 169.308C92.5808 167.567 94.4727 165.244 94.1962 163.159C116.075 169.514 137.215 177.253 158.462 185.373C161.22 186.427 164.05 187.287 166.815 188.322C169.161 189.2 171.883 190.93 174.361 191.3C176.273 191.585 176.286 190.255 177.681 190.215C178.547 190.189 180.288 191.748 181 192.168C183.482 193.632 185.987 195.056 188.47 196.518C197.959 202.104 207.17 208.106 216.64 213.71C215.999 214.396 215.367 215.09 214.744 215.792ZM222.724 156.663C227.541 161.922 232.561 167.156 237.703 172.104C239.94 174.255 242.332 176.236 244.352 178.6C245.261 179.663 247.312 181.583 247.539 183.013C247.763 184.421 247.385 184.267 246.197 185.515C242.515 189.382 238.74 193.084 234.992 196.89C230.748 201.199 225.623 205.357 222.326 210.437C200.673 195.456 176.984 182.739 153.501 170.822C141.817 164.894 130.891 157.58 119.076 151.882C112.853 148.881 106.673 145.771 100.511 142.651C95.0828 139.903 89.9935 136.502 84.4678 133.94C88.1123 129.919 91.4789 127.296 96.1446 124.43C101.169 121.344 105.487 117.578 110.293 114.21C118.472 108.477 126.568 102.57 135.184 97.5005C140.039 94.6437 144.509 91.2652 149.256 88.2483C150.317 87.5739 152.183 86.0803 153.447 86.2456C155.416 86.5031 158.2 90.457 159.599 91.7523C167.861 99.4055 175.944 107.232 184.285 114.806C184.499 114.997 185.54 115.94 185.745 116.124C186.486 116.788 187.233 117.446 187.976 118.107C189.977 119.886 191.977 121.67 193.906 123.527C196.151 125.688 202.414 135.367 206.055 132.714C208.233 142.527 216.208 149.546 222.724 156.663Z" fill="#F3BBE0"/>
<path d="M324.817 262.569C323.621 265.964 322.11 269.324 321.068 272.758C320.306 275.267 321.323 280.126 325.092 277.477C326.781 276.29 327.596 272.057 328.379 270.078C329.269 267.83 329.703 263.337 331.473 261.691C333.383 259.914 337.385 260.796 339.711 259.845C342.835 258.567 342.671 253.101 338.798 254.138C332.164 255.919 327.405 255.219 324.817 262.569Z" fill="#F3BBE0"/>
<path d="M200.941 162.671C200.878 162.358 202.254 160.012 202.374 159.602C202.817 158.086 202.851 156.653 202.443 155.131C201.299 150.873 197.761 148.373 193.67 147.227C191.155 146.522 188.325 146.054 185.703 146.366C182.349 146.766 182.35 147.838 179.602 145.75C175.101 142.33 170.755 138.72 166.183 135.393C168.728 134.57 171.893 134.372 174.387 135.508C176.342 136.397 177.918 139.102 180.351 138.404C187.226 136.433 177.053 130.151 174.626 129.53C171.532 128.738 168.332 128.807 165.253 129.68C164.265 129.999 161.435 130.904 162.424 130.695C161.911 130.961 161.406 131.238 160.907 131.528C160.089 130.919 159.274 130.307 158.461 129.692C156.526 128.239 145.236 117.766 144.603 124.848C144.336 127.828 149.152 130.063 151.204 131.541C152.305 132.334 153.386 133.152 154.471 133.966C155.185 134.504 155.9 135.042 156.615 135.58C156.237 136.123 155.921 136.698 155.667 137.307C154.793 142.275 153.798 148.16 158.095 152.094C162.141 155.798 170.539 156.042 175.72 155.062C179.603 154.328 179.675 153.122 182.836 155.623C186.091 158.197 189.287 160.84 192.51 163.453C190.485 164.745 188.471 165.442 186.076 165.552C184.177 165.639 181.623 164.871 180.435 166.87C176.99 172.664 188.822 171.292 191.232 170.482C192.928 169.912 195.219 167.706 196.844 167.466C198.562 167.213 201.371 170.662 203.108 171.643C204.825 172.613 206.799 173.219 207.94 170.97C209.413 168.07 205.695 166.357 203.87 164.945C203.536 164.687 201.019 163.06 200.941 162.671ZM173.517 149.558C170.617 149.786 165.126 150.057 162.62 148.244C160.097 146.42 160.004 141.569 161.276 139.011C165.882 142.325 170.243 145.939 174.748 149.381C174.338 149.44 173.928 149.499 173.517 149.558ZM196.325 159.046C193.451 156.731 190.611 154.375 187.73 152.067C188.427 152.132 189.123 152.212 189.816 152.307C193.223 152.749 198.399 154.876 196.325 159.046Z" fill="#F3BBE0"/>
</g>
<defs>
<clipPath id="clip0_492_11533">
<rect width="610" height="494" fill="white"/>
</clipPath>
</defs>
</svg>
