<?xml-stylesheet type="text/css" href='svg.css'?>
<svg width="216" height="83" viewBox="0 0 216 83" fill="none" xmlns="http://www.w3.org/2000/svg">
<path d="M107.035 0.731291C77.5267 0.794496 50.8453 5.70751 31.5659 13.5813C21.9249 17.5186 14.1592 22.1865 8.81501 27.3373C3.47212 32.4867 0.580506 38.0857 0.592971 43.9052C0.605423 49.7187 3.51441 55.0161 8.86865 59.7123C14.2281 64.413 22.0079 68.4816 31.6665 71.8115C50.9803 78.4702 77.6869 82.1346 107.21 82.0713C136.765 82.008 163.707 80.7907 183.245 76.6027C193.016 74.5081 200.888 71.6797 206.304 67.9148C211.701 64.1622 214.627 59.5062 214.614 53.7121C214.602 47.883 211.618 41.6471 206.146 35.5483C200.679 29.4551 192.764 23.5415 182.989 18.3677C163.439 8.02084 136.513 0.668152 107.035 0.731291Z" />
</svg>
