<svg width="285" height="70" viewBox="0 0 285 70" fill="none" xmlns="http://www.w3.org/2000/svg">
<path fill-rule="evenodd" clip-rule="evenodd" d="M214.567 11.9461C227.016 13.7307 236.277 17.1354 245.453 20.8056C275.541 32.8527 282.503 46.5768 256.256 55.9248C215.454 70.4096 130.509 72.6056 69.5164 59.0617C56.0069 56.0683 37.5275 52.608 25.682 44.7592C14.6622 37.4608 17.3618 30.7601 25.251 25.2308C33.2979 19.5564 46.7454 15.0893 57.1634 12.4398C102.701 0.890103 188.095 -4.10328 258.424 12.9548C259.873 13.2952 261.456 13.2193 262.036 12.7951C262.617 12.3708 262.032 11.7648 260.691 11.4377C188.295 -6.11962 100.228 -1.1238 53.3595 10.7619C40.3944 14.0688 22.8842 20.1061 15.9862 27.7557C11.3078 32.9884 11.5115 38.9612 21.0489 45.3275C33.6226 53.6825 53.2241 57.4623 67.5637 60.6443C130.529 74.6294 218.371 72.4208 260.44 57.4522C288.692 47.4097 281.387 32.6679 249.029 19.7168C239.17 15.7467 228.982 12.1073 215.468 10.1707C213.978 9.95755 212.571 10.1829 212.411 10.6838C212.144 11.1716 213.184 11.7463 214.567 11.9461Z" fill="#F3BBE0"/>
</svg>
