<svg width="475" height="64" viewBox="0 0 475 64" fill="none" xmlns="http://www.w3.org/2000/svg">
<path d="M107.61 5.95703C107.61 5.80429 107.788 5.49879 107.966 5.49879C107.966 5.49879 108.679 5.4988 109.392 5.65155L110.284 5.04058L110.64 4.73507C110.997 4.88781 111.71 4.88782 112.244 4.88782C112.779 4.88782 114.383 4.12411 114.562 4.27685V4.58234C114.562 4.88783 115.097 4.88781 115.81 4.73507C116.344 4.58233 118.84 4.88782 119.553 4.88782C120.266 4.88782 122.405 4.27685 122.94 4.27685C123.475 4.27685 124.544 4.73507 124.901 4.73507C125.257 4.73507 126.327 4.27685 126.505 4.27685C126.683 4.27685 127.396 4.27684 127.396 3.97135C127.396 3.66586 128.822 4.1241 129.179 4.1241L129.535 3.97135C130.248 3.66586 130.427 3.81862 130.605 4.27685L130.783 4.58234C131.318 4.12411 131.853 3.8186 132.209 3.97135C132.566 4.12409 133.814 4.1241 134.527 4.1241L135.061 3.81862L135.418 3.66586C135.774 3.66586 136.487 3.81862 136.844 3.81862L137.022 3.97135C137.379 4.12409 137.557 4.42958 137.914 4.73507C138.27 4.58233 138.448 4.42959 138.448 4.1241C138.448 3.97136 139.34 3.66588 140.053 3.51313L140.587 3.81862L140.766 3.97135C141.479 4.27684 142.192 4.27684 142.548 3.97135L142.905 3.81862L143.083 3.66586C143.44 3.66586 143.618 3.8186 143.618 3.97135V4.1241V4.27685C143.618 4.4296 143.796 4.42959 144.153 4.42959L144.331 4.27685C144.509 4.12411 144.687 3.81861 144.866 3.66586L145.222 3.36038C145.579 3.51312 146.113 3.51313 146.292 3.51313C146.47 3.51313 147.718 3.51312 148.609 4.1241L149.857 3.51313C150.035 3.36039 150.57 3.51313 150.57 3.51313L151.105 4.1241C151.818 3.81861 152.531 3.51312 152.709 3.36038C152.887 3.20763 153.6 2.90215 153.779 3.05489C153.957 3.36038 154.67 3.81862 155.205 3.51313H155.561L156.274 3.36038C157.165 3.36038 157.878 3.36037 158.057 3.20762C158.235 3.20762 158.948 3.05488 159.483 2.90214C160.018 2.74939 161.978 3.36037 162.157 3.20762L162.335 3.05489L162.513 2.90214C162.87 2.90214 163.048 2.90213 162.87 3.20762V3.36038C162.87 3.51312 163.226 3.66586 163.404 3.66586L163.761 3.97135C163.761 3.66586 163.939 3.36037 164.118 3.20762C164.296 3.05488 165.187 2.74939 166.078 2.90214L166.791 3.05489H166.97C167.148 3.20764 167.148 3.36038 167.148 3.36038C167.148 3.36038 166.791 3.66587 166.613 4.1241C166.435 4.58233 164.474 4.42959 164.296 4.42959V4.58234V4.73507C164.296 4.88781 165.187 5.34606 166.078 5.65155L167.148 5.19331L167.683 5.04058C168.217 4.88783 168.217 4.73508 167.683 4.58234C167.148 4.42959 167.861 3.20763 168.396 2.90214H169.109C170.357 2.90214 171.604 3.20764 172.852 2.74941C173.209 2.59666 173.922 2.7494 174.278 3.05489L174.635 3.20762C174.813 3.66586 174.991 3.81862 175.17 3.51313C175.348 3.20764 176.239 2.59666 176.774 2.74941C177.309 2.74941 179.091 2.59665 179.448 2.13842L179.983 2.4439H180.161C180.339 2.59665 180.517 2.90213 180.874 3.20762L181.409 2.90214H181.587C181.943 2.90214 182.3 3.05489 182.3 3.36038C182.3 3.51312 182.656 3.97136 182.835 3.81862V3.66586C182.835 3.51312 182.835 3.36038 182.835 3.36038C183.013 3.05489 183.369 3.05488 183.726 3.20762C184.617 3.66586 183.904 2.74941 184.439 2.74941H184.795C185.152 2.59666 185.865 2.74939 186.4 2.90214L186.935 2.59665C187.113 2.44391 187.469 2.4439 187.469 2.4439L188.539 3.36038C189.252 2.59665 190.143 2.29117 190.678 2.74941C191.213 3.0549 193.174 2.74939 193.53 2.90214C193.887 3.05488 195.491 2.59665 196.382 2.59665L197.095 2.29117H197.274C197.452 2.44391 198.343 2.59666 198.878 2.74941L199.947 2.59665L200.839 2.4439C201.017 2.90213 201.374 3.0549 201.73 2.74941C202.087 2.59666 203.513 2.74941 203.691 2.74941C203.869 2.74941 204.582 2.44391 205.295 2.29117L206.008 2.4439L206.721 2.59665C207.613 2.59665 208.326 2.59665 208.504 2.59665C208.682 2.7494 209.039 2.7494 209.217 2.59665C209.395 2.44391 210.465 1.98567 210.643 2.13842C210.821 2.29116 211.534 2.74939 211.891 2.90214C212.247 3.05488 213.673 2.90214 214.386 2.59665C215.099 2.44391 216.882 2.59665 217.239 2.59665C217.595 2.59665 218.843 2.29116 219.021 2.4439C219.378 2.59665 220.269 2.90214 220.447 2.90214H220.625L221.16 2.59665C221.873 2.59665 222.765 2.74941 222.943 2.74941C223.121 2.74941 224.012 2.59665 224.547 2.59665C225.082 2.59665 226.33 2.59665 226.33 2.13842L227.399 2.59665L227.577 2.74941C227.756 2.74941 228.291 2.90214 228.825 2.90214C229.36 2.90214 230.964 3.0549 231.499 2.74941C232.034 2.59666 233.638 2.29117 233.995 2.29117L234.173 2.4439C234.53 2.74939 234.886 3.05488 235.599 2.90214H236.134C236.49 2.59665 236.847 2.29117 237.025 2.29117H237.203H237.916C238.629 2.13843 239.699 1.98568 240.234 1.83293L240.59 2.29117C240.947 2.7494 241.66 2.90213 242.373 2.4439L245.582 2.13842H246.473C247.542 2.13842 248.612 2.29116 248.968 2.13842C249.325 2.13842 250.216 2.59666 250.216 2.29117C250.216 1.98568 250.573 1.83294 250.929 2.29117C251.286 2.7494 253.425 2.29117 254.316 2.29117C255.029 2.29117 257.347 1.98568 257.525 1.83293L258.773 2.59665C260.377 2.44391 261.981 2.4439 261.981 2.4439C262.516 2.13841 262.873 1.83293 263.586 2.13842L263.942 2.29117C264.655 2.13843 265.725 1.83293 266.438 1.83293H266.973H267.864C268.755 1.83293 269.646 1.98567 269.825 2.13842C270.003 2.29116 270.538 2.4439 270.538 2.4439C270.538 2.29116 271.251 1.98569 271.607 1.98569C272.142 1.98569 273.568 1.83294 273.925 1.98569V2.13842V2.74941C274.459 2.59666 275.529 2.44391 276.242 2.29117L276.955 2.59665C277.312 2.7494 277.846 2.7494 278.025 2.59665C278.559 2.29117 279.094 2.29117 279.807 2.29117H280.342C281.055 2.13843 281.768 1.98568 281.946 1.83293C282.303 1.83293 283.194 2.13842 283.729 2.13842C284.264 2.13842 285.69 1.98569 286.046 1.98569C286.224 1.98569 286.938 1.68019 287.116 1.83293C287.294 1.98568 288.542 2.59666 289.433 3.05489L289.611 1.83293C289.611 1.83293 290.146 1.68019 290.324 1.83293L291.75 2.29117C292.464 2.13843 294.068 1.98568 295.316 1.83293H296.563H296.742C296.92 2.13842 298.168 2.29116 299.594 2.13842H300.842C301.198 2.13842 301.198 2.59666 300.663 2.74941L300.485 2.90214C300.129 2.90214 300.129 3.05488 300.485 3.20762C300.842 3.36037 301.555 3.36038 301.555 3.05489C301.555 2.7494 301.911 1.83293 302.446 1.83293C302.981 1.83293 304.763 2.13842 305.298 2.13842H305.833C306.368 2.13842 307.081 2.13843 307.615 2.29117L308.507 2.59665C309.398 2.29117 310.289 1.98568 310.824 1.83293C311.181 1.68019 311.894 2.4439 311.894 2.4439C311.894 2.4439 312.428 2.29116 312.607 2.13842L312.963 2.4439C313.498 2.74939 313.854 2.74939 314.033 2.13842V1.98569C314.389 1.83294 314.924 1.83293 315.102 2.13842C315.281 2.44391 316.707 2.29116 317.42 2.13842C318.133 2.13842 320.272 1.98569 320.628 1.98569L320.807 1.68018C320.807 1.68018 321.52 1.52743 321.52 1.68018C321.698 1.83292 321.698 2.44391 322.411 2.13842L322.767 1.98569C322.946 1.52745 323.659 1.37469 324.372 1.68018L325.085 1.98569C325.263 1.98569 327.046 1.83293 327.224 1.83293C327.759 1.52744 328.293 1.06922 328.472 1.98569C328.65 1.98569 329.007 2.13842 329.363 2.13842C329.72 2.13842 330.789 2.29117 330.789 2.29117C330.967 2.13843 331.324 1.83292 331.324 1.68018C331.324 1.68018 331.859 1.37471 332.393 1.22196C332.928 1.06922 334.176 1.52744 334.354 1.37469C334.354 1.22195 335.245 1.22195 335.424 1.37469C335.602 1.52744 336.672 1.98568 337.028 1.83293C337.206 1.68019 338.098 1.3747 338.276 1.52745C338.454 1.68019 338.989 1.83292 339.167 1.68018C339.167 1.52743 339.702 1.22196 340.059 1.52745H340.415H341.128C341.306 1.83294 341.663 1.98567 342.019 1.68018C342.198 1.37469 343.089 0.763709 343.089 0.916454C343.089 1.0692 343.624 1.22196 343.802 1.22196C344.158 1.06922 344.871 0.916463 345.05 1.06921V1.22196C345.228 1.6802 345.763 1.68018 345.941 1.37469C346.119 0.610969 346.832 0.610965 347.367 0.916454L347.902 1.22196C348.437 1.06922 349.328 0.916468 350.041 0.763723L350.576 1.22196C351.11 1.6802 351.645 1.83293 352.358 1.37469C352.358 1.37469 352.715 1.3747 352.715 1.52745L353.25 1.98569C353.428 1.83294 353.784 1.52745 353.963 1.22196H354.141H354.854C355.745 1.37471 356.458 1.37469 356.637 1.37469C356.815 1.37469 357.35 1.22196 357.706 1.22196C358.063 1.22196 359.31 1.83294 359.845 1.52745C360.202 1.3747 361.628 1.0692 361.806 1.37469C361.984 1.68018 363.589 1.06921 364.48 1.06921C365.193 1.06921 367.154 1.37471 367.154 1.22196C367.154 1.06922 367.51 0.458234 367.689 0.763723V0.916454V1.06921C367.689 1.22195 368.223 1.37469 368.936 1.37469C369.471 1.37469 370.897 1.83294 370.541 1.98569C370.184 2.13843 366.262 2.29116 365.371 2.4439C364.48 2.59665 364.658 2.90214 365.193 2.90214L365.728 3.05489C365.906 2.90215 366.441 2.59665 366.797 2.4439C367.332 2.29116 367.867 3.36038 368.223 3.36038C368.402 3.36038 368.758 3.0549 368.58 2.74941V2.59665C368.758 1.98568 368.758 2.13843 368.223 1.98569L367.51 1.83293C366.975 1.98568 366.262 2.13842 366.262 2.13842H366.084L365.371 2.4439C366.084 2.29116 367.154 2.44392 367.867 2.74941C368.58 3.0549 370.006 3.20764 370.541 3.05489C370.897 2.90215 372.501 3.20764 372.858 3.05489C373.215 2.90215 373.215 2.29116 373.036 2.13842C372.858 1.98567 372.323 1.68018 371.967 1.68018C371.61 1.68018 371.254 1.52744 371.61 1.37469C371.967 1.22195 373.215 0.610969 373.215 0.610969C373.215 0.458225 374.106 0.610969 374.284 0.610969C374.462 0.610969 374.997 1.22195 375.175 1.37469C375.354 1.68018 376.958 2.13843 376.958 2.29117C377.136 2.44391 377.314 1.83292 377.136 1.68018H376.958L376.423 1.52745C375.888 1.3747 375.532 1.06921 375.71 0.763723V0.610969C375.532 0.458225 375.354 0.15274 375.888 0.305485L376.601 0.458239C377.493 0.610983 378.562 0.763723 378.919 0.763723C379.454 0.916468 381.593 0.458229 381.771 0.305485C382.127 0.15274 382.662 0.152745 383.197 0L383.553 0.152731H383.732L383.91 0.305485C384.267 0.610974 384.623 0.610983 384.801 0.458239C384.98 0.305494 385.871 0.305494 386.227 0.458239C386.584 0.610983 388.01 0.30548 388.545 0.610969L389.08 0.916454C389.08 0.916454 388.901 1.22195 388.901 1.37469V1.52745C388.901 1.68019 389.079 1.52745 389.258 1.22196C389.436 0.916473 390.684 0.610969 390.506 0.610969C390.506 0.458225 390.684 0.305485 391.04 0.305485C391.397 0.305485 393.001 0.763709 393.714 0.916454C394.427 1.0692 396.388 0.610979 396.388 0.763723C396.388 0.916468 396.923 0.916463 396.745 1.06921C396.745 1.22195 396.21 1.3747 396.032 1.52745C395.853 1.68019 396.388 2.74939 397.458 2.90214L397.814 2.29117L398.171 1.83293C397.636 1.06921 397.636 0.458239 398.349 0.458239L398.527 0.610969C398.884 0.916459 399.062 1.37469 399.775 1.37469C399.775 1.37469 399.775 1.3747 399.775 1.52745C399.953 2.29117 399.953 2.29116 401.023 2.4439H401.558C402.271 2.59665 402.805 2.44391 402.805 2.13842C402.805 1.83293 402.984 0.916454 403.34 0.916454L403.697 1.22196C404.053 1.52745 404.053 1.83294 403.697 1.98569C403.34 1.98569 403.34 2.90214 403.697 2.90214C404.053 2.90214 404.945 2.4439 405.123 2.4439C405.301 2.59665 405.836 2.90215 406.014 2.74941H406.192C406.371 2.59666 406.549 2.44391 406.727 2.29117C406.905 2.13843 407.797 2.7494 407.975 2.59665C408.153 2.44391 408.866 1.98567 409.223 2.13842C409.579 2.29116 410.649 2.44391 410.827 2.29117C411.005 2.13843 411.54 1.83294 411.718 1.98569C411.718 2.13843 412.253 2.74941 412.431 2.74941H412.61L413.857 2.29117C414.927 2.7494 415.996 3.20762 416.175 3.20762C416.353 3.36037 416.888 3.51312 416.888 3.36038C416.888 3.36038 417.066 2.90215 417.066 2.74941C417.066 2.44392 418.136 2.74941 418.492 2.74941C418.849 2.90215 419.562 2.74939 419.562 2.90214C419.562 3.05488 420.631 2.7494 420.81 2.59665C421.166 2.44391 422.414 2.29116 422.77 2.13842L422.949 1.98569C423.127 1.98569 423.305 1.83293 423.305 1.83293L424.375 2.59665C424.553 1.83293 425.088 1.3747 425.622 1.52745C426.157 1.68019 427.049 2.7494 427.049 2.59665C427.049 2.44391 427.227 2.13843 427.405 1.98569C427.762 2.29117 428.296 2.44392 428.653 2.74941C428.831 2.90215 428.475 3.05489 428.475 3.36038V3.51313C428.475 3.66588 428.831 3.97135 429.009 3.97135L429.188 3.81862C429.901 3.36038 430.257 3.51312 430.435 4.1241C430.792 4.1241 431.148 3.97136 431.148 3.81862C431.148 3.66587 431.149 3.20762 430.97 3.20762C430.792 3.20762 431.148 2.59665 431.505 2.59665C431.862 2.59665 432.575 3.36038 432.753 3.81862V4.27685C432.753 4.4296 432.396 4.73507 432.04 4.73507H431.148C430.079 4.58233 429.188 4.73508 429.366 4.88782C429.366 5.19331 430.97 5.34605 431.148 5.49879C431.327 5.80428 431.505 6.26253 431.505 6.41527C431.505 6.56802 431.149 7.17899 430.97 7.48448L430.614 7.78996C430.257 8.09545 429.901 8.40094 429.366 8.55369C429.366 8.55369 429.188 8.24821 429.188 7.94272C429.188 7.63723 428.475 6.72076 428.118 6.87351C427.762 7.02625 427.049 7.63722 427.227 7.78996L427.405 7.94272L427.583 8.09547C427.762 8.24822 427.94 8.40096 427.762 8.40096C427.583 8.5537 427.405 8.85918 427.583 9.01192C427.762 9.16467 430.97 9.47017 430.792 9.62292C430.614 9.62292 430.435 9.92839 430.792 9.77565C431.327 9.77565 431.683 10.5394 431.862 10.5394C432.04 10.5394 432.396 10.3866 432.396 10.3866C432.396 10.2339 432.396 10.0811 432.753 10.2339H433.109C434.001 10.6921 434.357 10.9976 434.001 10.9976C433.644 10.9976 432.575 11.3031 432.575 11.4558C432.575 11.6086 432.931 12.0668 433.288 12.3723C433.644 12.6778 435.07 12.8306 435.07 12.6778C435.07 12.5251 435.783 12.3723 436.318 12.5251C436.675 12.6778 437.566 12.6778 437.388 12.3723C437.209 12.0668 438.457 10.8449 438.992 10.2339H439.527H440.418C440.596 9.77565 440.953 9.6229 440.953 9.77565C440.953 9.92839 441.309 10.5394 441.487 10.3866C441.666 10.2339 442.379 9.9284 442.913 10.2339C443.27 10.5394 444.696 10.9976 445.231 10.9976C445.587 10.8449 446.835 10.2339 447.905 10.3866L448.796 10.5394C448.796 10.5394 448.974 10.3866 448.974 10.2339C449.153 10.0811 449.331 9.9284 449.509 9.9284H450.044C449.866 10.2339 449.687 10.6921 449.509 10.8449C449.331 10.9976 449.509 11.9141 450.4 12.2196L450.935 11.3031C451.113 11.1504 451.648 10.9976 452.005 10.8449C452.183 10.8449 452.539 10.9976 452.539 11.1504C452.718 11.3031 452.718 11.6086 453.074 11.3031C453.431 11.1504 453.787 10.9976 453.966 11.3031C454.144 11.6086 454.322 11.9141 454.144 12.0668C453.966 12.5251 453.431 12.8305 453.074 13.136L452.718 13.4415C452.896 13.747 453.787 14.2053 454.322 14.5107C455.035 14.6635 456.283 14.8162 456.818 14.8162C457.353 14.8162 459.135 15.7327 459.492 16.0382C459.848 16.3437 461.274 16.4964 461.452 16.6492C461.631 16.8019 461.452 17.4129 461.452 18.0239L461.987 18.6348L462.165 18.7876C462.344 19.0931 461.987 19.3986 461.452 19.5513L461.096 19.8568C460.561 20.315 460.561 20.315 460.205 20.0095L460.026 19.8568L459.313 19.5513C458.957 20.0096 458.6 20.1623 458.422 19.8568C458.244 19.5513 456.639 19.5513 456.283 19.5513C455.926 19.5513 454.679 20.0095 455.213 20.1623C455.748 20.315 456.818 20.926 456.639 21.2315L457.174 21.3843L457.887 21.6897C458.422 21.2315 458.779 20.926 458.779 20.926C458.779 20.926 459.135 21.2315 459.492 21.3843C459.848 21.3843 459.492 22.3007 458.957 22.3007L458.6 22.6062L458.244 22.9117C457.887 23.3699 457.887 23.8282 458.065 23.9809C458.244 23.9809 458.422 24.5919 457.887 25.0501C457.352 25.5083 456.105 26.5776 456.283 26.5776C456.461 26.5776 456.818 26.8831 456.639 27.1886H456.461H456.105C455.748 27.3413 455.213 27.6468 455.035 28.105L455.57 28.4105C455.748 28.5632 455.035 30.3962 454.857 30.3962L454.322 30.7017C453.787 31.0072 453.431 31.3126 453.431 31.6181C453.431 31.7709 452.718 32.5346 452.539 32.8401L452.361 32.9928L451.826 33.4511C452.183 33.9093 452.361 34.673 452.361 35.1313L452.183 35.5895L452.005 36.2005C452.718 36.2005 452.896 36.506 452.539 36.6587C452.183 36.8115 450.935 37.4224 450.4 37.4224H449.866H448.974C448.44 37.8807 447.726 38.1861 447.37 38.3389C446.835 37.7279 446.3 38.6444 445.766 38.3389C445.231 38.0334 444.696 38.0334 444.161 37.8807C443.983 38.3389 443.448 38.4917 442.913 38.1862C442.379 38.0334 441.131 38.4916 441.131 38.4916C440.774 38.1862 440.24 38.4916 439.883 38.3389L439.17 38.0334C438.635 38.3389 437.566 38.1862 436.853 38.0334L436.14 38.4916L435.961 38.6444C435.605 38.6444 434.535 38.3389 433.644 38.0334L432.753 38.4916L432.575 38.6444C432.218 38.6444 431.683 38.6444 431.327 38.6444C430.97 38.6444 429.722 38.3389 429.544 38.3389C429.188 38.3389 428.296 38.3389 427.94 38.4916C427.583 38.6444 425.979 38.4916 425.444 38.4916H424.731C424.375 38.4916 424.018 38.4916 423.84 38.3389L423.305 38.0334C422.949 38.1862 422.057 38.4917 421.344 38.6444L420.81 38.7971C420.631 38.7971 420.453 38.9499 420.453 39.1026L420.096 39.4081C419.918 39.1026 419.562 38.9499 419.383 38.9499C419.205 38.9499 418.492 39.7136 418.492 40.3246V40.9356V41.0883C417.244 41.0883 415.997 41.2411 415.818 41.2411L415.997 41.0883L417.066 40.3246C417.066 40.9356 417.244 41.3938 417.601 41.3938C417.957 41.3938 417.957 40.6301 417.957 40.3246C417.957 40.0191 417.423 39.2554 417.244 39.2554C417.066 39.1026 416.353 39.5609 415.997 39.8663C415.64 40.1718 417.601 41.2411 419.027 41.5465L419.383 41.2411L419.918 40.9356C420.275 40.3246 421.166 40.0191 421.701 40.1718C422.236 40.3246 423.662 40.9356 423.662 40.4773L423.84 40.1718V40.0191C424.196 40.0191 424.553 40.0191 424.553 40.1718C424.553 40.3246 424.553 40.6301 424.731 40.6301C424.909 40.6301 425.622 40.7828 425.444 40.9356H424.731C424.196 41.2411 424.018 41.6993 424.553 41.6993L424.731 41.5465L425.444 41.0883C426.157 41.0883 427.227 41.2411 427.583 41.2411C427.94 41.3938 429.009 40.7828 429.188 40.7828H429.366L429.722 40.9356C430.079 41.0883 430.792 41.241 431.327 41.0883L431.683 41.3938C431.861 41.5465 432.218 41.3938 432.396 41.3938H432.575C432.753 41.3938 432.931 41.5466 432.931 41.6993V41.852V42.0048C432.931 42.3103 432.574 42.7685 432.218 43.2267H431.505H430.792C429.722 43.2267 429.901 43.685 431.148 44.2959H432.396H432.931C433.288 43.9905 433.822 43.685 434.179 43.685L434.357 43.8377L434.714 44.1432C434.714 44.7542 435.07 45.2124 435.248 45.5179H435.605C435.783 45.5179 435.961 45.2124 435.783 45.0597V44.9069C435.605 44.7542 435.07 44.7542 434.714 44.9069L434.179 44.7542C433.822 44.7542 433.466 45.0597 432.753 44.9069L431.862 44.7542C430.614 44.9069 429.366 45.5179 429.009 45.8234L429.544 46.2816L429.722 46.4344C430.079 46.4344 430.97 46.1289 431.683 45.5179L432.753 45.8234L434.535 46.7398L435.427 45.9761C435.07 45.5179 434.892 44.7542 435.07 44.6014C435.248 44.2959 436.318 43.8377 436.853 44.2959L437.031 44.6014C437.209 44.7542 437.031 45.0597 436.853 45.2124L436.674 45.3652C436.496 46.1289 436.853 46.7399 437.388 46.5871C437.922 46.4344 438.814 47.6563 438.635 47.8091C438.457 47.9618 437.566 48.5728 438.101 48.42C438.635 48.2673 443.27 47.8091 444.161 47.6563C444.874 47.3508 443.983 47.1981 442.913 47.3508L442.022 47.6563L441.844 47.8091C441.487 47.8091 441.309 47.8091 441.309 47.6563C441.309 47.5036 441.309 47.1981 440.953 47.1981C440.596 47.5036 440.418 47.8091 440.061 48.1146L439.883 48.2673C440.061 48.5728 440.774 48.8783 441.309 49.031C441.844 49.1838 442.735 48.2673 442.913 48.2673C443.092 48.1146 443.448 48.2673 443.627 48.8783L444.518 48.5728L445.053 48.42C443.983 48.2673 442.201 48.1146 441.309 47.8091C440.418 47.6563 440.418 46.8926 440.774 46.7398C440.953 46.5871 441.666 45.9761 441.666 45.9761C441.844 46.2816 441.844 46.7399 442.022 46.8926L442.735 47.1981C442.735 46.7399 442.914 46.2816 443.092 46.1289C443.27 45.9761 445.409 46.2816 446.835 46.5871L448.261 45.9761L448.796 45.8234C448.796 46.1289 448.796 46.5871 448.974 46.5871C449.153 46.7399 449.866 46.8926 449.866 46.7398C449.866 46.4344 450.579 46.1289 451.113 46.2816C451.648 46.4344 451.292 47.6563 451.47 47.8091C451.826 47.9618 453.431 48.1146 454.857 47.6563L456.105 47.3508H456.283C456.639 47.6563 457.174 47.9618 457.174 47.8091C457.352 47.6563 457.709 47.5036 457.709 47.3508L457.174 47.0454C456.639 46.7399 455.926 46.5871 455.57 46.5871H455.213C455.035 46.5871 454.857 46.5871 454.679 46.5871C453.609 46.1289 453.787 46.7399 453.787 47.1981V47.3508C453.609 47.5036 453.609 47.3508 453.609 47.0454C453.609 46.7399 452.54 46.7399 452.361 46.5871V46.4344C452.361 46.2816 452.718 46.1289 452.896 46.1289C453.431 46.2816 453.966 45.5179 454.679 46.1289C455.392 45.8234 456.105 45.6706 456.105 45.9761L456.283 46.1289H456.461C456.818 45.9761 457.353 45.8234 457.709 45.6706C458.066 45.5179 459.135 45.2124 459.135 45.5179C459.313 45.8234 459.67 46.4344 459.848 46.2816H460.026L460.918 46.1289C461.987 45.8234 463.235 45.8234 463.77 45.9761C463.77 46.5871 464.126 47.1981 463.413 47.6563C463.413 47.6563 463.413 47.9618 463.592 48.1146C463.77 48.1146 464.126 48.1146 464.126 48.1146C464.305 47.8091 464.483 47.5036 464.839 47.3508L465.018 47.1981C465.196 47.0453 465.374 47.0453 465.552 47.1981C465.552 47.3508 466.087 47.9618 466.265 47.9618C466.444 47.9618 467.157 47.9618 467.335 48.1146C467.513 48.2673 468.048 48.42 468.226 48.42C468.226 48.2673 468.583 48.1146 468.761 48.2673C468.939 48.42 470.009 48.7255 470.365 48.2673L470.9 47.9618C471.257 48.2673 471.435 48.5728 471.257 48.7255C471.078 48.8783 470.722 49.3365 471.078 49.3365C471.435 49.3365 472.148 49.642 471.97 49.7947C471.791 49.9475 471.791 50.5585 472.148 50.7112C472.504 50.864 472.861 51.1695 471.97 51.4749L471.257 51.7804C471.078 51.9332 470.722 52.0859 470.722 52.2387C470.722 52.3914 470.722 52.6969 470.722 52.8496C470.9 53.0024 471.257 53.0024 471.613 53.0024L472.148 52.8496C472.148 52.5441 472.326 52.0859 472.504 51.9332H472.683C473.217 51.7804 475 52.2387 475 52.6969V52.8496C474.643 53.0024 474.109 53.3079 473.752 53.4606C473.396 53.6134 472.504 54.3771 472.504 54.3771C472.504 54.5298 472.148 54.5298 471.97 54.0716H471.613H471.435C470.9 54.3771 470.9 54.6826 471.078 54.8353C471.257 54.9881 472.148 56.0573 472.148 56.821V57.5847V58.5012C471.078 58.9594 470.187 59.2649 470.187 59.1122C470.187 58.9594 469.831 58.6539 469.652 58.8067C469.474 58.9594 469.474 59.7231 469.296 59.7231C469.118 59.7231 468.404 60.0286 468.761 60.3341H468.939C469.296 60.3341 469.831 60.0287 470.187 60.0287C470.544 60.0287 471.078 59.8759 471.078 60.3341C471.078 60.6396 470.9 60.9451 470.722 60.9451L470.009 61.0979C469.296 61.2506 468.583 60.7924 468.761 60.0287L467.513 60.1814L466.622 60.3341C466.978 60.9451 466.978 61.4033 466.622 61.4033C466.265 61.4033 465.018 61.4034 465.018 61.0979C465.018 60.9451 464.661 60.6396 464.305 60.7924C463.948 61.0979 463.057 61.7088 463.057 61.4033C463.057 61.2506 462.7 60.6396 462.522 60.7924C462.344 60.9451 460.918 61.4033 460.026 61.4033L459.313 61.7088L458.6 62.0143C457.887 62.0143 456.818 62.0143 456.105 62.0143H455.392H455.213C455.035 62.0143 454.144 62.0143 453.431 61.8616C452.718 61.7088 450.579 62.1671 450.4 62.0143C450.222 62.0143 449.331 61.8616 448.974 61.8616C448.618 61.8616 447.37 61.8616 447.014 61.7088C446.657 61.5561 445.231 62.3198 444.696 62.4726L444.518 61.7088V61.4033C443.983 61.5561 443.448 61.7088 443.092 61.8616C442.735 62.0143 442.2 62.3198 442.022 62.1671C441.844 62.0143 440.418 62.1671 440.061 62.3198C439.705 62.3198 438.457 62.1671 438.279 62.1671C438.101 62.1671 437.388 62.4726 437.209 62.6253C437.031 62.7781 436.318 62.4726 436.14 62.4726C435.961 62.4726 434.892 62.6253 434.357 62.778C433.644 63.0835 431.505 62.3198 430.792 62.3198C430.079 62.3198 428.296 63.0835 428.118 63.0835C427.762 63.0835 426.692 63.0835 426.335 63.389L425.444 62.9308C425.088 62.778 424.196 63.0835 423.662 63.0835C423.127 63.0835 422.592 62.9308 422.057 62.9308C421.701 62.9308 421.344 63.0835 420.81 63.0835L419.918 63.2363C419.918 62.778 419.918 62.6253 419.918 62.9308C419.918 63.2363 418.492 62.9308 417.957 63.0835H417.423L415.462 62.9308C413.323 62.778 411.005 62.778 410.114 62.778C409.401 62.778 407.262 63.2363 407.084 63.2363C406.905 63.2363 406.192 63.389 405.479 63.389L405.301 63.2363C404.766 62.778 404.053 63.2363 403.518 63.0835L402.805 62.778C402.092 62.778 401.201 62.778 400.666 62.778C400.31 62.778 398.705 63.2363 397.636 63.389L396.745 63.0835L396.21 62.9308C395.319 63.0835 394.427 63.0835 394.071 63.0835C393.714 62.9308 393.001 63.2363 392.823 63.0835C392.645 62.9308 391.932 62.6253 391.575 62.778C391.219 62.9308 389.793 63.389 389.436 63.389C389.079 63.389 388.01 63.2363 387.832 63.0835C387.475 62.9308 385.871 63.389 384.801 63.5418C383.732 63.6945 381.058 63.2363 380.88 63.389C380.701 63.5418 379.81 63.0835 379.454 63.0835C379.275 63.0835 378.562 63.2363 378.562 63.0835C378.384 62.9308 378.206 62.778 378.028 62.9308C378.028 63.0835 377.314 63.2363 376.958 63.0835C376.423 62.9308 374.997 63.389 374.641 63.389L374.462 63.2363C373.571 62.778 373.036 62.778 372.145 63.2363C371.432 63.5418 370.719 62.778 370.184 62.9308C369.471 63.2363 368.758 63.389 368.223 63.2363C367.689 63.0835 367.51 63.0835 367.154 63.2363C366.975 63.2363 366.262 63.0835 366.262 63.0835C365.906 63.5418 365.549 62.9308 365.193 63.0835C364.836 63.389 364.836 63.2363 364.48 63.0835L363.945 62.778C363.232 62.9308 361.628 63.0835 360.38 63.2363C359.132 63.389 355.032 63.2363 354.497 63.389H353.963H352.537C351.111 63.389 349.506 63.5418 349.15 63.6945C348.793 63.8473 347.011 63.5418 346.298 63.389H345.585C344.871 63.389 343.98 63.389 343.089 63.389H342.554C342.376 63.0835 342.198 62.9308 342.019 62.9308C342.019 62.9308 341.484 63.0835 341.306 63.2363C341.128 63.389 340.237 63.6945 340.059 63.5418C339.88 63.389 338.098 63.6945 336.85 63.6945C335.602 63.6945 332.037 63.389 331.68 63.389C331.324 63.389 329.898 63.6945 329.541 63.389C329.185 63.2363 327.759 63.6945 327.224 63.6945C326.867 63.6945 325.263 63.8473 324.728 63.8473C324.193 63.8473 322.589 63.5418 322.233 63.5418C321.876 63.6945 320.45 63.6945 320.094 63.5418C319.737 63.389 317.776 63.6945 317.063 63.5418L316.35 63.389L315.815 63.2363C314.746 63.389 312.963 63.6945 311.715 63.6945C310.468 63.6945 306.189 63.8473 305.298 63.8473L304.942 62.9308C304.229 62.9308 303.872 63.0835 303.872 63.2363C303.872 63.389 303.872 63.6945 303.516 63.6945C303.159 63.6945 301.555 63.8473 301.02 64L300.307 63.6945L299.95 63.5418C299.772 63.389 299.416 63.0835 299.059 63.0835C298.881 63.2363 298.703 63.5418 298.703 63.5418L296.742 63.2363C294.603 63.5418 292.82 63.5418 292.82 63.389C292.82 63.2363 292.285 62.6253 291.929 62.778H291.572C290.681 62.778 291.037 63.2363 290.681 63.389C290.324 63.5418 289.968 63.389 289.611 63.5418C289.255 63.5418 288.72 63.6945 288.364 63.8473H288.185C287.829 63.6945 287.294 63.6945 286.937 63.5418C286.581 63.389 285.511 63.6945 285.155 63.6945C284.977 63.8473 283.729 63.5418 283.372 63.6945C283.016 63.8473 281.055 63.8473 279.985 64L279.094 63.389C278.916 63.2363 278.203 63.2363 278.025 63.389L277.133 63.8473C276.242 63.6945 275.172 63.389 274.638 63.389V63.5418C274.103 64.3055 273.39 63.389 272.855 63.6945L272.32 64C271.786 63.6945 270.538 63.389 269.646 63.2363L268.933 63.6945L268.399 64C268.042 63.5418 267.151 63.2363 266.616 63.389L266.438 63.5418C266.081 64 265.725 63.389 265.368 63.5418H265.19C265.012 63.5418 264.299 63.5418 263.586 63.389C262.873 63.2363 258.951 63.6945 258.773 63.6945C258.238 63.389 257.703 63.0835 257.168 63.5418C256.455 64 256.455 63.2363 255.742 63.389L255.208 63.5418C254.494 63.389 253.068 63.2363 251.821 63.389H250.751C250.038 63.389 249.147 63.5418 248.968 63.2363L248.434 62.6253C247.899 62.9308 247.364 63.0835 247.186 63.0835C247.008 63.0835 246.295 63.0835 245.76 63.0835H245.225C244.869 63.0835 244.334 63.2363 243.977 63.389C243.799 63.2363 243.621 62.9308 243.443 62.778C243.264 62.6253 242.729 63.0835 242.551 63.389H242.016H241.482C240.769 63.389 239.699 63.5418 238.986 63.5418L238.273 63.389L237.56 63.2363C236.847 63.2363 236.134 63.0835 235.956 62.9308C235.956 62.778 235.777 62.3198 235.777 62.3198C235.777 62.3198 235.599 62.4726 235.599 62.6253C235.599 62.7781 235.064 63.389 234.708 63.2363L234.53 63.0835C233.817 62.4726 233.817 62.4726 232.925 63.0835H232.747C232.569 63.0835 231.856 63.2363 230.964 63.2363C230.073 63.2363 227.756 62.6253 227.399 62.778C227.043 62.9308 226.508 62.6253 226.865 62.4726C227.043 62.3198 227.577 61.7088 227.043 61.8616C226.508 62.0143 225.438 62.6253 225.26 62.778H225.082C224.725 62.778 224.369 62.6253 224.012 62.6253C223.656 62.6253 223.299 62.778 223.121 62.778C222.764 62.778 222.23 62.778 221.873 62.778L220.804 62.3198C219.556 62.4726 218.308 62.778 217.952 62.778L217.595 62.6253C217.06 62.4726 215.812 62.3198 215.278 62.4726L214.208 62.778C213.317 62.4725 212.426 62.3198 212.247 62.4726C212.069 62.6253 209.752 62.4726 208.326 62.4726H207.078H206.186C205.117 62.4726 203.513 62.6253 202.621 62.778L201.73 62.6253C201.195 62.4726 199.947 62.1671 199.591 62.0143C199.413 61.8616 198.878 62.0143 198.878 62.0143C198.7 62.6253 198.343 62.7781 197.63 62.3198C197.63 62.3198 196.739 62.4726 195.848 62.6253L195.134 62.4726C194.243 62.3198 193.53 62.1671 192.817 62.6253C192.639 62.7781 192.104 62.6253 191.748 62.4726H191.391C191.035 62.3198 190.5 62.4726 190.322 62.6253C189.965 62.7781 188.361 62.4726 188.004 62.4726C187.648 62.4726 185.687 62.4726 184.795 62.6253L184.082 62.1671C184.082 62.1671 183.904 62.3198 183.726 62.3198L181.765 62.6253C180.696 62.4726 179.626 62.3198 179.448 62.1671C179.269 62.1671 177.843 62.3198 176.596 62.3198L175.348 62.4726H175.17C174.991 62.1671 174.635 62.0143 174.635 62.1671C174.635 62.4726 172.496 62.6253 171.248 62.6253L170.357 62.0143C170 62.1671 169.287 62.1671 168.574 62.1671L168.039 62.0143C167.504 61.8616 167.148 62.778 166.435 62.1671C166.257 62.0143 165.9 62.1671 165.722 62.1671C165.544 62.1671 165.365 62.3198 165.187 62.1671H164.831C164.474 62.1671 163.761 62.1671 163.226 62.3198L162.87 61.8616C162.335 61.2506 161.978 62.1671 161.265 61.8616C160.552 61.5561 160.909 60.9451 160.552 60.6396C160.374 60.4869 159.839 60.4869 159.483 60.6396L158.948 60.7924C158.413 61.0979 158.057 61.4034 158.235 61.5561C158.413 61.5561 158.235 61.8616 157.7 61.8616L157.165 61.7088C156.809 61.7088 156.452 61.5561 156.096 61.5561H155.026C154.313 60.9451 153.779 60.6396 153.779 60.9451C153.779 61.0979 153.244 62.0143 152.531 62.0143C151.818 62.0143 150.392 61.4033 150.392 61.4033L150.213 61.5561L150.035 61.7088C149.857 61.8616 149.144 61.8616 148.431 61.8616C147.718 61.8616 145.757 61.5561 145.579 61.4033C145.4 61.2506 144.687 61.2506 144.687 61.4033C144.687 61.5561 143.618 61.7088 143.618 61.5561C143.618 61.5561 143.44 61.0979 143.261 60.6396L142.192 61.0979C141.657 61.4034 141.122 61.4034 140.587 61.5561H140.231C139.696 61.5561 139.34 61.2506 139.34 60.9451V60.6396C139.34 60.3341 139.34 60.0287 138.805 60.0287C138.092 60.0287 138.448 60.4869 138.448 60.6396V60.7924C138.27 60.9451 138.092 60.9451 137.914 60.7924C137.735 60.6396 137.022 60.4869 136.666 60.7924L136.488 61.0979C136.309 61.2506 136.131 61.2506 135.953 61.2506H135.774C135.596 61.0978 135.418 60.7924 135.24 60.4869C135.061 60.1814 134.17 60.0286 134.348 60.1814C134.527 60.3341 134.348 60.9451 133.279 61.4033L132.388 60.7924L132.031 60.4869C131.675 60.6396 131.14 60.7924 130.783 60.9451C130.427 61.0979 128.822 60.4869 128.644 60.4869H128.466H128.288C128.109 60.4869 128.109 60.6396 128.109 60.7924C128.109 60.7924 127.575 61.2506 126.505 61.4033L125.97 61.0979L125.079 60.7924C124.188 60.9451 123.653 60.9451 123.653 60.7924C123.831 60.6396 123.296 59.7232 122.227 59.2649L120.979 59.8759L120.088 60.1814C118.84 59.8759 117.949 59.5704 118.305 59.5704L118.662 58.9594C119.553 59.1122 120.266 59.2649 120.444 59.2649C120.623 59.2649 120.622 58.6539 119.731 58.8067L119.196 58.5012L118.127 57.8902C117.77 58.5012 117.592 58.8067 117.414 58.6539C117.414 58.5012 117.057 58.1957 116.879 58.1957C116.701 58.1957 115.988 58.5012 115.988 58.6539C115.988 58.8067 115.275 59.2649 114.918 59.4177C114.562 59.7231 113.849 60.9451 113.849 60.6396C113.849 60.3341 113.314 59.7231 113.136 59.7231C112.779 59.7231 111.888 59.5704 111.71 59.5704C111.531 59.5704 110.997 59.7231 111.353 59.7231C111.531 59.8759 112.244 60.1814 112.423 60.3341V60.4869C112.423 60.4869 112.244 60.6396 112.066 60.6396L111.531 60.4869C110.818 60.3341 110.462 60.0286 110.462 59.7231C110.462 59.4177 110.284 58.9594 109.927 59.1122C109.57 59.2649 109.392 60.0286 109.214 60.1814C109.036 60.3341 107.966 60.3341 107.966 60.3341C107.788 60.3341 107.61 59.7232 107.966 59.2649C108.323 58.8067 108.501 57.7375 107.966 58.1957C107.431 58.6539 106.005 59.7232 105.649 59.5704C105.292 59.4177 104.579 60.0286 104.579 60.1814C104.401 60.3341 103.153 60.4869 102.975 60.1814C102.797 59.8759 104.401 59.4177 104.758 59.2649C105.114 59.1122 106.362 58.8067 106.362 58.6539C106.54 58.5012 106.54 58.043 106.54 57.8902C106.362 57.8902 106.005 57.8902 105.827 57.8902L105.471 58.1957C105.114 58.5012 104.758 58.8067 104.758 58.8067C104.579 58.8067 104.401 58.6539 104.223 58.3485C104.223 58.1957 103.688 57.5847 103.51 57.432C103.331 57.2792 102.797 56.821 102.618 56.9738C102.44 56.9738 101.905 57.432 101.549 57.7375H101.905H102.797C103.153 58.1957 103.51 58.6539 103.51 58.6539C103.51 58.6539 103.153 58.9594 102.797 58.9594H102.44H102.084C101.727 58.9594 101.371 59.1122 101.371 59.2649C101.192 59.2649 100.658 59.1122 100.479 59.2649C100.301 59.4177 99.7663 59.4177 99.588 59.2649C99.4098 58.9594 98.5185 58.5012 97.9837 58.8067L97.6272 58.9594L97.2707 59.1122C96.9142 58.9594 96.3794 58.6539 95.8446 58.3485L95.4881 58.043L95.1316 57.7375C94.5968 57.8902 93.8838 58.1957 93.7055 58.3485L93.5273 58.5012L93.1707 58.8067C92.8142 59.2649 92.2795 59.4177 91.7447 59.2649C91.2099 59.1122 90.3186 58.5012 89.9621 58.5012C89.6056 58.3485 88.7143 58.3484 88.8925 58.6539L88.7143 58.8067C88.536 58.9594 88.0012 59.1122 87.823 59.2649C88.0012 59.4177 88.0012 59.7231 87.823 59.7231C87.6447 59.7231 87.2882 59.5704 87.11 59.4177C86.9317 59.2649 85.6839 58.5012 84.6144 58.6539L84.7926 59.5704C84.7926 59.8759 83.7231 60.0286 83.5448 59.7231C83.3665 59.4177 83.3666 59.2649 83.9013 59.1122C84.0796 59.1122 84.4361 58.8067 84.2578 58.6539L84.0795 58.1957C83.9013 58.5012 83.1883 58.6539 82.6535 58.5012C82.1187 58.5012 80.5144 58.9594 80.1579 58.8067H79.9796C79.8014 58.8067 79.2666 58.6539 79.0883 58.8067L78.3753 59.1122C77.6623 58.9594 76.771 58.6539 76.771 58.6539C76.5927 58.6539 75.8797 58.6539 75.1666 58.8067L74.6319 58.5012L74.4536 58.3485C74.0971 58.1957 73.7406 58.3484 73.7406 58.6539C73.7406 58.8067 73.0276 59.5704 72.3145 59.5704C71.6015 59.5704 69.9971 59.4177 69.8189 59.5704V59.7231L69.6407 59.8759C69.4624 60.0286 69.4624 60.0286 69.2841 59.8759V59.7231L69.1059 59.5704C68.9276 59.4177 68.2146 59.4177 67.5015 59.7231L66.9668 59.2649C66.6103 59.5704 66.0755 59.7232 65.719 59.5704C65.3624 59.4177 64.4712 59.5704 63.9364 59.5704C63.4016 59.4177 61.9756 59.8759 61.619 60.0287C61.2625 60.0287 60.0147 59.8759 59.4799 60.0287L58.9452 59.5704L58.4104 59.2649C57.6973 59.4177 56.6278 59.7231 55.9148 59.7231L55.38 59.8759L54.8452 60.0287C54.3104 59.8759 53.5974 59.4177 53.2409 59.2649L52.7061 59.7231C52.3496 60.1814 51.9931 59.5704 51.6366 59.5704C51.2801 59.5704 50.567 59.8759 50.3887 59.8759C49.6757 59.5704 49.1409 59.5704 48.4279 59.5704C47.5366 59.5704 46.6453 59.2649 45.9323 59.8759C45.754 59.8759 45.2192 59.7232 44.8627 59.5704C44.5062 59.4177 42.9019 59.2649 42.1888 59.5704L41.4758 59.4177C40.228 59.2649 38.802 58.9594 37.5542 58.6539C37.1977 58.6539 37.1976 58.1957 36.8411 58.043C36.6628 57.8902 36.4846 57.7375 36.3063 57.7375C35.9498 57.7375 35.5933 57.8902 35.4151 57.8902H35.2368C35.0585 57.5847 34.702 57.2792 34.1672 57.1265C33.6325 56.9737 32.3847 57.1265 32.0282 57.2792L31.6716 57.1265C30.9586 56.821 30.2455 56.6683 28.8195 56.6683C28.6412 56.6683 28.463 56.3628 28.463 56.21C28.8195 55.9045 29.3543 55.7518 28.2847 55.599C27.7499 55.599 27.9282 55.1408 28.2847 54.9881L28.463 54.8353C28.6412 54.6826 28.6412 54.3771 28.463 54.2243C28.2847 54.0716 28.9978 53.7661 29.176 53.9189C29.3543 54.0716 30.4238 53.7661 30.6021 54.0716L30.7803 54.2243C30.9586 54.3771 30.7803 54.5298 30.7803 54.6826C30.7803 54.8353 31.1369 54.8353 31.3151 54.9881H31.4933C31.6716 54.9881 32.0281 54.6826 32.3846 54.3771C32.7412 54.0716 33.276 53.0024 33.0977 52.8496C32.9195 52.5441 31.4934 52.8496 31.1369 52.6969V52.5442L30.9586 52.0859C30.6021 51.6277 30.2456 51.4749 30.0673 51.7804C29.889 51.9332 29.7108 52.8496 29.3543 52.5442C28.9978 52.2387 27.2152 51.7804 26.8587 51.6277C26.5022 51.475 27.3935 50.7112 27.75 51.0167C28.1065 51.1694 29.176 51.6277 29.3543 51.6277C29.5325 51.475 29.889 51.0167 30.0673 50.7112L30.7803 51.0167C30.9586 51.1694 31.4933 51.1694 31.4933 51.0167C31.6716 50.7112 31.6716 50.5585 31.1369 50.4057L30.7803 50.253C30.4238 49.7947 30.4238 49.3365 30.7803 49.1838L30.9586 49.031L31.1369 48.8783C31.1369 48.5728 30.7803 48.42 30.6021 48.2673C30.4238 48.2673 29.3543 47.8091 28.463 47.6563L28.2847 48.1146L27.9282 49.031C27.0369 48.8783 26.5022 48.5728 26.8587 48.42C27.2152 48.2673 27.5717 48.1146 27.5717 47.9618C27.3934 47.9618 26.8587 47.5036 26.5021 47.1981L26.1456 47.0454L25.7891 46.8926C25.4326 47.0453 24.7195 46.8926 24.363 46.7398H24.0065C23.4718 46.7398 23.1152 46.7398 22.5804 46.7398C21.6891 46.7398 20.9761 46.5871 20.0848 46.7398C19.3718 46.8926 18.8371 46.4344 17.9458 46.5871C17.5892 46.5871 17.0544 46.4344 16.6979 46.2816L16.1632 45.9761C15.4501 45.9761 14.3806 45.8234 13.4893 45.8234C12.7763 45.6707 10.1024 44.7542 9.03285 44.6014L8.14156 44.4487L7.60675 44.2959C6.89371 44.2959 6.00241 44.1432 5.6459 43.9905L5.28941 43.8377L3.86331 43.2267C4.04157 42.463 4.39813 41.6993 4.57639 41.3938L3.50683 41.5465C2.97205 41.5465 2.61555 41.3938 2.79381 41.0883V40.7828C2.97206 40.4773 2.7938 40.1718 2.61554 40.0191C2.43728 39.8663 2.08074 39.4081 2.259 39.4081C2.43726 39.2554 3.32857 38.7971 3.50683 38.6444L2.97202 38.4916C2.43725 38.3389 2.25901 38.1862 2.43727 37.8807L2.79381 37.4224C2.43729 37.2697 1.72422 36.2005 1.36771 35.1313L0.476416 34.3675L0.298146 34.2148C0.654663 33.6038 0.832932 33.1456 0.476416 33.1456C0.298157 33.1456 -0.236585 32.8401 0.119932 32.6873C0.476448 32.3819 0.119888 31.6181 0.298146 31.6181C0.476405 31.6181 1.18948 31.0072 1.01122 30.7017L0.832954 30.3962C0.654696 29.9379 0.298157 29.6324 0.476416 29.1742C0.476416 28.8687 1.01119 28.4105 1.36771 28.105C1.72422 27.9523 2.43728 27.9523 2.61554 27.7995L2.97202 27.3413C3.5068 27.3413 4.04159 27.494 4.21985 27.494C4.39811 27.494 5.64592 26.5776 6.00243 26.5776C6.35895 26.5776 7.60678 26.2721 8.14156 26.2721L8.67631 26.1193C9.03283 25.9666 9.74584 26.4248 10.1024 26.2721C10.6371 26.1193 10.8154 26.1193 11.3502 26.2721C11.7067 26.4248 12.2415 26.2721 12.598 26.2721L13.6675 25.8138C13.4893 26.2721 14.3806 26.1193 15.2719 25.5084L16.6979 25.6611H16.8762C17.2327 25.5084 17.5892 25.5084 17.7675 25.5084C17.9458 25.5084 19.1935 25.5083 20.0848 25.0501L21.3327 25.5084C21.6892 25.6611 22.7587 25.2029 22.937 25.3556L23.65 25.8138C24.1848 25.5083 25.0761 25.0501 25.6108 24.8974L26.1456 24.7446C26.6804 24.5919 27.3934 24.5919 27.9282 24.7446C28.8195 24.8974 29.7108 25.0501 30.6021 24.5919L31.3151 24.2864C32.2064 24.2864 33.0977 24.2864 33.2759 24.4391L33.4542 24.5919L33.6325 24.7446C33.8107 25.0501 34.3455 24.8974 34.702 24.5919C35.0585 24.2864 37.0194 24.5919 37.7324 24.5919C38.4454 24.5919 40.4063 23.9809 40.9411 23.8282H41.4758C42.5454 23.8282 43.0802 23.8282 43.6149 23.6754C43.7932 23.6754 43.9714 23.5227 44.1497 23.5227H44.5062C44.8628 23.3699 45.5758 23.2172 45.9323 23.0644H46.2888H46.6453C47.0018 23.3699 47.1801 23.2172 47.1801 22.7589L48.0714 22.9117C48.6062 22.9117 49.3192 23.0644 49.854 22.7589H50.2105C50.2105 23.0644 50.2105 23.3699 50.7453 23.2172C50.9235 23.2172 51.1018 22.759 51.28 22.6062C51.8148 22.4535 52.5279 22.3007 53.2409 22.148H53.9539C54.8452 22.3007 55.7365 22.148 56.093 22.148C56.4495 21.9952 57.6974 21.8425 57.8756 21.9952C58.2321 21.9952 59.3017 21.9952 59.3017 21.9952C59.4799 21.8425 60.0147 21.6897 60.0147 21.8425C60.0147 21.9952 60.5495 22.148 60.906 22.148C61.2625 21.9952 62.332 21.8425 62.6886 21.9952C62.8668 22.148 63.7581 22.4535 63.9364 22.4535C64.1146 22.3007 64.6494 21.8425 64.8277 21.6897C65.0059 21.537 66.2537 21.537 66.6103 21.537H66.9668H67.5015C68.0363 21.537 69.1059 21.537 69.8189 21.6897H70.3537C70.532 21.6897 70.7102 21.6897 70.8884 21.537L72.1363 20.926C72.8493 21.3842 73.5623 21.537 73.5623 21.3843C73.5623 21.2315 73.9188 20.7733 74.2753 20.926H74.6319H74.8102C75.1667 20.926 75.7014 20.6205 76.0579 20.315H76.771H76.9492C77.3057 20.0096 77.1275 19.7041 76.9492 19.3986H76.5927C76.058 19.2458 76.058 19.5513 75.8797 19.8568C75.8797 20.0096 75.3449 20.0095 74.9884 20.0095C74.2754 20.1623 73.5624 20.315 73.2058 20.1623C72.4928 19.8568 71.7797 20.0095 71.0667 20.0095C70.3537 20.0095 69.6406 20.0095 68.9276 20.0095C68.2146 20.0095 67.5016 20.0095 66.7885 20.0095C65.719 20.1623 65.3624 19.5513 64.8277 19.0931L64.2929 18.6348C63.5799 18.6348 62.8669 18.7876 62.5103 18.7876C62.1538 18.9403 61.619 18.9403 61.2625 18.9403C60.906 18.9403 60.193 18.4821 59.8365 18.3294C59.6582 18.1766 58.4104 17.8711 58.2321 18.0239L59.4799 20.1623C59.3017 20.4678 59.3016 20.4678 60.0147 20.4678C60.1929 20.4678 60.3712 20.4678 60.3712 20.4678C60.3712 20.6205 60.3712 20.926 60.1929 20.926C59.6582 20.926 58.9452 21.2315 58.9452 20.6205V20.315C59.1234 19.8568 59.1234 19.5513 59.3017 19.3986C59.3017 19.2458 59.3016 19.0931 59.1234 19.0931H58.9452C58.7669 19.0931 58.5886 19.0931 58.2321 19.2458L57.3408 19.3986C57.6973 19.8568 57.5191 20.315 56.9843 20.4678C56.4495 20.6205 54.6669 20.6205 54.6669 20.4678V20.315V20.0095C54.8452 19.704 54.667 19.5513 54.4887 19.5513C54.3105 19.5513 53.5974 19.2458 53.5974 18.6348H53.4192L51.8148 18.1766C52.1714 17.2601 52.8844 16.4964 53.2409 16.6492L53.5974 16.8019C53.9539 16.9547 54.3104 17.1074 54.6669 17.1074C54.8452 17.1074 55.2017 17.1074 55.38 16.9546L55.7365 16.8019C56.2713 16.8019 56.9843 16.4964 57.3408 16.3437V16.1909V16.0382C56.9843 15.8854 56.2713 15.5799 55.9148 15.5799L55.5582 15.7327C55.38 15.8854 55.5582 16.3437 55.0235 16.1909L54.6669 16.0382C54.3104 15.7327 53.7757 15.7327 53.5974 16.0382C53.4192 16.3437 52.3496 16.0382 52.5279 15.8854C52.5279 15.7327 52.5279 15.5799 52.3496 15.5799C52.1713 15.5799 51.4583 15.7327 51.4583 15.8854C51.4583 16.0382 51.1018 16.4964 50.9235 16.4964C50.7453 16.3437 50.9235 16.1909 50.7453 16.0382L50.2105 15.5799C49.3192 15.5799 48.6061 15.5799 48.4279 15.5799C48.2496 15.5799 48.0714 14.969 48.7844 14.358L49.6757 14.6635L50.3887 14.969C51.1018 14.969 51.8148 14.6635 51.8148 14.358C51.8148 14.0525 51.6366 13.2888 51.4583 13.2888C51.28 13.2888 50.567 13.4415 50.7453 13.5943V13.747V13.8997C50.7453 14.0525 50.2105 14.2053 49.854 14.2053C49.4975 14.0525 48.7844 13.747 49.141 13.5943V13.4415C49.141 13.2888 48.7844 12.9833 48.6062 12.8305C48.6062 12.8305 48.0714 12.9833 47.8931 12.9833C47.7149 12.9833 47.3584 12.8306 47.1801 12.6778C47.1801 12.6778 47.3583 12.3723 47.5366 12.3723C47.7149 12.3723 48.4279 12.5251 49.141 12.6778C49.854 12.8306 52.1713 12.2196 52.3496 12.3723H52.5279C52.7061 12.3723 53.0626 12.2196 53.2409 12.0668V11.9141V11.7613C53.0626 11.6086 53.2409 11.6086 53.4192 11.4558C53.5974 11.3031 54.3105 11.3031 54.4887 11.3031C54.667 11.4558 55.2017 11.6086 55.38 11.4558C55.5583 11.3031 56.2713 11.3031 56.4495 11.6086C56.6278 11.9141 57.3408 12.6778 57.5191 12.6778C57.5191 12.6778 57.5191 12.2196 57.3408 11.6086V10.9976V10.8449C57.6973 10.6921 58.0538 10.6921 58.2321 10.8449V10.9976L58.4104 11.3031C58.5886 11.7613 58.9451 11.6086 59.3017 10.9976L59.6582 10.6921L60.1929 10.3866C60.3712 9.92841 60.7277 9.6229 60.906 9.77565C61.0842 9.92839 61.619 10.2339 62.1538 10.2339L62.5103 10.3866L62.8668 10.5394C63.4016 10.6921 63.9364 10.5394 63.9364 10.2339C63.9364 9.9284 64.1147 9.62292 64.2929 9.62292H64.4711C65.0059 9.77566 65.3625 10.0811 65.8972 10.0811C66.0755 10.0811 66.432 9.47016 66.6103 9.47016H67.145C67.6798 9.47016 68.2146 9.47017 68.3928 9.62292C68.5711 9.62292 69.1059 9.62291 69.1059 9.16468V8.85919L69.2841 8.55369C69.4624 8.2482 70.5319 8.09547 71.6015 8.40096L72.8493 7.63723C73.5623 7.179 74.0971 6.41527 75.3449 7.17899C75.8797 6.8735 76.5927 6.72075 76.771 7.02624L77.1275 7.17899L77.3058 7.33175C77.484 7.33175 78.0188 7.33175 78.3753 7.33175C78.7318 7.33175 79.8014 7.02625 80.3362 6.87351C80.6927 6.72076 82.4753 6.72076 83.01 6.72076C83.5448 6.72076 84.7926 6.10978 85.1491 6.41527C85.5056 6.56802 86.2187 7.33173 86.0404 7.48448C86.0404 7.63722 86.2187 8.2482 86.5752 8.2482H86.9317H87.6447C88.0012 7.94271 88.7143 7.33173 88.8925 7.02624C89.2491 6.72075 90.1403 5.95704 90.3186 6.10979H90.4969L91.3881 6.41527C91.2099 6.72076 90.8534 7.179 90.6751 7.33175L90.4969 7.48448L90.3186 7.63723C90.4968 7.78998 90.6751 8.09546 90.8534 7.94272C91.0317 7.94272 91.7447 7.48447 92.4577 7.02624L93.349 7.33175L93.5273 7.48448C93.7055 7.63722 94.2403 7.33173 94.4186 7.02624C94.5968 6.72075 95.6664 5.80429 96.0229 5.95703H96.3794L96.9142 6.10979C97.4489 6.41528 98.162 6.56801 98.3402 6.72076C98.6967 6.72076 98.5185 7.48449 98.6967 7.63723C98.875 7.78998 99.2315 7.78997 99.4098 7.94272C99.4098 8.09546 100.123 7.94272 100.301 7.63723C100.301 7.33174 101.549 7.48448 101.905 7.48448C102.084 7.48448 103.153 7.179 104.045 7.33175H104.936H105.649C106.54 7.48449 107.253 7.48448 107.431 7.17899C108.144 6.8735 107.431 6.10978 107.61 5.95703ZM446.3 13.2888C446.657 12.8305 446.479 12.3723 445.766 12.0668L445.231 11.9141L444.34 11.7613C443.448 11.7613 442.914 11.9141 443.27 12.0668C443.448 12.3723 445.944 13.747 446.3 13.2888ZM454.857 17.7184C455.035 17.5656 454.857 16.9547 454.5 16.3437H453.253H452.005C451.47 16.9547 451.292 17.7184 451.826 18.0239H452.005L452.539 17.8711C453.074 17.5656 453.609 17.4129 453.787 17.5656C453.966 17.7184 454.679 17.8711 454.857 17.7184ZM460.739 54.6826C460.918 54.6826 461.452 54.3771 461.809 53.9189C462.165 53.4606 461.096 52.3914 461.274 52.3914V52.0859C460.739 51.9332 460.205 51.9332 460.026 52.0859C459.848 52.2387 460.205 52.6969 460.383 52.8496C460.561 53.0024 460.383 53.6134 460.561 53.9189C460.739 54.0716 460.561 54.6826 460.739 54.6826ZM67.6798 15.8854C67.6798 16.1909 67.3233 16.1909 67.145 16.0382C66.7885 15.8854 66.9668 16.4964 67.8581 16.4964H68.5711L69.8189 16.6492C70.3537 16.0382 70.3537 15.7327 69.9972 15.8854C69.6406 16.0382 68.3928 15.7327 68.3928 15.5799C68.3928 15.4272 68.2146 14.969 68.0363 14.969C67.858 15.1217 67.6798 15.7327 67.6798 15.8854ZM84.6144 8.40096C84.9709 7.94272 84.4361 7.63723 83.5448 7.63723L83.01 7.17899C82.6535 7.33174 82.297 7.63722 82.297 7.78996C82.297 7.94271 83.3665 8.40094 83.7231 8.55369C83.7231 9.01192 83.9013 9.16467 84.4361 8.70644L84.6144 8.40096ZM425.979 8.85919C425.979 8.55371 425.801 8.40095 425.622 8.70644C425.444 8.85919 424.909 9.16467 424.553 9.01192C424.196 8.85918 422.949 8.70645 423.127 8.85919C423.305 9.01194 423.305 9.16467 423.127 9.31741C422.949 9.47015 422.77 9.77566 423.662 9.62292L424.018 9.77565L424.553 9.9284C425.622 9.77566 425.979 9.16468 425.979 8.85919ZM461.096 47.9618C461.452 48.1146 461.809 48.1146 461.809 47.8091C461.987 47.5036 461.274 46.7399 461.096 46.5871L460.739 46.8926L460.026 47.3508C459.313 47.1981 458.6 47.1981 458.422 47.1981V47.5036C458.779 47.6563 459.313 47.9618 459.67 48.1146H459.848C460.026 48.2673 460.918 47.8091 461.096 47.9618ZM74.2753 9.01192C74.8101 9.16467 75.3449 9.16467 75.3449 9.01192C75.3449 8.85918 75.5232 8.40095 75.5232 8.2482C75.7014 8.09546 75.3449 7.78998 74.8102 8.09547L74.0971 7.78996C73.5624 7.48447 73.3841 8.09546 73.0276 8.2482C72.6711 8.40095 72.6711 8.70645 73.0276 8.85919C73.5623 9.16468 73.7406 9.31741 74.2753 9.01192ZM415.462 42.463C415.284 42.6158 415.462 42.6157 415.997 42.6157C416.531 42.6157 417.779 43.2267 418.314 43.2267C418.849 43.2267 419.027 42.3103 418.492 42.3103C417.601 42.1575 415.64 42.3103 415.462 42.463ZM298.346 61.5561C297.99 61.4034 297.811 61.5561 297.811 61.7088C297.811 61.8616 297.633 62.4726 297.455 62.4726C297.276 62.4726 296.742 62.4726 296.742 62.6253C296.742 62.7781 296.742 63.2363 296.92 63.2363C296.92 63.2363 297.99 63.0835 299.237 62.9308V62.6253V62.3198C299.237 62.1671 298.524 61.7088 298.346 61.5561ZM393.714 2.74941C394.071 2.90215 394.606 2.90213 394.962 2.4439L395.14 2.13842C395.14 1.98567 395.14 1.68019 394.962 1.52745C394.784 1.22196 394.427 1.22195 393.892 1.37469L393.536 1.52745C393.001 1.68019 393.536 2.44392 393.714 2.74941ZM383.732 2.74941C384.445 2.59666 384.801 2.29116 384.801 2.13842C384.623 1.98567 383.554 1.52743 383.375 1.68018C383.019 1.68018 383.197 2.90215 383.732 2.74941ZM466.622 50.253C466.8 49.9475 466.444 49.7948 465.731 49.9475L465.196 50.1003C464.839 50.253 464.483 50.5585 465.018 50.864L465.196 51.0167C465.374 51.3222 466.444 50.7112 466.622 50.253ZM118.305 5.95703C117.77 6.10978 117.949 6.56801 118.84 6.72076L119.375 6.87351C119.909 7.02625 120.266 6.72076 120.444 6.41527C120.623 6.26253 120.623 6.10978 120.444 5.95703C120.444 5.80429 118.662 5.65155 118.483 5.65155L118.305 5.95703ZM55.2017 13.747C55.2017 13.5943 54.8452 13.2888 54.4887 13.2888C54.1322 13.2888 53.5974 13.4415 53.2409 13.5943C52.8844 13.747 52.3496 14.6635 52.3496 14.8162H52.5279H52.7061C52.8844 14.8162 53.7756 14.5107 54.6669 14.0525L55.2017 13.747ZM114.027 7.02624C114.027 7.17898 114.205 7.33174 114.74 7.17899C115.097 7.02625 116.166 6.56802 116.344 6.41527L115.988 6.10979C115.81 5.95704 115.988 5.4988 115.275 5.65155L114.74 5.8043C114.383 6.10979 114.027 6.8735 114.027 7.02624ZM283.907 3.66586C284.264 3.97135 284.442 3.81861 283.907 3.66586C283.551 3.36037 282.481 2.74939 282.303 2.90214C282.125 3.20763 282.303 3.97136 283.016 4.1241L283.194 3.97135L283.907 3.66586ZM148.787 6.41527C148.787 6.56802 149.144 6.56801 149.5 6.26252C149.857 5.95703 149.857 5.04056 149.5 5.19331C148.966 5.34605 147.896 5.4988 147.896 5.65155C147.896 5.80429 147.896 5.95703 148.074 5.95703C148.253 5.80429 148.787 6.10978 148.787 6.41527ZM212.069 4.42959C210.999 4.42959 210.465 4.58234 210.821 5.04058L211.534 4.88782C212.247 4.73508 212.782 4.58233 213.317 4.42959C213.317 4.42959 213.317 4.12409 213.317 3.97135L212.96 3.81862L212.069 4.42959ZM48.4279 56.821C48.6061 56.5155 48.7844 55.9045 48.6062 55.599L47.8931 55.7518C47.7149 55.7518 47.3584 56.21 47.3584 55.9045C47.1801 55.4463 47.0019 55.2936 46.4671 55.599H46.2888C46.4671 55.9045 47.0019 56.3628 47.3584 56.6683L47.7149 56.821H48.4279ZM407.975 40.3246C408.153 40.1718 407.797 39.8663 407.084 39.8663L406.727 40.0191L406.371 40.1718C406.014 40.4773 406.014 40.9356 406.192 41.2411H406.371H406.727C407.084 41.0883 407.797 40.4773 407.975 40.3246ZM345.763 2.59665C345.941 2.29117 345.941 2.13843 345.406 2.29117C344.871 2.44391 343.802 2.29116 343.624 2.4439V2.59665C343.624 2.90214 343.445 3.20762 343.98 3.20762H344.337C344.693 3.51311 345.584 2.90214 345.763 2.59665ZM416.531 9.47016C415.996 9.16467 415.996 9.01192 416.531 9.31741C417.066 9.6229 418.67 9.9284 418.849 9.9284C419.027 9.77566 418.849 9.31742 417.957 9.16468L417.601 9.31741L416.531 9.47016ZM357.171 3.20762C357.706 3.36037 358.063 3.51312 357.884 3.36038C357.884 3.20763 358.063 2.74941 358.063 2.74941C358.063 2.59666 357.884 2.29117 357.349 2.29117C356.993 2.13843 356.815 3.05488 357.171 3.20762ZM290.324 3.36038C289.79 3.36038 289.968 3.66587 290.503 4.1241L291.038 4.27685H291.216C291.929 3.81862 290.859 3.36038 290.324 3.36038ZM116.166 57.432C115.631 57.432 115.453 57.5847 115.453 57.8902C115.631 58.1957 116.344 58.6539 116.879 58.5012C117.414 58.3485 116.701 57.432 116.166 57.432ZM420.096 45.9761C420.096 45.9761 419.918 46.2816 419.74 46.4344C419.383 46.5871 419.383 47.1981 419.74 47.0454L420.096 46.8926L420.631 46.7398C421.166 46.5871 421.523 46.2816 421.166 46.1289L420.81 45.9761C420.631 45.9761 420.631 45.8234 420.453 45.8234H420.275C420.096 45.6707 420.096 45.9761 420.096 45.9761ZM412.966 40.9356C413.501 40.9356 413.857 40.7828 413.501 40.4773C413.144 40.3246 411.718 40.4773 411.362 40.4773C410.827 40.6301 412.431 40.9356 412.966 40.9356ZM270.894 3.81862C271.429 4.27685 272.142 3.97135 272.499 3.20762L271.429 2.90214L271.251 2.74941C270.716 3.0549 270.36 3.36038 270.538 3.36038L270.894 3.81862ZM97.0924 14.2053C96.9142 14.358 96.9142 14.5107 97.0924 14.6635C97.2707 14.8162 98.3402 15.1217 98.6967 15.2745H99.0533C99.2315 15.2745 99.4098 15.1217 99.4098 15.1217C99.4098 14.969 99.4098 14.8162 99.4098 14.8162L98.875 14.5107C98.3402 14.2053 97.449 14.0525 97.0924 14.2053ZM64.2929 16.4964C63.5799 15.8854 62.6886 15.8854 61.7973 16.1909C62.8668 17.2601 62.8669 17.2602 64.2929 16.4964Z" fill="#303030"/>
</svg>
