<?xml-stylesheet type="text/css" href='svg.css'?>
<svg width="22" height="22" viewBox="0 0 22 22" xmlns="http://www.w3.org/2000/svg">
<path d="M18.3333 7.33337H3.66667C3.16041 7.33337 2.75 7.74378 2.75 8.25004V10.0834C2.75 10.5896 3.16041 11 3.66667 11H18.3333C18.8396 11 19.25 10.5896 19.25 10.0834V8.25004C19.25 7.74378 18.8396 7.33337 18.3333 7.33337Z"  stroke-width="1.5" stroke-linecap="round" stroke-linejoin="round"/>
<path d="M11 7.33337V19.25"  stroke-width="1.5" stroke-linecap="round" stroke-linejoin="round"/>
<path d="M17.4168 11V17.4167C17.4168 17.9029 17.2237 18.3692 16.8799 18.713C16.536 19.0568 16.0697 19.25 15.5835 19.25H6.41683C5.9306 19.25 5.46428 19.0568 5.12047 18.713C4.77665 18.3692 4.5835 17.9029 4.5835 17.4167V11"  stroke-width="1.5" stroke-linecap="round" stroke-linejoin="round"/>
<path d="M6.87516 7.33337C6.26737 7.33337 5.68448 7.09193 5.25471 6.66215C4.82494 6.23238 4.5835 5.64949 4.5835 5.0417C4.5835 4.43391 4.82494 3.85102 5.25471 3.42125C5.68448 2.99148 6.26737 2.75003 6.87516 2.75003C7.75946 2.73463 8.62602 3.16369 9.36184 3.98127C10.0977 4.79884 10.6686 5.96699 11.0002 7.33337C11.3317 5.96699 11.9027 4.79884 12.6385 3.98127C13.3743 3.16369 14.2409 2.73463 15.1252 2.75003C15.733 2.75003 16.3158 2.99148 16.7456 3.42125C17.1754 3.85102 17.4168 4.43391 17.4168 5.0417C17.4168 5.64949 17.1754 6.23238 16.7456 6.66215C16.3158 7.09193 15.733 7.33337 15.1252 7.33337"  stroke-width="1.5" stroke-linecap="round" stroke-linejoin="round"/>
</svg>
