<svg width="257" height="442" viewBox="0 0 257 442" fill="none" xmlns="http://www.w3.org/2000/svg">
<path d="M223.549 438.263C226.193 437.672 228.432 437.06 230.71 436.691C233.696 436.206 236.716 435.617 239.716 435.641C241.728 435.657 243.853 436.399 245.714 437.272C249.797 439.187 251.406 442.67 250.939 447.066C249.507 460.546 247.961 474.013 246.562 487.496C244.746 505 244.513 522.53 246.847 539.991C249.416 559.216 252.332 578.395 255.149 597.586C256.596 607.445 257.327 617.338 256.859 627.299C256.789 628.784 256.406 630.254 256.15 631.84C253.254 631.592 252.36 629.623 251.928 627.589C251.129 623.825 250.542 620.008 250.016 616.193C248.406 604.502 246.793 592.811 245.317 581.102C242.746 560.699 239.54 540.366 239.253 519.723C239.063 506.104 240.397 492.646 242.472 479.228C243.026 475.648 243.618 472.074 244.152 468.491C244.299 467.499 244.3 466.485 244.419 464.728C236.976 472.333 228.116 476.032 218.983 478.646C218.983 481.138 218.951 483.321 218.989 485.504C219.235 499.791 217.972 513.974 216.53 528.176C215.091 542.355 214.144 556.592 213.337 570.823C212.199 590.916 212.607 611.032 213.032 631.142C213.083 633.557 213.312 636.068 211.336 638.706C210.724 637.134 209.996 635.946 209.824 634.683C209.46 632.026 209.255 629.331 209.218 626.648C208.925 605.602 208.527 584.547 209.959 563.529C210.713 552.459 211.764 541.399 213.034 530.375C214.896 514.216 215.841 498.011 216.243 481.763C216.257 481.199 216.16 480.631 216.087 479.724C207.595 481.915 199.124 482.147 190.422 481.461C190.192 482.193 189.887 482.812 189.808 483.459C188.695 492.618 187.525 501.771 186.544 510.944C185.339 522.213 184.241 533.495 183.205 544.781C182.372 553.857 181.844 562.963 180.92 572.03C179.54 585.564 179.743 599.113 180.02 612.676C180.198 621.325 180.227 629.978 180.286 638.629C180.293 639.717 180.074 640.806 179.895 642.507C177.843 640.025 177.676 637.696 177.581 635.428C177.32 629.237 177.007 623.039 177.042 616.846C177.115 603.875 177.183 590.897 177.673 577.937C177.991 569.541 179.052 561.172 179.781 552.79C180.642 542.895 181.323 532.98 182.416 523.111C183.495 513.364 185.002 503.665 186.298 493.941C186.837 489.895 187.315 485.841 187.854 481.526C180.01 480.45 172.42 479.41 164.489 478.322C164.316 480.108 164.231 481.815 163.974 483.495C161.38 500.469 158.9 517.461 156.101 534.401C153.661 549.171 151.742 563.974 150.73 578.922C149.413 598.393 147.675 617.836 146.061 637.286C145.932 638.833 145.362 640.344 144.844 642.512C143.203 640.637 143.136 639.055 143.231 637.506C143.683 630.159 144.129 622.811 144.702 615.473C145.531 604.871 146.707 594.291 147.305 583.678C148.438 563.574 151.13 543.693 154.672 523.885C157.323 509.056 159.436 494.131 161.777 479.247C161.848 478.796 161.786 478.325 161.786 477.785C153.396 474.7 145.019 471.62 136.424 468.459C135.62 473.846 134.906 479.017 134.067 484.168C130.462 506.304 126.731 528.42 123.226 550.571C121.035 564.415 119.06 578.296 117.187 592.187C115.97 601.215 114.982 610.28 114.135 619.351C113.581 625.282 113.477 631.254 113.139 637.205C113.063 638.541 112.85 639.87 112.681 641.382C110.989 640.897 110.807 639.85 110.77 638.836C110.619 634.754 110.119 630.631 110.499 626.593C111.735 613.454 113.268 600.343 114.749 587.228C117.624 561.778 123.26 536.787 127.376 511.543C129.761 496.915 132.093 482.279 134.506 467.287C126.844 463.807 120.035 458.629 111.759 455.155C111.646 457.051 111.5 458.522 111.48 459.995C111.298 473.448 110.681 486.875 108.587 500.184C106.062 516.228 103.407 532.251 100.801 548.282C98.0626 565.121 95.675 582.028 92.4534 598.775C90.095 611.034 90.0191 623.404 89.0292 635.735C88.8893 637.477 88.5875 639.21 88.2982 640.936C88.1155 642.027 87.6702 643.058 86.3417 642.988C84.956 642.916 84.2478 642.001 84.2594 640.646C84.2931 636.672 84.3017 632.696 84.4514 628.725C85.1934 609.045 88.8114 589.746 92.2023 570.412C94.3208 558.332 96.1057 546.194 98.2044 534.111C99.7629 525.136 101.563 516.204 103.295 507.26C105.39 496.442 106.091 485.484 106.689 474.511C106.988 469.028 107.38 463.55 107.678 458.067C107.76 456.556 107.835 455.008 107.606 453.524C106.667 447.427 109.782 443.395 114.528 440.493C116.481 439.298 117.456 438.202 117.322 435.904C116.956 429.618 117.156 423.266 116.309 417.052C115.737 412.851 113.93 408.777 112.339 404.78C111.853 403.558 110.377 402.57 109.141 401.832C94.6862 393.198 80.035 384.883 65.7525 375.976C52.5615 367.75 39.6824 359.016 26.806 350.298C19.6147 345.429 13.2458 339.558 7.64884 332.879C3.88987 328.394 1.34012 323.376 0.355193 317.564C-0.327482 313.535 -0.0580661 309.591 1.44222 305.84C2.91354 302.16 4.72513 298.616 6.39985 295.019C6.74435 294.279 7.24706 293.599 7.50304 292.834C12.0837 279.131 18.8967 266.452 25.587 253.733C33.1502 239.355 40.9937 225.125 48.6433 210.792C52.6508 203.284 57.8008 196.698 64.0008 190.889C66.7313 188.331 69.2804 185.576 72.0511 183.064C73.4309 181.813 73.7997 180.514 73.5753 178.733C72.9619 173.864 72.1582 168.985 72.0399 164.096C71.8252 155.233 71.9132 146.356 72.1792 137.494C72.2617 134.747 73.1298 131.965 73.9845 129.311C76.2849 122.166 81.1455 117.557 88.1805 114.861C96.2125 111.783 105.154 115.151 109.821 120.661C113.806 125.365 115.783 130.92 117.09 136.792C117.52 138.726 117.778 140.698 118.173 142.994C119.032 142.573 119.815 142.211 120.58 141.813C124.617 139.714 128.559 137.407 132.706 135.555C137.521 133.406 141.897 134.915 145.691 138.176C149.284 141.265 151.295 145.359 152.124 149.953C152.402 151.497 152.181 153.239 151.774 154.781C148.884 165.728 144.037 175.544 135.283 183.125C131.314 186.562 127.54 190.224 123.722 193.744C124.461 198.192 125.282 202.428 125.847 206.698C126.627 212.595 127.167 218.523 127.929 224.423C128.068 225.5 128.648 226.583 129.242 227.527C131.538 231.18 133.978 234.744 136.24 238.418C136.897 239.485 137.351 240.776 137.523 242.017C137.774 243.823 138.78 244.685 140.388 245.105C140.952 245.252 141.514 245.457 142.088 245.503C148.995 246.058 154.005 249.866 158.359 254.864C164.391 261.789 167.491 270.009 168.99 278.912C169.235 280.368 169.792 281.434 170.702 282.579C175.304 288.374 179.186 294.598 181.541 301.687C183.105 306.396 182.256 310.966 180.688 315.422C180.054 317.223 180.15 318.722 180.739 320.459C182.141 324.594 184.587 327.944 188.031 330.534C191.86 333.414 195.783 336.173 199.7 338.936C202.279 340.755 204.924 342.482 207.532 344.26C219.216 352.227 224.148 363.378 224.564 377.402C225.056 394.035 223.779 410.588 223.555 427.18C223.508 430.667 223.549 434.156 223.549 438.263ZM118.333 147.644C118.176 147.714 117.84 147.801 117.576 147.989C107.852 154.914 98.2974 162.032 89.879 170.573C84.2151 176.319 78.4737 182.002 72.5431 187.47C62.1204 197.081 53.5113 207.981 47.0361 220.649C38.6863 236.985 29.9492 253.122 21.4776 269.397C15.4868 280.905 10.0441 292.648 5.85909 304.976C2.95998 313.515 4.21785 321.142 9.76367 328.018C12.8359 331.827 16.1308 335.54 19.788 338.774C24.5943 343.024 29.7036 346.975 34.9486 350.679C59.4179 367.959 85.14 383.301 110.493 399.214C113.653 401.197 116.666 403.417 119.714 405.573C120.282 405.975 120.693 406.597 121.177 407.117C121.081 407.236 120.984 407.354 120.887 407.472C119.383 406.888 117.878 406.303 115.834 405.509C119.18 412.922 120.78 419.962 120.891 427.282C120.99 433.82 120.814 440.361 120.764 446.9C120.754 448.157 120.762 449.415 120.762 450.306C125.898 452.396 130.633 454.364 135.4 456.253C142.025 458.88 148.604 461.645 155.326 464C172.189 469.909 189.488 472.824 207.397 470.726C211.646 470.228 215.914 469.667 219.981 467.882C219.922 466.875 219.893 466.068 219.826 465.264C218.22 446.221 218.704 427.169 219.906 408.14C220.629 396.688 220.676 385.247 220.374 373.799C220.112 363.888 216.158 355.688 208.248 349.562C205.477 347.416 202.553 345.468 199.74 343.374C195.616 340.305 191.474 337.255 187.442 334.067C183.427 330.893 180.252 327.051 178.756 322.023C178.677 321.759 178.283 321.588 177.633 321.025C174.931 326.613 172.321 332.009 169.423 338.001C169.005 334.799 169.676 332.373 170.276 329.948C171.355 325.593 173.389 321.664 175.589 317.784C178.092 313.371 179.331 308.56 177.789 303.625C175.356 295.838 170.955 289.058 165.902 282.719C165.266 281.921 164.06 281.401 163.019 281.133C160.363 280.448 157.756 280.913 155.859 282.916C152.9 286.039 149.793 289.139 147.451 292.709C139.823 304.338 132.522 316.182 125.071 327.928C123.947 329.701 122.76 331.445 121.464 333.094C121.086 333.575 120.227 333.68 119.589 333.957C119.388 333.771 119.187 333.586 118.986 333.401C119.409 332.398 119.722 331.33 120.27 330.402C128.056 317.221 135.848 304.044 143.71 290.908C144.965 288.811 146.415 286.783 148.048 284.969C149.912 282.899 151.995 280.999 154.14 279.214C156.979 276.852 160.232 276.446 163.704 277.734C164.495 278.027 165.329 278.202 166.736 278.598C164.248 272.99 162.437 267.74 159.706 263.023C155.51 255.775 149.992 249.808 140.963 248.611C140.166 248.506 139.312 248.283 138.641 247.864C135.617 245.981 133.309 246.974 130.814 249.142C125.793 253.505 121.985 258.794 118.457 264.319C110.152 277.324 101.924 290.378 93.6466 303.4C92.8788 304.607 91.9772 305.73 91.1377 306.893C90.8599 306.741 90.5823 306.589 90.3044 306.438C90.9092 304.998 91.3586 303.468 92.146 302.136C95.2994 296.805 98.5361 291.523 101.782 286.247C108.275 275.695 114.786 265.154 121.306 254.619C123.77 250.638 127.259 247.76 131.322 245.527C132.012 245.148 132.717 244.794 133.32 244.478C133.642 241.79 132.967 239.55 131.539 237.641C127.688 232.493 123.836 227.337 119.735 222.39C118.286 220.643 116.264 219.211 114.235 218.146C111.787 216.861 109.083 215.441 106.227 216.159C102.622 217.067 99.3123 218.454 96.7235 221.61C86.2916 234.326 77.7569 248.257 69.6374 262.493C65.2388 270.204 60.842 277.946 55.896 285.306C52.9964 289.621 49.0389 293.231 45.5016 297.108C45.0583 297.593 44.275 297.77 42.9509 298.446C43.97 296.84 44.5232 295.96 45.0844 295.085C50.573 286.53 56.2212 278.071 61.5043 269.39C65.938 262.105 69.8759 254.52 74.1581 247.14C83.3648 231.272 94.4886 216.89 107.696 204.122C116.02 196.074 124.234 187.911 132.514 179.818C136.721 175.706 140.288 171.093 143.398 166.117C143.772 165.52 143.993 164.827 144.533 163.626C142.427 164.892 140.923 165.779 139.436 166.694C136.344 168.596 132.989 169.299 129.375 169.135C122.254 168.812 116.781 163.261 116.992 156.116C117.077 153.274 117.868 150.452 118.333 147.644ZM115.418 145.562C114.713 141.809 114.212 138.58 113.483 135.404C112.583 131.488 110.815 127.941 108.351 124.757C98.5613 112.102 83.0724 117.941 78.3632 128.039C76.2038 132.67 75.3262 137.596 75.1021 142.639C74.6139 153.622 75.1142 164.577 76.303 175.503C76.3861 176.266 76.5079 177.024 76.7296 178.646C89.0359 166.223 101.228 154.725 115.418 145.562ZM245.405 459.448C242.41 461.585 239.618 463.888 236.542 465.714C225.87 472.048 214.228 475.224 201.858 475.66C186.008 476.218 170.559 473.777 155.754 468.209C142.205 463.113 128.903 457.357 115.502 451.87C114.759 451.565 114.073 451.094 113.411 450.628C112.087 449.696 111.992 448.444 112.981 447.314C113.889 446.277 115.045 445.449 116.128 444.574C116.933 443.925 117.825 443.36 116.96 441.652C115.356 442.865 113.72 443.79 112.485 445.094C108.665 449.13 109.324 451.822 114.442 454.115C117.207 455.353 120.108 456.416 122.629 458.05C134.112 465.493 146.882 470.063 159.539 474.899C160.515 475.272 161.563 475.457 162.577 475.733C170.168 477.795 177.978 478.421 185.739 479.461C199.976 481.368 213.692 479.818 227.039 474.545C233.331 472.06 238.821 468.406 243.743 463.819C245.027 462.623 245.672 461.255 245.405 459.448ZM133.479 140.16C129.839 142.402 126.536 144.952 123.583 147.927C120.086 151.449 119.323 156.692 121.528 161.172C123.092 164.348 125.568 166.112 129.17 166.458C135.556 167.073 139.988 163.567 144.132 159.509C144.626 159.025 144.664 157.742 144.466 156.938C142.793 150.15 139.061 144.682 133.479 140.16ZM104.771 212.741C108.518 212.517 112.004 213.274 115.122 214.794C118.268 216.328 121.053 218.603 124.155 220.659C123.074 212.675 122.011 204.827 120.902 196.637C115.263 202.266 110.017 207.504 104.771 212.741ZM135.304 139.402C137.023 141.292 138.649 142.946 140.116 144.73C141.519 146.435 142.917 148.184 144.023 150.084C145.141 152.005 145.898 154.136 146.814 156.175C147.839 154.966 148.553 153.772 148.487 152.623C148.146 146.68 145.805 141.85 140.317 138.896C138.598 137.971 137.042 137.794 135.304 139.402ZM223.479 442.758C223.535 443.534 223.599 444.414 223.674 445.435C224.456 445.354 225.035 445.361 225.578 445.226C228.062 444.611 230.545 443.988 233.012 443.307C237.232 442.14 241.473 441.831 245.878 442.9C244.871 441.777 243.84 440.844 242.637 440.27C239.725 438.88 236.722 439.451 233.752 440.19C230.499 440.998 227.248 441.815 223.479 442.758Z" fill="#303030"/>
<path d="M130.882 66.6518C131.223 65.0887 131.536 63.5188 131.91 61.9634C134.475 51.2894 136.895 40.5768 139.687 29.9621C141.384 23.5118 143.924 17.2957 147.557 11.6648C149.439 8.74721 151.839 6.14328 154.168 3.54321C155.076 2.52971 156.358 1.77249 157.595 1.14559C162.681 -1.43167 167.535 0.414732 168.868 5.92806C169.816 9.84593 170.062 14.0174 170.024 18.0702C169.96 24.9103 167.98 31.4418 165.843 37.8888C161.238 51.7776 155.391 65.1626 149.215 78.407C142.729 92.317 137.865 106.826 133.216 121.414C132.438 123.854 131.996 126.402 131.411 128.903C131.18 129.895 131.247 131.355 129.827 131.142C129.026 131.022 128.106 130.038 127.702 129.216C126.056 125.864 124.654 122.391 123.043 119.02C114.172 100.453 105.582 81.7651 99.2911 62.1283C95.6758 50.8448 94.4634 39.2989 96.0747 27.5102C96.7811 22.3416 98.5304 17.5422 101.232 13.0921C102.717 10.6455 104.655 8.64841 107.314 7.45317C111.605 5.52414 115.663 5.67095 119.511 8.64777C122.753 11.1566 125.038 14.2647 126.393 18.1521C128.9 25.3457 129.128 32.8122 129.309 40.2985C129.486 47.6607 129.673 55.0226 129.877 62.3842C129.916 63.761 130.058 65.1351 130.152 66.5104C130.395 66.5577 130.638 66.6047 130.882 66.6518ZM130.981 79.4302C130.567 79.4621 130.152 79.4938 129.737 79.5256C129.329 78.522 128.745 77.5513 128.549 76.5078C128.162 74.446 127.861 72.3507 127.751 70.2574C127.159 58.9457 126.65 47.6298 126.084 36.3166C125.791 30.4829 125.46 24.6566 123.538 19.0517C122.486 15.981 120.779 13.4036 118.284 11.3376C114.896 8.53054 111.733 8.04837 107.954 10.2878C106.21 11.3211 104.625 12.8852 103.444 14.5466C100.983 18.0104 99.5618 21.9794 98.8668 26.1859C97.5572 34.1122 97.8966 42.016 99.2541 49.8953C101.011 60.091 104.51 69.7633 108.578 79.205C114.768 93.5737 121.249 107.817 127.626 122.106C127.837 122.58 128.26 122.96 128.785 123.647C129.439 121.89 129.984 120.482 130.49 119.06C134.989 106.414 139.058 93.5944 144.092 81.1652C149.525 67.7495 155.63 54.6013 160.32 40.888C161.905 36.2545 163.244 31.5277 164.485 26.7885C166.01 20.9669 166.334 15.0157 165.535 9.05103C164.792 3.5065 161.778 2.08181 157.417 5.46803C154.882 7.43554 152.611 9.93147 150.78 12.5758C146.628 18.5722 143.73 25.2694 141.843 32.2774C137.898 46.9287 134.081 61.6226 131.802 76.6576C131.659 77.6016 131.261 78.507 130.981 79.4302Z" fill="#E77AC1"/>
<path d="M145.727 118.835C146.083 113.93 149.283 109.738 153.832 106.56C155.768 105.208 158.256 104.892 160.465 106.357C162.564 107.75 163.019 109.963 162.711 112.251C161.923 118.113 158.835 122.465 153.474 124.969C149.22 126.956 145.744 124.518 145.727 118.835ZM159.339 112.935C159.462 109.112 158.176 108.181 155.315 109.336C150.789 111.163 149.034 115.005 148.388 119.4C147.937 122.473 149.957 123.782 152.722 122.287C156.657 120.158 158.671 116.612 159.339 112.935Z" fill="#E77AC1"/>
<path d="M92.8944 104.627C92.4779 104.583 91.7359 104.642 91.0935 104.417C85.6624 102.515 81.3813 99.3107 79.7236 93.5351C78.4536 89.11 81.265 85.8992 85.8695 86.2614C91.5671 86.7096 98.4452 93.7227 98.7415 99.3857C98.9093 102.597 96.7395 104.641 92.8944 104.627ZM93.5444 102.572C96.052 102.577 97.2566 100.999 96.733 98.3963C95.8939 94.2254 89.9337 89.499 85.6767 89.629C83.4992 89.6955 82.5342 90.8337 82.8211 92.9967C83.3992 97.3542 89.2334 102.564 93.5444 102.572Z" fill="#E77AC1"/>
<path d="M169.867 84.8478C169.799 88.7356 165.233 92.2111 161.463 91.245C159.084 90.6355 157.741 87.5931 158.867 84.9498C159.878 82.5775 161.725 80.9502 164.251 80.3011C167.215 79.5395 169.921 81.7856 169.867 84.8478ZM167.57 85.6159C167.7 83.9409 166.284 82.6989 164.701 83.0984C163.055 83.5137 160.912 85.9952 160.771 87.6295C160.677 88.7292 161.154 89.4207 162.23 89.634C164.324 90.0491 167.407 87.7137 167.57 85.6159Z" fill="#E77AC1"/>
<path d="M55.4492 105.598C58.9627 103.579 71.8761 103.643 78.6314 105.553C75.635 107.701 59.9548 107.834 55.4492 105.598Z" fill="#E77AC1"/>
<path d="M153.486 136.055C157.809 133.528 170.885 132.035 174.782 133.472C173.334 135.111 173.334 135.111 164.576 136.251C156.064 137.36 155.937 137.36 153.486 136.055Z" fill="#E77AC1"/>
<path d="M170.545 123.24C166.952 126.692 155.315 131.635 151.025 131.58C151.938 130.664 152.402 129.888 153.082 129.567C158.456 127.026 163.459 123.417 170.545 123.24Z" fill="#E77AC1"/>
<path d="M172.589 144.479C166.487 144.836 160.622 144.735 154.689 141.973C158.691 139.643 169.517 141.319 172.589 144.479Z" fill="#E77AC1"/>
<path d="M93.2156 75.3905C93.2836 77.5552 91.9561 78.5986 89.8421 78.0419C87.2993 77.372 85.2191 75.0533 84.9916 72.6352C84.7379 69.9387 86.8336 68.3937 89.2774 69.4756C90.9896 70.2338 93.1558 73.4871 93.2156 75.3905ZM87.4897 71.2782C88.09 74.879 88.2818 75.0632 91.9589 75.8256C91.3969 73.4883 90.441 71.7141 87.4897 71.2782Z" fill="#E77AC1"/>
<path d="M75.4506 99.6119C69.2407 99.2369 63.9178 97.3781 58.5215 95.9161C57.8684 95.739 57.3335 95.1268 56.5527 94.5834C60.4441 93.2127 70.4891 95.8785 75.4506 99.6119Z" fill="#E77AC1"/>
<path d="M61.0386 84.1967C64.299 83.9325 70.2708 87.0545 74.2003 91.3325C72.7999 91.2129 71.7588 91.3734 70.9538 91.0106C67.9974 89.6785 65.0885 88.2304 62.2306 86.6974C61.3737 86.2376 60.3887 85.5202 61.0386 84.1967Z" fill="#E77AC1"/>
<path d="M130.982 79.4302C131.262 78.507 131.66 77.6016 131.803 76.6577C134.082 61.6226 137.899 46.9287 141.844 32.2775C143.731 25.2694 146.629 18.5722 150.781 12.5758C152.612 9.93148 154.883 7.43555 157.418 5.46804C161.779 2.08182 164.793 3.50651 165.536 9.05104C166.335 15.0157 166.011 20.9669 164.486 26.7885C163.245 31.5277 161.906 36.2545 160.321 40.888C155.631 54.6013 149.526 67.7495 144.093 81.1652C139.059 93.5944 134.99 106.414 130.491 119.06C129.985 120.482 129.44 121.89 128.786 123.647C128.261 122.96 127.838 122.58 127.627 122.106C121.25 107.817 114.769 93.5737 108.579 79.205C104.511 69.7633 101.012 60.091 99.2551 49.8953C97.8977 42.016 97.5582 34.1122 98.8679 26.1859C99.5628 21.9794 100.984 18.0104 103.445 14.5466C104.626 12.8852 106.212 11.3211 107.955 10.2879C111.734 8.04838 114.897 8.53055 118.285 11.3376C120.78 13.4036 122.487 15.981 123.54 19.0518C125.461 24.6566 125.793 30.483 126.085 36.3166C126.651 47.6298 127.16 58.9457 127.752 70.2574C127.862 72.3507 128.163 74.446 128.55 76.5078C128.746 77.5513 129.33 78.522 129.739 79.5256C130.153 79.4938 130.568 79.4621 130.982 79.4302Z" fill="#E77AC1"/>
<path d="M159.338 112.935C158.67 116.612 156.657 120.158 152.721 122.287C149.956 123.782 147.936 122.473 148.387 119.4C149.033 115.005 150.788 111.163 155.314 109.336C158.175 108.181 159.462 109.112 159.338 112.935Z" fill="#E77AC1"/>
<path d="M93.5481 102.572C89.237 102.564 83.4029 97.3542 82.8248 92.9967C82.5379 90.8337 83.5029 89.6955 85.6803 89.629C89.9373 89.499 95.8975 94.2254 96.7367 98.3963C97.2603 100.999 96.0556 102.577 93.5481 102.572Z" fill="#E77AC1"/>
<path d="M167.568 85.6159C167.405 87.7137 164.322 90.0491 162.228 89.634C161.152 89.4207 160.675 88.7291 160.77 87.6295C160.91 85.9952 163.053 83.5137 164.699 83.0984C166.282 82.6989 167.698 83.9409 167.568 85.6159Z" fill="#E77AC1"/>
<path d="M87.4922 71.2782C90.4434 71.7141 91.3994 73.4882 91.9613 75.8255C88.2842 75.0631 88.0925 74.879 87.4922 71.2782Z" fill="#E77AC1"/>
</svg>
