<svg width="20" height="20" viewBox="0 0 20 20" fill="none" xmlns="http://www.w3.org/2000/svg">
<path d="M19.9028 2.84786C19.1421 -0.301912 15.1487 0.756623 13.1656 2.04751C11.8344 2.92532 10.7749 4.11293 9.87843 5.45545C9.52527 3.59657 8.65595 1.78933 7.13464 0.653346C5.01567 -0.921539 2.02738 0.601717 0.832062 2.56387C-0.634918 4.99074 0.0714006 8.08887 1.15805 10.5157C2.46203 13.4073 4.49951 15.9375 5.66766 18.8807C5.80349 19.2163 8.1398 18.2094 7.92247 17.6414C6.21099 13.2266 2.05454 9.3023 2.29904 4.31947C2.35337 3.31258 2.5707 2.09914 3.27703 1.29879C3.38569 1.29879 3.52152 1.29879 3.63019 1.32461C3.92902 1.37625 4.20068 1.47952 4.47234 1.60861C4.9885 1.86678 5.39599 2.27987 5.77632 2.71877C7.35197 4.60347 8.00396 7.08197 7.7323 9.45721C7.67797 9.92193 9.79693 8.8634 9.9871 8.4245C10.5848 7.08197 11.2911 5.81691 12.1061 4.60347C12.6494 3.80312 13.4101 2.43478 14.4152 2.15078C15.692 1.76352 17.0503 2.58968 17.5122 3.67403C17.974 4.81001 17.5937 6.07508 17.0775 7.13361C15.9093 9.50885 14.1707 11.6517 12.4321 13.6913C11.5627 14.6982 10.6934 15.7051 9.82411 16.712C9.00912 17.6673 8.22129 18.5967 7.92247 19.836C7.84097 20.2232 8.81895 19.8101 8.92761 19.7585C9.28077 19.6036 10.0958 19.2422 10.1773 18.8032C10.5304 17.1767 11.9702 15.8858 13.0569 14.6466C14.1164 13.4331 15.1759 12.1939 16.1538 10.9288C17.2133 9.5863 18.1913 8.16632 19.0063 6.66889C19.6855 5.48128 20.2288 4.19038 19.9028 2.84786Z" fill="#F37F7F"/>
</svg>
