<svg width="217" height="242" viewBox="0 0 217 242" fill="none" xmlns="http://www.w3.org/2000/svg">
<path d="M1 234.536C4.45335 180.545 3.072 121.252 2.21344 3.5063M2.67531 4.23101C53.4545 2.06055 103.682 9.35063 216 5.67543L2.67531 4.23101ZM3.18037 4.09106C47.1007 3.45847 92.877 3.8084 211.495 3.1328L3.18037 4.09106ZM211.606 4.194C211.69 97.2246 213.662 184.637 211.593 240.461L211.606 4.194ZM214.123 3.88433C209.739 73.7718 212.007 140.02 213.338 235.708L214.123 3.88433ZM215.939 241C134.372 235.929 61.9267 234.748 5.99651 235.239L215.939 241ZM214.369 235.41C145.448 237.313 79.3811 235.368 2.65101 237.401L214.369 235.41ZM1.87639 232.352C4.40718 158.04 1.50162 92.6388 4.19554 1L1.87639 232.352Z" stroke="#F2F2F2"/>
</svg>
