<svg width="67" height="67" viewBox="0 0 67 67" fill="none" xmlns="http://www.w3.org/2000/svg">
<g clip-path="url(#clip0_112_1201)">
<path fill-rule="evenodd" clip-rule="evenodd" d="M37.49 56.8383C37.3393 56.4363 37.2181 56.119 37.1893 56.051C35.8164 52.8174 34.3268 49.6265 32.705 46.5808C32.2506 45.7274 31.3322 45.4995 30.6546 46.0718C29.9771 46.644 29.7961 47.8008 30.2505 48.6541C31.8176 51.5965 33.2562 54.6813 34.5832 57.8061C34.6845 58.0443 35.3591 60.1613 35.8408 61.0444C36.2775 61.8438 36.8257 62.1294 37.1398 62.1881C37.6385 62.2811 38.4188 62.0559 39.052 60.9914C39.8788 59.602 40.9509 55.8901 41.1275 55.2741C41.4511 54.1406 41.7252 52.9514 41.9794 51.7947C42.4612 49.6004 42.7383 47.3671 42.9858 45.117C43.0981 44.099 42.5329 43.1591 41.7245 43.0177C40.9169 42.8772 40.1699 43.5891 40.0584 44.6062C39.8286 46.6934 39.5781 48.7667 39.1311 50.8018C38.8961 51.8691 38.6449 52.9681 38.3464 54.0141C38.2562 54.3277 37.906 55.623 37.49 56.8383Z" fill="#F2F2F2"/>
<path d="M7.83661 42.7622C7.44894 42.6381 7.14223 42.4803 6.91647 42.2888C6.6939 42.1102 6.55707 41.9174 6.50598 41.7103C6.43893 41.4384 6.52058 41.1848 6.75092 40.9495C6.79632 40.9108 6.86433 40.8803 6.95494 40.858C7.0844 40.826 7.22671 40.8184 7.38188 40.835C7.5468 40.8356 7.67768 40.8651 7.77451 40.9236C8.18772 41.1513 8.62734 41.2076 9.09338 41.0927C9.3005 41.0416 9.58707 40.9229 9.95308 40.7365C10.4196 40.4566 10.7666 40.165 10.9939 39.8618C11.2342 39.5553 11.4943 39.1066 11.7743 38.5157C11.9404 38.1314 12.0418 37.7631 12.0785 37.4107C12.125 37.0422 12.1146 36.722 12.0476 36.4502C11.9742 36.1524 11.8455 35.937 11.6616 35.8038C11.3165 35.5181 10.9613 35.3311 10.5962 35.2426C10.2408 35.138 9.84951 35.1384 9.42231 35.2437C9.04689 35.3363 8.69072 35.4791 8.35379 35.6721L7.28502 36.1829C7.23643 36.2086 7.16842 36.2391 7.081 36.2744C7.00332 36.2936 6.93311 36.51 6.87036 36.9237C6.80761 37.3375 6.71784 38.1149 6.60105 39.2561C6.51758 40.0869 6.42674 40.693 6.32852 41.0743C6.2271 41.4426 6.1052 41.6443 5.9628 41.6794C5.80745 41.7178 5.60404 41.6169 5.35256 41.3768C5.29776 41.3216 5.18169 41.2129 5.00434 41.0507C4.83994 40.8852 4.73539 40.7119 4.69068 40.5306C4.66833 40.44 4.67356 40.322 4.70636 40.1766C4.74235 40.0441 4.76539 39.9148 4.77549 39.7888C4.79854 39.6595 4.81041 39.4849 4.8111 39.265C4.85487 38.7186 5.03061 37.3432 5.33832 35.1387C5.65898 32.931 5.91973 31.2599 6.12058 30.1255C6.26222 29.3078 6.26352 28.8955 6.12449 28.8886C6.11491 28.8497 6.08112 28.7963 6.02313 28.7282C5.96513 28.6601 5.93782 28.605 5.94119 28.563C5.92203 28.4853 6.11984 28.3129 6.53461 28.0458C6.96233 27.7755 7.26353 27.6326 7.4382 27.617L7.55471 27.5882C7.723 27.5467 7.79916 27.4936 7.7832 27.4289C7.80909 27.4225 7.92241 27.3808 8.12315 27.3038C8.33683 27.2237 8.56985 27.1662 8.8222 27.1314C9.76048 26.9824 10.5509 27.069 11.1934 27.3911C11.8327 27.7004 12.2529 28.2903 12.4538 29.1608C12.511 29.5038 12.4366 30.0096 12.2308 30.6784C12.0249 31.3471 11.7612 31.9203 11.4395 32.3979C11.2771 32.6302 11.0855 32.8835 10.8647 33.1576C10.6537 33.4157 10.5157 33.5802 10.4508 33.6511L10.9794 33.7061C11.6453 33.7891 12.1881 33.9573 12.6077 34.2109C13.0273 34.4645 13.3801 34.865 13.6662 35.4124C13.724 35.5354 13.7657 35.6488 13.7912 35.7523C13.8615 36.0371 13.8895 36.3735 13.8753 36.7615C13.8741 37.1464 13.8488 37.4891 13.7993 37.7897C13.7408 37.8865 13.6968 37.9866 13.6674 38.09C13.638 38.1934 13.62 38.2596 13.6134 38.2887C13.6132 38.3437 13.5462 38.5731 13.4124 38.9769C13.2753 39.3677 13.1482 39.6875 13.031 39.9361C12.3554 40.8718 11.7648 41.5118 11.2592 41.8563C10.7762 42.2363 10.1593 42.5189 9.40843 42.7041C8.73527 42.8702 8.21133 42.8895 7.83661 42.7622ZM7.24712 34.3589C7.37019 34.3011 7.61633 34.1854 7.98553 34.012C8.35154 33.8256 8.61071 33.6792 8.76304 33.573C8.78573 33.5537 8.85383 33.4957 8.96732 33.399C9.09056 33.2862 9.20582 33.1411 9.3131 32.9636C9.94027 31.9986 10.3406 31.172 10.5142 30.4838C10.7069 29.8732 10.7762 29.4579 10.7219 29.2378C10.6836 29.0824 10.5756 28.9511 10.3981 28.8439C10.0819 28.6197 9.63902 28.5779 9.06942 28.7184C8.82346 28.7791 8.62272 28.856 8.4672 28.9493C8.29874 29.0458 8.17877 29.1441 8.10731 29.2441C8.04561 29.328 8.03231 29.4411 8.06744 29.5835C8.09298 29.6871 8.08935 29.8116 8.05655 29.957C8.02056 30.0894 7.97331 30.2041 7.9148 30.3009C7.92101 30.3818 7.90133 30.469 7.85576 30.5627C7.82314 30.6531 7.79707 30.7145 7.77757 30.7468C7.78395 30.7727 7.73644 30.9698 7.63503 31.3381C7.54656 31.7032 7.47414 32.1056 7.41778 32.5453C7.25611 33.5602 7.19923 34.1647 7.24712 34.3589ZM15.3979 40.0939C15.2364 40.0513 15.1153 40.0057 15.0346 39.9569C14.9668 39.905 14.9202 39.8272 14.8946 39.7236C14.8627 39.5942 14.8698 39.4002 14.9159 39.1416C14.9717 38.8669 15.0717 38.4371 15.2158 37.8523C15.252 37.6648 15.3274 37.3304 15.4422 36.8489C15.737 35.6501 15.8221 34.7982 15.6976 34.2934C15.6783 34.2707 15.6622 34.2334 15.6495 34.1816C15.6175 34.0522 15.6924 33.9101 15.8739 33.7555C15.9032 33.7071 16.012 33.5635 16.2003 33.3248C16.4016 33.0829 16.5447 32.8279 16.6296 32.5597C16.7021 32.1299 16.8103 31.65 16.9543 31.1201C17.0951 30.5773 17.3501 29.6904 17.7194 28.4595C18.0598 27.167 18.4662 25.975 18.9385 24.8835C19.0233 24.6703 19.1306 24.4928 19.2604 24.3509C19.4031 24.2058 19.5327 24.1189 19.6493 24.0902C20.0506 23.9912 20.4967 24.046 20.9875 24.2545C21.4914 24.4598 21.8463 24.7019 22.0524 24.9806C22.1265 25.0585 22.2003 25.2463 22.2738 25.544C22.3727 25.9453 22.4951 26.6361 22.6407 27.6164C22.6563 27.7911 22.6959 28.0629 22.7594 28.4317C22.8643 29.0238 22.9593 29.6596 23.0444 30.339C23.2596 31.824 23.4355 32.9822 23.5719 33.8138C23.7083 34.6453 23.8643 35.417 24.0399 36.129C24.1293 36.4915 24.2013 36.7553 24.2557 36.9204L24.2892 37.0563L24.38 37.5077C24.3215 37.6046 24.1757 37.6817 23.9427 37.7392C23.6838 37.803 23.4137 37.8216 23.1324 37.7948C22.8544 37.781 22.688 37.719 22.6334 37.6089C22.6173 37.5992 22.5946 37.591 22.5656 37.5845C22.5365 37.5779 22.5092 37.5228 22.4836 37.4193L22.3977 36.9873L22.1877 35.8855L21.552 32.8906L21.3044 32.9723C21.0455 33.0361 20.5081 33.2236 19.6922 33.5347C18.8892 33.8426 18.3857 34.0561 18.1816 34.1751C18.0651 34.2038 17.9418 34.3166 17.8118 34.5135C17.6819 34.7103 17.5825 34.9477 17.5137 35.2256C17.5068 35.3646 17.4625 35.5747 17.3807 35.8558C17.2958 36.1239 17.2581 36.2774 17.2677 36.3162C17.2028 36.3872 17.1492 36.4759 17.1068 36.5825C17.0742 36.6729 17.0546 36.7327 17.048 36.7618C17.0831 36.9042 17.0447 37.3051 16.9327 37.9644C16.8304 38.6076 16.7025 39.1473 16.5492 39.5833L16.2069 40.4505L15.3979 40.0939ZM18.3913 32.2694C18.4787 32.2341 18.6536 32.1635 18.9159 32.0576C19.175 31.9388 19.4065 31.8474 19.6104 31.7833C20.1935 31.4747 20.6015 31.2917 20.8345 31.2342C20.964 31.2023 21.0578 31.1929 21.1159 31.206C21.1676 31.2482 21.216 31.2775 21.2612 31.2938C21.3162 31.2939 21.3501 31.2924 21.3631 31.2892C21.3634 31.1793 21.293 30.4482 21.1517 29.096C21.0105 27.7439 20.9031 26.9189 20.8297 26.6212C20.7786 26.414 20.729 26.2409 20.681 26.1017C20.6297 25.9495 20.5928 25.8556 20.5703 25.82C20.4538 25.8487 20.265 26.2248 20.004 26.9484C19.7398 27.659 19.5094 28.4506 19.3126 29.3231C19.1457 29.9273 19.0041 30.2437 18.8876 30.2725C18.8193 30.3854 18.7001 30.7375 18.5301 31.3288C18.3601 31.9201 18.3138 32.2336 18.3913 32.2694ZM39.3387 34.704C38.9088 34.6315 38.4276 34.4343 37.895 34.1125C37.3786 33.8004 36.9028 33.4303 36.4675 33.002C36.0291 32.5608 35.699 32.141 35.4771 31.7426C35.4097 31.5807 35.273 31.3603 35.0669 31.0816C34.9607 30.9292 34.8722 30.7931 34.8014 30.6733L34.5987 30.3525C34.2291 29.6334 33.9751 29.1605 33.8368 28.9336C33.7297 30.0587 33.6601 31.1127 33.6279 32.0957C33.5925 33.0657 33.5808 34.2153 33.5927 35.5444C33.592 35.7643 33.5349 35.9501 33.4212 36.1017C33.3237 36.2631 33.1778 36.3677 32.9836 36.4156C32.9319 36.4284 32.838 36.4378 32.7022 36.4439C32.117 36.4097 31.7393 36.187 31.5692 35.7757L31.8228 29.2038C31.8127 29.3299 31.6189 29.7965 31.2412 30.6038C30.8765 31.4079 30.5818 32.023 30.3574 32.4491C30.1361 32.8882 29.8127 33.3868 29.3873 33.945C28.9717 34.4869 28.4036 35.1901 27.6829 36.0545C27.2382 36.5899 26.8746 37.0366 26.5921 37.3947C26.5629 37.4431 26.4768 37.5673 26.3339 37.7674C26.1909 37.9674 26.0547 38.0834 25.9253 38.1153C25.8606 38.1313 25.8024 38.1182 25.7508 38.076L24.9184 37.4573C24.8895 37.3958 24.8607 37.3068 24.8319 37.1903C24.7841 36.9961 24.7781 36.8327 24.8141 36.7003C24.863 36.5646 24.9701 36.4421 25.1354 36.3326C25.2164 36.2714 25.3382 36.1247 25.5006 35.8924C25.663 35.66 25.9016 35.3746 26.2164 35.036C26.476 34.7523 26.6626 34.5346 26.7763 34.383C26.9353 34.1927 27.1546 33.8845 27.434 33.4586C27.8043 32.9553 27.9992 32.6875 28.0187 32.6552L28.7445 31.6728C28.8841 31.5148 29.0044 31.3066 29.1055 31.0482C29.2161 30.8286 29.3072 30.6688 29.3786 30.5688C29.9145 29.8461 30.3162 29.1085 30.5837 28.3558C30.5451 28.3104 30.4999 28.2666 30.4483 28.2244C30.4065 28.1661 30.3566 28.1029 30.2986 28.0348C29.7603 27.4672 29.3284 27.0244 29.0028 26.7064C28.6901 26.3853 28.3483 26.0851 27.9772 25.8058C27.8676 25.6955 27.7693 25.603 27.6822 25.5284C27.6081 25.4505 27.5614 25.4003 27.542 25.3776C26.9875 24.8552 26.3861 24.31 25.7379 23.742L25.6275 23.3779C25.6083 23.3002 25.6004 23.2403 25.6038 23.1983C25.5757 22.8619 25.7559 22.6458 26.1443 22.55C26.3773 22.4926 26.6311 22.4917 26.9058 22.5476C27.1805 22.6034 27.3839 22.7043 27.5161 22.8503C28.2446 23.5769 28.9878 24.2794 29.7456 24.9577C29.8165 25.0226 29.9003 25.1118 29.997 25.2253C30.1066 25.3356 30.2017 25.4151 30.2824 25.4638C30.4825 25.6068 30.721 25.8501 30.998 26.1937C31.1816 26.4368 31.3604 26.633 31.5346 26.7823C31.6023 26.8343 31.6894 26.909 31.7958 27.0063C31.912 27.0875 32.0071 27.1671 32.0813 27.2449L32.2605 25.7999C32.4265 24.4132 32.5935 23.2527 32.7614 22.3187C32.9293 21.3847 33.1448 20.7272 33.4079 20.3465L33.9125 20.3044C34.2199 20.2698 34.4461 20.2964 34.5914 20.3842C34.7464 20.4558 34.9625 20.636 35.2397 20.9247C34.8603 22.2817 34.5526 23.4562 34.3166 24.4482C34.0904 25.4241 33.9208 26.3792 33.8079 27.3134L34.2122 26.7811C35.271 25.3389 36.143 24.1694 36.8281 23.2726C37.0555 22.9693 37.3739 22.4788 37.7835 21.801C38.1541 21.1877 38.4612 20.7069 38.7049 20.3584C38.9615 20.0067 39.247 19.7166 39.5614 19.488L39.8045 19.3044C40.1409 19.2764 40.3689 19.2819 40.4884 19.3211C40.6047 19.3473 40.7741 19.4772 40.9965 19.7108C41.1018 20.138 41.0311 20.5193 40.7843 20.8549L40.0097 21.8905C39.159 23.0067 38.5321 23.8617 38.1293 24.4554C37.8012 24.9071 37.4553 25.3701 37.0917 25.8443C36.4553 26.6605 35.9713 27.3429 35.6397 27.8916C35.8997 28.5004 36.2098 29.1174 36.57 29.7427C36.927 30.355 37.2586 30.8363 37.5647 31.1865C37.6388 31.2643 37.7178 31.3616 37.8015 31.4783C37.8981 31.5918 37.969 31.6841 38.014 31.7554C38.13 31.8916 38.3203 32.0507 38.5849 32.2326C38.8334 32.4048 38.9963 32.5363 39.0736 32.6271C39.377 32.7994 39.7049 32.9039 40.0573 32.9406C40.4872 33.0131 40.7404 33.2047 40.817 33.5154C40.8905 33.8131 40.8004 34.1718 40.5468 34.5914L40.2992 34.6731L40.0417 34.7984L39.3387 34.704ZM51.5715 32.5314C51.4034 32.5179 51.1968 32.4041 50.9517 32.1899C50.7066 31.9757 50.5181 31.7681 50.3861 31.5672C50.3613 29.1838 50.3924 27.5282 50.4794 26.6004C50.4579 26.2349 50.4424 26.0327 50.4328 25.9939C50.4169 25.9291 50.3782 25.8837 50.3168 25.8577C50.1682 25.8119 49.6556 25.8216 48.7791 25.8868C47.9123 25.9358 47.1974 25.9885 46.6345 26.0449C46.5212 26.0866 46.3417 26.1103 46.0959 26.116C45.918 26.1187 45.7449 26.1407 45.5767 26.1823C45.3695 26.2333 45.2385 26.2588 45.1835 26.2586C45.1285 26.2585 45.0736 26.2308 45.0188 26.1756C45.0156 26.1627 45.0012 26.1319 44.9755 26.0833C44.9595 26.0186 44.9364 26.1754 44.9061 26.5536C44.8887 26.9287 44.8661 27.4218 44.8383 28.0329C44.7441 29.2097 44.7441 30.2397 44.8383 31.1228L44.8612 31.5498C44.8297 32.3128 44.789 32.8997 44.7392 33.3102C44.7023 33.7175 44.6402 33.9389 44.5528 33.9742C44.5397 34.0323 44.4442 34.0627 44.2663 34.0654C44.1014 34.0649 43.9333 34.0514 43.7619 34.025C43.4745 33.9174 43.2876 33.6888 43.2014 33.3393C43.1503 33.1322 43.1173 32.8313 43.1024 32.4367C43.0843 32.0292 43.0728 31.5651 43.068 31.0445C43.0586 30.9507 43.0542 30.7938 43.0549 30.5739C43.0056 29.817 42.9767 29.2543 42.9681 28.8856C42.9693 28.5008 43.0073 28.2648 43.0819 28.1777C43.0823 28.0678 43.08 27.7525 43.0752 27.2318C43.0833 26.708 43.1285 26.223 43.2108 25.777C43.2256 25.1691 43.3009 24.3884 43.4365 23.4348C43.5721 22.4813 43.7535 21.3516 43.9807 20.0459L44.1241 19.2072C44.2053 19.091 44.23 18.9407 44.1983 18.7563C44.1763 18.5557 44.1653 18.4279 44.1655 18.373C44.2114 18.1694 44.335 17.9466 44.5363 17.7047C44.7375 17.4628 44.8915 17.3356 44.9983 17.323C45.16 17.3106 45.3458 17.3677 45.5556 17.4945C45.7783 17.6181 45.959 17.7658 46.0975 17.9377C46.236 18.1095 46.2953 18.2665 46.2755 18.4087C46.217 18.5056 46.1514 18.7689 46.0789 19.1988C46.0162 19.6125 45.945 20.1313 45.8654 20.7552L45.7234 21.1816C45.5864 21.5725 45.5095 21.8455 45.4929 22.0007C45.4537 22.1202 45.4305 22.277 45.4235 22.471C45.4261 22.6488 45.4128 22.762 45.3836 22.8104C45.3277 23.0851 45.2668 23.4228 45.2009 23.8236C45.1318 24.2115 45.1165 24.4281 45.1552 24.4735C45.1907 24.5059 45.409 24.5001 45.8101 24.4561C46.2112 24.4121 46.4652 24.3838 46.5719 24.3712L47.0523 24.3145C47.1398 24.2792 47.617 24.2096 48.484 24.1056L49.3477 24.0162C49.7518 24.0401 50.0833 24.0476 50.342 24.0387C50.6105 24.0137 50.7513 23.9721 50.7644 23.914L50.908 22.9928L50.8997 22.5416C50.8894 21.7202 50.8927 21.1769 50.9097 20.9118C51.1124 20.2301 51.1784 19.2731 51.108 18.0408C51.1088 17.7659 51.1452 17.5235 51.217 17.3135C51.2856 17.0906 51.3557 16.9017 51.4274 16.7467C51.5087 16.5755 51.5625 16.4593 51.5885 16.3979C51.6176 16.4045 51.6677 16.4127 51.7388 16.4226C51.8229 16.4294 51.9134 16.4345 52.0104 16.4381C52.4988 16.4137 52.8116 16.6799 52.9489 17.2365C53.0575 17.6767 53.0765 18.3106 53.006 19.1382L52.8965 20.0304C52.7483 20.8772 52.6834 21.4494 52.7018 21.7469C52.6951 21.831 52.69 21.9215 52.6864 22.0185C52.6797 22.1026 52.6746 22.1931 52.671 22.2901C52.6365 22.9853 52.5781 23.5559 52.4958 24.0019L52.5006 24.0213C52.523 24.1119 52.686 24.2159 52.9896 24.3333C53.1543 24.3888 53.2559 24.4942 53.2942 24.6496C53.3325 24.8049 53.2964 24.9649 53.1859 25.1294C53.0884 25.2908 52.9555 25.3923 52.7872 25.4338C52.593 25.4817 52.4667 25.554 52.4082 25.6509C52.3594 25.7316 52.3523 25.9256 52.3869 26.2329C52.2618 26.9504 52.1744 27.9882 52.1248 29.3462C52.0753 30.7043 52.0985 31.55 52.1944 31.8834C52.1776 32.0935 52.1383 32.2405 52.0766 32.3244C52.0311 32.4181 51.95 32.4793 51.8335 32.508C51.7947 32.5176 51.7073 32.5254 51.5715 32.5314ZM58.5829 28.9481C57.9363 28.8879 57.3616 28.6177 56.8586 28.1375C56.3686 27.6541 56.0278 27.024 55.8362 26.2473C55.7596 25.9366 55.7152 25.6454 55.7031 25.3738C55.646 25.0308 55.6263 24.6168 55.644 24.1318C55.6642 23.8796 55.6634 23.6257 55.6416 23.3702C55.6352 23.3443 55.637 23.2958 55.6469 23.2247C55.6568 23.1536 55.6505 23.1002 55.628 23.0646C55.6578 22.8512 55.7007 22.5522 55.7569 22.1676C55.8261 21.7797 55.8753 21.5616 55.9045 21.5132C55.9499 21.4745 55.9678 21.4358 55.9583 21.397C55.9616 21.3549 55.9617 21.3274 55.9585 21.3145C55.917 21.1462 56.0024 20.7406 56.2146 20.0978C56.4398 19.4517 56.694 18.8122 56.9774 18.1793C57.2607 17.5464 57.4412 17.2203 57.5189 17.2011C57.5448 17.1948 57.5708 17.1609 57.5968 17.0995C57.6197 17.0252 57.6376 16.9865 57.6506 16.9833C57.7156 16.8574 58.0318 16.5803 58.5991 16.152C59.1632 15.7107 59.6217 15.3985 59.9748 15.2153C60.2114 15.0608 60.4656 14.95 60.7374 14.883C61.3976 14.7201 62.0115 14.8983 62.579 15.4175C63.1433 15.9238 63.5661 16.719 63.8472 17.8032C63.8563 18.007 63.8941 18.2998 63.9608 18.6816C64.0084 18.9857 64.0305 19.1588 64.0271 19.2008C64.11 19.5924 64.1455 20.0986 64.1339 20.7194C64.132 21.3242 64.1067 21.6394 64.0581 21.6651C64.0677 21.7039 64.0659 21.7524 64.0528 21.8106C64.0397 21.8688 64.0379 21.9173 64.0475 21.9561C64.0892 22.0694 64.0215 22.5187 63.8444 23.304C63.6641 24.0763 63.5496 24.4753 63.501 24.501C63.4881 24.5042 63.4703 24.5155 63.4476 24.5348C63.4378 24.5509 63.4442 24.5768 63.4667 24.6125C63.4893 24.6481 63.4144 24.7902 63.2423 25.0386C63.083 25.2839 62.9581 25.4177 62.8675 25.44C62.8545 25.4432 62.8432 25.4529 62.8334 25.469C62.8366 25.482 62.856 25.5047 62.8914 25.5371C62.9269 25.5696 62.7807 25.7842 62.4528 26.1809C62.1379 26.5744 61.789 26.9695 61.4062 27.366C61.0201 27.7496 60.717 27.9961 60.4967 28.1053C60.4577 28.1699 60.4075 28.2166 60.3459 28.2455C60.2973 28.2712 60.2666 28.2857 60.2536 28.2889C60.1854 28.4018 60.0362 28.521 59.8062 28.6464C59.5892 28.7686 59.3641 28.8584 59.1311 28.9159C58.9369 28.9638 58.7542 28.9746 58.5829 28.9481ZM60.0412 26.4255C60.3977 26.2003 60.7349 25.8974 61.0531 25.5168C61.368 25.1232 61.5339 24.7939 61.551 24.5288C61.5582 24.2798 61.6089 24.0957 61.7031 23.9763C61.8689 23.7019 62.0356 23.1252 62.2033 22.2462C62.3808 21.351 62.4409 20.7594 62.3836 20.4714C62.3644 20.3937 62.3535 20.2659 62.3508 20.0881C62.3449 19.8972 62.3583 19.7566 62.3909 19.6662C62.4073 19.6209 62.393 19.5352 62.3481 19.4089C62.3 19.2697 62.2441 19.0707 62.1802 18.8118C62.0972 18.4752 62.0318 18.1823 61.9841 17.9332C61.7377 17.1013 61.4885 16.6478 61.2365 16.5726C61.1138 16.5205 60.9295 16.5247 60.6835 16.5854C60.6188 16.6014 60.5378 16.6351 60.4407 16.6865C60.3791 16.7154 60.2965 16.7701 60.1928 16.8506C60.0858 16.9182 60 16.96 59.9353 16.9759C59.7796 17.1242 59.7177 17.2631 59.7496 17.3925C59.7784 17.509 59.7505 17.6189 59.6661 17.7221C59.5947 17.8221 59.4992 17.8526 59.3796 17.8134C59.1498 17.8838 59.0089 17.9529 58.957 18.0206C58.905 18.0884 58.8512 18.2321 58.7955 18.4518C58.7496 18.6554 58.7038 18.8315 58.658 18.9801C58.3951 19.3059 58.213 19.6255 58.1117 19.9388C58.0105 20.2522 57.9628 20.5043 57.9687 20.6951C57.7398 21.4931 57.6087 22.0473 57.5754 22.3577C57.5518 22.6519 57.5667 23.0464 57.6201 23.5414C57.5645 23.7611 57.5362 24.0084 57.5353 24.2833C57.5474 24.555 57.5436 24.7344 57.5239 24.8217C57.5236 24.9316 57.5442 25.0707 57.5857 25.239C57.6559 25.5238 57.7488 25.8168 57.8642 26.1179C57.9765 26.4061 58.0778 26.5939 58.168 26.6815C58.3578 27.0055 58.6275 27.1244 58.977 27.0382C59.2618 26.968 59.6165 26.7637 60.0412 26.4255Z" fill="#F2F2F2"/>
</g>
<defs>
<clipPath id="clip0_112_1201">
<rect width="67" height="67" fill="white"/>
</clipPath>
</defs>
</svg>
