<svg width="280" height="197" viewBox="0 0 405 197" fill="none" xmlns="http://www.w3.org/2000/svg">
<path d="M93.628 54.1868C92.6779 54.8784 92.9371 56.0887 92.4188 56.9532C93.1098 57.2125 93.628 57.9041 94.4918 57.8177C95.01 57.9041 95.3555 57.7312 95.7874 57.299C96.1328 56.8668 96.4783 56.4345 97.0829 56.2616C98.1194 56.0887 97.9467 55.1378 97.8603 54.4462C97.7739 54.0139 97.3421 53.4953 96.9966 54.2733C96.5647 55.1378 96.2192 54.6191 95.9601 54.2733C95.1828 53.1495 94.319 53.6682 93.628 54.1868Z" fill="#C670A8"/>
<path d="M422.708 88.906C419.34 88.6467 415.971 88.0416 412.516 88.2145C412.603 88.2145 412.603 88.3009 412.689 88.3009C412.603 88.3009 412.603 88.2145 412.516 88.2145C412.257 88.2145 411.912 88.2145 411.652 88.2145C411.48 88.128 411.307 88.0416 411.048 88.128C410.789 88.128 410.53 88.128 410.357 88.128C404.743 87.6958 399.042 87.6093 393.341 87.35C390.405 86.1397 387.382 85.2752 384.272 85.2752C377.449 85.2752 370.712 84.6701 363.975 83.6327C362.334 83.3733 360.52 83.3733 359.051 82.0766C360.433 81.4715 360.433 81.4715 363.111 82.2495C364.147 82.5953 365.184 82.7682 366.134 81.9037C366.393 81.9037 366.739 81.8173 366.998 81.9037C372.526 83.2869 379.781 83.8056 385.395 83.2004C384.272 82.7682 383.063 82.7682 381.94 82.6817C379.608 82.5088 377.19 82.6817 374.858 82.2495C371.576 81.6444 368.293 81.2121 364.925 81.2121C361.384 80.6934 357.756 80.607 354.215 80.2612C348.859 79.8289 343.504 79.3967 338.149 78.4458C346.096 78.0135 354.128 78.6187 362.075 78.6187C361.384 78.1 360.693 78.2729 359.915 78.4458C359.311 78.5322 358.706 78.5322 358.188 78.1C357.497 77.4948 358.101 77.4084 358.533 77.3219C365.616 76.9761 372.698 78.5322 379.781 78.4458C378.226 78.1 376.671 77.8406 375.117 77.7542C371.662 77.4948 368.293 76.8032 364.925 76.7168C363.629 76.5439 362.42 76.371 361.124 76.2845C350.328 74.9878 339.445 73.7775 328.648 72.8266C324.675 72.4808 320.702 72.135 316.729 71.7892C317.42 70.9247 317.42 70.9247 318.543 71.0112C331.499 71.6163 344.454 72.0486 357.41 73.4317C357.669 73.4317 358.015 73.6046 358.188 73.1724C357.842 72.6537 357.41 72.3079 356.892 72.0486C355.769 71.5299 354.56 71.4434 353.351 71.2705C351.883 71.0976 350.414 71.0976 349.291 69.9738C349.896 69.4551 350.76 69.7145 351.623 69.1958C349.205 68.9364 347.132 68.6771 345.059 68.5042C333.744 67.2074 322.429 65.6514 311.028 65.0462C310.164 64.9598 309.042 65.2191 308.61 64.1817C308.264 63.3173 309.301 62.9715 309.819 62.4528C310.596 61.6747 310.337 61.5018 309.387 61.3289C306.71 60.8102 303.946 60.7238 301.182 60.6373C297.727 60.5509 294.272 60.4645 290.99 59.2542C290.299 58.9948 289.521 58.9948 288.744 59.0813C287.362 59.2542 285.98 59.3406 284.771 58.5626C284.425 58.3897 284.166 58.4761 283.821 58.649C282.266 59.7729 280.452 59.3406 279.07 58.7355C277.861 58.2168 276.997 58.2168 275.961 58.7355C275.615 58.9084 275.27 59.0813 275.011 59.0813C272.592 58.649 270.174 58.7355 267.842 58.1303C264.128 57.1794 260.414 56.3149 256.7 57.9574C256.268 58.1303 255.922 57.9574 255.491 57.871C251.863 56.8336 248.149 56.5743 244.348 56.6607C240.375 56.7472 236.489 57.4387 232.515 56.4014C231.393 56.142 230.097 56.142 228.888 56.0556C223.964 55.7098 219.041 56.142 214.118 56.0556C210.058 56.0556 206.085 55.7962 202.026 54.6724C202.976 54.2402 203.84 53.9808 204.617 53.5486C206.258 52.5976 207.899 51.6467 209.799 53.2028C210.058 53.3757 210.49 53.2892 210.836 53.3757C216.277 53.8944 221.805 53.7215 227.247 53.1163C227.938 53.0299 228.629 53.0299 229.32 53.3757C231.479 54.3266 233.725 53.8944 235.884 53.5486C235.193 53.1163 234.502 52.857 233.811 52.6841C231.047 52.1654 228.283 52.4247 225.433 52.5112C223.446 52.5976 221.373 53.2892 219.559 51.8196C219.3 51.6467 218.782 51.7331 218.35 51.7331C215.154 51.8196 211.959 51.906 208.763 51.8196C200.471 51.4738 192.179 50.5229 183.887 50.5229C183.283 50.5229 182.678 50.35 182.246 49.9177C181.642 49.399 181.124 49.2261 180.433 49.9177C179.828 50.6093 178.619 50.0906 178.36 49.2261C177.755 47.0649 176.719 46.4598 174.646 46.8056C171.709 47.3243 171.709 47.3243 170.759 44.4715C170.673 44.2121 170.586 43.8663 170.5 43.607C170.241 42.9154 170.154 41.878 169.204 41.7916C168.168 41.7051 167.563 42.3967 167.045 43.2612C166.786 43.6934 166.613 44.0392 166.44 44.4715C166.354 44.8173 166.181 44.9902 165.836 44.9037C164.713 44.6444 163.763 45.2495 162.813 45.6817C161.776 46.114 160.74 46.4598 159.703 45.5953C159.53 45.4224 159.271 45.2495 159.012 45.5088C158.062 46.6327 157.285 46.0275 156.335 45.4224C155.73 45.0766 155.125 44.8173 154.521 45.2495C154.348 45.4224 154.089 45.5089 153.83 45.2495C151.67 43.2612 149.079 43.6934 146.488 43.9528C144.847 44.1257 143.292 44.1257 141.738 43.4341C140.01 42.7425 138.11 42.5696 136.469 43.4341C135.346 44.0392 134.741 44.0392 134.223 42.9154C134.05 42.5696 133.878 42.1373 133.446 42.5696C131.805 44.385 129.559 43.4341 127.572 43.6934C126.882 43.7799 126.277 43.4341 125.672 43.1747C123.513 41.878 121.354 42.1374 119.972 44.1257C119.108 45.336 118.417 45.0766 117.467 44.6444C116.949 44.385 116.43 44.0392 115.999 43.607C115.308 42.9154 114.876 42.656 114.185 43.607C113.839 44.0392 112.803 44.6444 112.63 43.5205C112.457 41.9645 112.716 40.4084 110.471 40.5813C109.521 39.1117 108.139 39.7168 106.929 39.9761C105.634 40.2355 104.425 40.7542 103.215 41.1864C101.92 41.6187 100.883 41.1864 100.02 40.149C99.6741 39.7168 99.5877 39.0252 98.8104 39.1981C98.033 39.4574 97.9466 40.149 97.8603 40.7542C97.7739 41.6187 98.033 43.0018 96.3056 42.2238C95.1827 41.7051 95.9601 44.385 94.4053 43.3476C94.1462 43.1747 93.8007 43.1747 93.5416 43.0883C93.2825 43.0883 92.937 43.0018 92.8507 43.1747C91.9006 44.5579 91.4687 43.1747 91.0368 42.7425C90.6913 42.3967 90.6913 41.7051 90.4322 41.1864C90.1731 40.5813 89.914 40.149 89.1366 39.7168C87.841 39.1117 86.1136 39.2845 85.3362 37.642C85.0771 37.1233 84.3861 37.1233 84.2134 37.4691C83.8679 38.3336 82.2268 38.6794 83.1769 40.0626C83.1769 40.0626 83.0042 40.2355 82.9178 40.4084C82.4859 40.5813 82.3995 40.3219 82.3995 39.9761C82.3132 39.371 82.5723 38.7659 82.2268 38.2472C81.4494 37.2962 81.104 37.9014 80.7585 38.593C80.413 39.2845 80.7585 40.0626 80.5857 40.8406C80.413 39.2845 80.413 39.2845 77.9945 37.0369C76.8717 36.6911 76.6126 38.3336 75.5761 38.1607C75.4034 37.3827 75.4897 36.6046 75.4897 35.8266C74.4533 35.9131 75.4034 37.2098 74.5396 37.4691C74.1941 37.1233 74.3669 36.7775 74.3669 36.4317C74.3669 36.0859 74.4532 35.6537 74.0214 35.4808C73.7623 35.3944 73.3304 35.4808 73.1577 35.6537C72.8985 35.9131 72.9849 36.3453 73.244 36.6046C73.5895 37.0369 73.7623 37.4691 73.6759 38.0743C73.244 38.1607 72.7258 38.3336 72.7258 37.5556C72.7258 37.2962 72.4667 37.0369 72.2075 36.864C72.2075 36.7775 72.2075 36.7775 72.2075 36.6911C72.2075 36.6911 72.2076 36.6911 72.2939 36.6911C72.553 36.1724 72.1212 35.9131 71.8621 35.6537C71.8621 35.6537 71.8621 35.6537 71.7757 35.6537C72.2075 35.3944 72.553 35.2215 73.0713 34.8757C72.553 34.357 72.1212 33.9247 71.6893 33.5789C70.9983 33.1467 70.0482 32.9738 69.8755 32.0229C69.2709 32.628 70.0482 33.2331 69.9619 33.9247C69.2709 33.6654 68.9254 32.628 67.8889 33.406C67.457 33.7518 66.9388 34.0112 66.6797 34.4434C66.7661 34.0112 66.7661 33.5789 66.4206 33.1467C66.507 33.0602 66.5933 32.8874 66.5933 32.7145C67.3707 32.7145 67.7162 31.9364 68.3208 31.5906C68.2344 32.0229 67.9753 32.628 68.6663 32.8009C69.3573 32.8874 69.3573 32.1958 69.53 31.7635C70.0482 31.2448 69.7891 30.5532 69.8755 29.9481C69.1845 29.2565 68.6663 29.1701 68.5799 30.3803C68.5799 30.7261 68.4071 30.899 68.3208 31.2448C67.6298 31.0719 67.8889 30.121 67.1116 29.9481C66.9388 29.343 67.0252 28.7378 66.7661 28.0462C66.0751 26.6631 65.6432 28.7378 65.125 28.1327C65.0386 28.0462 64.8659 28.1327 64.6931 28.1327C62.7929 27.9598 62.7929 29.1701 62.8793 30.5532C62.5338 30.8126 62.4474 31.4177 61.9292 31.4177C61.411 31.4177 61.1519 31.9364 61.2382 32.1958C61.4973 32.7145 61.8428 32.0229 62.2747 32.1093C62.1883 32.3687 62.0156 32.7145 62.0156 32.8009C62.8793 33.6654 62.2747 34.4434 61.9292 35.3944C61.5837 34.7028 61.3246 34.0976 60.9791 33.3196C60.8063 34.357 60.6336 35.135 60.5472 35.8266C60.4609 36.3453 59.7699 36.5182 59.7699 36.1724C59.5108 35.135 59.2517 33.3196 59.5108 33.1467C61.1519 31.9364 60.029 31.6771 59.0789 31.3313C58.9062 31.2448 58.8198 31.1584 58.7334 31.0719C58.0424 30.2939 57.2651 29.6888 56.1422 29.7752C55.8831 29.7752 55.4513 29.7752 55.624 29.4294C56.1422 28.6514 55.624 28.4785 55.1058 28.5649C54.5875 28.6514 54.4148 29.1701 54.5875 29.6023C54.8466 30.5532 54.933 31.3313 53.8102 31.5906C53.9829 32.628 56.2286 31.6771 55.3649 33.1467C54.933 34.0112 53.9829 35.2215 52.5146 34.6163C52.4282 34.9621 53.0328 35.135 52.7737 35.5673C51.4781 34.9621 50.2689 32.8874 50.7007 32.0229C49.9234 32.1093 50.1825 32.8874 49.7506 33.2331C49.2324 33.5789 48.7142 33.5789 48.8006 33.0602C49.0597 31.85 48.0232 32.1093 47.5913 31.6771C47.1595 30.5532 45.8639 31.5042 45.2593 30.7261C45.1729 30.8126 44.9138 30.899 44.9138 30.9855C44.9138 31.5042 45.0001 32.0229 45.6911 32.1958C46.2094 32.3687 46.7276 32.8874 46.9003 31.85C46.814 32.2822 47.4186 32.5416 47.2458 32.9738C46.814 33.3196 46.4685 33.5789 46.0366 33.9247C45.6048 34.5299 46.123 35.3079 45.6048 35.9995C45.1729 35.6537 44.8274 35.0486 44.2228 35.7402C43.5318 35.8266 42.9272 36.9504 42.0635 35.9131C42.7544 35.7402 43.7909 36.3453 43.9637 35.135C44.2228 34.7028 45.1729 34.357 44.4819 33.6654C44.3092 33.4925 43.7045 32.9738 43.2727 33.406C42.3226 34.6163 40.8543 35.0486 39.645 35.9131C39.2995 35.8266 39.0404 36.086 38.6949 36.2588C37.6585 35.9131 37.9176 34.5299 37.0539 34.0976C36.7084 33.9247 36.3629 33.7518 36.1038 34.0112C35.931 34.1841 36.0174 34.6163 36.2765 34.7892C36.622 35.3944 35.24 35.3079 35.6719 35.9995C36.1038 36.3453 36.7947 35.3079 37.0539 36.086C37.313 36.7775 37.9176 37.642 36.7084 38.2472C36.4493 38.4201 36.3629 38.9388 36.1901 39.2845C35.24 38.8523 34.6354 37.8149 33.5126 37.8149C33.3398 37.8149 33.2534 37.7285 33.0807 37.7285C32.4761 37.5556 32.1306 37.7285 31.9579 38.3336C31.8715 38.6794 31.6124 39.1981 31.9579 39.4574C32.4761 39.8897 32.6488 39.1981 33.0807 39.1117C33.5126 39.0252 33.8581 38.593 34.2899 38.8523C34.549 39.7168 32.5625 39.8897 33.6853 40.9271C33.599 41.1864 33.5126 41.4458 33.1671 41.4458C32.5625 41.5322 32.4761 41.878 32.5625 42.3103C32.4761 41.878 32.3897 41.4458 31.9579 41.1864C31.3533 41.0135 31.0941 41.4458 31.2669 41.7916C31.6124 42.5696 31.3532 43.6934 32.5625 43.9528C32.6488 44.2986 33.1671 44.385 33.0807 44.9902C31.8715 43.607 30.5759 45.4224 29.3667 44.7308C29.1939 45.3359 29.9713 45.5953 29.453 46.0275C28.5029 46.2004 28.4166 43.4341 26.9482 45.336C28.8484 46.8056 28.8484 47.2378 26.6027 48.7939C26.3436 48.1888 25.9118 47.6701 25.8254 47.0649C25.8254 46.8056 25.8254 46.4598 25.8254 46.2004C25.9118 45.7682 25.9118 45.2495 25.4799 44.9902C25.3935 44.9037 25.1344 44.9037 25.048 44.9902C24.7026 45.336 25.2208 45.6817 25.2208 46.0275C25.1344 46.3733 25.3071 46.7191 25.5663 46.9785C25.4799 47.4972 25.6526 48.1023 25.3072 48.5345C24.0979 48.7939 23.6661 49.5719 24.2707 50.4364C24.4434 50.6958 24.6162 51.128 25.048 50.8687C25.5663 50.6093 25.3072 50.2635 25.048 49.9177C24.6162 49.4855 24.3571 49.0532 25.3072 49.0532C26.1709 49.5719 26.8619 50.4364 28.1574 50.0042C28.8484 49.7448 28.7621 50.7822 29.1939 51.2145C29.3667 51.3874 28.9348 51.4738 28.6757 51.5602C28.2438 51.3874 27.9847 50.6093 27.4665 51.0416C26.8619 51.5602 28.0711 51.5603 27.8983 52.1654C27.2937 51.8196 26.6891 51.9925 25.9118 52.0789C26.2573 52.6841 26.8619 53.1163 26.2573 53.7215C26.2573 53.8079 26.3436 53.8079 26.3436 53.8944C26.6028 54.1537 26.8619 54.2402 27.121 54.3266C27.812 54.4131 28.4166 55.1911 29.1076 54.5859C29.6258 54.1537 29.1939 53.8079 29.0212 53.4621C29.5394 53.8944 30.144 53.635 30.7486 53.1163C30.7486 53.1163 30.7486 53.1163 30.7486 53.2028C30.6623 53.2028 30.5759 53.2892 30.5759 53.3757C29.7985 54.0673 29.3667 55.1911 27.812 54.8453C26.8619 54.6724 26.0845 56.0556 26.6891 56.9201C27.4665 57.9574 26.3436 58.1303 26.1709 58.7355C26.0845 59.3406 26.9482 60.0322 26.1709 60.6373C26.6027 59.2542 26.3436 58.8219 24.8753 57.7845C24.7025 57.6981 24.4434 57.5252 24.2707 57.3523C24.357 57.3523 24.4434 57.3523 24.4434 57.3523C25.6526 57.1794 26.7755 54.7588 26.1709 53.7215C25.4799 53.8944 25.3071 54.4131 25.1344 55.0182C25.048 55.5369 24.8753 55.9691 24.3571 55.9691C24.3571 55.9691 24.3571 55.9691 24.3571 56.0556C24.3571 56.0556 24.3571 56.0556 24.3571 55.9691C24.3571 55.4504 24.6162 54.6724 23.7525 54.6724C22.8887 54.6724 23.3206 55.364 23.4069 55.7962C23.4069 56.0556 23.2342 56.142 23.0615 56.2285C21.8522 56.4014 21.8523 56.4014 21.5931 57.4388C22.1977 57.7845 22.2841 56.3149 22.8887 56.9201C23.3206 57.3523 23.2342 58.0439 23.0615 58.649C22.8023 59.6 22.6296 60.5509 22.8887 61.5883C22.9751 61.8476 22.8887 62.2799 23.2342 62.2799C23.6661 62.2799 23.6661 61.9341 23.5797 61.5883C23.4933 61.2425 23.5797 60.9831 24.0116 60.9831C24.4434 60.9831 24.3571 61.4154 24.3571 61.6747C23.6661 62.2799 24.7889 63.3173 23.9252 63.7495C22.716 64.4411 23.9252 65.1327 23.7525 65.8243C23.6661 66.0836 25.6526 66.0836 25.739 65.6514C25.9118 64.7004 26.1709 63.9224 27.2074 65.0462C27.3801 65.2191 27.812 65.0462 28.0711 65.0462C28.9348 65.3056 27.9847 66.0836 28.503 66.5159C29.0212 66.5159 29.2803 65.7378 29.8849 65.9107C30.0576 66.2565 29.8849 66.5159 29.7986 66.7752C29.3667 67.2939 29.8849 67.899 29.7122 68.5906C29.5394 68.5042 29.3667 68.4177 29.1939 68.4177C28.6757 68.0719 26.8619 68.9364 27.8983 67.121C27.8983 67.0345 27.812 66.9481 27.7256 66.8617C26.6027 68.1584 26.9482 65.9972 26.2573 66.2565C26.0845 67.0345 27.0346 68.1584 25.6526 68.5042C25.6526 67.5532 25.6527 67.5532 25.048 67.4668C23.2342 67.121 22.9751 67.3803 22.8024 69.4551C22.9751 71.0112 24.0116 69.8009 24.6162 70.0602C25.3072 70.3196 25.9981 69.4551 26.6891 70.1467C27.4665 70.9247 28.4166 70.3196 28.9348 69.9738C29.8849 69.4551 30.4031 69.5416 30.835 70.1467C30.835 70.1467 30.7486 70.1467 30.7486 70.2331C29.8849 70.1467 29.1075 70.1467 29.0212 71.2705C29.0212 71.4434 29.0212 71.6163 29.0212 71.7028C28.6757 71.8757 28.0711 71.7892 27.812 72.2215C27.121 72.5673 27.8984 73.4317 27.2074 73.6911C27.121 74.3827 27.4665 74.642 28.1574 74.642C28.2438 74.8149 28.3302 74.9878 28.4166 75.2472C28.0711 75.4201 28.1575 75.7659 28.0711 76.0252C27.9847 76.5439 28.1575 77.0626 28.6757 77.149C29.3667 77.149 29.3667 76.6303 29.2803 76.1116C29.2803 75.9388 29.2803 75.8523 29.3667 75.6794C29.6258 75.6794 29.8849 75.6794 30.2304 75.6794C30.5759 76.7168 30.5759 77.5813 29.1939 77.9271C29.6258 78.1 30.0577 78.1864 30.0577 78.3593C30.0577 79.3967 30.4895 79.5696 31.3532 79.0509C31.6124 78.878 31.9578 79.2238 32.0442 79.4831C32.217 79.7425 31.9579 79.9154 31.7851 80.0883C31.3532 80.607 30.835 81.1257 30.4895 81.7308C30.144 82.5953 29.7985 82.9411 29.0212 82.1631C28.7621 81.9037 27.9847 82.0766 28.2438 82.3359C28.9348 83.0275 28.1575 84.5836 29.7122 84.5836C30.0577 84.5836 30.0577 85.0159 29.9713 85.1888C29.6258 86.0532 30.144 86.7448 30.5759 87.4364C30.835 87.8687 30.9214 88.3874 30.4895 88.5603C29.453 88.9925 29.1075 89.5976 29.453 90.7215C29.5394 90.9808 29.2803 91.4995 29.0212 91.7589C28.5893 92.1911 28.7621 92.7098 28.8484 93.142C28.1575 93.7472 28.5893 94.1794 28.9348 94.6981C29.1076 94.871 29.6258 95.0439 29.3667 95.3032C28.503 96.2542 29.453 96.6 29.8849 97.0322C30.2304 97.378 30.2304 98.3289 31.0078 97.7238C31.6124 97.2051 31.0941 96.6864 30.4895 96.2542C30.144 95.9948 29.9713 95.7355 30.6623 95.649C33.2535 97.1187 33.4262 98.3289 31.0941 100.144C30.2304 100.836 30.144 101.787 30.2304 102.738C30.3168 103.343 30.6623 103.862 31.4396 103.862C32.908 103.862 33.8581 104.726 34.7218 105.764C36.5356 107.665 36.7947 107.752 39.2996 106.801C39.645 106.714 39.9042 106.628 40.1633 106.801C40.5088 106.974 40.336 107.32 40.2496 107.579C39.8178 109.74 39.9905 110 42.0635 110.778C43.1863 111.21 43.8773 112.074 44.1364 113.198C44.3092 114.149 43.7045 114.754 43.2727 115.446C43.0136 115.964 44.5683 116.57 44.4819 117.607C44.4819 117.693 44.4819 117.78 44.3955 117.866C43.9637 119.077 44.4819 119.855 45.6048 120.373C45.6911 120.373 45.6911 120.46 45.7775 120.46C46.123 120.892 46.2094 122.102 47.1595 120.892C47.5913 121.411 48.3687 120.978 48.8006 121.324C49.4915 121.757 48.5414 122.967 49.5779 123.313C49.0597 124.696 49.4915 126.338 48.6278 127.635C47.6777 127.894 46.814 127.549 45.9502 127.376C45.9502 127.635 45.9502 127.981 45.9502 128.24C46.0366 128.759 46.5549 129.105 46.9003 129.278C47.505 129.45 47.2458 128.759 47.4186 128.5C47.8504 127.721 48.1959 128.5 48.6278 128.672C48.6278 128.759 48.6278 128.845 48.5414 128.932C48.455 129.45 47.4186 129.623 47.8504 130.228C48.1959 130.747 48.8869 130.315 49.4051 130.228C49.4915 130.228 49.4915 130.401 49.5779 130.401C48.6278 131.698 48.6278 131.698 47.2458 130.747C47.2458 131.179 47.1595 131.698 47.1595 132.13C47.3322 132.476 47.4186 132.822 47.505 133.168C47.5913 134.119 47.7641 134.81 49.0597 134.551C49.7506 134.378 49.9234 134.983 49.837 135.675C48.1959 134.897 47.8504 135.07 47.5913 136.712C47.5913 136.885 47.5913 136.971 47.505 137.144C47.3322 137.836 46.814 138.441 47.2458 139.219C47.4186 139.306 47.5913 139.478 47.6777 139.565C47.5913 141.467 46.7276 139.046 46.2957 139.997C46.2094 140.516 46.814 141.035 46.814 141.726C47.4186 141.899 47.6777 141.553 48.0232 141.121C48.0232 141.553 48.0232 141.985 47.6777 142.245C47.6777 142.936 48.2823 142.936 48.6278 143.196C48.6278 143.196 48.6278 143.196 48.5414 143.196C48.1959 143.369 48.0232 143.628 48.0232 144.06V144.147C47.2458 144.406 47.0731 143.282 46.3821 143.282C46.4685 144.579 47.3322 144.925 48.455 144.752C48.9733 145.962 49.5779 147.172 49.146 148.642C48.8869 148.728 48.8005 149.074 48.5414 148.901C48.1096 148.728 48.6278 147.778 47.8504 147.864C47.9368 148.469 47.2458 148.988 47.5913 149.679C47.6777 149.939 47.7641 150.198 47.4186 150.371C47.5913 150.976 48.6278 150.976 48.3687 151.841C48.5414 152.273 49.2324 152.1 49.2324 152.186C48.7142 153.742 50.1825 154.002 50.8735 154.78C50.7008 155.039 50.528 155.299 50.7871 155.558C51.3054 155.731 52.1691 155.385 51.9963 156.509C52.0827 157.287 51.91 158.065 52.601 158.67C52.5146 158.843 52.2555 159.016 52.2555 159.189C52.1691 159.794 51.3053 158.757 51.4781 159.535C51.5645 160.226 52.0827 159.967 52.5146 159.967C53.2919 159.88 53.2056 160.313 52.9464 160.745C52.0827 161.004 51.7372 161.609 52.1691 162.387C52.3418 162.82 52.7737 163.252 53.2055 162.906C53.7238 162.474 54.3284 161.869 53.6374 161.004C54.1556 159.88 55.1921 160.485 55.9695 160.485C56.315 160.918 56.2286 162.042 57.2651 161.35C57.4378 161.696 58.0424 160.918 58.1288 161.523C58.1288 161.609 58.1288 161.609 58.1288 161.696C57.6969 161.523 57.5242 161.955 57.1787 162.042C56.7468 162.214 56.8332 162.647 57.006 162.906C57.1787 163.252 57.5242 163.425 57.7833 162.906C58.9925 163.338 57.7833 163.511 57.6969 163.771C57.1787 163.771 56.4877 163.943 56.6605 164.549C56.8332 165.067 57.4378 165.154 58.0424 164.981C58.1288 164.894 58.1288 164.721 58.2152 164.635C58.4743 163.598 59.1653 164.289 59.6835 164.203C60.029 164.116 60.6336 164.03 60.5472 163.598C60.5472 163.338 60.4609 162.474 59.5971 162.906C59.0789 163.165 58.7334 162.992 58.7334 162.387C58.8198 162.387 58.8198 162.387 58.9062 162.387C60.3745 162.387 61.5837 163.771 61.3246 165.154C61.2382 165.586 61.1518 165.932 61.5837 166.191C62.1019 165.672 62.7066 165.154 63.2248 164.549C63.3975 164.289 63.3975 163.857 62.8793 163.771C62.4474 163.684 62.4474 163.338 62.6202 163.079C62.7929 162.733 63.052 162.992 63.2248 163.079C64.1749 163.511 64.6068 164.549 65.3841 165.067L65.4705 165.24C64.5204 166.623 65.7296 166.796 66.5933 167.142C67.1116 167.488 67.8025 167.661 67.6298 168.525C67.5434 169.044 67.8889 169.044 68.2344 169.13C68.4072 169.217 68.6663 169.13 68.7526 168.957C68.9254 168.612 68.5799 168.439 68.3208 168.266C67.6298 167.834 68.4072 167.488 68.4072 167.142C68.839 167.056 68.5799 166.364 69.1845 166.364C69.4436 166.796 68.7527 167.228 69.4436 167.747C69.8755 167.228 70.3937 166.71 70.8256 166.191C70.7392 166.191 70.7392 166.191 70.6528 166.191C70.7392 166.191 70.7392 166.191 70.8256 166.191C70.8256 166.105 70.912 166.018 70.912 165.932C71.0847 165.932 71.2575 165.845 71.5166 165.845C72.0348 166.364 72.6394 167.488 72.9849 165.672C73.0713 165.24 73.5895 165.24 74.0214 165.24C74.1941 165.24 74.3669 165.413 74.1941 165.672C74.0214 165.932 74.5396 167.747 74.7987 168.093C74.7987 168.266 74.7987 168.439 74.7987 168.612L74.7124 168.698V168.785C75.0579 169.217 75.5761 168.871 75.9216 169.044C76.2671 169.303 76.5262 169.649 76.8717 169.13C77.2172 168.612 76.699 168.439 76.4398 168.179C76.4398 167.92 76.4398 167.574 76.3535 167.315C76.4398 167.142 76.5262 166.883 76.6126 166.71C77.1308 166.191 77.1308 165.672 76.6126 165.154C77.1308 164.808 77.4763 164.376 78.34 164.289C79.722 164.116 81.5358 164.116 81.7949 162.128C82.3995 161.869 82.9178 161.35 83.6951 161.523C83.5224 161.869 82.9178 162.56 83.1769 162.56C84.9044 162.647 82.8314 163.598 83.6088 163.943C84.2134 163.857 84.127 163.165 84.5589 162.82C85.5953 162.474 84.818 161.436 85.2498 160.831C85.509 161.177 84.9043 162.214 86.0272 161.869C86.4591 161.436 86.0272 160.313 87.15 160.313C87.6683 159.275 87.3228 158.757 86.1999 158.584C85.6817 158.497 84.818 158.584 84.7316 157.892C85.6817 158.238 86.4591 158.151 86.9773 157.287C87.15 157.806 86.8045 158.584 87.7546 158.584C88.4456 157.978 89.1366 157.806 89.8276 158.584C90.0004 158.757 90.5186 158.843 90.7777 158.497C90.9504 157.719 90.1731 157.546 89.914 156.941C89.7412 156.595 89.5685 156.163 89.5685 155.817C89.7412 156.249 90.0867 156.509 90.8641 156.422C90.8641 157.114 91.2959 157.028 91.7278 156.941C92.4188 156.422 92.6779 155.731 92.4188 154.866C91.9869 154.434 91.555 154.434 91.2095 154.953C90.9504 155.299 90.7777 155.299 90.5186 154.953C90.4322 154.693 90.3458 154.607 90.1731 154.521C90.2595 154.434 90.4322 154.348 90.605 154.261C90.8641 153.829 90.8641 153.483 90.605 153.051C89.914 152.964 89.223 152.446 88.7911 153.483C88.7048 153.656 88.4456 153.742 88.1865 153.829C88.6184 152.273 89.5685 151.063 90.6913 149.939C90.605 150.803 91.2096 150.976 91.9006 150.976C92.5052 150.976 92.937 150.457 92.8507 149.939C92.6779 149.161 92.0733 149.42 91.5551 149.593C91.4687 149.593 91.2959 149.507 91.1232 149.42L91.2095 149.334C91.3823 148.901 91.2959 148.296 91.9869 148.296C92.937 148.21 93.1097 147.518 93.3689 146.74C93.4552 146.308 93.628 145.876 93.8871 145.53C93.7144 146.394 93.4553 147.259 94.0599 148.123C94.319 148.383 94.4054 148.901 94.9236 148.728C95.2691 148.21 94.4917 147.691 94.9236 147.172C95.0963 146.74 94.9236 146.135 95.2691 145.789C95.9601 145.616 96.0464 146.913 96.8238 146.394C97.5148 145.789 96.3055 145.703 96.4783 145.271C96.651 144.752 97.5148 145.53 97.4284 144.579C97.342 143.974 97.7739 143.369 97.9466 142.764C98.2921 142.072 97.6011 141.899 97.342 141.467C97.342 141.035 96.8238 140.689 97.2556 140.343C97.8603 139.306 99.9332 139.651 99.5013 137.577C98.5512 138.095 98.2921 137.75 98.5512 136.799C98.5512 136.712 98.3785 136.453 98.2921 136.366C98.3785 136.193 98.4649 136.021 98.6376 135.934C99.8468 136.885 100.279 135.502 100.97 135.07C101.229 134.897 101.747 134.637 101.402 134.119C101.142 133.6 100.711 133.254 100.106 133.081C99.6741 132.908 99.415 133.341 99.2422 133.686C99.0695 134.032 98.9831 134.464 98.8104 135.07C98.2921 134.464 97.4284 133.859 97.5148 133.514C97.6875 132.735 98.3785 132.044 99.2422 131.698C99.8468 131.439 100.365 131.871 100.883 132.044C102.611 132.649 102.87 134.983 104.856 135.156C105.202 135.156 104.943 135.588 104.943 135.848C105.029 136.021 104.943 136.366 105.375 136.28C107.016 135.761 105.72 136.971 105.979 137.317C106.411 137.144 106.757 136.971 107.189 136.799C108.743 136.885 109.002 136.193 108.484 134.897C107.793 135.07 107.016 136.539 106.843 134.724C107.275 133.946 108.052 133.773 108.83 133.514C110.039 133.168 111.075 134.119 112.285 133.946C112.889 133.859 112.198 134.724 112.63 135.156C112.889 134.119 113.753 134.637 114.357 134.378C116.258 133.514 118.158 133.686 120.058 134.292C121.008 134.551 121.786 135.415 122.822 135.415C123.081 136.453 121.872 136.712 121.786 137.663C121.699 138.614 121.786 139.306 122.649 139.824C123.427 140.343 124.204 140.343 124.809 139.738C125.327 139.133 125.931 138.441 125.413 137.49C125.154 137.058 124.722 136.539 125.068 135.934C126.45 135.329 127.745 134.724 129.386 134.032C129.041 135.07 128.695 135.848 129.818 136.193C130.509 136.453 130.768 135.934 130.941 135.502C131.373 134.464 130.768 134.119 129.818 133.773C130.855 133.6 131.546 132.217 132.755 133.081C133.705 133.686 134.655 133.686 135.605 133.254C136.728 132.822 137.764 132.044 139.06 132.39C139.319 132.476 139.492 132.303 139.665 132.044C141.392 128.932 144.674 128.154 147.697 126.771C147.87 127.635 148.043 128.413 148.043 129.191C147.956 130.747 148.216 131.352 149.511 129.883C149.598 129.71 149.857 129.623 150.029 129.623C151.671 130.056 152.966 128.759 154.521 128.845C155.471 128.932 156.421 128.413 156.335 127.289C156.248 125.474 157.371 124.436 158.408 123.226C159.271 122.275 160.308 122.016 161.258 123.226C161.949 124.091 163.158 124.523 163.763 123.745C165.404 121.757 168.772 120.892 168.34 117.348C168.254 116.742 168.6 115.705 169.55 116.224C171.968 117.521 174.559 117.348 177.15 117.088C178.878 116.915 180.605 116.743 182.333 117.002C184.06 117.261 185.529 117.261 186.479 115.273C187.342 116.915 188.293 116.137 188.897 115.446C190.106 114.149 191.402 113.803 192.87 114.581C193.561 114.927 193.561 114.408 193.82 114.063C195.461 111.728 197.794 110.345 200.471 110.259C213.513 109.654 226.469 109.135 239.512 108.357C250.049 107.752 260.587 107.233 271.038 106.714C278.293 106.369 285.462 105.331 292.717 105.591C294.617 105.677 296.518 105.504 298.504 104.985C295.481 104.553 292.544 104.207 289.435 103.775C289.78 102.824 290.212 102.478 291.076 102.392C292.804 102.219 294.617 101.873 296.345 101.614C298.418 101.355 300.491 101.268 302.564 101.787C303.255 101.96 303.946 103.343 305.069 102.046C305.414 101.7 306.45 102.997 307.487 102.997C309.56 102.997 314.656 102.046 316.729 100.922C308.005 100.144 299.368 101.614 290.731 100.144C291.335 99.0205 292.026 98.5883 293.235 98.5883C298.072 98.5883 302.996 98.4154 307.832 98.3289C308.869 98.3289 310.078 97.8967 310.942 98.9341C311.201 99.1934 311.374 98.9341 311.546 98.7612C312.151 97.9831 312.669 98.3289 313.274 98.7612C313.965 99.2799 314.656 99.7121 315.52 99.1934C318.111 97.4645 320.875 97.6374 323.725 98.3289C326.057 98.9341 328.389 99.2799 330.808 98.6747C332.535 98.2425 334.349 98.2425 336.076 98.4154C336.508 98.5018 336.94 98.6747 337.286 98.2425C337.89 97.4645 338.668 97.6374 339.186 98.0696C340.395 99.0205 341.518 98.7612 342.813 98.4154C343.504 98.2425 344.282 97.8967 344.973 98.5018C345.923 99.3663 346.873 99.1934 347.909 98.5018C349.205 97.6374 350.501 97.5509 351.882 98.5018C352.314 98.8476 352.919 99.107 353.437 98.5883C354.042 97.8967 354.646 98.2425 355.251 98.3289C358.706 99.0205 362.247 99.1934 365.616 98.0696C366.739 97.7238 367.257 98.5018 368.034 98.7612C368.984 99.107 369.157 97.1187 370.366 97.8103C370.453 97.8967 370.539 97.8103 370.625 97.8103C375.721 98.3289 380.817 97.8967 385.913 97.2916C391.441 96.6864 396.969 98.5883 402.411 97.2051C401.72 96.9458 401.115 96.8593 400.424 96.8593C395.414 96.5135 390.491 96.0813 385.482 95.8219C381.163 95.649 376.844 95.0439 372.526 95.1303C371.403 95.0439 370.28 94.871 369.157 94.871C363.456 94.6116 357.669 94.4388 351.969 94.2659C350.846 94.2659 349.982 93.9201 349.896 92.6233C349.896 92.2775 349.637 91.9317 349.637 91.6724C353.869 91.6724 358.188 91.586 362.42 91.6724C374.944 92.1046 387.382 93.142 399.992 92.6233C403.533 92.4504 407.161 92.1911 410.875 91.6724C410.098 90.635 410.53 89.9434 410.961 89.1654C412.171 89.1654 413.294 88.9925 414.416 88.6467C415.021 88.4738 415.712 88.3009 416.317 88.6467C418.476 89.857 420.722 89.2518 422.967 89.1654C422.363 89.5112 422.794 89.4247 422.708 88.906ZM35.4991 42.0509C35.4128 41.5322 35.1537 41.1864 34.8082 41.0135C34.8945 40.9271 34.8945 40.7542 34.8082 40.6677C34.8082 40.6677 34.8945 40.6677 34.8945 40.5813C34.9809 41.1 35.6719 41.2729 35.4991 42.0509ZM48.0232 141.294C48.455 141.121 48.8869 140.689 49.3188 141.294C49.837 141.899 49.0597 141.985 48.9733 142.418C48.9733 142.591 48.8005 142.677 48.7142 142.764C48.3687 142.331 48.0232 141.899 47.7641 141.38C47.8504 141.294 47.9368 141.294 48.0232 141.294ZM75.0579 38.3336C75.0579 38.3336 74.9715 38.3336 75.0579 38.3336C74.1078 39.1117 75.4897 39.7168 75.2306 40.5813C74.3669 40.3219 74.7987 39.371 74.3669 39.0252C74.5396 38.7659 74.626 38.3336 75.0579 38.3336ZM70.9983 35.5673C70.6528 35.3944 70.5665 35.0486 70.3937 34.7892C70.6529 34.9621 70.8256 35.3079 70.9983 35.5673ZM81.3631 158.584C81.5358 158.929 82.0541 159.016 82.0541 159.362C81.4495 159.362 81.2767 159.102 81.3631 158.584ZM95.1827 142.677C94.8372 142.331 94.1462 142.331 94.319 143.196C94.0599 142.85 93.5416 142.677 93.5416 142.158C94.6645 142.158 94.6645 141.207 94.6645 140.257C94.4917 140.084 94.4054 139.997 94.1462 139.997C94.2326 139.738 94.0599 139.478 93.9735 139.219C94.319 138.873 94.319 138.441 94.2326 138.009C94.9236 138.528 94.4053 139.392 94.6645 140.084C95.2691 140.257 95.7873 140.429 95.7009 141.207C95.7009 141.467 95.8737 141.726 96.1328 141.899C95.8737 142.072 95.7009 142.245 96.1328 142.418C96.1328 142.418 96.1328 142.418 96.0464 142.418C95.7009 142.504 95.7873 143.455 95.1827 142.677ZM97.2556 137.404C97.0829 137.836 96.9965 138.268 96.9965 138.7C96.7374 138.182 96.3055 137.75 95.9601 137.317C95.7009 136.971 95.4418 136.799 95.0963 136.885C95.3554 136.626 95.5282 136.28 95.5282 135.848C95.8737 136.799 96.3055 137.49 97.2556 137.404Z" fill="#C670A8"/>
<path d="M51.0462 45.8879C51.1326 45.8014 51.3917 45.715 51.4781 45.6285C51.5644 44.764 52.2554 44.5911 52.9464 44.3318C53.3782 44.1589 53.551 43.8131 53.4646 43.3809C53.2919 42.9486 53.2919 42.6893 53.8101 42.4299C54.1556 42.257 54.4147 41.9112 54.242 41.3925C54.1556 41.2196 53.8965 40.9603 53.6374 40.9603C53.1191 40.9603 53.1191 41.479 53.0328 41.8248C52.6873 42.6893 52.0827 43.4673 51.0462 43.3809C50.6143 43.3809 50.528 43.2944 50.2688 43.6402C49.9233 44.1589 49.837 44.5911 50.1825 45.1963C50.2688 45.5421 50.528 45.8879 51.0462 45.8879Z" fill="#C670A8"/>
<path d="M53.6372 56.0023C53.2917 56.0888 52.8599 55.9159 52.8599 56.4346C52.8599 56.8668 52.6871 57.4719 53.2917 57.7313C53.7236 57.9042 54.2418 57.9906 54.501 58.25C55.1919 58.9416 55.7102 58.3364 56.142 58.0771C56.7466 57.7313 56.142 57.299 55.8829 56.9532C55.6238 56.521 55.7102 56.0888 55.7966 55.5701C55.0192 55.8294 54.3282 55.9159 53.6372 56.0023Z" fill="#C670A8"/>
<path d="M48.5417 58.1636C48.8008 58.423 48.9735 58.9416 49.4918 58.5958C49.9236 58.3365 49.6645 58.0772 49.5781 57.7314C49.2326 56.694 49.4918 55.743 50.3555 54.965C50.8737 54.5328 50.8737 53.7547 51.3056 53.3225C51.2192 53.1496 51.2192 52.9767 51.1329 52.8902C50.9601 52.8038 50.7874 52.8038 50.6146 53.0631C50.1828 53.6683 49.8373 54.2734 49.2326 54.5328C48.7144 54.7921 48.7144 55.2243 48.8872 55.6566C49.2327 56.3482 49.2326 56.7804 48.3689 57.1262C47.9371 57.3856 48.1962 57.9043 48.5417 58.1636Z" fill="#C670A8"/>
<path d="M29.4533 79.6893C29.3669 79.5164 29.5396 79.1706 29.1941 79.0841C29.0214 79.0841 28.6759 79.257 28.6759 79.257C28.7623 80.0351 28.0713 80.2944 27.8122 80.8131C27.6395 81.1589 27.6394 81.6776 27.9849 81.9369C28.3304 82.2827 28.5895 81.9369 28.8487 81.6776C29.1942 81.3318 29.5397 81.3318 29.8851 81.6776C30.9216 82.715 30.8352 81.6776 30.9216 81.0724C29.7124 81.3318 29.7124 80.3809 29.4533 79.6893Z" fill="#C670A8"/>
<path d="M100.365 67.4136C99.7607 67.4136 99.0697 67.4136 99.0697 68.278C99.0697 69.0561 99.4152 69.7477 100.193 69.8341C100.797 69.8341 101.315 69.4019 101.315 68.6238C101.402 67.9322 101.143 67.4136 100.365 67.4136Z" fill="#C670A8"/>
<path d="M141.392 167.867C140.788 167.867 140.01 168.126 140.097 168.645C140.269 169.336 140.615 170.201 141.565 170.287C142.515 170.374 142.083 169.596 142.342 169.25C142.515 168.472 142.256 167.953 141.392 167.867Z" fill="#C670A8"/>
<path d="M137.16 169.164C136.728 168.731 136.469 168.126 135.692 168.126C135.001 168.213 134.655 168.904 134.741 169.25C134.828 169.855 135.087 170.633 136.037 170.633C136.987 170.633 136.901 169.855 137.16 169.164Z" fill="#C670A8"/>
<path d="M51.9965 163.285C51.7374 163.458 51.3919 163.544 51.651 163.89C52.0828 164.495 52.1692 165.446 53.1193 165.533C53.3784 164.841 55.0195 164.668 53.983 163.458C53.3784 163.285 52.7738 162.853 51.9965 163.285Z" fill="#C670A8"/>
<path d="M100.883 61.0164C101.315 60.1519 102.006 60.3248 102.352 60.0654C103.561 59.1145 102.956 58.0771 101.833 58.1636C100.451 58.25 100.97 59.6332 100.883 61.0164Z" fill="#C670A8"/>
<path d="M84.3863 54.1004C84.9909 54.1004 85.5091 53.9275 85.4228 53.1495C85.4228 52.3714 85.1636 51.8527 84.2999 51.9392C83.868 52.0256 83.0907 51.7663 83.177 52.5443C83.3498 53.1495 83.2634 54.1004 84.3863 54.1004Z" fill="#C670A8"/>
<path d="M57.6971 56.7804C57.7835 56.6939 58.0426 56.6939 58.129 56.521C58.4745 56.0888 58.4745 55.2243 58.2154 55.1379C57.438 54.965 57.1789 54.1005 56.4015 54.014C56.3152 54.014 56.2288 54.1005 56.2288 54.1869C55.9697 54.6192 57.1789 56.7804 57.6971 56.7804Z" fill="#C670A8"/>
<path d="M31.6124 108.304C32.0443 108.217 32.217 107.872 32.0443 107.526C31.7852 106.921 31.5261 107.439 31.2669 107.612C30.3168 108.131 29.885 108.563 30.9214 109.514C31.4397 109.946 31.8715 110.551 32.6489 110.811C32.8216 109.773 32.1307 109.601 31.5261 109.255C31.1806 108.995 30.3168 108.477 31.6124 108.304Z" fill="#C670A8"/>
<path d="M35.6719 69.6612C35.4992 69.8341 35.2401 70.4392 35.4128 70.4392C36.622 70.4392 37.0539 71.8224 38.1767 71.8224C38.5222 71.8224 38.7813 71.6495 38.7813 71.3037C38.695 71.2173 38.6086 70.9579 38.6086 70.9579C37.1403 71.3902 37.1403 70.007 36.5356 69.4018C36.2765 68.9696 35.931 69.4018 35.6719 69.6612Z" fill="#C670A8"/>
<path d="M116.344 169.25C116.258 169.942 116.69 170.374 116.949 170.893C117.121 171.238 117.208 171.843 117.726 171.498C118.071 171.325 118.071 170.46 117.899 170.46C116.517 169.855 117.208 168.904 117.381 167.953C117.467 167.607 117.208 167.348 116.862 167.348C116.776 167.348 116.603 167.435 116.517 167.521C117.035 168.213 116.085 168.645 116.344 169.25Z" fill="#C670A8"/>
<path d="M68.4938 54.7056C68.7529 54.3598 68.6665 53.8411 68.7529 53.3224C67.8892 53.3224 68.2347 52.1986 67.63 52.1121C67.5437 52.1121 67.5437 52.1121 67.4573 52.1121C67.2846 52.1986 67.2846 54.6191 67.4573 54.6191C67.8028 54.6191 68.2347 55.1378 68.4938 54.7056Z" fill="#C670A8"/>
<path d="M51.7374 56.5211C50.8737 56.694 50.4418 57.2991 50.1827 58.1636C50.01 58.6823 50.3555 58.5958 50.6146 58.5958C51.7374 58.6823 51.8238 57.7313 52.1693 57.0398C52.342 56.7804 52.0829 56.4346 51.7374 56.5211Z" fill="#C670A8"/>
<path d="M28.3302 77.1822C28.4166 77.4416 28.8484 77.9603 29.2803 77.528C29.5394 77.2687 30.0577 76.9229 29.8849 76.4042C29.7122 75.7126 29.1939 75.972 28.7621 76.0584C28.2438 76.1449 27.812 76.0584 27.121 76.0584C27.4665 76.75 28.1574 76.6636 28.3302 77.1822Z" fill="#C670A8"/>
<path d="M58.5605 53.7547C58.6469 54.3598 58.906 54.9649 59.597 54.9649C59.9425 54.9649 60.5471 54.792 60.4608 54.1869C60.3744 53.4953 60.1153 53.0631 59.3379 53.0631C58.8197 52.9766 58.5605 53.236 58.5605 53.7547Z" fill="#C670A8"/>
<path d="M85.6818 61.8808C83.7816 62.4859 85.5954 62.9182 85.6818 63.4369C87.1501 63.6962 86.1137 62.1401 86.8046 61.8808C86.8046 61.1892 86.2864 60.9298 85.7682 60.5841C85.5954 61.1027 86.2864 61.7943 85.6818 61.8808Z" fill="#C670A8"/>
<path d="M58.3014 50.4696C59.0788 50.5561 58.9924 49.9509 59.1652 49.3458C59.2515 49 59.1652 48.3949 58.6469 48.3949C57.9559 48.3949 57.5241 49 57.4377 49.6916C57.265 50.2967 57.8696 50.3832 58.3014 50.4696Z" fill="#C670A8"/>
<path d="M123.168 173.832C122.563 173.313 122.045 172.967 121.699 172.362C121.44 172.016 120.749 171.93 120.317 172.449C120.058 172.708 119.972 173.4 120.317 173.313C121.267 173.227 121.958 174.264 123.168 173.832Z" fill="#C670A8"/>
<path d="M109.866 171.93C109.089 172.189 109.348 172.881 109.434 173.399C109.175 173.659 108.484 173.659 108.657 174.264C108.743 174.61 109.175 174.956 109.52 175.042C109.952 175.128 109.952 174.61 110.039 174.35C110.125 174.178 110.211 174.005 110.384 173.918C111.421 173.486 110.643 172.708 110.643 172.189C110.557 171.843 110.125 171.843 109.866 171.93Z" fill="#C670A8"/>
<path d="M28.1576 91.792C27.8984 91.7056 27.1211 92.0514 27.2938 92.5701C27.4666 93.0023 27.2938 93.9533 28.3303 93.6939C28.6758 93.6939 29.3668 93.4346 29.2804 93.2617C28.8485 92.8294 28.9349 91.8785 28.1576 91.792Z" fill="#C670A8"/>
<path d="M31.699 112.194C31.699 111.589 31.3535 111.243 30.7489 111.243C30.2307 111.243 29.7988 111.416 29.8852 112.021C29.9716 112.54 30.2307 112.972 30.8353 112.972C31.4399 112.972 31.7854 112.799 31.699 112.194Z" fill="#C670A8"/>
<path d="M99.1559 52.3715C99.5878 52.458 99.7606 51.8528 99.8469 51.3341C99.5014 50.8154 99.0696 50.2103 98.5513 49.8645C98.2922 49.6916 98.0331 50.2103 98.2058 50.3832C98.7241 50.9883 97.8603 52.1986 99.1559 52.3715Z" fill="#C670A8"/>
<path d="M53.6373 169.855C53.2054 169.596 53.7237 168.818 53.0327 168.818C52.4281 168.731 51.9962 169.164 51.5644 169.509C51.3916 169.682 51.2189 169.855 51.3916 170.115C51.5644 170.374 51.8235 170.374 52.0826 170.115C52.8599 169.423 52.9463 169.942 53.1191 170.547C53.8964 170.72 53.8101 170.287 53.6373 169.855Z" fill="#C670A8"/>
<path d="M35.1537 104.327C34.8946 105.019 33.8581 105.365 34.4628 106.229C34.8946 106.834 35.4992 107.266 36.2766 106.575C35.0674 106.229 35.1537 105.278 35.1537 104.327Z" fill="#C670A8"/>
<path d="M63.3111 55.4837C63.6566 55.5701 64.0021 55.3972 64.0021 54.8786C63.9157 54.4463 63.8294 53.7547 63.3111 53.7547C62.9656 53.7547 62.4474 54.187 62.361 54.6192C62.1883 55.1379 62.7929 55.3972 63.3111 55.4837Z" fill="#C670A8"/>
<path d="M33.8582 106.834C33.9445 106.575 32.7353 104.846 32.4762 104.846C30.9215 105.105 33.0808 105.797 32.2171 106.229C32.0443 107.007 32.8217 106.921 33.2535 107.093C33.5127 107.18 33.7718 107.18 33.8582 106.834Z" fill="#C670A8"/>
<path d="M28.4166 98.6215C28.3303 98.4486 27.9848 98.2757 27.9848 98.3622C27.7257 99.2267 26.0846 99.2267 26.5165 100.696C27.1211 100.264 27.7257 99.8318 28.2439 99.3996C28.503 99.2267 28.5894 98.9673 28.4166 98.6215Z" fill="#C670A8"/>
<path d="M24.0116 113.664C23.4934 113.664 23.2343 114.096 23.2343 114.528C23.2343 114.96 23.407 115.479 24.0116 115.479C24.5298 115.479 24.789 115.047 24.789 114.615C24.789 114.009 24.5298 113.664 24.0116 113.664Z" fill="#C670A8"/>
<path d="M57.3514 59.8061C57.7833 59.979 58.2152 59.7197 58.5607 59.3739C58.7334 59.201 58.8198 58.5958 58.5607 58.5958C57.6106 58.5958 58.0424 57.6449 57.6106 57.2126C56.4014 57.8178 57.5242 58.5094 57.4378 59.1145C57.2651 59.3739 56.9196 59.6332 57.3514 59.8061Z" fill="#C670A8"/>
<path d="M11.401 95.8551C11.4874 96.1145 11.8329 96.2874 12.0056 96.1145C12.783 95.5958 12.4375 94.8177 12.3511 94.1261C11.7465 94.4719 11.0555 94.9042 11.401 95.8551Z" fill="#C670A8"/>
<path d="M31.8716 71.9952C32.0443 72.2546 31.0942 72.7733 31.9579 72.8597C32.8217 72.9462 32.7353 72.0817 32.908 71.563C32.9944 71.3901 32.9944 70.6985 32.3898 70.785C31.6124 70.9579 31.5261 71.3901 31.8716 71.9952Z" fill="#C670A8"/>
<path d="M42.3226 65.2524C41.3725 65.1659 41.2861 64.215 40.7679 63.5234C39.645 64.7337 41.1133 65.1659 41.2861 65.944C41.6316 65.6846 42.1498 65.8575 42.3226 65.2524Z" fill="#C670A8"/>
<path d="M34.29 100.956C34.7219 100.956 34.4628 100.437 34.8083 100.351C34.8083 99.8318 35.0674 99.1402 34.29 98.8809C34.0309 98.7945 33.5127 98.6216 33.3399 98.9673C33.0808 99.486 33.6854 99.6589 33.9445 100.005C34.4628 100.178 33.6854 100.869 34.29 100.956Z" fill="#C670A8"/>
<path d="M31.5259 69.3155C31.6123 69.5748 31.785 69.9206 32.0441 69.7477C32.8215 69.3155 32.8215 68.5374 32.8215 67.5865C31.785 67.8458 31.3532 68.3645 31.5259 69.3155Z" fill="#C670A8"/>
<path d="M21.593 109.6C21.0748 109.514 20.9884 109.946 20.902 110.378C20.8157 110.811 21.0748 111.157 21.5066 111.243C21.9385 111.243 22.284 111.07 22.3704 110.638C22.3704 110.033 22.0249 109.687 21.593 109.6Z" fill="#C670A8"/>
<path d="M42.3227 158.358C42.3227 157.925 41.8908 157.579 41.3726 157.493C40.8543 157.493 40.5952 157.839 40.5952 158.358C40.5952 158.876 40.8543 159.136 41.2862 159.049C41.8044 159.049 42.3227 158.79 42.3227 158.358Z" fill="#C670A8"/>
<path d="M41.5454 165.619C41.5454 165.965 41.7181 166.397 42.15 166.311C42.5819 166.224 43.1001 166.051 43.3592 165.533C43.2729 165.014 42.7546 165.014 42.4091 164.928C41.8909 164.841 41.5454 165.014 41.5454 165.619Z" fill="#C670A8"/>
<path d="M30.8349 106.143C30.5758 105.883 31.6123 105.278 30.7485 105.364C30.3167 105.364 29.5393 105.797 29.3666 106.402C29.2802 106.921 29.7984 106.921 30.2303 107.007C31.0077 107.093 31.094 106.748 30.8349 106.143Z" fill="#C670A8"/>
<path d="M87.9272 60.4112C88.5319 60.6706 89.2229 59.8926 89.5684 60.757C89.6547 61.0164 90.0866 60.757 90.3457 60.4977C90.6048 60.2384 90.3457 59.8926 90.2593 59.6332C90.1729 59.201 89.9138 59.201 89.5684 59.4603C89.0501 59.8061 88.3591 59.8061 87.9272 60.4112Z" fill="#C670A8"/>
<path d="M88.6184 54.4463C89.1367 54.5327 89.3094 54.1869 89.3094 53.6682C89.223 53.1495 89.1367 52.8037 88.5321 52.7173C88.1002 52.7173 87.7547 52.8902 87.8411 53.4089C87.9275 53.9276 88.1002 54.3598 88.6184 54.4463Z" fill="#C670A8"/>
<path d="M106.066 57.6449C106.929 55.8295 106.757 55.3973 104.77 55.6566C106.584 55.5702 105.202 57.2127 106.066 57.6449Z" fill="#C670A8"/>
<path d="M29.3666 72.9463C29.3666 72.2547 29.3666 71.6495 29.3666 70.6986C27.8119 72.2547 27.8119 72.3411 29.3666 72.9463Z" fill="#C670A8"/>
<path d="M47.1594 165.533C46.4684 165.706 46.5547 166.484 46.1229 166.829C46.0365 166.916 46.2956 167.262 46.4684 167.175C46.9866 166.829 47.6776 166.743 47.8503 166.051C47.764 165.706 47.5048 165.446 47.1594 165.533Z" fill="#C670A8"/>
<path d="M45.1731 157.061C44.6548 157.493 43.9639 157.839 43.7911 158.617C43.7911 158.703 44.0503 158.876 44.1366 158.963C44.5685 158.444 45.5186 158.444 45.5186 157.925C45.5186 157.32 45.2595 156.974 45.1731 157.061Z" fill="#C670A8"/>
<path d="M48.8007 143.402C48.8007 143.834 49.0598 144.18 49.4916 144.007C49.8371 143.834 50.4418 143.661 50.269 143.056C50.1826 142.797 50.0963 142.278 49.578 142.451C49.0598 142.537 48.8007 142.883 48.8007 143.402Z" fill="#C670A8"/>
<path d="M119.108 64.9066C119.799 64.9066 119.713 64.3879 119.799 63.9556C119.885 63.5234 119.713 63.2641 119.195 63.2641C118.763 63.3505 118.504 63.5234 118.504 64.0421C118.504 64.3879 118.59 64.8201 119.108 64.9066Z" fill="#C670A8"/>
<path d="M95.7011 64.993C96.3057 64.6472 96.4784 63.8692 96.6512 63.264C96.7376 62.8318 96.5648 62.5724 96.2193 62.5724C95.1829 62.7453 95.7875 63.7827 95.3556 64.3014C95.2692 64.5608 95.442 65.1659 95.7011 64.993Z" fill="#C670A8"/>
<path d="M113.925 170.633C113.58 170.547 113.321 170.633 113.235 170.979C113.148 171.843 113.753 172.189 114.616 172.621C114.444 171.757 114.962 170.892 113.925 170.633Z" fill="#C670A8"/>
<path d="M83.0907 58.8551C82.4861 58.4228 81.9679 58.077 81.3633 58.5957C81.3633 58.8551 81.3633 59.028 81.3633 59.2873C79.8086 60.2382 81.2769 61.2756 81.3633 62.2266C81.3633 62.313 81.9679 62.7452 82.227 62.3995C82.4861 62.1401 81.9679 61.9672 81.9679 61.6214C81.9679 61.3621 81.8815 61.0163 81.8815 60.7569C81.7951 60.6705 81.7952 60.584 81.7952 60.4976C81.7952 60.584 81.8815 60.6705 81.8815 60.7569C82.0543 59.9789 82.0543 59.2873 83.0907 58.8551Z" fill="#C670A8"/>
<path d="M89.8276 62.8318C90.1731 63.0911 90.605 63.3504 90.9505 63.5233C91.0368 63.6098 91.3823 63.4369 91.4687 63.264C91.7278 62.6589 91.1232 62.7453 90.9505 62.486C90.6914 62.2266 90.6914 61.7079 90.605 61.1892C89.4821 61.4486 90.3459 62.3995 89.8276 62.8318Z" fill="#C670A8"/>
<path d="M31.7851 119.456C32.6489 119.629 31.7851 118.591 32.3034 118.332C32.4761 117.727 32.1306 117.381 31.6124 117.208C31.4397 117.121 31.1805 117.467 31.2669 117.727C31.4397 118.245 31.0941 119.283 31.7851 119.456Z" fill="#C670A8"/>
<path d="M102.006 66.4626C102.006 67.0677 102.525 67.1542 102.956 67.1542C103.302 67.1542 103.734 67.1542 103.734 66.6355C103.734 66.1168 103.475 65.771 102.87 65.8575C102.438 65.9439 102.006 65.9439 102.006 66.4626Z" fill="#C670A8"/>
<path d="M29.1074 89.6309C28.6756 89.9767 28.3301 89.5444 27.8982 89.5444C28.1573 90.1496 28.4165 90.6683 29.1074 90.6683C29.4529 90.6683 29.7984 90.7547 30.0575 90.4089C30.2303 90.1496 30.1439 89.9767 29.9712 89.7173C29.7984 89.458 29.4529 89.458 29.1074 89.6309Z" fill="#C670A8"/>
<path d="M42.668 172.276C42.2362 172.362 42.1498 172.621 42.1498 173.054C42.1498 173.486 42.3225 173.832 42.8408 173.832C43.2726 173.832 43.7045 173.572 43.6181 173.14C43.6181 172.621 43.0999 172.362 42.668 172.276Z" fill="#C670A8"/>
<path d="M31.8718 80.7267C31.8718 80.0351 31.2672 79.7758 30.8353 79.3435C30.5762 79.0842 30.3171 78.9113 30.0579 79.2571C29.8852 79.6029 30.058 79.9487 30.3171 79.9487C31.3535 80.0351 30.8353 80.6403 30.8353 81.159C31.2672 81.0725 31.8718 81.3319 31.8718 80.7267Z" fill="#C670A8"/>
<path d="M104.943 31.278C105.375 31.278 105.634 30.8458 105.634 30.4135C105.72 29.8949 105.375 29.722 104.77 29.722C104.425 29.8084 104.079 29.9813 104.166 30.5C104.252 30.8458 104.511 31.1916 104.943 31.278Z" fill="#C670A8"/>
<path d="M38.6952 152.22C38.6952 151.787 38.4361 151.614 38.0906 151.528C37.5724 151.442 37.3133 151.787 37.2269 152.133C37.1405 152.565 37.3996 152.911 37.8315 152.911C38.3497 152.911 38.6088 152.652 38.6952 152.22Z" fill="#C670A8"/>
<path d="M71.4304 54.7921C71.4304 55.3108 71.8623 55.4837 72.2941 55.3973C72.726 55.3108 73.3306 55.3108 73.417 54.7921C73.5034 54.3599 72.9851 54.1005 72.6396 54.2734C72.035 54.3599 71.4304 54.1005 71.4304 54.7921Z" fill="#C670A8"/>
<path d="M52.4283 151.701C52.9465 151.701 52.9465 151.269 52.9465 150.923C52.9465 150.491 52.7738 150.145 52.2555 150.058C51.8237 150.058 51.6509 150.318 51.7373 150.75C51.8237 151.182 51.9101 151.701 52.4283 151.701Z" fill="#C670A8"/>
<path d="M32.0444 144.958C31.7853 145.217 31.5262 145.563 31.1807 145.995C31.7853 146.255 32.2171 146.082 32.649 145.822C32.9945 145.563 33.2536 145.217 32.9945 144.872C32.649 144.266 32.3035 144.699 32.0444 144.958Z" fill="#C670A8"/>
<path d="M32.6487 103.03C32.3896 103.376 32.6487 103.722 32.8214 103.981C32.9942 104.414 33.5124 104.586 34.117 104.5C34.2034 103.981 33.3397 104.154 33.5988 103.636C33.8579 103.203 33.6852 102.944 33.2533 102.857C33.0806 102.857 32.8214 102.944 32.6487 103.03Z" fill="#C670A8"/>
<path d="M110.385 66.2033C111.076 66.2033 110.903 65.5982 111.076 65.2524C111.076 64.993 111.162 64.5608 110.73 64.5608C110.212 64.5608 109.953 64.9066 109.866 65.4253C109.866 65.6846 109.953 66.2033 110.385 66.2033Z" fill="#C670A8"/>
<path d="M10.4513 118.072C9.93308 118.072 9.8467 118.591 9.8467 118.937C9.76032 119.369 10.1058 119.542 10.5377 119.456C10.8832 119.369 11.315 119.196 11.315 118.678C11.2287 118.332 10.9696 117.986 10.4513 118.072Z" fill="#C670A8"/>
<path d="M16.3246 62.7453C15.8927 62.6589 15.72 63.0047 15.72 63.3505C15.72 63.7827 15.8063 64.1285 16.3246 64.215C16.8428 64.3014 17.0155 63.9556 17.1019 63.3505C17.0155 63.0047 16.6701 62.8318 16.3246 62.7453Z" fill="#C670A8"/>
<path d="M152.448 162.939C152.016 162.939 151.843 163.199 151.757 163.631C151.757 164.063 152.103 164.322 152.448 164.322C152.966 164.322 153.053 163.977 153.139 163.458C153.139 163.112 152.88 162.853 152.448 162.939Z" fill="#C670A8"/>
<path d="M48.5414 163.285C48.2823 162.939 48.0232 163.112 47.6777 163.199C47.4186 163.285 47.0731 163.199 46.7276 163.199C46.7276 163.285 46.6412 163.372 46.6412 163.458C46.9867 163.631 47.2459 163.89 47.6777 163.977C48.0232 164.063 48.3687 164.15 48.6278 163.804C48.5414 163.717 48.6278 163.458 48.5414 163.285Z" fill="#C670A8"/>
<path d="M53.2055 158.012C52.2554 158.357 51.478 158.703 51.3053 160C52.0827 159.222 53.0328 159.308 53.2055 158.012Z" fill="#C670A8"/>
<path d="M115.826 170.72C115.48 170.893 115.135 171.065 115.135 171.411C115.221 171.843 115.48 172.103 115.998 172.103C116.344 172.103 116.43 171.757 116.344 171.411C116.258 171.152 116.258 170.806 115.826 170.72Z" fill="#C670A8"/>
<path d="M96.651 61.1893C96.651 61.6215 96.9965 61.7944 97.342 61.8809C97.7739 61.8809 98.033 61.708 98.033 61.2757C97.9466 60.9299 97.6875 60.6706 97.1692 60.6706C96.9101 60.6706 96.651 60.8435 96.651 61.1893Z" fill="#C670A8"/>
<path d="M26.1711 80.8131C25.6529 81.0724 25.2211 81.5047 25.2211 82.1963C25.2211 82.4556 25.3938 82.6285 25.8257 82.6285C26.1712 82.1098 26.5166 81.6776 26.7758 81.0724C26.7758 80.8131 26.4303 80.7266 26.1711 80.8131Z" fill="#C670A8"/>
<path d="M68.9253 50.0374C68.9253 49.9509 68.5798 49.6916 68.4934 49.6916C67.8024 49.9509 68.1479 50.729 67.716 51.1612C67.6297 51.1612 67.8024 51.4206 67.8888 51.6799C68.407 51.2477 68.8389 50.729 68.9253 50.0374Z" fill="#C670A8"/>
<path d="M79.3764 45.542C79.8083 45.542 79.981 45.2827 79.981 44.8504C79.981 44.5046 79.8083 44.1588 79.3764 44.1588C78.9445 44.1588 78.7718 44.5046 78.7718 44.8504C78.6854 45.2827 78.9445 45.542 79.3764 45.542Z" fill="#C670A8"/>
<path d="M9.32835 121.185C8.89648 121.271 8.72375 121.617 8.72375 122.049C8.81013 122.395 8.98286 122.741 9.41473 122.654C9.84659 122.568 10.1057 122.222 10.0193 121.79C10.0193 121.444 9.76021 121.271 9.32835 121.185Z" fill="#C670A8"/>
<path d="M55.365 53.0631C55.2786 53.4953 55.6241 53.4953 55.9696 53.4953C56.4014 53.4088 56.8333 53.4953 56.8333 52.8902C56.8333 52.4579 56.6606 52.1986 56.1423 52.1121C55.7105 52.285 55.4514 52.6308 55.365 53.0631Z" fill="#C670A8"/>
<path d="M47.5913 46.0607C47.9368 45.9743 48.2823 45.8014 48.2823 45.3691C48.2823 44.9369 48.0232 44.5911 47.5913 44.5911C47.1594 44.5911 46.9867 44.8504 46.9867 45.2827C46.9867 45.7149 47.1594 46.0607 47.5913 46.0607Z" fill="#C670A8"/>
<path d="M79.7219 52.8038C79.6355 53.0631 79.981 53.1496 80.2401 53.1496C80.672 53.1496 81.1039 53.1496 81.1039 52.6309C81.1039 52.2851 80.8448 52.1122 80.4993 52.0258C80.0674 52.1122 79.8083 52.3716 79.7219 52.8038Z" fill="#C670A8"/>
<path d="M28.2441 111.07C27.8123 111.07 27.6395 111.416 27.5531 111.762C27.4667 112.194 27.7259 112.453 28.0714 112.54C28.5896 112.626 28.7623 112.28 28.8487 111.848C28.8487 111.416 28.5896 111.157 28.2441 111.07Z" fill="#C670A8"/>
<path d="M47.7643 61.535C47.6779 61.4486 47.3324 61.2757 47.246 61.3621C46.4687 61.9673 47.4188 62.486 46.9869 63.3505C48.1097 62.7453 48.0234 62.1402 47.7643 61.535Z" fill="#C670A8"/>
<path d="M42.7547 63.4369C43.3593 63.1776 43.3593 62.7453 43.1002 62.2266C42.5819 61.9673 42.0637 61.8808 41.8909 62.486C41.7182 63.0911 42.0637 63.5234 42.7547 63.4369Z" fill="#C670A8"/>
<path d="M73.9352 41.1332C73.9352 41.5654 74.1079 41.9112 74.6262 41.9977C75.058 42.0841 75.2308 41.7383 75.3171 41.3061C75.2308 40.9603 75.058 40.6145 74.5398 40.6145C74.1943 40.701 73.9352 40.7874 73.9352 41.1332Z" fill="#C670A8"/>
<path d="M67.2844 57.6449C67.6299 57.8178 68.0618 57.6449 68.2345 57.2991C68.6664 56.694 67.9754 56.7804 67.7163 56.5211C67.5435 56.3482 67.4571 56.0888 67.3708 55.9159C67.198 56.1753 67.0253 56.4346 67.0253 56.694C66.9389 57.0398 66.9389 57.472 67.2844 57.6449Z" fill="#C670A8"/>
<path d="M46.5548 57.0397C46.9867 57.0397 47.073 56.6939 47.073 56.1752C46.9003 56.0023 47.1594 55.3108 46.5548 55.3972C46.1229 55.3972 46.1229 55.9159 46.1229 56.2617C46.1229 56.6075 46.1229 56.9533 46.5548 57.0397Z" fill="#C670A8"/>
<path d="M73.2442 50.7289C73.5897 50.7289 73.7625 50.2967 73.8488 50.0373C73.7625 49.6915 73.5897 49.3457 73.1579 49.3457C72.726 49.3457 72.5533 49.6915 72.6396 50.0373C72.726 50.3831 72.8124 50.8154 73.2442 50.7289Z" fill="#C670A8"/>
<path d="M81.3632 55.4836C81.2768 55.9159 81.6223 56.1752 81.9677 56.0888C82.5724 56.0888 82.5724 55.4836 82.6587 55.1378C82.7451 54.7056 82.5724 54.5327 82.3132 54.6192C81.8814 54.7056 81.5359 55.0514 81.3632 55.4836Z" fill="#C670A8"/>
<path d="M77.9945 50.9019C78.1673 50.2103 77.5627 49.4323 78.4264 49.0001C77.3899 48.5678 77.3036 49.4323 77.1308 49.951C77.0444 50.3832 77.4763 50.729 77.9945 50.9019Z" fill="#C670A8"/>
<path d="M79.722 47.0982C79.722 46.9253 79.4629 46.6659 79.2901 46.7524C78.5128 47.0117 78.6855 47.7033 78.7719 48.4813C79.3765 48.0491 79.8947 47.7898 79.722 47.0982Z" fill="#C670A8"/>
<path d="M119.367 61.8809C119.799 61.8809 119.885 61.5351 119.972 61.1893C119.972 60.9299 119.972 60.5841 119.54 60.4977C119.194 60.6706 118.849 60.8435 118.849 61.2757C118.763 61.708 119.022 61.8809 119.367 61.8809Z" fill="#C670A8"/>
<path d="M18.57 162.248C18.1381 162.248 18.0518 162.507 18.0518 162.853C18.1381 163.199 18.3109 163.544 18.7428 163.544C19.0882 163.544 19.261 163.285 19.261 162.939C19.1746 162.594 19.0019 162.334 18.57 162.248Z" fill="#C670A8"/>
<path d="M34.1173 113.836C34.5491 114.096 34.8946 113.923 34.8946 113.491C34.8082 113.058 34.3764 112.886 33.9445 112.799C33.4263 112.713 33.3399 113.145 33.3399 113.404C33.2535 114.355 33.8581 113.75 34.1173 113.836Z" fill="#C670A8"/>
<path d="M43.1 57.3855C44.6547 57.4719 44.3092 56.1752 44.741 55.3972C43.8773 55.8294 43.9637 56.9532 43.1 57.3855Z" fill="#C670A8"/>
<path d="M87.1502 55.6566C86.8911 55.7431 86.5457 55.8295 86.5457 56.1753C86.632 56.6076 86.8911 56.7805 87.323 56.694C87.6685 56.6076 88.014 56.4347 88.014 56.0889C87.8412 55.6566 87.4957 55.5702 87.1502 55.6566Z" fill="#C670A8"/>
<path d="M124.463 166.657C124.118 166.657 123.945 167.002 123.945 167.348C123.945 167.694 123.513 168.04 123.945 168.645C124.29 168.299 124.204 167.867 124.636 167.78C125.068 167.694 124.981 167.348 124.895 167.089C124.809 166.829 124.636 166.57 124.463 166.657Z" fill="#C670A8"/>
<path d="M78.5992 56.2617C78.5992 55.3972 77.3036 55.3972 77.39 54.4463C76.699 55.3108 76.699 55.3108 78.5992 56.2617Z" fill="#C670A8"/>
<path d="M102.179 63.3505C102.179 63.0912 102.179 62.8318 101.833 62.8318C101.488 62.9183 100.97 62.9183 100.97 63.437C100.97 63.7827 101.056 64.215 101.488 64.215C101.92 64.215 102.006 63.6963 102.179 63.3505Z" fill="#C670A8"/>
<path d="M65.2978 55.8294C65.7297 55.743 65.5569 55.3108 65.5569 55.0514C65.5569 54.7921 65.5569 54.4463 65.0387 54.4463C64.7795 54.6192 64.4341 54.7921 64.6068 55.2243C64.6068 55.5701 64.9523 55.9159 65.2978 55.8294Z" fill="#C670A8"/>
<path d="M75.0579 55.5701C75.0579 55.743 75.4034 56.0888 75.4898 56.0888C76.1807 55.9159 76.2671 55.3107 76.2671 54.7056C75.9216 55.1378 74.9715 54.7056 75.0579 55.5701Z" fill="#C670A8"/>
<path d="M91.4688 54.014C91.8142 53.7547 92.678 54.1005 92.678 53.236C94.319 52.6308 95.4419 50.3832 94.9237 48.7406C94.7509 48.1355 94.2327 47.8762 93.6281 48.0491C93.1098 48.222 92.8507 49.8645 93.369 50.0374C94.2327 50.4696 93.9736 50.8154 93.5417 51.2477C93.1962 51.5934 92.9371 52.0257 92.678 52.4579C92.2461 52.8037 92.2461 53.4953 91.4688 53.4089C91.2096 53.4089 90.6914 53.1495 90.7778 53.7547C90.7778 54.1869 91.296 54.1869 91.4688 54.014Z" fill="#C670A8"/>
<path d="M108.743 166.829C108.657 166.829 108.571 166.916 108.571 166.916C108.571 166.916 108.657 166.829 108.743 166.829Z" fill="#C670A8"/>
<path d="M108.743 166.829C109.607 166.484 109.693 167.435 110.298 167.607C110.298 166.138 110.125 166.051 108.743 166.829Z" fill="#C670A8"/>
<path d="M24.1844 106.056C24.1844 105.624 24.0117 105.364 23.5798 105.364C23.2343 105.364 22.9752 105.451 22.9752 105.883C22.9752 106.315 23.2343 106.661 23.6662 106.661C24.0117 106.661 24.1844 106.402 24.1844 106.056Z" fill="#C670A8"/>
<path d="M34.0309 111.07C34.3764 111.07 34.5491 110.811 34.5491 110.378C34.5491 110.033 34.29 109.86 33.8582 109.86C33.5127 109.86 33.2535 109.946 33.2535 110.292C33.3399 110.724 33.599 111.07 34.0309 111.07Z" fill="#C670A8"/>
<path d="M71.7759 42.4299C72.1214 42.4299 72.2942 42.1706 72.2942 41.8248C72.2078 41.3926 71.9487 41.2197 71.4304 41.2197C71.1713 41.3061 70.8258 41.479 70.9122 41.9113C70.9986 42.3435 71.3441 42.4299 71.7759 42.4299Z" fill="#C670A8"/>
<path d="M79.2901 50.729C79.2037 51.0748 79.4629 51.3341 79.8947 51.3341C80.0675 51.1612 80.413 51.1612 80.413 50.729C80.413 50.3832 80.1538 50.1238 79.8947 50.1238C79.5492 50.1238 79.3765 50.4696 79.2901 50.729Z" fill="#C670A8"/>
<path d="M51.478 59.1144C51.1325 59.4602 50.4415 59.4602 50.4415 60.0654C50.4415 60.1518 50.787 60.4112 50.8734 60.4112C51.3053 60.1518 51.7371 59.9789 51.9099 59.4602C51.8235 59.1144 51.6508 58.9415 51.478 59.1144Z" fill="#C670A8"/>
<path d="M33.7719 126.199C34.1173 126.544 34.3765 126.89 34.722 127.322C35.1538 125.939 35.1538 125.939 33.7719 126.199Z" fill="#C670A8"/>
<path d="M66.2477 40.0093C66.6796 40.0958 66.8523 39.8365 66.9387 39.4042C66.9387 39.0584 66.7659 38.8855 66.4204 38.8855C66.0749 38.8855 65.8158 39.0584 65.8158 39.4042C65.7295 39.6636 65.9022 39.9229 66.2477 40.0093Z" fill="#C670A8"/>
<path d="M50.0962 152.911C50.0099 153.257 50.1826 153.603 50.5281 153.603C50.8736 153.603 51.3054 153.516 51.3054 152.998C51.3054 152.652 51.0463 152.479 50.7872 152.393C50.3553 152.393 50.1826 152.565 50.0962 152.911Z" fill="#C670A8"/>
<path d="M131.718 45.3691C132.064 45.4556 132.409 45.1962 132.496 44.764C132.496 44.4182 132.237 44.2453 131.891 44.1588C131.632 44.2453 131.373 44.3317 131.287 44.6775C131.2 45.1098 131.459 45.3691 131.718 45.3691Z" fill="#C670A8"/>
<path d="M26.5166 85.4814C26.603 86.0865 27.1212 86.3458 27.9849 86.6916C27.6394 85.8272 27.3803 85.3949 26.8621 85.222C26.7757 85.1356 26.5166 85.3949 26.5166 85.4814Z" fill="#C670A8"/>
<path d="M30.1441 141.5C29.7986 141.5 29.6258 141.846 29.7122 142.192C29.7986 142.451 29.9713 142.797 30.3168 142.71C30.6623 142.71 30.9214 142.537 30.8351 142.105C30.8351 141.846 30.5759 141.5 30.1441 141.5Z" fill="#C670A8"/>
<path d="M37.4858 144.699C37.3995 144.266 37.1403 144.007 36.7085 143.834C36.363 143.834 36.363 144.093 36.2766 144.353C36.2766 144.785 36.5357 145.131 36.9676 145.217C37.3994 145.304 37.5722 144.958 37.4858 144.699Z" fill="#C670A8"/>
<path d="M128.35 48.3085C128.695 48.222 128.782 48.0491 128.782 47.7033C128.782 47.3575 128.609 47.0982 128.264 47.1846C127.918 47.2711 127.745 47.444 127.745 47.7898C127.659 48.1356 127.918 48.3085 128.35 48.3085Z" fill="#C670A8"/>
<path d="M39.9905 145.131C40.336 145.131 40.5087 144.871 40.5951 144.526C40.5951 144.266 40.4224 144.093 40.1633 144.007C39.8178 144.007 39.5586 144.266 39.5586 144.526C39.4723 144.871 39.645 145.131 39.9905 145.131Z" fill="#C670A8"/>
<path d="M13.9924 73.2057C13.6469 73.2057 13.3878 73.3786 13.3878 73.7244C13.3878 74.0701 13.5606 74.243 13.9061 74.3295C14.2516 74.3295 14.4243 74.1566 14.5107 73.8108C14.5107 73.465 14.3379 73.2921 13.9924 73.2057Z" fill="#C670A8"/>
<path d="M40.2496 133.806C40.6815 133.806 40.7678 133.374 40.8542 133.115C40.7678 132.769 40.5087 132.682 40.1632 132.682C39.7313 132.682 39.5586 132.942 39.5586 133.374C39.645 133.633 39.9041 133.806 40.2496 133.806Z" fill="#C670A8"/>
<path d="M39.2132 146.946C39.1269 147.206 39.386 147.379 39.6451 147.465C39.9906 147.551 40.1633 147.292 40.2497 146.946C40.3361 146.601 40.1633 146.341 39.9042 146.255C39.4724 146.341 39.2996 146.601 39.2132 146.946Z" fill="#C670A8"/>
<path d="M34.0309 72.6869C34.29 72.8598 34.4628 72.6869 34.5491 72.4275C34.5491 71.9953 34.4627 71.6495 33.9445 71.4766C33.6854 71.3902 33.3399 71.3037 33.2535 71.8224C33.2535 72.2546 33.6854 72.4275 34.0309 72.6869Z" fill="#C670A8"/>
<path d="M50.0961 145.477C49.7506 145.477 49.4915 145.65 49.4915 145.995C49.4915 146.428 49.837 146.6 50.1825 146.6C50.5279 146.6 50.7007 146.514 50.787 146.082C50.6143 145.736 50.4416 145.477 50.0961 145.477Z" fill="#C670A8"/>
<path d="M31.1806 50.9883C31.3534 50.9019 31.6989 50.8154 31.6989 50.4696C31.6989 50.0374 31.5261 49.6916 31.0943 49.6051C30.7488 49.6051 30.576 49.8645 30.576 50.2103C30.4896 50.5561 30.6624 50.8154 31.1806 50.9883Z" fill="#C670A8"/>
<path d="M74.4534 35.0818C74.7989 35.0818 74.9716 34.9089 75.058 34.5631C75.058 34.2173 74.7989 34.0444 74.5398 33.9579C74.1943 33.9579 73.9352 34.1308 73.9352 34.4766C73.9352 34.8224 74.1079 35.0818 74.4534 35.0818Z" fill="#C670A8"/>
<path d="M66.075 55.5701C66.3341 56.3482 66.8523 56.0024 67.3706 55.9159C67.4569 55.3108 67.4569 54.8785 66.6796 55.2243C66.4205 55.2243 65.9886 55.1379 66.075 55.5701Z" fill="#C670A8"/>
<path d="M61.4108 57.2126C61.9291 57.2126 61.67 56.6075 61.9291 56.4346C62.0155 56.0023 61.7563 56.0023 61.4108 55.9159C60.7199 55.6565 61.0653 56.2617 60.979 56.521C60.8926 56.7804 60.8926 57.2126 61.4108 57.2126Z" fill="#C670A8"/>
<path d="M81.2767 15.9766C81.6222 15.9766 81.7949 15.7172 81.7949 15.3715C81.7085 14.9392 81.4494 14.7663 81.0175 14.7663C80.7584 14.7663 80.4993 15.0257 80.5857 15.285C80.672 15.6308 80.8448 15.9766 81.2767 15.9766Z" fill="#C670A8"/>
<path d="M106.152 39.8365C106.497 39.75 106.757 39.5771 106.843 39.1449C106.929 38.7991 106.584 38.7991 106.325 38.7991C105.893 38.7991 105.634 38.972 105.634 39.4042C105.634 39.6636 105.806 39.8365 106.152 39.8365Z" fill="#C670A8"/>
<path d="M138.283 46.8388C138.628 46.8388 138.801 46.5794 138.887 46.2337C138.801 45.9743 138.628 45.715 138.283 45.715C137.937 45.715 137.678 45.9743 137.678 46.2337C137.764 46.5794 137.937 46.8388 138.283 46.8388Z" fill="#C670A8"/>
<path d="M43.1 53.063C43.3591 53.063 43.6183 53.063 43.5319 52.6308C43.3591 52.285 43.1864 51.9392 42.8409 51.9392C42.5818 51.9392 42.4091 52.1986 42.4091 52.4579C42.4091 52.9766 42.7545 53.063 43.1 53.063Z" fill="#C670A8"/>
<path d="M25.1345 80.2944C25.1345 79.9486 25.3072 79.6028 24.789 79.4299C24.2707 79.6893 24.789 80.035 24.7026 80.3808C24.6162 80.7266 24.0116 81.4182 24.6162 81.5047C25.3936 81.5047 25.1345 80.7266 25.1345 80.2944Z" fill="#C670A8"/>
<path d="M93.8873 65.5117C94.2328 66.1168 94.5783 66.4626 95.1829 66.2897C95.3557 66.2033 95.5284 66.0304 95.442 65.8575C95.0102 65.3388 94.5783 65.3388 93.8873 65.5117Z" fill="#C670A8"/>
<path d="M5.95953 94.0397C5.70041 94.1262 5.44128 94.2126 5.44128 94.5584C5.44128 94.9042 5.61403 95.1635 5.95953 95.1635C6.30502 95.1635 6.47777 94.9906 6.56415 94.6449C6.56415 94.2991 6.39139 94.0397 5.95953 94.0397Z" fill="#C670A8"/>
<path d="M49.7508 167.78C49.1462 167.694 48.8871 168.213 48.5416 168.731C49.319 169.077 49.8372 169.077 50.0963 168.385C50.1827 168.126 50.01 167.78 49.7508 167.78Z" fill="#C670A8"/>
<path d="M24.0116 98.7944C23.9252 98.8809 23.8389 99.486 24.0116 99.5724C24.4435 99.9182 24.8753 99.5724 25.3936 99.3995C24.9617 98.8809 24.5298 98.6215 24.0116 98.7944Z" fill="#C670A8"/>
<path d="M46.8139 164.668C46.8139 164.409 46.7275 164.149 46.4683 164.063C46.0365 163.977 45.8637 164.322 45.7774 164.668C45.6046 165.014 45.8637 165.1 46.1229 165.187C46.382 165.273 46.7275 165.1 46.8139 164.668Z" fill="#C670A8"/>
<path d="M28.244 145.217C27.8121 145.217 27.8121 145.563 27.8121 145.822C27.8121 146.168 27.8985 146.428 28.3303 146.428C28.6758 146.428 28.8486 146.168 28.8486 145.822C28.7622 145.477 28.5895 145.304 28.244 145.217Z" fill="#C670A8"/>
<path d="M34.2035 140.636C33.8581 140.636 33.6853 140.895 33.6853 141.241C33.6853 141.586 33.8581 141.846 34.2899 141.846C34.6354 141.759 34.8081 141.586 34.8081 141.241C34.8081 140.895 34.549 140.636 34.2035 140.636Z" fill="#C670A8"/>
<path d="M46.4684 160.346C46.4684 160.605 46.6411 160.865 46.9002 160.865C47.2457 160.865 47.5049 160.692 47.5049 160.346C47.5049 160 47.3321 159.914 47.073 159.827C46.7275 159.827 46.4684 159.914 46.4684 160.346Z" fill="#C670A8"/>
<path d="M43.8774 137.956C44.1365 137.956 44.3093 137.696 44.3093 137.437C44.3093 137.091 44.1366 136.832 43.7911 136.918C43.4456 136.918 43.2728 137.177 43.2728 137.523C43.2728 137.869 43.5319 138.042 43.8774 137.956Z" fill="#C670A8"/>
<path d="M33.5127 79.7756C32.9081 79.6892 32.4762 79.3434 32.1308 79.9485C32.0444 80.1214 32.1307 80.4672 32.2171 80.4672C32.8217 80.7266 33.0808 80.2943 33.5127 79.7756Z" fill="#C670A8"/>
<path d="M127.918 172.362C127.659 171.93 127.486 171.411 126.882 171.498C126.795 171.498 126.709 171.757 126.709 171.93C126.795 172.449 127.4 172.362 127.918 172.362Z" fill="#C670A8"/>
<path d="M28.6759 86.6916C28.6759 87.2103 28.5895 87.6425 28.5895 88.1612C28.7622 88.1612 28.8486 88.2476 29.0213 88.2476C29.1077 87.8154 29.7123 87.4696 29.1941 86.8645C29.1077 86.778 28.8486 86.778 28.6759 86.6916Z" fill="#C670A8"/>
<path d="M74.7124 44.6776C74.7124 44.9369 74.7124 45.2827 75.0579 45.2827C75.4898 45.2827 75.5761 44.8505 75.6625 44.5911C75.5761 44.3318 75.4034 44.0724 75.2306 44.0724C74.7988 43.986 74.7124 44.3318 74.7124 44.6776Z" fill="#C670A8"/>
<path d="M55.3648 43.986C55.7103 43.986 55.883 43.7267 55.883 43.3809C55.883 43.1215 55.7103 42.9486 55.3648 42.9486C55.0193 43.0351 54.7602 43.208 54.8466 43.5538C54.8466 43.8996 55.0193 44.0725 55.3648 43.986Z" fill="#C670A8"/>
<path d="M20.2975 90.9276C20.2975 90.5818 20.1247 90.3225 19.6928 90.4089C19.3474 90.4954 19.261 90.7547 19.261 91.1005C19.261 91.3599 19.5201 91.5328 19.7792 91.5328C20.1247 91.4463 20.3838 91.2734 20.2975 90.9276Z" fill="#C670A8"/>
<path d="M52.0826 154.64C51.7371 154.035 51.3917 153.862 50.9598 153.949C50.8734 153.949 50.787 154.208 50.8734 154.294C51.0462 154.813 51.478 154.9 52.0826 154.64Z" fill="#C670A8"/>
<path d="M110.989 166.051C110.816 166.484 110.73 167.002 111.162 167.262C111.507 167.435 111.593 167.089 111.68 166.916C111.939 166.311 111.421 166.224 110.989 166.051Z" fill="#C670A8"/>
<path d="M129.905 169.509C130.25 169.596 130.423 169.25 130.423 168.991C130.423 168.645 130.336 168.386 129.991 168.299C129.645 168.299 129.559 168.645 129.559 168.904C129.559 169.164 129.645 169.423 129.905 169.509Z" fill="#C670A8"/>
<path d="M29.4531 94.2991C29.3667 94.5584 29.6258 94.5584 29.7986 94.6449C30.0577 94.3855 30.6623 94.5584 30.6623 94.0397C30.6623 93.7804 30.4032 93.6939 30.144 93.6075C29.7122 93.6075 29.5394 93.9533 29.4531 94.2991Z" fill="#C670A8"/>
<path d="M115.394 37.0701C115.739 36.9837 115.912 36.7243 115.826 36.3785C115.739 36.0327 115.567 35.8598 115.221 35.8598C114.876 35.9463 114.789 36.2056 114.876 36.5514C114.876 36.8972 115.048 37.1566 115.394 37.0701Z" fill="#C670A8"/>
<path d="M28.0711 134.93C27.9848 134.584 27.812 134.411 27.3802 134.411C27.1211 134.411 26.9483 134.671 26.8619 134.93C26.8619 135.362 27.121 135.449 27.4665 135.449C27.812 135.362 28.1575 135.362 28.0711 134.93Z" fill="#C670A8"/>
<path d="M127.141 168.731C127.4 168.645 127.659 168.472 127.659 168.126C127.659 167.953 127.659 167.521 127.314 167.607C126.882 167.607 126.795 167.953 126.709 168.299C126.795 168.558 126.882 168.818 127.141 168.731Z" fill="#C670A8"/>
<path d="M20.5567 57.472C20.7295 57.3856 21.075 57.3856 20.9886 56.9533C20.9886 56.6075 20.7295 56.4346 20.4704 56.3482C20.1249 56.2617 19.9521 56.5211 19.9521 56.8669C19.9521 57.2127 20.1249 57.472 20.5567 57.472Z" fill="#C670A8"/>
<path d="M87.4956 58.1636C87.4956 58.0771 87.3229 57.9042 87.2365 57.9042C86.5455 57.9907 86.4592 58.5958 86.3728 59.1145C86.7183 58.7687 87.582 58.9416 87.4956 58.1636Z" fill="#C670A8"/>
<path d="M106.498 58.6823C106.584 58.25 106.238 58.0771 105.893 58.0771C105.634 58.0771 105.461 58.25 105.375 58.5094C105.375 58.8552 105.548 59.0281 105.893 59.0281C106.152 59.0281 106.411 58.9416 106.498 58.6823Z" fill="#C670A8"/>
<path d="M78.4265 59.979C79.1175 60.4112 78.4265 58.8552 79.2039 59.2874C79.9813 60.1519 80.154 59.4603 80.4995 58.8552C80.9314 58.25 80.6722 58.1636 80.154 58.25C79.8949 58.6823 79.3766 58.4229 78.9448 58.6823C78.772 58.6823 78.5993 58.6823 78.3402 58.6823C77.9947 59.1145 77.9947 59.6332 78.4265 59.979Z" fill="#C670A8"/>
<path d="M115.221 53.7547C115.221 54.1005 115.308 54.4463 115.653 54.6192C115.912 54.7056 116.085 54.4463 116.085 54.1005C115.999 53.8411 115.999 53.4953 115.567 53.4089C115.394 53.3225 115.221 53.4953 115.221 53.7547Z" fill="#C670A8"/>
<path d="M30.9214 64.1285C31.0077 64.5607 31.2669 64.7336 31.6987 64.6472C31.8715 64.6472 32.0442 64.4743 31.9578 64.1285C31.7851 64.042 31.6123 63.6963 31.3532 63.6963C31.0941 63.5234 30.835 63.7827 30.9214 64.1285Z" fill="#C670A8"/>
<path d="M105.893 66.1168C106.239 65.771 106.843 65.5981 106.843 64.993C106.843 64.9066 106.584 64.7337 106.498 64.7337C105.979 64.993 105.979 65.5117 105.893 66.1168Z" fill="#C670A8"/>
<path d="M100.192 66.8949C100.279 66.8949 100.538 66.8085 100.538 66.722C100.624 66.1169 100.106 65.944 99.415 65.4253C99.5014 66.2033 99.5014 66.722 100.192 66.8949Z" fill="#C670A8"/>
<path d="M31.785 132.25C32.1305 132.25 32.2169 131.991 32.2169 131.731C32.2169 131.472 32.2169 131.213 31.8714 131.213C31.4395 131.213 31.3531 131.472 31.3531 131.818C31.3531 132.077 31.5259 132.25 31.785 132.25Z" fill="#C670A8"/>
<path d="M105.115 61.7079C105.375 61.7079 105.634 61.6215 105.547 61.2757C105.461 61.0164 105.288 60.8435 105.029 60.8435C104.856 60.8435 104.684 61.1028 104.684 61.2757C104.597 61.6215 104.856 61.7079 105.115 61.7079Z" fill="#C670A8"/>
<path d="M47.7639 159.308C48.1094 159.135 48.2822 158.876 48.2822 158.444C48.2822 158.185 48.0231 158.098 47.8503 158.185C47.5048 158.357 47.1593 158.53 47.3321 158.963C47.4185 159.222 47.5048 159.308 47.7639 159.308Z" fill="#C670A8"/>
<path d="M49.7506 140.635C49.4051 140.549 49.1459 140.722 49.2323 140.981C49.3187 141.154 49.4914 141.413 49.7506 141.5C50.0097 141.586 50.2688 141.413 50.2688 141.154C50.3552 140.722 50.0097 140.722 49.7506 140.635Z" fill="#C670A8"/>
<path d="M122.995 57.9042C123.254 57.9042 123.34 57.7313 123.254 57.5584C123.168 57.3855 122.995 57.1261 122.822 57.0397C122.65 56.9532 122.39 57.1261 122.39 57.299C122.477 57.6448 122.736 57.8177 122.995 57.9042Z" fill="#C670A8"/>
<path d="M88.7049 31.8831C89.0504 31.8831 89.3095 31.7102 89.2232 31.278C89.2232 31.0187 89.0504 30.7593 88.7913 30.7593C88.3594 30.7593 88.2731 31.0187 88.2731 31.3644C88.2731 31.6238 88.3594 31.8831 88.7049 31.8831Z" fill="#C670A8"/>
<path d="M69.6165 57.0397C69.8756 57.0397 69.962 56.7804 69.8756 56.6075C69.7028 56.0023 69.1846 56.0888 68.6664 56.0023C68.9255 56.521 69.0982 57.0397 69.6165 57.0397Z" fill="#C670A8"/>
<path d="M35.3262 52.285C35.6717 52.285 35.8445 52.1121 35.8445 51.8528C35.8445 51.507 35.7581 51.2476 35.4126 51.1612C35.0671 51.0748 34.808 51.2477 34.808 51.6799C34.8944 52.0257 35.0671 52.285 35.3262 52.285Z" fill="#C670A8"/>
<path d="M24.7891 67.5C25.0482 67.5 25.3073 67.3271 25.2209 67.0678C25.1346 66.8084 24.8754 66.5491 24.6163 66.5491C24.3572 66.6355 24.1844 66.8084 24.1844 67.0678C24.1844 67.3271 24.4436 67.5 24.7891 67.5Z" fill="#C670A8"/>
<path d="M19.5204 96.6331C19.5204 96.7196 19.6067 96.9789 19.6931 96.9789C20.2114 97.0654 20.4705 96.6331 20.7296 96.1144C20.0386 95.9415 19.6931 96.2009 19.5204 96.6331Z" fill="#C670A8"/>
<path d="M110.298 168.991C109.952 168.558 111.766 168.04 110.298 167.694C110.039 168.126 109.78 168.558 110.298 168.991Z" fill="#C670A8"/>
<path d="M110.471 169.077C110.385 169.077 110.385 168.991 110.385 168.991C110.298 168.991 110.385 168.991 110.471 169.077Z" fill="#C670A8"/>
<path d="M3.28238 96.979C3.02326 96.979 2.76416 96.979 2.76416 97.3248C2.76416 97.5841 2.93691 97.7571 3.19602 97.8435C3.45514 97.8435 3.62787 97.6706 3.71424 97.4113C3.80061 97.1519 3.54149 96.979 3.28238 96.979Z" fill="#C670A8"/>
<path d="M86.8911 40.528C87.323 40.4415 87.4957 40.1822 87.4957 39.75C87.4957 39.4906 87.3229 39.4042 87.0638 39.4906C86.8047 39.5771 86.5456 39.75 86.4592 40.0957C86.5456 40.3551 86.5456 40.6144 86.8911 40.528Z" fill="#C670A8"/>
<path d="M107.534 169.682C107.534 169.423 107.361 169.25 107.102 169.164C106.843 169.077 106.584 169.077 106.498 169.336C106.411 169.682 106.67 169.769 106.929 169.855C107.102 169.942 107.361 170.028 107.534 169.682Z" fill="#C670A8"/>
<path d="M31.4398 115.22C31.6989 115.133 31.8717 114.96 31.7853 114.614C31.6989 114.269 31.5262 114.096 31.1807 114.009C30.8352 114.009 30.8352 114.269 30.8352 114.528C31.0079 114.874 31.0943 115.22 31.4398 115.22Z" fill="#C670A8"/>
<path d="M32.7354 123.951C32.7354 123.692 32.5626 123.519 32.2171 123.519C31.8717 123.519 31.6125 123.605 31.6125 124.037C31.6125 124.297 31.8717 124.383 32.1308 124.383C32.4763 124.383 32.7354 124.21 32.7354 123.951Z" fill="#C670A8"/>
<path d="M36.7085 125.766C36.4494 125.766 36.363 126.026 36.4494 126.199C36.5358 126.458 36.6221 126.804 37.054 126.804C37.1404 126.631 37.3995 126.544 37.3131 126.199C37.2267 125.853 37.054 125.68 36.7085 125.766Z" fill="#C670A8"/>
<path d="M36.5358 127.841C36.4494 128.187 36.8813 128.273 37.1404 128.36C37.5723 128.446 37.6586 128.187 37.745 127.841C37.745 127.495 37.5723 127.409 37.2268 127.409C36.8813 127.409 36.5358 127.582 36.5358 127.841Z" fill="#C670A8"/>
<path d="M24.1844 87.3832C24.1844 87.6425 24.4436 87.8154 24.7027 87.8154C25.0482 87.8154 25.3073 87.6425 25.3073 87.2968C25.3073 87.0374 25.1346 86.8645 24.7891 86.8645C24.4436 86.8645 24.1844 87.0374 24.1844 87.3832Z" fill="#C670A8"/>
<path d="M147.985 105.834C154.949 96.9948 158.712 86.073 159.049 74.8135C159.386 63.6102 156.072 52.4633 150.119 42.9489C144.166 33.4346 135.349 24.7648 124.622 20.8802C118.837 18.7972 112.659 18.4594 106.594 18.572C100.136 18.6846 93.677 19.1913 87.4431 20.9928C76.1547 24.2581 65.7087 31.2953 57.0037 39.0644C48.4672 46.7209 42.9073 56.3478 41.784 67.8325C40.717 78.5854 43.3566 89.6761 48.6919 99.0215C54.7011 109.549 63.9677 117.938 74.2452 124.13C79.5805 127.339 85.1966 129.985 90.9812 132.237C92.6661 132.913 94.4632 133.532 95.8111 134.827C97.1028 136.122 97.7206 137.867 98.3945 139.556C99.4616 142.314 100.472 145.073 101.54 147.832C101.371 147.832 101.203 147.888 101.09 148.057C98.4507 151.66 99.7985 155.77 102.719 158.359C102.719 158.416 102.663 158.472 102.663 158.528C102.213 162.469 104.516 166.297 107.886 168.268C107.324 172.94 111.48 176.6 115.861 177.05C116.591 177.106 117.321 177.106 118.051 177.106C123.611 179.865 131.024 181.554 137.09 179.358C140.965 177.951 146.075 173.616 146.188 169.056C147.873 168.155 149.389 167.029 150.512 165.509C153.039 162.075 152.702 157.008 148.659 155.038C149.95 151.772 148.715 147.663 145.738 145.861C147.873 142.033 146.918 135.84 141.919 135.052C141.863 135.052 141.807 135.052 141.807 135.052C141.526 130.042 138.1 125.594 138.943 120.471C139.841 114.729 144.503 110.225 147.985 105.834ZM101.82 148.676C102.045 149.295 102.27 149.915 102.55 150.478C102.157 150.365 101.708 150.252 101.315 150.14C101.427 149.689 101.596 149.183 101.82 148.676ZM101.146 151.041C101.989 151.604 102.831 152.167 103.73 152.729C102.831 152.448 101.989 152.11 101.09 151.829C101.09 151.547 101.09 151.322 101.146 151.041ZM101.427 153.574C101.371 153.349 101.259 153.124 101.259 152.842C102.27 153.349 103.281 153.912 104.291 154.418C103.337 154.137 102.382 153.855 101.427 153.574ZM104.404 161.343C106.089 162.244 107.83 163.088 109.514 163.989C108.223 163.651 106.931 163.257 105.639 162.919C105.415 162.863 105.246 163.088 105.302 163.313C104.965 162.638 104.628 162.019 104.404 161.343ZM106.089 164.383C105.808 164.045 105.583 163.708 105.359 163.313L105.415 163.37C106.145 163.82 106.931 164.271 107.661 164.608C107.156 164.552 106.65 164.496 106.089 164.383ZM107.493 165.847C107.38 165.734 107.268 165.678 107.212 165.565C107.886 165.847 108.56 166.128 109.234 166.41C108.616 166.241 108.054 166.072 107.493 165.847ZM113.446 167.986C111.536 167.986 109.851 167.479 108.391 166.579C110.076 167.142 111.761 167.648 113.446 167.986ZM109.402 169.675C109.346 169.45 109.234 169.225 109.177 168.943C109.29 169 109.402 169.056 109.571 169.056C109.571 169.168 109.627 169.337 109.795 169.394C110.413 169.619 111.031 169.844 111.649 170.125C110.975 169.957 110.357 169.788 109.683 169.619C109.571 169.619 109.458 169.619 109.402 169.675ZM110.862 172.434C110.413 171.871 110.02 171.195 109.739 170.463C110.301 170.745 110.918 170.97 111.48 171.251C111.424 171.251 111.368 171.251 111.312 171.195C110.862 171.083 110.638 171.758 111.087 171.927C111.929 172.152 112.772 172.434 113.558 172.659C112.716 172.603 111.761 172.49 110.862 172.434ZM133.495 178.458C131.586 178.12 129.789 177.669 127.991 177.106C130.294 177.444 132.541 177.838 134.843 178.232C134.338 178.345 133.945 178.401 133.495 178.458ZM135.349 178.063C135.461 177.895 135.405 177.613 135.18 177.557C133.608 177.275 132.091 176.881 130.575 176.431C132.597 176.712 134.618 177.05 136.584 177.613C136.64 177.613 136.64 177.613 136.64 177.613C136.359 177.726 136.023 177.838 135.742 177.895C135.629 178.007 135.517 178.063 135.349 178.063ZM136.977 177.557C137.146 177.332 137.09 176.994 136.753 176.881C136.64 176.825 136.528 176.825 136.416 176.769C136.865 176.825 137.314 176.881 137.763 176.938C138.1 176.994 138.213 176.6 138.1 176.375C138.381 176.431 138.718 176.431 138.999 176.487C138.437 176.881 137.707 177.219 136.977 177.557ZM141.695 174.179C141.077 174.854 140.403 175.474 139.673 176.037C139.673 175.98 139.673 175.924 139.673 175.924C139.617 175.812 139.617 175.755 139.561 175.643C139.505 175.53 139.392 175.361 139.28 175.361C139.168 175.361 139.111 175.305 138.999 175.305C138.718 175.249 138.494 175.474 138.494 175.699C138.213 175.417 137.82 175.305 137.314 175.417C136.64 175.361 135.966 175.249 135.349 175.192C135.012 175.136 134.899 175.53 135.012 175.812C134.169 175.699 133.271 175.643 132.428 175.53C132.147 175.474 131.979 175.755 132.035 175.98C130.575 175.755 129.115 175.586 127.654 175.474C127.205 175.417 127.205 176.037 127.542 176.149C127.879 176.318 128.216 176.431 128.553 176.543C127.43 176.375 126.25 176.206 125.127 176.037C124.734 175.98 124.622 176.487 124.959 176.6C125.801 176.938 126.587 177.219 127.43 177.557C125.801 177.332 124.229 177.05 122.6 176.825C122.319 176.769 122.207 177.219 122.488 177.219C125.352 177.669 128.216 178.12 131.024 178.626C127.486 178.683 123.779 177.838 120.466 176.825C121.926 176.543 123.33 176.149 124.734 175.755C128.16 174.742 131.642 173.729 135.068 172.715C137.876 171.871 141.133 171.195 144.11 170.069C143.38 171.533 142.818 172.94 141.695 174.179ZM146.244 167.085C142.144 169.506 136.921 170.407 132.428 171.702C127.991 172.997 123.33 174.854 118.725 175.361C118.444 175.417 118.219 175.417 117.995 175.417C118.051 175.249 117.939 175.08 117.77 175.023C116.366 174.573 115.018 174.179 113.614 173.729C113.558 173.729 113.502 173.729 113.446 173.785C113.165 173.672 112.828 173.503 112.547 173.391C114.681 173.56 116.815 173.841 118.95 174.179C119.455 174.235 119.623 173.56 119.174 173.447C119.006 173.391 118.837 173.334 118.669 173.278C118.893 173.166 118.95 172.771 118.613 172.659C117.04 172.321 115.468 171.927 114.007 171.364C114.737 171.533 115.411 171.646 116.141 171.814C116.535 171.871 116.703 171.364 116.31 171.195C115.187 170.745 114.007 170.294 112.884 169.9C114.4 170.125 115.861 170.407 117.377 170.745C117.77 170.857 117.939 170.294 117.545 170.125C117.265 170.013 117.04 169.9 116.759 169.844C116.647 169.788 116.535 169.844 116.478 169.957C115.861 169.844 115.243 169.788 114.625 169.675C116.703 169.506 118.781 168.887 120.747 168.155C124.341 166.86 127.823 165.509 131.361 164.158C134.955 162.807 138.494 161.456 142.088 160.104C144.278 159.26 146.637 158.359 148.041 156.389C152.927 158.922 149.838 164.946 146.244 167.085ZM144.334 157.29C142.144 158.528 139.561 159.26 137.202 160.104C134.562 161.118 131.923 162.075 129.283 163.088C124.566 164.833 119.343 167.648 114.232 167.93C114.344 167.761 114.288 167.592 114.063 167.479C112.266 166.86 110.469 166.185 108.672 165.453C109.458 165.622 110.188 165.791 110.975 165.959C111.761 166.241 112.547 166.466 113.39 166.691C113.727 166.804 113.895 166.241 113.558 166.128C112.828 165.903 112.098 165.678 111.368 165.453C110.245 165.059 109.121 164.608 107.998 164.045C109.29 164.383 110.638 164.777 111.929 165.115C112.21 165.171 112.379 164.777 112.154 164.608C110.694 163.82 109.234 163.032 107.773 162.244C108.784 162.694 109.851 163.088 110.918 163.426C111.255 163.539 111.48 163.032 111.143 162.863C110.02 162.3 108.84 161.793 107.605 161.343C107.043 161.062 106.482 160.78 105.92 160.499C106.257 160.555 106.538 160.611 106.875 160.667C107.436 160.836 107.998 160.949 108.56 161.062C109.121 161.23 109.964 161.512 110.525 161.625C110.413 161.962 110.581 162.3 110.975 162.525C111.087 162.582 111.255 162.582 111.312 162.525C111.817 162.188 111.986 161.681 111.592 161.287C117.152 161.118 122.825 158.416 127.767 156.501C131.417 155.094 135.124 153.574 138.606 151.772C140.852 150.59 143.155 149.183 144.784 147.212C148.49 149.633 148.266 155.038 144.334 157.29ZM141.695 137.248C141.751 137.079 141.751 136.854 141.751 136.685C144.054 137.248 145.233 139.5 145.233 141.808C145.233 144.229 143.66 146.255 141.919 147.719C137.595 151.266 131.642 153.236 126.531 155.15C121.477 157.064 115.973 159.767 110.469 159.598C107.436 159.485 104.179 157.909 102.382 155.544C102.663 155.713 102.944 155.826 103.224 155.995C103.056 156.051 102.944 156.333 103.168 156.445C105.639 157.796 108.167 158.641 110.862 159.26C111.312 159.373 111.424 158.753 111.031 158.584C110.862 158.528 110.75 158.472 110.581 158.416C110.694 158.247 110.638 158.021 110.469 157.909C109.009 157.233 107.493 156.614 106.032 155.938C107.324 156.389 108.672 156.839 109.908 157.402C110.357 157.627 110.806 156.952 110.301 156.67C108.84 155.882 107.324 155.15 105.864 154.362C107.156 154.812 108.391 155.263 109.683 155.713C110.188 155.882 110.357 155.15 109.908 154.925C107.38 153.968 104.965 152.729 102.719 151.322C105.022 151.941 107.268 152.673 109.514 153.518C109.908 153.63 110.132 153.124 109.851 152.898C110.132 152.842 110.245 152.335 109.964 152.167C109.627 151.941 109.234 151.66 108.897 151.435C109.458 151.491 110.02 151.604 110.581 151.772C111.087 151.941 111.312 151.097 110.806 150.928C110.75 150.928 110.638 150.872 110.581 150.872C115.973 150.534 121.477 149.126 126.363 147.381C129.789 146.143 133.158 144.623 136.303 142.821C138.381 141.639 140.459 140.231 141.189 137.979C141.414 137.811 141.639 137.585 141.695 137.248ZM106.257 150.872C106.482 150.872 106.763 150.928 106.987 150.928C106.987 151.041 107.043 151.153 107.156 151.209C106.875 151.097 106.594 150.984 106.257 150.872ZM128.497 144.454C126.812 145.129 125.071 145.805 123.33 146.312C120.747 147.1 118.219 147.663 115.636 148.113C115.636 148.057 115.636 148 115.636 148C111.312 128.409 95.418 114.166 79.6928 102.737C80.9284 99.3593 83.2872 96.4318 86.4883 94.3488C91.7675 90.8583 98.2822 90.0701 104.404 89.7887C110.076 89.5072 115.804 89.6198 121.364 88.5501C117.882 106.959 122.207 127.114 128.497 144.454ZM137.483 126.382C138.381 129.591 140.178 132.744 139.898 136.122C139.898 136.178 139.841 136.234 139.841 136.291C139.336 139.612 135.292 141.188 132.653 142.54C131.698 142.99 130.743 143.44 129.789 143.891C125.913 131.167 122.319 118.275 121.982 104.876C121.814 99.1904 122.263 93.5043 123.386 88.0434C127.037 87.1427 133.046 85.0033 131.979 80.3869C131.754 79.4862 130.519 79.7677 130.463 80.6121C130.126 83.99 126.756 85.2848 123.836 86.073C125.24 80.0491 127.542 74.2505 130.743 68.7896C131.305 67.8325 129.845 66.9881 129.283 67.9451C125.577 73.8001 123.162 80.0491 121.758 86.5797C119.006 87.1427 116.198 87.4241 113.333 87.593C107.324 87.9308 101.259 87.7619 95.3618 89.0005C88.6225 90.4079 80.7037 94.9117 78.1203 101.611C76.604 100.542 75.0876 99.4719 73.5713 98.4022C72.6165 97.7266 71.6618 99.303 72.6727 99.9785C74.3014 101.104 75.93 102.287 77.5587 103.469C77.1656 105.214 77.1656 107.072 77.6149 109.042C77.7834 109.662 78.7943 109.549 78.7381 108.874C78.6819 107.41 78.7943 105.946 79.1312 104.539C86.0952 109.605 92.7784 115.066 98.6192 121.428C105.808 129.253 111.087 138.148 114.176 148.338C110.806 148.845 107.38 149.126 103.898 149.521C102.887 146.593 101.82 143.666 100.753 140.794C99.9109 138.542 99.1808 136.009 97.5521 134.151C96.1481 132.462 94.1263 131.618 92.1045 130.83C89.4649 129.76 86.8253 128.69 84.2419 127.508C74.526 122.948 65.4279 116.812 58.1269 108.874C43.6935 93.0539 37.5158 67.6073 50.6013 49.0291C53.971 44.2438 58.3516 40.303 62.9006 36.7562C67.562 33.0968 72.5042 29.719 77.7834 27.0167C89.0156 21.218 102.045 19.698 114.569 20.8239C137.932 22.907 155.286 46.9461 157.027 69.1837C158.038 82.0196 154.275 94.968 146.244 105.045C142.874 109.268 138.831 113.434 137.37 118.726C136.64 121.259 136.753 123.849 137.483 126.382Z" fill="#F2F2F2"/>
<path d="M140.628 40.6407C138.381 37.5443 135.742 34.7295 132.709 32.4776C125.015 26.7352 114.794 24.427 105.639 27.8048C105.471 27.8611 105.359 27.9737 105.302 28.1426C103 29.7753 102.157 32.9279 103.898 35.3487C106.201 38.5577 109.795 37.2066 112.996 36.6999C120.803 35.4613 129.059 38.7266 134.282 44.5816C135.573 45.989 136.64 47.6216 137.539 49.3669C138.381 50.9995 138.999 52.9136 140.74 53.7581C143.323 55.0529 145.345 52.8573 145.233 50.3239C145.121 46.8898 142.537 43.343 140.628 40.6407ZM143.267 51.7877C142.425 51.7314 141.582 51.6751 140.684 51.6188C140.291 51.3936 140.01 50.6054 139.785 50.155C138.494 47.7342 137.314 45.426 135.461 43.343C131.923 39.3459 127.037 36.531 121.87 35.3487C119.006 34.6732 116.029 34.5043 113.109 34.8984C111.143 35.1798 108.841 36.1932 106.875 35.4613C103.842 34.3354 104.291 30.4508 106.819 29.156C107.043 29.0434 107.212 28.8745 107.212 28.6493C120.859 25.7218 134.057 32.759 141.021 44.6379C141.807 45.989 142.706 47.4527 143.155 48.9728C143.323 49.5921 143.492 50.2113 143.436 50.8306L143.267 51.7877Z" fill="#F2F2F2"/>
<path d="M83.6804 134.883C82.8941 136.572 82.164 138.261 81.4339 139.95C81.0969 140.738 80.7038 141.526 80.3107 142.314C80.086 142.708 79.8614 143.609 79.4683 144.172C79.2998 144.172 79.0751 144.228 78.9628 144.397C78.6259 144.791 78.5135 145.073 78.682 145.523C78.8505 145.974 79.2998 146.255 79.7491 146.143C81.3778 145.749 81.827 143.215 82.4448 141.864C83.3434 139.725 84.242 137.642 84.9721 135.446C85.1967 134.658 84.0173 134.151 83.6804 134.883Z" fill="#F2F2F2"/>
<path d="M62.8444 124.75C59.8679 126.72 57.3968 129.648 55.8243 132.857C55.3188 133.87 56.779 134.602 57.2845 133.701C58.857 130.548 60.935 127.959 63.5184 125.594C64.0238 125.2 63.406 124.412 62.8444 124.75Z" fill="#F2F2F2"/>
<path d="M40.5486 99.8098C39.0884 100.654 37.6282 101.499 36.1119 102.231C34.5955 102.906 32.8545 103.3 31.5066 104.257C31.0573 104.595 31.1697 105.383 31.8436 105.383C33.5284 105.383 35.1571 104.426 36.6173 103.694C38.246 102.85 39.8747 101.893 41.2787 100.711C41.728 100.26 41.1102 99.472 40.5486 99.8098Z" fill="#F2F2F2"/>
<path d="M34.7639 64.6237C31.8436 64.4548 28.867 64.6237 25.9466 64.68C25.8905 64.2859 25.385 64.0044 24.9357 64.1733C24.4864 64.3422 24.0933 64.5674 23.7002 64.8489C23.0263 65.2429 23.3071 66.4252 24.0933 66.3689C27.6315 66.2 31.2258 66.1437 34.7078 65.6933C35.4379 65.637 35.494 64.68 34.7639 64.6237Z" fill="#F2F2F2"/>
<path d="M49.085 38.3888C47.9056 37.0376 46.6701 35.7991 45.4345 34.5042C44.3675 33.4346 43.2442 31.8019 41.8402 31.1264C41.2786 30.8449 40.717 31.4079 40.9978 31.9708C41.6156 33.3783 43.2442 34.5042 44.3113 35.5739C45.603 36.8124 46.8385 38.051 48.1864 39.2332C48.8042 39.7962 49.5904 39.0081 49.085 38.3888Z" fill="#F2F2F2"/>
<path d="M73.9083 18.7973C73.3467 16.9958 72.6728 15.2505 71.9988 13.5053C71.4372 11.929 70.9879 10.1837 70.0893 8.8326C69.8085 8.38222 68.8538 8.49481 68.91 9.17039C69.1346 10.9719 69.977 12.6608 70.651 14.2935C71.3249 15.9824 71.9427 17.6713 72.6728 19.3603C72.9536 20.0358 74.133 19.5292 73.9083 18.7973Z" fill="#F2F2F2"/>
<path d="M110.469 1.00718C109.514 2.58351 109.234 4.55393 108.784 6.35546C108.223 8.38218 107.717 10.4089 107.212 12.4356C107.043 13.1675 108.054 13.449 108.335 12.7171C109.009 10.7467 109.571 8.71996 110.188 6.69324C110.694 4.94802 111.48 3.09019 111.48 1.23237C111.48 0.781985 110.75 0.556796 110.469 1.00718Z" fill="#F2F2F2"/>
<path d="M149.782 12.7734C148.209 13.9556 147.03 15.7008 145.795 17.2772C144.615 18.8535 143.267 20.4861 142.481 22.2877C142.256 22.7381 142.818 23.2447 143.211 22.8507C144.615 21.3869 145.738 19.6417 147.03 18.0653C148.209 16.6016 149.67 15.2505 150.624 13.6741C150.905 13.1112 150.287 12.3793 149.782 12.7734Z" fill="#F2F2F2"/>
<path d="M174.325 41.9358C172.527 41.7669 170.506 42.6676 168.877 43.3432C167.136 44.0751 165.451 44.9758 164.047 46.1581C163.654 46.4959 164.159 47.1152 164.609 46.89C166.406 45.9892 168.091 45.0321 169.944 44.3566C171.46 43.7936 173.145 43.6247 174.605 42.9491C175.111 42.7239 174.774 41.9921 174.325 41.9358Z" fill="#F2F2F2"/>
<path d="M177.526 88.0436C174.324 86.6924 170 86.8613 166.63 87.1428C165.9 87.1991 165.9 88.2688 166.63 88.2688C168.427 88.2125 170.225 88.2688 172.022 88.4376C173.819 88.6065 175.56 89.1695 177.357 89.2258C178.087 89.2821 178.087 88.3251 177.526 88.0436Z" fill="#F2F2F2"/>
<path d="M168.708 125.425C167.248 124.299 165.283 123.736 163.542 123.061C161.576 122.272 159.666 121.541 157.645 120.921C156.915 120.696 156.69 121.766 157.364 122.047C159.386 122.835 161.407 123.624 163.429 124.468C165.002 125.144 166.574 126.101 168.315 126.495C168.933 126.607 169.214 125.819 168.708 125.425Z" fill="#F2F2F2"/>
</svg>
