<svg width="50" height="50" viewBox="0 0 50 50" fill="none" xmlns="http://www.w3.org/2000/svg">
<path d="M2.22165 35.7448C1.81884 34.9417 1.56708 34.1887 1.41603 33.3856C1.26497 32.6327 1.26497 31.8798 1.41603 31.1771C1.56708 30.4743 1.81884 29.8218 2.22165 29.2697C2.62446 28.7175 3.12798 28.2658 3.78255 27.9144C4.43712 27.5631 5.19239 27.4125 5.94766 27.4125C6.30012 27.4125 6.50153 27.4125 6.85399 27.4125C7.3575 27.4125 7.76032 27.7137 8.01207 28.316C8.26383 28.9183 8.41488 29.621 8.41488 30.374C8.41488 31.1771 8.31418 31.8296 8.06242 32.3315C7.81067 32.8335 7.50856 33.0845 7.05539 33.0343C6.65258 32.9841 6.40083 32.9339 5.99801 32.8837C5.24274 32.7833 4.68887 33.0845 4.43711 33.7872C4.18536 34.4899 4.23571 35.3432 4.58817 36.3471C4.73922 36.8491 4.94063 37.3008 5.19239 37.7525C5.44414 38.2043 5.69591 38.656 5.99801 39.0074C6.30012 39.3588 6.60223 39.7603 6.90434 40.0615C7.20645 40.3627 7.50856 40.5634 7.81067 40.6638C8.11278 40.8144 8.31418 40.8646 8.61629 40.965C8.96875 41.1156 9.32121 41.4167 9.62332 41.9689C9.92543 42.521 10.1772 43.0732 10.3786 43.6755C10.58 44.328 10.6807 44.7798 10.6807 45.0809C10.6807 45.3821 10.58 45.4825 10.3282 45.2817C10.0765 45.1311 9.97578 45.0308 9.72402 44.8802C9.37156 44.6292 8.9184 44.2276 8.46523 43.7257C8.01207 43.2237 7.4582 42.6716 6.90434 42.1195C6.35047 41.5171 5.7966 40.8646 5.19239 40.1619C4.58817 39.4592 4.0343 38.7564 3.53079 38.0035C3.07763 37.3008 2.62446 36.5479 2.22165 35.7448Z" fill="#F2C94C"/>
<path d="M9.97564 38.9572C9.47212 35.6946 9.37142 33.9378 9.42177 30.2736C9.42177 29.4203 9.62318 28.7175 9.97564 28.2156C10.3281 27.7136 10.7309 27.4125 11.1337 27.4125C11.5869 27.4125 11.9393 27.6635 12.1911 28.2156C12.4429 28.7677 12.5436 29.5206 12.4429 30.4241C12.1911 34.6405 12.1911 36.6483 12.4932 40.3125C12.5939 41.8685 13.0471 42.7218 13.8024 42.9226C14.5073 43.1234 14.8597 42.4206 14.8094 40.8144C14.759 36.9494 14.8597 34.8915 15.2625 30.5245C15.3632 29.5708 15.5647 28.8179 15.9675 28.2658C16.3199 27.7136 16.7227 27.4125 17.1256 27.4125C17.5787 27.4125 17.8808 27.7136 18.0822 28.2658C18.2836 28.8179 18.334 29.621 18.2333 30.6249C17.7298 34.7409 17.5284 36.6985 17.327 40.3627C16.9745 46.4864 16.1185 48.5946 14.3562 47.7915C12.6443 46.9381 10.8316 44.3782 9.97564 38.9572Z" fill="#F2C94C"/>
<path d="M18.8375 34.9416C19.3914 30.1229 20.9523 27.4124 23.1678 27.3622C24.1244 27.312 24.5776 27.312 25.4839 27.2618C25.9371 27.2618 26.2392 27.563 26.3903 28.2657C26.5413 28.9183 26.5413 29.7214 26.3903 30.6249C26.2392 31.5284 25.9874 32.3315 25.5846 33.0342C25.2322 33.7369 24.779 34.0381 24.3258 34.0381C23.3692 34.0381 22.916 34.0381 21.909 34.0381C21.7076 34.0381 21.5565 34.1385 21.4558 34.3895C21.3551 34.6404 21.2544 34.8914 21.2041 35.2428C21.1537 35.5941 21.1537 35.8451 21.2041 36.0961C21.2544 36.347 21.3551 36.4474 21.5565 36.4474C22.1104 36.4474 22.4125 36.4976 22.9664 36.4976C23.9734 36.4976 24.5776 37.1 24.8294 38.2042C25.0811 39.3085 24.9804 41.0653 24.5273 43.2739C23.6209 47.8416 22.3621 49.749 20.8012 49.498C19.9956 49.3474 19.5928 49.2972 18.7872 49.0965C18.4851 48.9961 18.2333 48.6949 18.0823 48.1428C17.9312 47.5906 17.8809 46.9381 17.8809 46.2354C17.9312 45.5326 18.0319 44.9303 18.2837 44.4284C18.5354 43.9264 18.8375 43.6754 19.2403 43.7256C20.2474 43.8762 20.7005 43.9264 21.7076 44.0268C21.8586 44.0268 22.0097 43.9264 22.1104 43.7256C22.2111 43.5249 22.3118 43.2739 22.3621 42.9727C22.4125 42.6715 22.4125 42.3704 22.3621 42.1194C22.3118 41.8684 22.2111 41.7681 22.06 41.7681C21.5565 41.7179 21.3048 41.7179 20.8012 41.6677C19.8949 41.5673 19.2907 41.0151 18.9382 39.9109C18.6865 38.907 18.5858 37.3007 18.8375 34.9416Z" fill="#F2C94C"/>
<path d="M27.4979 33.0845C27.3468 32.4319 27.3972 31.6288 27.5482 30.6751C27.6993 29.7214 28.0014 28.8681 28.3539 28.2156C28.7063 27.5129 29.1091 27.1615 29.5119 27.1615C31.3749 27.0611 32.2309 27.0109 33.9429 26.9105C34.3457 26.9105 34.5974 27.2117 34.6981 27.8642C34.7988 28.5168 34.7988 29.3199 34.5974 30.3238C34.396 31.2775 34.1443 32.1308 33.7918 32.7833C33.4394 33.4358 33.0365 33.7872 32.6841 33.8374C32.3316 33.8876 32.1806 33.8876 31.8281 33.8876C30.67 39.6599 29.9651 42.3704 28.4546 47.1891C28.1524 48.0926 27.8503 48.7451 27.4979 49.2471C27.1454 49.749 26.793 50 26.4908 50C26.1887 50 26.0377 49.7992 25.937 49.3475C25.8866 48.8957 25.937 48.193 26.1887 47.3397C27.4979 42.521 28.1021 39.8105 29.2098 34.0382C28.8574 34.0382 28.656 34.0382 28.2532 34.0883C27.9007 34.0382 27.6489 33.737 27.4979 33.0845Z" fill="#F2C94C"/>
<path d="M32.3823 43.274C32.5837 41.9187 32.9362 40.4631 33.339 38.907C33.7418 37.3008 34.2453 35.7448 34.7992 34.1887C35.3531 32.6327 35.9573 31.2775 36.5615 30.123C37.1657 28.9685 37.7699 28.0148 38.4245 27.3121C39.0791 26.6094 39.6329 26.2078 40.1868 26.1576C40.7407 26.1074 41.1938 26.4086 41.5967 27.0109C41.9995 27.6133 42.2512 28.4666 42.4023 29.4705C42.5533 30.4743 42.5533 31.7292 42.4023 33.0845C42.2512 34.4899 41.8988 35.8954 41.3952 37.351C40.8917 38.8066 40.2372 40.2121 39.4819 41.5171C38.7266 42.8222 37.9713 43.9767 37.2161 44.9304C36.4608 45.9343 35.7055 46.7374 35.0509 47.3899C34.346 48.0424 33.7922 48.444 33.2886 48.6448C32.8355 48.7954 32.483 48.695 32.2816 48.3436C32.0802 47.942 31.9795 47.3397 31.9795 46.4864C32.0298 45.6833 32.1305 44.6292 32.3823 43.274ZM37.2161 34.7911C36.5615 35.8954 36.058 37.2004 35.6552 38.6561C35.2523 40.1117 35.0509 41.2662 35.0509 42.1195C35.0509 43.023 35.3027 43.3743 35.8062 43.2238C36.3097 43.1234 36.914 42.521 37.5685 41.5171C38.2734 40.5133 38.8777 39.3086 39.3308 37.9031C39.784 36.4977 39.9351 35.293 39.8847 34.3393C39.784 33.3354 39.4819 32.8837 38.9784 32.9339C38.4245 33.0845 37.8706 33.6868 37.2161 34.7911Z" fill="#F2C94C"/>
<path d="M38.8777 44.3782C41.6974 39.6098 42.9562 34.5903 44.2149 29.2697C44.4164 28.2658 44.6178 27.4125 44.8695 26.76C45.1213 26.1074 45.373 25.8063 45.6248 25.7561C45.7758 25.7561 45.9269 25.8565 46.0779 26.1074C46.229 26.3584 46.2794 26.76 46.3297 27.2117C46.5311 29.4203 46.5815 30.4242 46.5311 32.3817C47.5885 30.1732 48.0417 29.0689 48.6459 26.8604C48.7969 26.3584 48.8976 26.007 49.0487 25.7059C49.1997 25.4549 49.3005 25.3043 49.4515 25.3043C49.6529 25.3043 49.804 25.5553 49.9047 26.0572C50.0054 26.5592 50.0557 27.2619 49.9047 28.1152C49.1997 33.7872 47.941 36.4475 44.5171 40.6638C44.0135 41.3164 43.51 41.8183 43.0569 42.2701C42.6037 42.7218 42.3016 43.0732 42.1002 43.2237C41.8988 43.4245 41.8988 43.3743 42.0498 43.1736C42.2009 42.9226 42.5533 42.4708 43.0569 41.8183C45.0206 39.1078 45.8262 37.602 47.0346 34.3393C46.4304 35.4436 46.1283 35.9957 45.4234 37.1C44.9199 37.9031 44.5171 38.3549 44.2653 38.4553C44.0135 38.5557 44.0135 38.3047 44.1142 37.6522C44.3156 36.7487 44.366 36.2467 44.4667 35.2428C43.3086 38.7564 42.503 40.4129 40.64 43.3743C40.1868 44.1273 39.6833 44.7296 39.2805 45.2315C38.8777 45.7335 38.5252 46.0346 38.2735 46.1852C38.0217 46.3358 37.9714 46.2354 38.0721 45.9343C38.1224 45.7335 38.4245 45.1813 38.8777 44.3782Z" fill="#F2C94C"/>
<path d="M3.07779 12.6553C5.29326 8.74016 7.91154 6.43122 9.82489 5.02577C10.6305 4.42344 11.0333 4.12227 11.9397 3.62032C12.3928 3.36935 12.6446 3.41955 12.7453 3.8211C12.846 4.22266 12.846 4.82499 12.6949 5.6281C12.5439 6.43121 12.2418 7.18414 11.7886 7.93705C11.3354 8.63978 10.8319 9.09153 10.2277 9.2923C8.96892 9.69386 8.3647 9.89464 7.15626 10.3464C6.95486 10.4468 6.7031 10.5974 6.55205 10.8483C6.35064 11.0993 6.19959 11.3503 6.09888 11.7016C5.99818 12.0028 5.94783 12.2036 5.99818 12.4044C6.04853 12.6051 6.19958 12.6553 6.45134 12.5549C7.20661 12.304 7.60943 12.2036 8.41505 12.0028C9.82489 11.6013 10.7816 11.9024 11.3858 12.9565C11.99 14.0106 12.3425 15.8176 12.4432 18.5281C12.6949 24.0997 11.5368 27.1114 7.71013 27.0612C5.69607 27.011 4.68904 27.011 2.62463 26.9608C1.81901 26.9106 1.16444 26.6094 0.660921 25.9569C0.207757 25.3545 -0.043998 24.6016 0.00635351 23.7483C0.056705 22.9452 0.358813 22.1923 0.811977 21.59C1.31549 20.9374 1.91971 20.5861 2.62463 20.5359C4.53799 20.3351 5.49466 20.2849 7.45837 20.0841C7.76048 20.0339 7.96189 19.8833 8.16329 19.6324C8.31435 19.3814 8.41505 19.03 8.41505 18.7289C8.41505 18.3775 8.3647 18.0763 8.21364 17.8254C8.06259 17.5744 7.86119 17.474 7.55908 17.5242C6.65275 17.6748 6.19959 17.725 5.29326 17.8254C3.73236 18.0763 2.62463 17.6748 2.17147 16.8215C1.76865 15.918 2.02041 14.5125 3.07779 12.6553Z" fill="#F2C94C"/>
<path d="M13.9032 15.4158C13.8025 10.8481 13.9032 8.73997 14.4571 4.87499C14.6081 3.97149 14.8599 3.21858 15.2123 2.56605C15.5648 1.91352 15.9676 1.56216 16.3704 1.41157C16.7732 1.26099 17.1257 1.41157 17.3774 1.86332C17.6292 2.31507 17.7803 3.0178 17.7803 3.9715C17.7299 8.38862 17.7803 10.8983 18.3341 16.1186C18.5355 18.3271 19.4419 19.4314 20.8517 19.331C22.2615 19.2306 22.7651 18.026 22.4629 15.7672C21.7077 10.4466 21.4559 7.88667 21.1035 3.36916C21.0028 2.36527 21.1538 1.61235 21.4056 1.01002C21.6573 0.407682 22.0098 0.106518 22.4629 0.0563231C22.9161 0.00612861 23.3693 0.257101 23.7721 0.809241C24.1749 1.36138 24.477 2.11429 24.6784 3.11818C25.3833 7.28433 25.7358 9.59328 26.5918 14.412C27.4477 18.2267 28.3541 27.1614 22.3119 27.2618C16.3201 27.2618 13.8025 20.4855 13.9032 15.4158Z" fill="#F2C94C"/>
<path d="M29.8146 22.895C28.6061 16.2693 27.3977 9.64362 26.0886 3.01795C25.8871 2.06425 25.8871 1.31133 26.0886 0.759192C26.29 0.207052 26.5921 -0.0439202 26.9949 0.00627432C27.6495 0.0564688 28.2537 0.608613 28.9082 1.71289C31.1237 5.3269 32.3825 7.28448 34.7994 11.3C33.9434 8.0374 33.4902 6.48137 32.4832 3.57009C32.1811 2.66659 32.0804 2.01405 32.1811 1.6125C32.2818 1.21094 32.5335 1.06036 32.9867 1.21095C33.3895 1.36153 33.8427 1.71289 34.2958 2.26503C34.7994 2.81717 35.2022 3.51989 35.605 4.3732C38.0219 10.0954 39.6835 16.1689 40.7912 22.2926C40.9926 23.3969 40.9422 24.3004 40.7408 25.0031C40.5394 25.7059 40.187 26.0572 39.7338 26.1074C39.0792 26.1576 38.4247 25.5553 37.7701 24.2502C35.605 20.0339 34.3965 17.8253 31.9797 13.7094C32.7349 17.1728 33.0874 19.03 33.7923 22.7444C33.9937 23.9491 33.9937 24.8526 33.742 25.5553C33.4902 26.258 33.0874 26.6094 32.4832 26.6094C31.9293 26.6596 31.4258 26.3584 30.8719 25.7059C30.4188 25.0031 30.016 24.0996 29.8146 22.895Z" fill="#F2C94C"/>
<path d="M42.2011 22.4432C41.1941 16.4199 39.4821 10.4969 36.9142 4.92532C36.5114 4.07202 36.3604 3.46968 36.3604 3.11832C36.3604 2.76696 36.5618 2.66657 36.9142 2.86734C37.4681 3.16851 38.1226 3.82105 38.9283 4.82494C41.6473 8.18797 43.0067 9.94478 45.3229 13.358C44.2655 10.7981 43.611 9.59341 42.1004 7.38485C41.6473 6.68213 41.3451 6.23038 41.2948 6.0296C41.2444 5.82882 41.3451 5.92921 41.6976 6.18019C41.9997 6.43116 42.4025 6.88291 42.906 7.38485C43.4096 7.8868 43.9131 8.43894 44.4166 9.04127C47.3873 12.4545 49.6028 17.7751 49.9552 22.2424C50.0559 23.0957 49.9552 23.7483 49.8042 24.3004C49.6531 24.8526 49.4014 25.1537 49.0993 25.1537C48.6965 25.2039 48.344 24.702 47.9412 23.6479C46.632 20.2346 45.625 18.3775 43.4096 14.7133C44.3159 17.6245 44.6683 19.1806 45.1719 22.2926C45.3229 23.2965 45.2726 24.0996 45.0711 24.6518C44.8697 25.2541 44.5676 25.5553 44.1145 25.6055C43.7117 25.6557 43.3088 25.4047 42.9564 24.8024C42.6543 24.3506 42.4025 23.4973 42.2011 22.4432Z" fill="#F2C94C"/>
</svg>
