<svg width="185" height="261" viewBox="0 0 185 261" fill="none" xmlns="http://www.w3.org/2000/svg">
<path d="M11.6234 186.587C9.51625 182.394 8.19924 178.464 7.40905 174.272C6.61886 170.342 6.61886 166.412 7.40905 162.743C8.19924 159.075 9.51625 155.669 11.6234 152.787C13.7306 149.905 16.3646 147.546 19.7888 145.712C23.2129 143.878 27.1639 143.092 31.1148 143.092C32.9586 143.092 34.0122 143.092 35.856 143.092C38.49 143.092 40.5972 144.664 41.9142 147.808C43.2312 150.953 44.0213 154.621 44.0213 158.551C44.0213 162.743 43.4945 166.15 42.1776 168.77C40.8606 171.39 39.2802 172.7 36.9096 172.438C34.8024 172.176 33.4854 171.914 31.3783 171.652C27.4273 171.128 24.5299 172.7 23.2129 176.368C21.8959 180.036 22.1593 184.491 24.0031 189.731C24.7933 192.351 25.8469 194.709 27.1639 197.067C28.4809 199.425 29.7979 201.784 31.3783 203.618C32.9586 205.452 34.539 207.548 36.1194 209.12C37.6998 210.692 39.2802 211.74 40.8606 212.264C42.441 213.05 43.4945 213.312 45.0749 213.836C46.9187 214.622 48.7625 216.194 50.3429 219.077C51.9233 221.959 53.2403 224.841 54.2938 227.985C55.3474 231.391 55.8742 233.75 55.8742 235.322C55.8742 236.894 55.3474 237.418 54.0305 236.37C52.7135 235.584 52.1867 235.06 50.8697 234.274C49.0259 232.964 46.6553 230.867 44.2847 228.247C41.9141 225.627 39.0168 222.745 36.1194 219.863C33.222 216.719 30.3246 213.312 27.1639 209.644C24.0031 205.976 21.1057 202.308 18.4718 198.377C16.1012 194.709 13.7306 190.779 11.6234 186.587Z" fill="#F2C94C"/>
<path d="M52.1866 203.356C49.5527 186.325 49.0259 177.154 49.2893 158.027C49.2893 153.573 50.3429 149.905 52.1866 147.284C54.0304 144.664 56.1376 143.092 58.2448 143.092C60.6154 143.092 62.4592 144.402 63.7761 147.284C65.0931 150.167 65.6199 154.097 65.0931 158.813C63.7761 180.822 63.7761 191.303 65.3565 210.43C65.8833 218.553 68.2539 223.007 72.2049 224.055C75.8925 225.103 77.7362 221.435 77.4728 213.05C77.2094 192.875 77.7362 182.133 79.8434 159.337C80.3702 154.359 81.4238 150.429 83.531 147.546C85.3748 144.664 87.482 143.092 89.5891 143.092C91.9597 143.092 93.5401 144.664 94.5937 147.546C95.6473 150.429 95.9107 154.621 95.3839 159.861C92.7499 181.346 91.6963 191.565 90.6427 210.692C88.799 242.658 84.3212 253.663 75.1023 249.47C66.1467 245.016 56.6644 231.653 52.1866 203.356Z" fill="#F2C94C"/>
<path d="M98.5446 182.396C101.442 157.242 109.607 143.093 121.197 142.831C126.201 142.569 128.572 142.569 133.313 142.307C135.684 142.307 137.264 143.879 138.054 147.548C138.844 150.954 138.844 155.146 138.054 159.862C137.264 164.579 135.947 168.771 133.84 172.439C131.996 176.107 129.626 177.679 127.255 177.679C122.25 177.679 119.88 177.679 114.612 177.679C113.558 177.679 112.768 178.203 112.241 179.514C111.714 180.824 111.188 182.134 110.924 183.968C110.661 185.802 110.661 187.112 110.924 188.422C111.188 189.732 111.714 190.256 112.768 190.256C115.665 190.256 117.246 190.518 120.143 190.518C125.411 190.518 128.572 193.662 129.889 199.427C131.206 205.191 130.679 214.362 128.309 225.89C123.567 249.734 116.982 259.69 108.817 258.38C104.603 257.594 102.496 257.332 98.2812 256.284C96.7008 255.76 95.3838 254.188 94.5936 251.306C93.8034 248.424 93.54 245.017 93.54 241.349C93.8034 237.681 94.3302 234.537 95.6472 231.917C96.9642 229.296 98.5446 227.986 100.652 228.248C105.92 229.034 108.29 229.296 113.558 229.82C114.348 229.82 115.139 229.296 115.665 228.248C116.192 227.2 116.719 225.89 116.982 224.318C117.246 222.746 117.246 221.174 116.982 219.864C116.719 218.554 116.192 218.03 115.402 218.03C112.768 217.768 111.451 217.768 108.817 217.506C104.076 216.982 100.915 214.1 99.0714 208.335C97.7544 203.095 97.2276 194.71 98.5446 182.396Z" fill="#F2C94C"/>
<path d="M143.849 172.7C143.059 169.294 143.322 165.101 144.112 160.123C144.903 155.145 146.483 150.69 148.327 147.284C150.17 143.616 152.278 141.782 154.385 141.782C164.131 141.258 168.608 140.996 177.564 140.472C179.671 140.472 180.988 142.044 181.515 145.45C182.042 148.856 182.042 153.049 180.988 158.289C179.934 163.267 178.617 167.722 176.774 171.128C174.93 174.534 172.823 176.368 170.979 176.63C169.135 176.892 168.345 176.892 166.501 176.892C160.443 207.024 156.755 221.173 148.853 246.326C147.273 251.042 145.693 254.449 143.849 257.069C142.005 259.689 140.161 260.999 138.581 260.999C137.001 260.999 136.21 259.951 135.684 257.593C135.42 255.235 135.684 251.566 137.001 247.112C143.849 221.959 147.01 207.81 152.804 177.678C150.961 177.678 149.907 177.678 147.8 177.94C145.956 177.678 144.639 176.106 143.849 172.7Z" fill="#F2C94C"/>
<path d="M169.398 225.889C170.452 218.814 172.296 211.216 174.403 203.094C176.51 194.709 179.144 186.587 182.041 178.464C184.939 170.342 188.099 163.267 191.26 157.241C194.421 151.215 197.582 146.236 201.006 142.568C204.43 138.9 207.328 136.804 210.225 136.542C213.122 136.28 215.493 137.852 217.6 140.996C219.707 144.14 221.024 148.594 221.814 153.835C222.605 159.075 222.605 165.625 221.814 172.7C221.024 180.036 219.18 187.373 216.547 194.971C213.913 202.57 210.488 209.906 206.537 216.718C202.586 223.531 198.635 229.557 194.684 234.535C190.733 239.776 186.782 243.968 183.358 247.374C179.671 250.78 176.773 252.877 174.139 253.925C171.769 254.711 169.925 254.187 168.871 252.352C167.818 250.256 167.291 247.112 167.291 242.658C167.554 238.466 168.081 232.963 169.398 225.889ZM194.684 181.608C191.26 187.373 188.626 194.185 186.519 201.784C184.412 209.382 183.358 215.408 183.358 219.863C183.358 224.579 184.675 226.413 187.309 225.627C189.943 225.103 193.104 221.959 196.528 216.718C200.216 211.478 203.377 205.19 205.747 197.853C208.118 190.517 208.908 184.228 208.645 179.25C208.118 174.01 206.537 171.652 203.903 171.914C201.006 172.7 198.109 175.844 194.684 181.608Z" fill="#F2C94C"/>
<path d="M16.1005 66.0606C27.69 45.6234 41.3867 33.5707 51.3958 26.2343C55.6101 23.0901 57.7173 21.518 62.4585 18.8979C64.8291 17.5878 66.146 17.8498 66.6728 19.9459C67.1996 22.0421 67.1996 25.1862 66.4094 29.3785C65.6192 33.5707 64.0389 37.501 61.6683 41.4312C59.2977 45.0994 56.6637 47.4575 53.503 48.5056C46.918 50.6017 43.7572 51.6498 37.4357 54.0079C36.3821 54.532 35.0651 55.318 34.2749 56.6281C33.2213 57.9382 32.4311 59.2482 31.9044 61.0823C31.3776 62.6544 31.1142 63.7025 31.3776 64.7505C31.641 65.7986 32.4311 66.0606 33.7481 65.5366C37.6991 64.2265 39.8063 63.7025 44.0206 62.6545C51.3958 60.5583 56.4003 62.1304 59.5611 67.6327C62.7219 73.1351 64.5657 82.5676 65.0925 96.7165C66.4094 125.8 60.3513 141.521 40.3331 141.259C29.7972 140.997 24.5292 140.997 13.7299 140.735C9.51554 140.473 6.09137 138.901 3.45739 135.495C1.08681 132.351 -0.230161 128.42 0.0332363 123.966C0.296634 119.774 1.87702 115.844 4.24759 112.699C6.88157 109.293 10.0423 107.459 13.7299 107.197C23.739 106.149 28.7436 105.887 39.0161 104.839C40.5965 104.577 41.6501 103.791 42.7037 102.481C43.4938 101.171 44.0206 99.3366 44.0206 97.7645C44.0206 95.9304 43.7572 94.3583 42.967 93.0482C42.1769 91.7381 41.1233 91.2141 39.5429 91.4762C34.8017 92.2622 32.4311 92.5242 27.69 93.0482C19.5247 94.3583 13.7299 92.2622 11.3593 87.8079C9.25214 83.0916 10.5691 75.7552 16.1005 66.0606Z" fill="#F2C94C"/>
<path d="M72.7305 80.4703C72.2037 56.6268 72.7305 45.6222 75.6279 25.447C76.418 20.7307 77.735 16.8005 79.5788 13.3943C81.4226 9.98811 83.5298 8.154 85.637 7.36795C87.7442 6.5819 89.5879 7.36793 90.9049 9.72607C92.2219 12.0842 93.0121 15.7525 93.0121 20.7308C92.7487 43.7881 93.0121 56.8889 95.9095 84.1385C96.9631 95.6672 101.704 101.432 109.079 100.908C116.455 100.383 119.088 94.0951 117.508 82.3044C113.557 54.5308 112.24 41.1679 110.396 17.5865C109.87 12.3462 110.66 8.416 111.977 5.27182C113.294 2.12763 115.138 0.555555 117.508 0.29354C119.879 0.0315244 122.249 1.3416 124.356 4.22377C126.464 7.10594 128.044 11.0361 129.098 16.2765C132.785 38.0237 134.629 50.0765 139.107 75.2299C143.584 95.1431 148.326 141.782 116.718 142.306C85.3736 142.306 72.2037 106.934 72.7305 80.4703Z" fill="#F2C94C"/>
<path d="M155.964 119.512C149.643 84.9257 143.321 50.3397 136.473 15.7537C135.419 10.7754 135.419 6.84515 136.473 3.96298C137.526 1.08081 139.107 -0.229263 141.214 0.0327519C144.638 0.294767 147.799 3.17696 151.223 8.9413C162.813 27.8064 169.398 38.025 182.041 58.9862C177.563 41.9552 175.192 33.8328 169.924 18.6359C168.344 13.9196 167.817 10.5134 168.344 8.41724C168.871 6.32111 170.188 5.5351 172.558 6.32115C174.665 7.10719 177.036 8.94127 179.407 11.8234C182.041 14.7056 184.148 18.3738 186.255 22.8281C198.898 52.6978 207.59 84.4017 213.385 116.368C214.439 122.132 214.175 126.848 213.122 130.516C212.068 134.185 210.224 136.019 207.854 136.281C204.429 136.543 201.005 133.399 197.581 126.586C186.255 104.577 179.933 93.0482 167.29 71.563C171.241 89.642 173.085 99.3366 176.773 118.726C177.826 125.014 177.826 129.73 176.509 133.399C175.192 137.067 173.085 138.901 169.924 138.901C167.027 139.163 164.393 137.591 161.496 134.185C159.125 130.516 157.018 125.8 155.964 119.512Z" fill="#F2C94C"/>
</svg>
