<svg width="152" height="125" viewBox="0 0 152 125" fill="none" xmlns="http://www.w3.org/2000/svg">
<path d="M28.912 50.368H25.96V58H25.084V50.368H22.132V49.6H28.912V50.368ZM35.1304 55.108H29.8504C29.8984 55.764 30.1504 56.296 30.6064 56.704C31.0624 57.104 31.6384 57.304 32.3344 57.304C32.7264 57.304 33.0864 57.236 33.4144 57.1C33.7424 56.956 34.0264 56.748 34.2664 56.476L34.7464 57.028C34.4664 57.364 34.1144 57.62 33.6904 57.796C33.2744 57.972 32.8144 58.06 32.3104 58.06C31.6624 58.06 31.0864 57.924 30.5824 57.652C30.0864 57.372 29.6984 56.988 29.4184 56.5C29.1384 56.012 28.9984 55.46 28.9984 54.844C28.9984 54.228 29.1304 53.676 29.3944 53.188C29.6664 52.7 30.0344 52.32 30.4984 52.048C30.9704 51.776 31.4984 51.64 32.0824 51.64C32.6664 51.64 33.1904 51.776 33.6544 52.048C34.1184 52.32 34.4824 52.7 34.7464 53.188C35.0104 53.668 35.1424 54.22 35.1424 54.844L35.1304 55.108ZM32.0824 52.372C31.4744 52.372 30.9624 52.568 30.5464 52.96C30.1384 53.344 29.9064 53.848 29.8504 54.472H34.3264C34.2704 53.848 34.0344 53.344 33.6184 52.96C33.2104 52.568 32.6984 52.372 32.0824 52.372ZM44.0844 51.688V58H43.3044V53.008L40.7484 57.232H40.3644L37.8084 52.996V58H37.0284V51.688H37.8924L40.5684 56.236L43.2924 51.688H44.0844ZM52.7095 51.844C53.2935 51.844 53.8135 51.976 54.2695 52.24C54.7335 52.496 55.0935 52.86 55.3495 53.332C55.6055 53.796 55.7335 54.328 55.7335 54.928C55.7335 55.544 55.5975 56.092 55.3255 56.572C55.0615 57.044 54.6895 57.412 54.2095 57.676C53.7295 57.94 53.1775 58.072 52.5535 58.072C51.5055 58.072 50.6935 57.704 50.1175 56.968C49.5415 56.232 49.2535 55.216 49.2535 53.92C49.2535 52.568 49.5095 51.532 50.0215 50.812C50.5415 50.092 51.3495 49.604 52.4455 49.348L55.2775 48.7L55.4215 49.48L52.7575 50.092C51.8535 50.292 51.1895 50.648 50.7655 51.16C50.3415 51.664 50.1095 52.412 50.0695 53.404C50.3255 52.916 50.6815 52.536 51.1375 52.264C51.5935 51.984 52.1175 51.844 52.7095 51.844ZM52.5775 57.364C53.0175 57.364 53.4095 57.264 53.7535 57.064C54.1055 56.856 54.3775 56.568 54.5695 56.2C54.7695 55.832 54.8695 55.416 54.8695 54.952C54.8695 54.488 54.7735 54.08 54.5815 53.728C54.3895 53.376 54.1175 53.104 53.7655 52.912C53.4215 52.712 53.0255 52.612 52.5775 52.612C52.1295 52.612 51.7295 52.712 51.3775 52.912C51.0335 53.104 50.7615 53.376 50.5615 53.728C50.3695 54.08 50.2735 54.488 50.2735 54.952C50.2735 55.416 50.3695 55.832 50.5615 56.2C50.7615 56.568 51.0375 56.856 51.3895 57.064C51.7415 57.264 52.1375 57.364 52.5775 57.364ZM60.1637 58.06C59.5557 58.06 59.0077 57.924 58.5197 57.652C58.0317 57.372 57.6477 56.988 57.3677 56.5C57.0877 56.012 56.9477 55.46 56.9477 54.844C56.9477 54.228 57.0877 53.676 57.3677 53.188C57.6477 52.7 58.0317 52.32 58.5197 52.048C59.0077 51.776 59.5557 51.64 60.1637 51.64C60.7717 51.64 61.3197 51.776 61.8077 52.048C62.2957 52.32 62.6757 52.7 62.9477 53.188C63.2277 53.676 63.3677 54.228 63.3677 54.844C63.3677 55.46 63.2277 56.012 62.9477 56.5C62.6757 56.988 62.2957 57.372 61.8077 57.652C61.3197 57.924 60.7717 58.06 60.1637 58.06ZM60.1637 57.304C60.6117 57.304 61.0117 57.204 61.3637 57.004C61.7237 56.796 62.0037 56.504 62.2037 56.128C62.4037 55.752 62.5037 55.324 62.5037 54.844C62.5037 54.364 62.4037 53.936 62.2037 53.56C62.0037 53.184 61.7237 52.896 61.3637 52.696C61.0117 52.488 60.6117 52.384 60.1637 52.384C59.7157 52.384 59.3117 52.488 58.9517 52.696C58.5997 52.896 58.3197 53.184 58.1117 53.56C57.9117 53.936 57.8117 54.364 57.8117 54.844C57.8117 55.324 57.9117 55.752 58.1117 56.128C58.3197 56.504 58.5997 56.796 58.9517 57.004C59.3117 57.204 59.7157 57.304 60.1637 57.304ZM70.3134 51.688V58H69.4614V52.444H66.4374L66.3534 54.004C66.2894 55.316 66.1374 56.324 65.8974 57.028C65.6574 57.732 65.2294 58.084 64.6134 58.084C64.4454 58.084 64.2414 58.052 64.0014 57.988L64.0614 57.256C64.2054 57.288 64.3054 57.304 64.3614 57.304C64.6894 57.304 64.9374 57.152 65.1054 56.848C65.2734 56.544 65.3854 56.168 65.4414 55.72C65.4974 55.272 65.5454 54.68 65.5854 53.944L65.6934 51.688H70.3134ZM78.2554 55.108H72.9754C73.0234 55.764 73.2754 56.296 73.7314 56.704C74.1874 57.104 74.7634 57.304 75.4594 57.304C75.8514 57.304 76.2114 57.236 76.5394 57.1C76.8674 56.956 77.1514 56.748 77.3914 56.476L77.8714 57.028C77.5914 57.364 77.2394 57.62 76.8154 57.796C76.3994 57.972 75.9394 58.06 75.4354 58.06C74.7874 58.06 74.2114 57.924 73.7074 57.652C73.2114 57.372 72.8234 56.988 72.5434 56.5C72.2634 56.012 72.1234 55.46 72.1234 54.844C72.1234 54.228 72.2554 53.676 72.5194 53.188C72.7914 52.7 73.1594 52.32 73.6234 52.048C74.0954 51.776 74.6234 51.64 75.2074 51.64C75.7914 51.64 76.3154 51.776 76.7794 52.048C77.2434 52.32 77.6074 52.7 77.8714 53.188C78.1354 53.668 78.2674 54.22 78.2674 54.844L78.2554 55.108ZM75.2074 52.372C74.5994 52.372 74.0874 52.568 73.6714 52.96C73.2634 53.344 73.0314 53.848 72.9754 54.472H77.4514C77.3954 53.848 77.1594 53.344 76.7434 52.96C76.3354 52.568 75.8234 52.372 75.2074 52.372ZM85.6734 55.108H80.3934C80.4414 55.764 80.6934 56.296 81.1494 56.704C81.6054 57.104 82.1814 57.304 82.8774 57.304C83.2694 57.304 83.6294 57.236 83.9574 57.1C84.2854 56.956 84.5694 56.748 84.8094 56.476L85.2894 57.028C85.0094 57.364 84.6574 57.62 84.2334 57.796C83.8174 57.972 83.3574 58.06 82.8534 58.06C82.2054 58.06 81.6294 57.924 81.1254 57.652C80.6294 57.372 80.2414 56.988 79.9614 56.5C79.6814 56.012 79.5414 55.46 79.5414 54.844C79.5414 54.228 79.6734 53.676 79.9374 53.188C80.2094 52.7 80.5774 52.32 81.0414 52.048C81.5134 51.776 82.0414 51.64 82.6254 51.64C83.2094 51.64 83.7334 51.776 84.1974 52.048C84.6614 52.32 85.0254 52.7 85.2894 53.188C85.5534 53.668 85.6854 54.22 85.6854 54.844L85.6734 55.108ZM82.6254 52.372C82.0174 52.372 81.5054 52.568 81.0894 52.96C80.6814 53.344 80.4494 53.848 80.3934 54.472H84.8694C84.8134 53.848 84.5774 53.344 84.1614 52.96C83.7534 52.568 83.2414 52.372 82.6254 52.372ZM87.6434 56.752C87.8274 56.752 87.9794 56.816 88.0994 56.944C88.2194 57.064 88.2794 57.216 88.2794 57.4C88.2794 57.496 88.2634 57.6 88.2314 57.712C88.2074 57.824 88.1674 57.952 88.1114 58.096L87.6074 59.752H87.0314L87.4394 58.012C87.3114 57.972 87.2074 57.9 87.1274 57.796C87.0474 57.684 87.0074 57.552 87.0074 57.4C87.0074 57.216 87.0674 57.064 87.1874 56.944C87.3074 56.816 87.4594 56.752 87.6434 56.752ZM97.695 52.444H95.307V58H94.455V52.444H92.067V51.688H97.695V52.444ZM101.099 51.64C101.923 51.64 102.555 51.848 102.995 52.264C103.435 52.672 103.655 53.28 103.655 54.088V58H102.839V57.016C102.647 57.344 102.363 57.6 101.987 57.784C101.619 57.968 101.179 58.06 100.667 58.06C99.9628 58.06 99.4028 57.892 98.9868 57.556C98.5708 57.22 98.3628 56.776 98.3628 56.224C98.3628 55.688 98.5548 55.256 98.9388 54.928C99.3308 54.6 99.9508 54.436 100.799 54.436H102.803V54.052C102.803 53.508 102.651 53.096 102.347 52.816C102.043 52.528 101.599 52.384 101.015 52.384C100.615 52.384 100.231 52.452 99.8628 52.588C99.4948 52.716 99.1788 52.896 98.9148 53.128L98.5308 52.492C98.8508 52.22 99.2348 52.012 99.6828 51.868C100.131 51.716 100.603 51.64 101.099 51.64ZM100.799 57.388C101.279 57.388 101.691 57.28 102.035 57.064C102.379 56.84 102.635 56.52 102.803 56.104V55.072H100.823C99.7428 55.072 99.2028 55.448 99.2028 56.2C99.2028 56.568 99.3428 56.86 99.6228 57.076C99.9028 57.284 100.295 57.388 100.799 57.388ZM108.215 55.192H106.775V58H105.923V51.688H106.775V54.46H108.227L110.447 51.688H111.371L108.887 54.748L111.551 58H110.543L108.215 55.192ZM112.896 51.688H113.748V56.704L117.96 51.688H118.716V58H117.864V52.984L113.664 58H112.896V51.688ZM125.105 58L123.101 55.36L121.085 58H120.125L122.621 54.76L120.245 51.688H121.205L123.101 54.16L124.997 51.688H125.933L123.557 54.76L126.077 58H125.105ZM25.504 70.192H24.064V73H23.212V66.688H24.064V69.46H25.516L27.736 66.688H28.66L26.176 69.748L28.84 73H27.832L25.504 70.192ZM32.2395 66.64C33.0635 66.64 33.6955 66.848 34.1355 67.264C34.5755 67.672 34.7955 68.28 34.7955 69.088V73H33.9795V72.016C33.7875 72.344 33.5035 72.6 33.1275 72.784C32.7595 72.968 32.3195 73.06 31.8075 73.06C31.1035 73.06 30.5435 72.892 30.1275 72.556C29.7115 72.22 29.5035 71.776 29.5035 71.224C29.5035 70.688 29.6955 70.256 30.0795 69.928C30.4715 69.6 31.0915 69.436 31.9395 69.436H33.9435V69.052C33.9435 68.508 33.7915 68.096 33.4875 67.816C33.1835 67.528 32.7395 67.384 32.1555 67.384C31.7555 67.384 31.3715 67.452 31.0035 67.588C30.6355 67.716 30.3195 67.896 30.0555 68.128L29.6715 67.492C29.9915 67.22 30.3755 67.012 30.8235 66.868C31.2715 66.716 31.7435 66.64 32.2395 66.64ZM31.9395 72.388C32.4195 72.388 32.8315 72.28 33.1755 72.064C33.5195 71.84 33.7755 71.52 33.9435 71.104V70.072H31.9635C30.8835 70.072 30.3435 70.448 30.3435 71.2C30.3435 71.568 30.4835 71.86 30.7635 72.076C31.0435 72.284 31.4355 72.388 31.9395 72.388ZM39.3556 70.192H37.9156V73H37.0636V66.688H37.9156V69.46H39.3676L41.5876 66.688H42.5116L40.0276 69.748L42.6916 73H41.6836L39.3556 70.192ZM44.1082 71.752C44.2922 71.752 44.4442 71.816 44.5642 71.944C44.6842 72.064 44.7442 72.216 44.7442 72.4C44.7442 72.496 44.7282 72.6 44.6962 72.712C44.6722 72.824 44.6322 72.952 44.5762 73.096L44.0722 74.752H43.4962L43.9042 73.012C43.7762 72.972 43.6722 72.9 43.5922 72.796C43.5122 72.684 43.4722 72.552 43.4722 72.4C43.4722 72.216 43.5322 72.064 43.6522 71.944C43.7722 71.816 43.9242 71.752 44.1082 71.752ZM54.5678 66.688V73H53.7878V70.912H51.8078H51.5678L50.1038 73H49.1798L50.7518 70.792C50.2638 70.656 49.8878 70.424 49.6238 70.096C49.3598 69.768 49.2278 69.352 49.2278 68.848C49.2278 68.144 49.4678 67.608 49.9478 67.24C50.4278 66.872 51.0838 66.688 51.9158 66.688H54.5678ZM50.0918 68.872C50.0918 69.808 50.6878 70.276 51.8798 70.276H53.7878V67.444H51.9398C50.7078 67.444 50.0918 67.92 50.0918 68.872ZM63.1978 66.844C63.7818 66.844 64.3018 66.976 64.7578 67.24C65.2218 67.496 65.5818 67.86 65.8378 68.332C66.0938 68.796 66.2218 69.328 66.2218 69.928C66.2218 70.544 66.0858 71.092 65.8138 71.572C65.5498 72.044 65.1778 72.412 64.6978 72.676C64.2178 72.94 63.6658 73.072 63.0418 73.072C61.9938 73.072 61.1818 72.704 60.6058 71.968C60.0298 71.232 59.7418 70.216 59.7418 68.92C59.7418 67.568 59.9978 66.532 60.5098 65.812C61.0298 65.092 61.8378 64.604 62.9338 64.348L65.7658 63.7L65.9098 64.48L63.2458 65.092C62.3418 65.292 61.6778 65.648 61.2538 66.16C60.8298 66.664 60.5978 67.412 60.5578 68.404C60.8138 67.916 61.1698 67.536 61.6258 67.264C62.0818 66.984 62.6058 66.844 63.1978 66.844ZM63.0658 72.364C63.5058 72.364 63.8978 72.264 64.2418 72.064C64.5938 71.856 64.8658 71.568 65.0578 71.2C65.2578 70.832 65.3578 70.416 65.3578 69.952C65.3578 69.488 65.2618 69.08 65.0698 68.728C64.8778 68.376 64.6058 68.104 64.2538 67.912C63.9098 67.712 63.5138 67.612 63.0658 67.612C62.6178 67.612 62.2178 67.712 61.8658 67.912C61.5218 68.104 61.2498 68.376 61.0498 68.728C60.8578 69.08 60.7618 69.488 60.7618 69.952C60.7618 70.416 60.8578 70.832 61.0498 71.2C61.2498 71.568 61.5258 71.856 61.8778 72.064C62.2298 72.264 62.6258 72.364 63.0658 72.364ZM70.6519 73.06C70.0439 73.06 69.4959 72.924 69.0079 72.652C68.5199 72.372 68.1359 71.988 67.8559 71.5C67.5759 71.012 67.4359 70.46 67.4359 69.844C67.4359 69.228 67.5759 68.676 67.8559 68.188C68.1359 67.7 68.5199 67.32 69.0079 67.048C69.4959 66.776 70.0439 66.64 70.6519 66.64C71.2599 66.64 71.8079 66.776 72.2959 67.048C72.7839 67.32 73.1639 67.7 73.4359 68.188C73.7159 68.676 73.8559 69.228 73.8559 69.844C73.8559 70.46 73.7159 71.012 73.4359 71.5C73.1639 71.988 72.7839 72.372 72.2959 72.652C71.8079 72.924 71.2599 73.06 70.6519 73.06ZM70.6519 72.304C71.0999 72.304 71.4999 72.204 71.8519 72.004C72.2119 71.796 72.4919 71.504 72.6919 71.128C72.8919 70.752 72.9919 70.324 72.9919 69.844C72.9919 69.364 72.8919 68.936 72.6919 68.56C72.4919 68.184 72.2119 67.896 71.8519 67.696C71.4999 67.488 71.0999 67.384 70.6519 67.384C70.2039 67.384 69.7999 67.488 69.4399 67.696C69.0879 67.896 68.8079 68.184 68.5999 68.56C68.3999 68.936 68.2999 69.364 68.2999 69.844C68.2999 70.324 68.3999 70.752 68.5999 71.128C68.8079 71.504 69.0879 71.796 69.4399 72.004C69.7999 72.204 70.2039 72.304 70.6519 72.304ZM80.8017 66.688V73H79.9497V67.444H76.9257L76.8417 69.004C76.7777 70.316 76.6257 71.324 76.3857 72.028C76.1457 72.732 75.7177 73.084 75.1017 73.084C74.9337 73.084 74.7297 73.052 74.4897 72.988L74.5497 72.256C74.6937 72.288 74.7937 72.304 74.8497 72.304C75.1777 72.304 75.4257 72.152 75.5937 71.848C75.7617 71.544 75.8737 71.168 75.9297 70.72C75.9857 70.272 76.0337 69.68 76.0737 68.944L76.1817 66.688H80.8017ZM85.9357 68.92C86.7277 68.928 87.3277 69.104 87.7357 69.448C88.1517 69.792 88.3597 70.288 88.3597 70.936C88.3597 71.608 88.1357 72.124 87.6877 72.484C87.2477 72.844 86.6077 73.02 85.7677 73.012L83.2237 73V66.688H84.0757V68.896L85.9357 68.92ZM85.7197 72.364C86.3037 72.372 86.7437 72.256 87.0397 72.016C87.3437 71.768 87.4957 71.408 87.4957 70.936C87.4957 70.472 87.3477 70.128 87.0517 69.904C86.7557 69.68 86.3117 69.564 85.7197 69.556L84.0757 69.532V72.34L85.7197 72.364ZM98.6974 66.688V73H89.9854V66.688H90.8374V72.256H93.9334V66.688H94.7854V72.256H97.8454V66.688H98.6974ZM106.65 70.108H101.37C101.418 70.764 101.67 71.296 102.126 71.704C102.582 72.104 103.158 72.304 103.854 72.304C104.246 72.304 104.606 72.236 104.934 72.1C105.262 71.956 105.546 71.748 105.786 71.476L106.266 72.028C105.986 72.364 105.634 72.62 105.21 72.796C104.794 72.972 104.334 73.06 103.83 73.06C103.182 73.06 102.606 72.924 102.102 72.652C101.606 72.372 101.218 71.988 100.938 71.5C100.658 71.012 100.518 70.46 100.518 69.844C100.518 69.228 100.65 68.676 100.914 68.188C101.186 67.7 101.554 67.32 102.018 67.048C102.49 66.776 103.018 66.64 103.602 66.64C104.186 66.64 104.71 66.776 105.174 67.048C105.638 67.32 106.002 67.7 106.266 68.188C106.53 68.668 106.662 69.22 106.662 69.844L106.65 70.108ZM103.602 67.372C102.994 67.372 102.482 67.568 102.066 67.96C101.658 68.344 101.426 68.848 101.37 69.472H105.846C105.79 68.848 105.554 68.344 105.138 67.96C104.73 67.568 104.218 67.372 103.602 67.372ZM111.689 66.688H112.541V69.484H116.513V66.688H117.365V73H116.513V70.216H112.541V73H111.689V66.688ZM125.306 70.108H120.026C120.074 70.764 120.326 71.296 120.782 71.704C121.238 72.104 121.814 72.304 122.51 72.304C122.902 72.304 123.262 72.236 123.59 72.1C123.918 71.956 124.202 71.748 124.442 71.476L124.922 72.028C124.642 72.364 124.29 72.62 123.866 72.796C123.45 72.972 122.99 73.06 122.486 73.06C121.838 73.06 121.262 72.924 120.758 72.652C120.262 72.372 119.874 71.988 119.594 71.5C119.314 71.012 119.174 70.46 119.174 69.844C119.174 69.228 119.306 68.676 119.57 68.188C119.842 67.7 120.21 67.32 120.674 67.048C121.146 66.776 121.674 66.64 122.258 66.64C122.842 66.64 123.366 66.776 123.83 67.048C124.294 67.32 124.658 67.7 124.922 68.188C125.186 68.668 125.318 69.22 125.318 69.844L125.306 70.108ZM122.258 67.372C121.65 67.372 121.138 67.568 120.722 67.96C120.314 68.344 120.082 68.848 120.026 69.472H124.502C124.446 68.848 124.21 68.344 123.794 67.96C123.386 67.568 122.874 67.372 122.258 67.372ZM131.363 67.444H128.975V73H128.123V67.444H125.735V66.688H131.363V67.444Z" fill="#F4D36D"/>
<path d="M151.868 43.1238C151.78 42.3006 151.619 41.4749 151.387 40.6803C151.165 39.9208 150.898 39.1649 150.551 38.4529C150.394 38.1284 150.23 37.8077 150.051 37.4943C149.842 37.1286 149.61 36.7809 149.37 36.4357C148.892 35.7476 148.392 35.0705 147.864 34.4213C146.906 33.243 145.765 32.2302 144.605 31.2558C143.38 30.2244 142.059 29.3014 140.725 28.4163C140.436 28.2252 140.151 28.0275 139.863 27.8336C139.541 27.6168 139.208 27.4206 138.87 27.2295C138.139 26.8169 137.351 26.4856 136.556 26.2172C136.247 26.1135 135.938 26.0149 135.627 25.9198C135.248 25.8035 134.859 25.7187 134.474 25.6244C133.66 25.4239 132.846 25.258 132.014 25.1469C130.501 24.9447 128.98 24.8415 127.454 24.7886C125.883 24.7344 124.31 24.7092 122.737 24.7125C122.386 24.7131 122.033 24.7416 121.683 24.7674C121.314 24.7951 120.948 24.8302 120.581 24.8771C119.726 24.987 118.886 25.1594 118.058 25.3981C117.126 25.6659 116.226 26.0415 115.32 26.3846C114.894 26.5459 114.463 26.6953 114.038 26.8585C113.55 27.0462 113.069 27.2495 112.588 27.4559C112.318 27.563 112.047 27.6609 111.77 27.7517C111.648 27.7923 111.527 27.8412 111.407 27.89C111.531 27.6148 111.65 27.3373 111.756 27.0527C111.893 26.6858 111.993 26.2925 112.073 25.909C112.185 25.3688 112.279 24.832 112.33 24.2812C112.369 23.8495 112.393 23.4165 112.406 22.9833C112.419 22.5814 112.375 22.1763 112.332 21.7769C112.228 20.8057 112.056 19.8465 111.899 18.8831C111.83 18.4579 111.781 18.029 111.692 17.6065C111.595 17.145 111.481 16.6903 111.351 16.2366C111.238 15.8386 111.129 15.4325 110.978 15.0472C110.772 14.523 110.548 14.0079 110.309 13.4989C110.132 13.1219 109.961 12.7412 109.769 12.3723C109.555 11.9591 109.333 11.5498 109.107 11.1432C108.22 9.54132 107.148 8.00546 105.771 6.78772C105.022 6.12514 104.248 5.49768 103.456 4.88613C103.128 4.63291 102.801 4.37574 102.464 4.13656C102.08 3.86344 101.686 3.60769 101.289 3.35442C100.91 3.11225 100.523 2.88554 100.133 2.66277C99.777 2.45986 99.4088 2.25762 99.0347 2.08886C98.5358 1.86472 98.035 1.64079 97.5209 1.45172C97.0676 1.28432 96.6097 1.13614 96.1477 0.993467C95.3064 0.733514 94.436 0.566375 93.573 0.391841C93.0483 0.286106 92.5165 0.221967 91.986 0.152458C91.5683 0.0981965 91.1367 0.0672915 90.7157 0.0499653C89.7978 0.0136914 88.8813 -0.0195443 87.9628 0.0136914C87.0489 0.046013 86.1369 0.0989058 85.2249 0.169784C84.2266 0.246436 83.2335 0.369904 82.2463 0.536585C81.3688 0.684574 80.5049 0.885656 79.6412 1.09667C78.7999 1.3014 77.9724 1.58977 77.1647 1.89796C76.2574 2.24378 75.3824 2.67939 74.5477 3.17391C73.8199 3.60561 73.1416 4.12319 72.4717 4.6396C71.6971 5.23656 70.9521 5.86935 70.2097 6.50603C68.8722 7.65249 67.5353 8.80006 66.2815 10.0405C65.0061 11.3025 63.7503 12.5838 62.6312 13.9902C61.5655 15.3289 60.6113 16.7588 59.7831 18.2577C59.3628 19.0193 58.9696 19.8232 58.6799 20.6443C58.6523 20.7228 58.6309 20.8027 58.6042 20.8814C58.5116 20.666 58.4152 20.4525 58.3032 20.2449C58.1805 20.0169 58.0577 19.7888 57.9311 19.5626C57.7892 19.3114 57.6624 19.0542 57.5074 18.8102C57.3405 18.5458 57.1716 18.2834 56.9947 18.0262C56.8264 17.7829 56.6747 17.5289 56.5163 17.2796C56.3428 17.0079 56.1686 16.7369 56.0029 16.4598C55.6772 15.9157 55.3183 15.4088 54.9224 14.9145C54.4265 14.2635 53.8995 13.6224 53.2816 13.084C52.5551 12.4508 51.7738 11.8935 50.9266 11.4353C50.0661 10.9692 49.141 10.6649 48.1954 10.4329C47.2537 10.2016 46.2943 10.0786 45.327 10.0243C44.9007 10.0005 44.4757 9.98807 44.0495 9.99268C43.6317 9.99729 43.2121 10.0469 42.7963 10.0878C41.8303 10.1824 40.8656 10.3279 39.9101 10.4996C39.0714 10.6506 38.2215 10.79 37.3947 10.9976C36.5117 11.2196 35.6282 11.4425 34.7783 11.7723C33.8565 12.1302 32.9314 12.509 32.0656 12.9896C31.219 13.459 30.4153 14.013 29.6993 14.6657C28.9873 15.3155 28.4146 16.1048 27.8643 16.8915C27.6168 17.2459 27.397 17.628 27.1879 18.007C26.9747 18.3923 26.761 18.7779 26.5623 19.1712C26.1565 19.9758 25.7461 20.7791 25.3666 21.5968C24.947 22.5013 24.5563 23.4196 24.2 24.3505C24.0324 24.7882 23.876 25.2252 23.7467 25.6754C23.6015 26.1793 23.5177 26.7147 23.4742 27.2364C23.4476 27.5557 23.427 27.8763 23.427 28.1972C23.427 28.2907 23.4287 28.3844 23.4325 28.4779C23.455 29.0221 23.521 29.5595 23.6021 30.0979C23.684 30.6438 23.8067 31.178 23.9512 31.7108C24.1083 32.2882 24.2653 32.8665 24.4487 33.4358C24.5923 33.882 24.7519 34.322 24.9172 34.7607C24.7185 34.6748 24.5187 34.5924 24.3169 34.5164C23.9652 34.3837 23.6082 34.2937 23.2387 34.2269C22.4475 34.0847 21.6425 34.0353 20.84 34.0173C20.4798 34.0095 20.1155 34.0497 19.7579 34.0801C19.2471 34.1244 18.7384 34.217 18.2375 34.3209C17.451 34.4841 16.6677 34.7154 15.9168 34.9991C15.1026 35.3073 14.2803 35.637 13.5215 36.0689C12.8557 36.4478 12.217 36.8656 11.6039 37.3243C10.9448 37.8176 10.3463 38.3835 9.74903 38.9493C9.24028 39.4313 8.75788 39.9318 8.29338 40.4561C7.82944 40.9797 7.3524 41.4887 6.91227 42.0335C6.68397 42.3163 6.45652 42.5998 6.23246 42.8861C6.20228 42.9207 6.17335 42.9565 6.14478 42.9932C6.08087 43.0615 6.02357 43.1368 5.97463 43.2187C5.97346 43.2201 5.97245 43.2215 5.97129 43.2229C5.75158 43.508 5.53779 43.8007 5.33315 44.0976C4.91487 44.7045 4.52091 45.326 4.16325 45.9712C3.80762 46.6126 3.50074 47.2726 3.19987 47.9409C2.84879 48.7203 2.49311 49.4971 2.19092 50.2977C1.93354 50.9787 1.7244 51.6736 1.51061 52.3692C1.27042 53.1492 1.02032 53.9295 0.827007 54.7227C0.640874 55.4836 0.471933 56.2519 0.340006 57.0241C0.0647748 58.6281 0.0404026 60.2737 0.00348949 61.8968C0.00111208 62.0005 3.39179e-08 62.1043 3.39179e-08 62.2082C-0.00010125 63.6626 0.226637 65.1177 0.626362 66.5141C0.849408 67.2923 1.14304 68.0553 1.47435 68.7931C1.79631 69.5104 2.11968 70.2284 2.4476 70.9431C2.80854 71.7298 3.20184 72.5027 3.60758 73.2669C3.96923 73.9472 4.42589 74.5793 4.89236 75.1908C5.38073 75.8303 5.90596 76.437 6.45501 77.0243C6.71689 77.3038 6.98549 77.5809 7.27124 77.8367C7.67112 78.1952 8.10265 78.5223 8.52958 78.8476C8.50237 78.8263 8.47497 78.8051 8.44761 78.7839C8.67237 78.9574 8.8981 79.1278 9.1347 79.2867C9.36296 79.44 9.59465 79.584 9.83282 79.7216C10.4192 80.0609 11.044 80.3338 11.67 80.5917C12.0555 80.7595 12.4415 80.9329 12.8431 81.0557C13.2628 81.1848 13.6957 81.2752 14.1226 81.3764C14.931 81.5675 15.7235 81.8214 16.5436 81.9577C17.3302 82.0879 18.1254 82.1222 18.9205 82.0918C19.1358 82.0835 19.3511 82.074 19.5664 82.0629C19.4981 82.1691 19.4332 82.2776 19.3726 82.3887C19.0195 83.0353 18.737 83.7168 18.5239 84.4216C18.4289 84.7369 18.3458 85.0583 18.2527 85.375C18.1504 85.7241 18.0626 86.0805 18.0026 86.4395C17.8727 87.2142 17.7836 87.9985 17.7406 88.7824C17.6516 90.391 17.7677 91.9968 18.0528 93.5817C18.3326 95.134 18.9284 96.6063 19.6404 98.0072C19.9862 98.6875 20.386 99.3434 20.8057 99.9793C21.0361 100.328 21.3046 100.656 21.5645 100.983C21.7876 101.263 22.0193 101.531 22.268 101.788C22.7833 102.322 23.4122 102.729 24.041 103.115C24.6924 103.514 25.3615 103.882 26.0286 104.254C26.7525 104.658 27.5238 104.978 28.2866 105.3C28.9795 105.591 29.6974 105.805 30.4186 106.018C31.1359 106.228 31.8677 106.403 32.5976 106.567C33.3505 106.736 34.1067 106.876 34.8701 106.988C36.3799 107.21 37.928 107.325 39.4483 107.131C40.2468 107.03 41.0478 106.924 41.8271 106.718C42.5754 106.52 43.3158 106.299 44.0535 106.066C45.5744 105.587 47.0539 104.977 48.497 104.299C49.087 104.022 49.6557 103.692 50.1883 103.316C50.831 102.862 51.4691 102.365 52.0088 101.788C52.4021 101.369 52.7763 100.942 53.1062 100.469C53.2388 100.28 53.3754 100.09 53.4876 99.8868C53.6275 99.6324 53.7615 99.3759 53.8862 99.1134C54.1431 98.5732 54.3954 98.0303 54.6509 97.4887C54.6745 97.7721 54.717 98.0547 54.7565 98.3352C54.8093 98.7134 54.8885 99.0876 54.9756 99.4597C55.1624 100.259 55.4804 101.019 55.8018 101.772C55.941 102.099 56.1066 102.415 56.2637 102.734C56.422 103.056 56.5771 103.38 56.7434 103.698C57.0753 104.331 57.425 104.949 57.852 105.524C58.3198 106.152 58.8101 106.769 59.3287 107.356C60.3911 108.558 61.5558 109.668 62.8531 110.612C63.4443 111.042 64.0488 111.454 64.6664 111.844C65.2557 112.216 65.8575 112.56 66.4678 112.895C66.8591 113.109 67.2524 113.301 67.6635 113.475C68.0198 113.625 68.3775 113.784 68.7443 113.907C69.4557 114.146 70.1802 114.337 70.9107 114.507C71.6115 114.671 72.3268 114.76 73.0381 114.863C73.8801 114.985 74.7221 115.117 75.5674 115.213C77.1359 115.391 78.7189 115.531 80.298 115.484C80.6946 115.473 81.0905 115.457 81.4857 115.424C81.9635 115.383 82.4372 115.313 82.9104 115.237C83.6032 115.125 84.2836 114.946 84.9599 114.763C85.7927 114.538 86.5878 114.195 87.377 113.852C88.0811 113.546 88.7825 113.213 89.453 112.839C90.1148 112.47 90.776 112.087 91.4108 111.672C92.0462 111.255 92.6579 110.802 93.2564 110.334C94.018 109.739 94.7662 109.112 95.4069 108.386C95.5449 108.23 95.6841 108.075 95.8226 107.92C96.0292 107.69 96.2093 107.436 96.3908 107.186C96.6798 106.791 96.9405 106.38 97.1926 105.959C97.632 105.228 98.0272 104.47 98.4106 103.708C98.6007 103.329 98.767 102.939 98.953 102.559C99.1601 102.135 99.3323 101.697 99.5121 101.262C99.7201 100.78 99.9316 100.299 100.051 99.7857C100.122 99.481 100.15 99.1635 100.188 98.8542C100.213 98.6531 100.23 98.4511 100.246 98.2494C100.252 98.2145 100.258 98.1801 100.264 98.1454C100.32 98.2013 100.377 98.257 100.434 98.3121C100.699 98.5658 100.993 98.7953 101.285 99.0181C101.63 99.2826 101.982 99.5398 102.347 99.7746C102.898 100.128 103.47 100.451 104.045 100.763C104.7 101.117 105.397 101.396 106.084 101.68C106.749 101.956 107.44 102.174 108.129 102.384C108.49 102.493 108.852 102.596 109.215 102.702C109.578 102.808 109.942 102.922 110.311 103.009C111.096 103.195 111.884 103.353 112.681 103.475C113.44 103.592 114.201 103.694 114.961 103.805C115.745 103.919 116.524 104.065 117.307 104.189C118.122 104.319 118.938 104.402 119.763 104.41C120.538 104.418 121.303 104.338 122.07 104.231C122.396 104.184 122.722 104.103 123.043 104.028C123.402 103.944 123.771 103.865 124.118 103.74C124.885 103.464 125.655 103.18 126.392 102.83C127.087 102.498 127.739 102.079 128.402 101.69C129.071 101.298 129.715 100.867 130.363 100.44C130.975 100.036 131.583 99.625 132.192 99.2152C132.801 98.8052 133.41 98.398 134.006 97.9702C134.678 97.4877 135.324 96.9805 135.944 96.4332C136.481 95.9576 137.004 95.456 137.454 94.8952C137.708 94.5785 137.969 94.256 138.167 93.8996C138.269 93.7158 138.367 93.5313 138.462 93.345C138.548 93.1784 138.614 93.0011 138.686 92.83C139.021 92.0437 139.291 91.2307 139.56 90.4194C139.669 90.0874 139.766 89.7504 139.869 89.4159C139.973 89.0754 140.077 88.7316 140.16 88.3851C140.541 86.7733 140.707 85.1284 140.811 83.4776C140.899 82.0698 140.934 80.6591 140.96 79.2495C140.972 78.5687 140.977 77.8891 140.936 77.208C140.913 76.82 140.888 76.4323 140.844 76.045C140.796 75.6107 140.731 75.1777 140.669 74.7453C140.575 74.0961 140.448 73.4455 140.266 72.8148C140.057 72.0902 139.795 71.39 139.494 70.6991C139.233 70.0991 138.932 69.5025 138.541 68.9753C138.76 68.8702 138.979 68.7675 139.197 68.6622C139.904 68.3203 140.608 67.9734 141.298 67.5984C141.6 67.4343 141.904 67.2612 142.195 67.0774C142.559 66.8473 142.906 66.6007 143.247 66.3382C143.566 66.0938 143.881 65.8444 144.189 65.5851C144.498 65.3248 144.791 65.0491 145.082 64.7686C145.61 64.2596 146.099 63.7016 146.572 63.1404C147.082 62.5353 147.474 61.8418 147.855 61.1516C148.603 59.7963 149.162 58.3458 149.741 56.9124C150.305 55.5169 150.902 54.1239 151.265 52.6575C151.349 52.3163 151.432 51.9744 151.487 51.6267C151.57 51.1004 151.639 50.5736 151.706 50.0447C151.799 49.3048 151.861 48.5584 151.907 47.8139C151.955 47.0145 151.995 46.2166 152 45.4153C152.004 44.6491 151.949 43.8855 151.868 43.1238ZM149.334 46.8785C149.279 48.1207 149.183 49.3572 149.042 50.5927C148.993 50.9166 148.94 51.2375 148.877 51.5593C148.809 51.9049 148.712 52.2448 148.62 52.5841C148.415 53.339 148.153 54.0828 147.875 54.8132C147.371 56.1379 146.863 57.4625 146.32 58.7717C145.874 59.7422 145.384 60.7012 144.769 61.5756C144.328 62.1126 143.87 62.641 143.377 63.1298C143.072 63.4313 142.763 63.7235 142.44 64.0031C142.207 64.2037 141.968 64.3953 141.726 64.5851C141.082 65.0461 140.404 65.4658 139.698 65.8264C138.958 66.2059 138.216 66.5829 137.465 66.9398C137.146 67.092 136.833 67.2566 136.517 67.4147C136.36 67.4927 136.202 67.5726 136.047 67.6559C135.712 67.8358 135.443 68.1412 135.341 68.5126C135.234 68.9002 135.329 69.2618 135.51 69.6036C135.612 69.7952 135.763 69.9169 135.919 70.0524C136.087 70.1988 136.231 70.3715 136.371 70.5462C136.551 70.8152 136.701 71.1047 136.856 71.3886C136.98 71.6146 137.087 71.8501 137.188 72.0872C137.424 72.707 137.651 73.331 137.801 73.9791C137.892 74.369 137.983 74.7598 138.046 75.1553C138.089 75.4337 138.131 75.7123 138.17 75.9912C138.263 76.807 138.319 77.6307 138.315 78.4517C138.312 79.3494 138.296 80.2466 138.274 81.1437C138.234 82.8423 138.16 84.5382 137.957 86.225C137.876 86.7331 137.782 87.2355 137.669 87.7378C137.557 88.2429 137.399 88.7395 137.254 89.2353C136.971 90.2103 136.661 91.178 136.291 92.1241C136.173 92.3708 136.054 92.6158 135.914 92.8503C135.812 93.0232 135.698 93.1862 135.579 93.3469C135.365 93.602 135.147 93.8568 134.915 94.0967C134.648 94.3723 134.371 94.6362 134.093 94.8998C133.573 95.3939 133.014 95.8376 132.45 96.2778C131.768 96.791 131.08 97.2966 130.392 97.8031C129.717 98.2995 129.05 98.8073 128.363 99.2873C128.006 99.5371 127.646 99.7831 127.28 100.02C126.922 100.253 126.568 100.494 126.204 100.717C125.83 100.946 125.458 101.174 125.061 101.362C124.687 101.539 124.308 101.705 123.928 101.87C123.692 101.965 123.457 102.054 123.216 102.135C122.959 102.223 122.697 102.294 122.436 102.368C121.925 102.513 121.409 102.616 120.885 102.695C120.558 102.726 120.232 102.752 119.903 102.774C119.536 102.798 119.167 102.787 118.799 102.78C118.082 102.767 117.363 102.664 116.652 102.567C116.683 102.571 116.715 102.575 116.747 102.58C115.371 102.388 113.989 102.249 112.611 102.077C112.042 101.989 111.474 101.894 110.911 101.771C110.315 101.639 109.729 101.472 109.139 101.314C108.582 101.164 108.021 101.013 107.473 100.831C106.897 100.639 106.333 100.428 105.769 100.203C105.154 99.9376 104.551 99.6504 103.975 99.3071C103.675 99.1291 103.377 98.9489 103.082 98.763C102.763 98.5626 102.466 98.3336 102.167 98.1071C101.784 97.7985 101.417 97.4762 101.086 97.1107C100.813 96.8088 100.555 96.4983 100.301 96.1807C100.283 96.14 100.264 96.1038 100.245 96.074C100.137 95.9022 100.024 95.7432 99.8762 95.6136C99.8303 95.5647 99.779 95.5222 99.7179 95.4943C99.5239 95.407 99.4519 95.38 99.2362 95.3673C98.9854 95.3528 98.7261 95.4758 98.5314 95.6238C98.3513 95.7614 98.3011 95.7905 98.1895 95.9345C98.0246 96.1012 97.9105 96.2974 97.8471 96.5237C97.8293 96.5858 97.8115 96.6474 97.7937 96.7095C97.7495 96.8635 97.7323 97.0314 97.7019 97.1888C97.667 97.37 97.6346 97.5517 97.6096 97.7348C97.5606 98.0896 97.5318 98.4449 97.4929 98.8004C97.4673 98.9537 97.4378 99.1061 97.4023 99.2589C97.345 99.5073 97.242 99.7467 97.145 99.9821C97.1662 99.932 97.1871 99.882 97.2081 99.8319C97.0772 100.145 96.9486 100.458 96.8191 100.771C96.6102 101.234 96.3865 101.689 96.1724 102.149C95.9651 102.596 95.7296 103.031 95.5006 103.466C95.2677 103.909 95.0156 104.344 94.7589 104.773C94.5218 105.169 94.2635 105.548 93.9929 105.921C93.605 106.385 93.1938 106.83 92.7563 107.247C92.3226 107.662 91.8508 108.04 91.3793 108.412C90.9892 108.702 90.5954 108.985 90.1947 109.26C89.7116 109.592 89.2003 109.882 88.6961 110.181C87.7113 110.765 86.6813 111.264 85.6312 111.719C84.4171 112.193 83.1636 112.516 81.8806 112.739C78.7798 113.077 75.6541 112.663 72.5775 112.253C71.8659 112.141 71.1601 112.01 70.4613 111.834C70.0899 111.739 69.721 111.641 69.3541 111.529C69.0225 111.428 68.6986 111.296 68.3757 111.168C67.5737 110.807 66.7899 110.388 66.0363 109.936C65.1831 109.423 64.3438 108.885 63.5435 108.292C62.1399 107.167 60.8697 105.856 59.7585 104.441C59.5493 104.162 59.3516 103.878 59.1631 103.585C58.9506 103.254 58.7665 102.908 58.5791 102.562C58.2054 101.874 57.8505 101.17 57.5306 100.454C57.3479 100.003 57.1755 99.5488 57.0463 99.0776C56.9172 98.6074 56.8217 98.1316 56.7433 97.6512C56.7225 97.4466 56.7027 97.2414 56.6998 97.0355C56.6959 96.7386 56.6959 96.4411 56.6966 96.1442C56.6972 95.6298 56.7031 95.1155 56.7123 94.6011C56.7229 94.0339 56.7378 93.4658 56.7706 92.8988C56.9011 92.5712 57.021 92.2395 57.1142 91.8983C57.163 91.7205 57.2073 91.5421 57.2462 91.3622C57.2792 91.2094 57.3043 91.0515 57.3076 90.8961C57.3135 90.6198 57.2376 90.3943 57.107 90.1549C56.8292 89.6451 56.1891 89.4053 55.6401 89.5567C55.4178 89.6181 55.2233 89.7377 55.0688 89.8947C55.0681 89.8938 55.0674 89.8929 55.0666 89.8919C54.6826 90.1987 54.6331 90.738 54.517 91.181C54.4115 91.582 54.2664 91.9698 54.1107 92.3535C53.8745 92.8905 53.6423 93.4307 53.3913 93.9605C53.0838 94.6083 52.7644 95.251 52.4576 95.8995C52.1824 96.4801 51.9105 97.0625 51.6367 97.6436C51.4862 97.9638 51.3272 98.2777 51.1583 98.5885C51.0286 98.8258 50.8664 99.049 50.7049 99.2683C50.4707 99.5449 50.2289 99.815 49.9731 100.071C49.7066 100.338 49.4221 100.584 49.1349 100.827C48.6189 101.21 48.0803 101.552 47.5152 101.861C47.1674 102.052 46.7992 102.207 46.4402 102.373C46.1223 102.521 45.8025 102.664 45.481 102.803C44.9877 103.003 44.4947 103.202 43.9921 103.38C43.4761 103.562 42.9542 103.738 42.4295 103.897C41.841 104.075 41.2524 104.248 40.6551 104.393C40.2087 104.502 39.7553 104.575 39.301 104.643C38.9373 104.681 38.5739 104.72 38.2084 104.735C37.7676 104.753 37.3275 104.762 36.886 104.757C36.0699 104.75 35.2519 104.663 34.4419 104.562C33.9024 104.481 33.3647 104.392 32.8292 104.287C32.1732 104.158 31.5161 104.038 30.8668 103.878C30.261 103.728 29.6572 103.577 29.064 103.382C28.4957 103.194 27.94 102.968 27.388 102.738C26.796 102.467 26.2152 102.173 25.63 101.888C25.0143 101.589 24.4168 101.244 23.848 100.864C23.5554 100.624 23.2857 100.366 23.0249 100.09C22.7358 99.7841 22.4726 99.4525 22.2139 99.1208C21.8232 98.5725 21.46 98.0067 21.1205 97.4254C20.7809 96.8448 20.4902 96.2407 20.2095 95.6301C19.969 95.0437 19.7525 94.4524 19.5942 93.8374C19.442 93.2481 19.3338 92.6486 19.2459 92.047C19.1446 91.193 19.0868 90.3354 19.0881 89.4748C19.0888 88.6642 19.1583 87.853 19.2556 87.0489C19.3001 86.7686 19.3482 86.4907 19.4128 86.2146C19.4748 85.9454 19.5506 85.6818 19.6279 85.4165C19.7051 85.1502 19.7743 84.8816 19.8549 84.6166C19.9239 84.389 20.0061 84.1674 20.0935 83.9469C20.3222 83.4437 20.5665 82.9538 20.8914 82.5055C20.9346 82.4501 20.9776 82.3946 21.0204 82.339C21.111 82.2296 21.2024 82.1234 21.3046 82.0251C21.5296 81.8076 21.6524 81.5246 21.5771 81.2099C21.5454 81.0762 21.4736 80.9414 21.3752 80.8435C21.3231 80.7946 21.2663 80.7523 21.2043 80.7173C21.0763 80.6399 20.9476 80.6321 20.8037 80.6175C20.6467 80.6023 20.4864 80.6023 20.3293 80.591C19.5378 80.5372 18.748 80.4825 17.9603 80.3839C17.2244 80.2768 16.5153 80.0983 15.8145 79.8458C15.0474 79.569 14.2554 79.352 13.4955 79.0535C13.2264 78.9288 12.9619 78.7965 12.6979 78.661C12.4036 78.5098 12.1055 78.3683 11.8151 78.2083C11.5181 78.0437 11.2244 77.8778 10.9381 77.694C10.6817 77.5289 10.4346 77.3519 10.1874 77.1722C9.55293 76.665 8.93431 76.1373 8.37854 75.5438C7.89523 75.0271 7.43219 74.4911 6.99364 73.9354C6.67391 73.5028 6.36414 73.0619 6.08279 72.6032C5.75618 72.0715 5.48758 71.511 5.21047 70.9537C4.65617 69.8391 4.16598 68.6932 3.66942 67.5523C3.4485 66.989 3.2429 66.4197 3.08306 65.8359C2.92074 65.2451 2.79382 64.6499 2.69512 64.0465C2.6441 63.6042 2.60774 63.1586 2.5994 62.714C2.58949 62.1817 2.61062 61.6507 2.63171 61.1193C2.67317 60.0862 2.73446 59.0536 2.85713 58.0274C2.95877 57.4006 3.09044 56.7824 3.23815 56.164C3.32062 55.8195 3.40046 55.4744 3.48622 55.1306C3.57466 54.7795 3.68884 54.4346 3.79837 54.0902C4.00554 53.4401 4.20416 52.7877 4.40415 52.1358C4.57567 51.5746 4.78486 51.0244 5.00674 50.481C5.31312 49.7907 5.61505 49.0977 5.93893 48.4155C6.26033 47.7384 6.62455 47.0793 7.02114 46.444C7.38921 45.8535 7.78388 45.2757 8.20469 44.7212C8.26663 44.6565 8.32261 44.5854 8.37115 44.5083C8.72203 44.0731 9.07058 43.6362 9.44083 43.2171C9.80708 42.8018 10.1825 42.3946 10.5514 41.982C10.9242 41.5642 11.3307 41.1761 11.7372 40.7913C12.1527 40.3975 12.5727 40.0076 13.0078 39.6347C13.4836 39.2854 13.9691 38.957 14.4737 38.6478C14.9867 38.3338 15.5246 38.0728 16.0724 37.8287C17.2289 37.376 18.4103 37.011 19.6367 36.8056C20.0908 36.7529 20.5475 36.7188 21.005 36.7294C21.4753 36.7396 21.9445 36.77 22.4126 36.821C22.6145 36.8525 22.8158 36.8885 23.013 36.9409C23.2715 37.0087 23.5188 37.0969 23.7656 37.1957C24.1288 37.352 24.4942 37.5094 24.8461 37.6886C25.3371 37.9386 25.8115 38.2161 26.2866 38.4959C26.9214 38.8701 27.7647 38.6453 28.1356 38.01C28.3504 37.6422 28.3617 37.2094 28.2159 36.8351C28.2225 36.8153 28.2328 36.7968 28.2384 36.7765C28.2536 36.6641 28.2687 36.5517 28.284 36.4394C28.2832 36.2106 28.2252 35.9978 28.111 35.8C27.881 35.3015 27.6549 34.8015 27.4365 34.298C27.1286 33.4813 26.8527 32.6555 26.6356 31.8094C26.534 31.4128 26.4198 31.0187 26.3287 30.6186C26.2462 30.2551 26.18 29.8906 26.1247 29.523C26.0856 29.1537 26.0574 28.7873 26.0463 28.4159C26.0353 28.0465 26.0627 27.676 26.0962 27.3087C26.1853 26.7525 26.3183 26.2096 26.5141 25.6788C26.7186 25.1268 26.9378 24.5806 27.1642 24.037C27.6723 22.8758 28.2402 21.745 28.8151 20.615C29.0962 20.0616 29.3965 19.5175 29.7112 18.9829C29.9993 18.4928 30.318 18.025 30.6579 17.5707C31.0632 17.0896 31.4938 16.6372 31.9765 16.235C32.4421 15.9012 32.9185 15.5909 33.421 15.3127C33.8984 15.0493 34.396 14.8219 34.897 14.6047C35.4745 14.3768 36.0523 14.1552 36.6497 13.9839C37.2792 13.8027 37.916 13.6441 38.5541 13.4973C39.1671 13.3565 39.7926 13.2586 40.4109 13.1422C40.9575 13.0397 41.5061 12.9543 42.0562 12.8767C42.7378 12.7911 43.4272 12.7029 44.1148 12.6953C44.8228 12.6879 45.5349 12.725 46.24 12.799C47.1981 12.9483 48.1359 13.1775 49.0441 13.5194C49.7516 13.8493 50.4104 14.2494 51.0365 14.7155C51.6597 15.222 52.2051 15.815 52.7107 16.4382C52.8222 16.5829 52.9342 16.7272 53.0471 16.8708C53.3278 17.2572 53.5733 17.6654 53.8188 18.0756C53.9534 18.3004 54.1019 18.5193 54.2424 18.7402C54.3869 18.9683 54.5268 19.1976 54.6799 19.4203C54.9834 19.8615 55.2745 20.313 55.5186 20.7902C55.7382 21.2187 55.9906 21.6259 56.1924 22.0629C56.2814 22.2776 56.3735 22.4909 56.4668 22.7036C56.5049 22.7904 56.5398 22.8776 56.5771 22.9633C56.5915 23.0073 56.6083 23.0505 56.6271 23.0926C56.7062 23.3146 56.7832 23.5427 56.9057 23.741C57.0066 23.9042 57.1201 24.0564 57.2626 24.1852C57.5074 24.4054 57.7542 24.5211 58.067 24.6261C58.3553 24.7229 58.6498 24.6746 58.9 24.5384C59.2931 24.5033 59.6531 24.2325 59.7581 23.8329C60.0196 22.8356 60.2917 21.8455 60.6682 20.8853C61.4879 19.1075 62.5397 17.4454 63.7224 15.8878C64.2642 15.2012 64.8304 14.5338 65.4316 13.8987C66.0361 13.2602 66.6629 12.6473 67.2905 12.0325C67.9213 11.4136 68.5805 10.8258 69.2338 10.2309C69.891 9.63185 70.5918 9.08241 71.2754 8.51518C71.9249 7.97613 72.5801 7.44543 73.2435 6.92461C73.9202 6.41165 74.6185 5.92477 75.3396 5.47711C75.9804 5.07961 76.6654 4.7543 77.3572 4.45442C77.8351 4.26768 78.3132 4.09684 78.8032 3.94404C79.2835 3.79398 79.7693 3.6617 80.2575 3.53889C81.2437 3.29115 82.2466 3.11271 83.2507 2.95667C84.6887 2.78026 86.1313 2.69717 87.5787 2.64109C88.325 2.612 89.068 2.61986 89.8137 2.64499C90.5064 2.66784 91.2064 2.69484 91.8951 2.78142C91.9942 2.79485 92.0933 2.80822 92.1923 2.8216C93.0563 2.97556 93.9224 3.14225 94.7713 3.36967C95.6268 3.59822 96.4617 3.87641 97.2821 4.20673C98.1362 4.60079 98.9524 5.05235 99.7552 5.54546C100.135 5.77815 100.514 6.02012 100.876 6.27911C101.247 6.54251 101.606 6.81888 101.967 7.09499C102.552 7.55319 103.129 8.02345 103.684 8.51772C104.286 9.05287 104.841 9.62375 105.348 10.2475C105.943 11.0594 106.461 11.918 106.948 12.7994C107.44 13.69 107.888 14.6072 108.292 15.5417C108.464 15.9882 108.606 16.4423 108.737 16.9031C108.886 17.4274 109.024 17.9535 109.123 18.4905C109.222 19.0332 109.292 19.5805 109.386 20.124C109.461 20.5564 109.53 20.9899 109.593 21.4242C109.652 21.9136 109.703 22.4032 109.707 22.8968C109.712 23.4083 109.663 23.9234 109.616 24.4329C109.496 25.1723 109.319 25.9057 109.048 26.6038C108.745 27.2844 108.379 27.9453 107.993 28.5807C107.767 28.9535 107.571 29.3383 107.366 29.7218C107.277 29.8871 107.185 30.0496 107.094 30.213C107.018 30.3481 106.961 30.4936 106.92 30.6429C106.882 30.6773 106.84 30.7082 106.802 30.7433C106.748 30.7936 106.699 30.8498 106.648 30.9026C106.58 30.9913 106.512 31.0799 106.443 31.1685C106.331 31.3027 106.252 31.4562 106.206 31.6272C106.187 31.673 106.168 31.718 106.149 31.7635C106.122 31.9149 106.104 32.0671 106.095 32.2204C106.076 32.4828 106.197 32.7333 106.338 32.9429C106.576 33.3 106.945 33.5307 107.325 33.7144C107.62 33.8573 107.919 33.9875 108.223 34.1124C108.418 34.1648 108.612 34.1648 108.807 34.1124C109.081 34.0365 109.32 33.8527 109.463 33.6069C109.727 33.1546 109.625 32.5047 109.203 32.1848C109.594 31.8995 109.99 31.6261 110.41 31.3807C110.623 31.2558 110.831 31.1228 111.05 31.0093C111.293 30.8835 111.537 30.7581 111.784 30.6415C112.089 30.5187 112.392 30.3938 112.704 30.2913C113.195 30.1292 113.668 29.9185 114.141 29.7121C115.158 29.2949 116.201 28.9429 117.225 28.5433C117.79 28.323 118.363 28.1273 118.946 27.9601C119.561 27.7826 120.189 27.6568 120.822 27.555C121.628 27.4608 122.441 27.4132 123.253 27.4185C124.254 27.4252 125.254 27.4345 126.255 27.4589C128.082 27.5035 129.906 27.5861 131.72 27.8124C132.141 27.8802 132.559 27.9546 132.977 28.0453C133.431 28.1444 133.882 28.2609 134.334 28.3713C135.089 28.5564 135.835 28.7976 136.557 29.0876C137.058 29.3226 137.545 29.5738 138.022 29.8541C138.521 30.1456 138.987 30.4936 139.468 30.8121C140.381 31.4165 141.28 32.0456 142.154 32.7056C142.871 33.2818 143.561 33.8919 144.247 34.5065C144.941 35.1291 145.561 35.8228 146.153 36.5422C146.316 36.7624 146.479 36.9829 146.641 37.2041C146.878 37.5268 147.123 37.8479 147.338 38.1852C147.554 38.5211 147.763 38.8569 147.949 39.21C148.096 39.4891 148.233 39.7702 148.363 40.0565C148.562 40.5591 148.746 41.0681 148.882 41.5919C148.96 41.8962 149.045 42.2016 149.102 42.5103C149.151 42.7697 149.195 43.0288 149.237 43.2887C149.295 43.8391 149.339 44.3882 149.353 44.9426C149.369 45.5885 149.362 46.2325 149.334 46.8785Z" fill="#F2F2F2"/>
<path d="M128.316 109.973C128.086 109.273 127.693 108.633 127.182 108.104C126.851 107.761 126.428 107.492 126.034 107.222C125.722 107.009 125.369 106.872 125.02 106.731C124.907 106.685 124.794 106.639 124.68 106.595C124.382 106.481 124.065 106.44 123.749 106.414C123.555 106.415 123.372 106.459 123.201 106.547C123.122 106.465 123.032 106.394 122.933 106.336C122.616 106.151 122.303 106.148 121.953 106.208C121.475 106.29 120.992 106.357 120.517 106.456C119.877 106.589 119.279 106.777 118.688 107.065C118.34 107.234 118.013 107.495 117.715 107.737C117.453 107.949 117.215 108.173 116.999 108.434C116.626 108.884 116.315 109.377 116.059 109.904C115.848 110.339 115.672 110.814 115.557 111.285C115.426 111.819 115.344 112.353 115.272 112.897C115.243 113.113 115.231 113.333 115.231 113.552C115.231 113.77 115.243 113.987 115.263 114.202C115.291 114.496 115.333 114.791 115.396 115.08C115.471 115.424 115.612 115.745 115.753 116.067C115.969 116.559 116.349 116.98 116.724 117.357C116.934 117.568 117.182 117.739 117.418 117.92C117.774 118.193 118.194 118.373 118.608 118.539C119.015 118.702 119.428 118.82 119.855 118.92C120.37 119.043 120.907 119.103 121.431 119.167C121.896 119.224 122.362 119.268 122.83 119.269C123.473 119.27 124.1 119.143 124.705 118.936C125.405 118.696 126.023 118.274 126.591 117.807C126.854 117.591 127.095 117.352 127.307 117.084C127.47 116.877 127.624 116.669 127.759 116.443C127.92 116.173 128.036 115.885 128.157 115.594C128.34 115.156 128.424 114.673 128.5 114.207C128.609 113.549 128.698 112.869 128.678 112.201C128.665 111.789 128.606 111.384 128.548 110.976C128.5 110.636 128.423 110.3 128.316 109.973ZM125.907 113.425C125.831 113.894 125.739 114.355 125.58 114.801C125.487 114.984 125.384 115.158 125.27 115.327C125.104 115.518 124.923 115.691 124.732 115.856C124.475 116.039 124.214 116.21 123.932 116.351C123.687 116.44 123.438 116.507 123.182 116.556C122.58 116.603 121.976 116.538 121.377 116.467C121.06 116.421 120.744 116.368 120.431 116.296C120.087 116.215 119.755 116.112 119.425 115.99C119.327 115.942 119.229 115.894 119.131 115.841C119.011 115.776 118.896 115.699 118.785 115.617C118.614 115.465 118.45 115.309 118.3 115.138C118.216 115.013 118.139 114.885 118.071 114.751C118.002 114.547 117.949 114.34 117.91 114.128C117.874 113.683 117.881 113.245 117.925 112.801C117.975 112.504 118.033 112.209 118.101 111.915C118.164 111.646 118.255 111.385 118.354 111.127C118.522 110.782 118.711 110.452 118.93 110.137C119.101 109.939 119.287 109.763 119.485 109.592C119.683 109.452 119.884 109.321 120.103 109.212C120.912 108.912 121.782 108.81 122.629 108.665C122.745 108.645 122.858 108.595 122.963 108.527C123.08 108.625 123.215 108.699 123.364 108.757C123.525 108.853 123.678 108.963 123.834 109.067C123.983 109.167 124.152 109.239 124.309 109.325C124.573 109.471 124.824 109.649 125.067 109.832C125.191 109.937 125.305 110.05 125.413 110.171C125.523 110.334 125.619 110.503 125.704 110.679C125.82 111.015 125.889 111.359 125.944 111.708C125.972 112.042 125.981 112.371 125.974 112.709C125.969 112.947 125.939 113.187 125.907 113.425Z" fill="#F2F2F2"/>
<path d="M143.483 116.368C143.37 116.004 143.199 115.647 143.02 115.311C142.854 115.002 142.631 114.723 142.411 114.452C142.219 114.216 142.016 113.99 141.792 113.782C141.27 113.297 140.706 112.835 140.078 112.497C139.802 112.349 139.498 112.296 139.192 112.38C138.904 112.46 138.655 112.653 138.504 112.91C138.349 113.176 138.306 113.501 138.388 113.799C138.472 114.103 138.663 114.313 138.917 114.487C139.037 114.57 139.156 114.655 139.274 114.74C139.818 115.172 140.34 115.621 140.786 116.157C140.954 116.396 141.095 116.649 141.22 116.913C141.32 117.185 141.389 117.463 141.438 117.749C141.471 118.052 141.492 118.36 141.468 118.663C141.457 118.8 141.447 118.936 141.436 119.072C141.354 119.604 141.242 120.126 141.052 120.632C140.945 120.857 140.82 121.068 140.677 121.273C140.551 121.425 140.422 121.573 140.287 121.72C140.163 121.855 140.018 121.974 139.873 122.09C139.691 122.219 139.508 122.343 139.319 122.464C139.127 122.587 138.925 122.689 138.722 122.79C138.39 122.916 138.058 123.017 137.707 123.082C137.511 123.097 137.319 123.096 137.122 123.081C136.79 123.021 136.473 122.919 136.159 122.796C135.907 122.675 135.674 122.537 135.447 122.371C135.415 122.348 135.385 122.324 135.354 122.3C135.101 122.094 134.844 121.889 134.62 121.65C134.418 121.434 134.227 121.212 134.043 120.981C133.932 120.824 133.824 120.667 133.73 120.498C133.642 120.338 133.565 120.174 133.491 120.008C133.352 119.616 133.239 119.223 133.168 118.814C133.124 118.286 133.17 117.759 133.228 117.233C133.303 116.728 133.404 116.233 133.582 115.754C133.669 115.564 133.767 115.384 133.886 115.211C134.156 114.888 134.471 114.622 134.8 114.363C135.197 114.101 135.602 113.86 136.017 113.627C136.368 113.428 136.483 112.957 136.282 112.612C136.076 112.259 135.621 112.148 135.27 112.346C135.022 112.486 134.776 112.629 134.529 112.772C134.362 112.869 134.188 112.977 134.035 113.095C133.836 113.248 133.632 113.398 133.441 113.562C133.342 113.648 133.241 113.733 133.145 113.823C132.931 114.024 132.75 114.254 132.576 114.49C132.319 114.836 132.162 115.252 132.02 115.655C131.942 115.874 131.89 116.101 131.837 116.327C131.729 116.789 131.676 117.267 131.623 117.738C131.601 117.931 131.586 118.124 131.573 118.318C131.568 118.39 131.566 118.462 131.566 118.535C131.566 118.846 131.609 119.161 131.666 119.463C131.759 119.969 131.904 120.452 132.111 120.924C132.197 121.119 132.285 121.312 132.393 121.498C132.512 121.701 132.645 121.893 132.783 122.083C132.936 122.293 133.101 122.493 133.264 122.693C133.396 122.856 133.54 123.018 133.693 123.16C134.193 123.62 134.712 124.108 135.331 124.399C135.574 124.514 135.821 124.617 136.07 124.717C136.52 124.896 137.014 124.966 137.494 124.996C137.907 125.021 138.323 124.93 138.727 124.853C138.955 124.81 139.177 124.724 139.395 124.648C139.645 124.561 139.898 124.442 140.134 124.319C140.335 124.212 140.537 124.104 140.727 123.979C141.17 123.687 141.587 123.365 141.963 122.989C142.586 122.367 143.063 121.601 143.326 120.76C143.395 120.54 143.461 120.322 143.515 120.098C143.571 119.875 143.607 119.651 143.646 119.425C143.707 119.068 143.741 118.697 143.753 118.335C143.763 118.04 143.735 117.744 143.7 117.452C143.655 117.082 143.595 116.724 143.483 116.368Z" fill="#F2F2F2"/>
</svg>
