<svg width="136" height="89" viewBox="0 0 136 89" fill="none" xmlns="http://www.w3.org/2000/svg">
<g clip-path="url(#clip0_438_23304)">
<path fill-rule="evenodd" clip-rule="evenodd" d="M59.4389 34.3754C71.6601 23.0283 86.5442 12.5615 103.233 7.53601C109.305 5.70698 115.305 5.06415 121.449 4.36049C121.88 4.31061 122.225 4.55911 122.219 4.91516C122.211 5.27193 121.854 5.60139 121.421 5.65043C115.396 6.34115 109.51 6.96015 103.556 8.75385C87.1039 13.7079 72.455 24.0617 60.4252 35.2552L60.5911 35.3978C62.398 36.9408 62.7362 40.0227 62.0031 43.6496C60.9533 48.8485 57.7866 55.1706 54.3619 59.2674C52.8226 61.1081 51.2151 62.5051 49.7289 63.2123C48.5705 63.7642 47.4636 63.9243 46.4639 63.6478C44.3343 63.0575 43.6535 60.9848 44.1392 58.1213C45.1531 52.1327 51.0401 42.6036 54.757 38.8872C55.9181 37.727 57.1069 36.5691 58.3238 35.4205C58.0163 35.1407 57.7137 34.8679 57.4027 34.6157C56.5137 33.8997 55.5392 33.3449 54.0204 33.2716C51.6529 33.1597 49.1316 33.9025 46.686 35.0352C42.8702 36.805 39.2438 39.5346 36.6294 41.6982C22.07 53.7484 17.5484 67.1663 16.8833 79.238C16.2141 91.4291 19.4604 102.263 20.3937 109.008C20.4426 109.355 20.1315 109.712 19.7014 109.808C19.2713 109.903 18.8832 109.698 18.8363 109.351C17.8963 102.562 14.6432 91.6528 15.3188 79.3801C15.9985 66.9881 20.6673 53.2196 35.6115 40.8491C38.3347 38.5952 42.1193 35.7628 46.0927 33.9202C48.844 32.6455 51.6856 31.8452 54.35 31.9714C56.7408 32.0855 58.0536 33.1362 59.4389 34.3754ZM59.3058 36.3071L59.3895 36.3773C60.9691 37.7259 61.0989 40.4605 60.4573 43.6319C59.4486 48.6276 56.4109 54.7042 53.1176 58.6427C51.9894 59.9934 50.8378 61.0868 49.7257 61.7734C48.8078 62.3389 47.9354 62.6203 47.1594 62.4039C46.4247 62.2026 45.9872 61.718 45.7582 61.0525C45.4877 60.2717 45.4951 59.2603 45.6903 58.1037C46.6652 52.3491 52.3259 43.194 55.8978 39.6232C57.008 38.5148 58.1435 37.4079 59.3058 36.3071Z" fill="#E155B0"/>
<path fill-rule="evenodd" clip-rule="evenodd" d="M124.024 5.50085C123.867 5.27063 123.531 5.03087 123.166 4.77721C122.296 4.17202 121.164 3.60203 120.647 3.31336C120.315 3.12692 120.273 2.7264 120.551 2.41864C120.83 2.11016 121.324 2.01111 121.656 2.19755C122.288 2.55184 123.796 3.31407 124.727 4.06053C125.226 4.46127 125.56 4.87755 125.648 5.23154C125.798 5.83399 125.343 6.40829 124.174 6.80571C122.79 7.27514 120.044 7.65557 118.142 9.07613C117.798 9.33424 117.304 9.33997 117.045 9.09001C116.784 8.8392 116.853 8.42704 117.2 8.16821C119.013 6.81463 121.495 6.25502 123.139 5.80273C123.451 5.71645 123.811 5.58292 124.024 5.50085Z" fill="#E155B0"/>
</g>
<defs>
<clipPath id="clip0_438_23304">
<rect width="136" height="89" fill="white" transform="matrix(1 0 0 -1 0 89)"/>
</clipPath>
</defs>
</svg>
