<svg width="570" height="299" viewBox="0 0 570 299" fill="none" xmlns="http://www.w3.org/2000/svg">
<path fill-rule="evenodd" clip-rule="evenodd" d="M277.235 1.48281C326.662 7.65779 345.781 45.5744 389.354 61.4144C441.399 80.3339 521.451 69.8672 553.26 101.824C584.874 133.586 567.081 178.155 538.146 210.9C511.497 241.059 454.378 252.236 405.888 268.608C364.54 282.568 324.222 299.424 277.235 298.992C230.641 298.563 173.43 296.486 133 282C86.9547 265.502 51.1625 238.14 25.9307 208.949C-1.50436 177.209 -8.22897 137.831 10.8615 103.785C29.7572 70.0857 78.365 47.3326 127.032 28.6418C172.556 11.1581 224.844 -5.06256 277.235 1.48281Z" fill="#E77AC1"/>
</svg>
