<svg width="445" height="70" viewBox="0 0 445 70" fill="none" xmlns="http://www.w3.org/2000/svg">
<path fill-rule="evenodd" clip-rule="evenodd" d="M338.48 11.9461C359.386 13.7307 374.936 17.1354 390.345 20.8056C440.871 32.8527 452.562 46.5768 408.486 55.9248C339.97 70.4096 197.326 72.6056 94.9049 59.0617C72.2191 56.0683 41.1876 52.608 21.2963 44.7592C2.79128 37.4608 7.32449 30.7601 20.5724 25.2308C34.0851 19.5564 56.6668 15.0893 74.1612 12.4398C150.629 0.890103 294.028 -4.10328 412.127 12.9548C414.559 13.2952 417.218 13.2193 418.193 12.7951C419.168 12.3708 418.185 11.7648 415.934 11.4377C294.363 -6.11962 146.478 -1.1238 67.7735 10.7619C46.0018 14.0688 16.598 20.1061 5.01453 27.7557C-2.84162 32.9884 -2.49963 38.9612 13.516 45.3275C34.6304 53.6825 67.5461 57.4623 91.6258 60.6443C197.361 74.6294 344.869 72.4208 415.512 57.4522C462.954 47.4097 450.687 32.6679 396.351 19.7168C379.795 15.7467 362.687 12.1073 339.994 10.1707C337.492 9.95755 335.129 10.1829 334.86 10.6838C334.411 11.1716 336.158 11.7463 338.48 11.9461Z" fill="#F4D36D"/>
</svg>
