<svg width="137" height="55" viewBox="0 0 137 55" fill="none" xmlns="http://www.w3.org/2000/svg">
<path fill-rule="evenodd" clip-rule="evenodd" d="M104.206 9.38623C110.642 10.7884 115.43 13.4636 120.174 16.3473C135.729 25.8129 139.328 36.5961 125.759 43.9409C104.665 55.3218 60.7498 57.0473 29.2179 46.4056C22.2337 44.0536 12.6802 41.3348 6.55637 35.168C0.859337 29.4335 2.25496 24.1687 6.33352 19.8242C10.4936 15.3657 17.4457 11.8558 22.8316 9.77411C46.3736 0.699367 90.521 -3.22401 126.88 10.1787C127.628 10.4462 128.447 10.3866 128.747 10.0533C129.047 9.71991 128.745 9.24379 128.052 8.98678C90.624 -4.80827 45.0954 -0.882983 20.8651 8.4558C14.1624 11.0541 5.10996 15.7977 1.5438 21.808C-0.874835 25.9195 -0.76955 30.6124 4.16111 35.6144C10.6615 42.1791 20.7951 45.149 28.2084 47.6491C60.7605 58.6374 106.173 56.9021 127.922 45.1411C142.527 37.2505 138.751 25.6677 122.023 15.4918C116.926 12.3724 111.659 9.51291 104.672 7.99124C103.902 7.82379 103.175 8.00082 103.092 8.39443C102.954 8.77769 103.491 9.22925 104.206 9.38623Z" fill="#F4D36D"/>
</svg>
