<svg width="545" height="639" viewBox="0 0 545 639" fill="none" xmlns="http://www.w3.org/2000/svg">
<path fill-rule="evenodd" clip-rule="evenodd" d="M504.384 318.222C505.236 317.796 506.088 317.796 506.94 317.796C508.644 317.37 510.348 316.944 512.478 316.518C514.608 316.092 516.738 316.092 518.442 313.962C519.72 312.258 519.294 310.554 517.164 309.702C514.182 308.85 512.052 310.98 509.496 311.832C507.792 312.258 506.514 313.11 504.81 313.536C504.384 313.536 503.958 313.536 503.532 313.962C500.55 315.24 497.994 316.518 495.012 317.796C491.604 318.648 489.048 320.778 485.214 321.204C483.51 321.204 482.232 322.482 480.954 322.908C479.25 323.334 477.546 325.038 475.842 324.186C472.86 322.908 469.878 324.186 467.322 325.038C463.488 326.742 459.654 328.02 455.394 328.872C452.412 329.724 449.43 329.724 446.022 329.724C441.336 330.15 437.076 330.15 432.39 330.576C431.964 330.576 431.112 331.002 430.686 330.576C427.278 330.15 423.87 329.724 420.036 330.15C415.776 331.002 411.516 331.428 407.682 333.984C406.83 334.836 405.552 335.262 404.7 335.262C401.292 336.54 397.458 337.392 394.476 338.67C391.494 339.948 388.512 339.522 385.53 339.948C384.252 340.374 382.548 340.374 381.27 340.8C379.566 341.652 376.584 341.652 375.732 340.374C373.176 337.818 369.342 337.818 366.36 336.966C362.1 335.688 357.84 337.818 353.58 336.966C352.728 336.966 352.302 337.392 352.302 338.67C352.728 339.948 352.302 341.652 351.45 342.078C349.746 342.078 347.616 341.652 347.19 342.504C346.338 343.782 343.782 341.652 343.782 343.782C344.208 344.208 345.06 344.634 345.486 345.06V345.486C344.208 345.486 343.356 345.912 342.078 345.912C340.8 345.912 339.522 345.912 338.244 345.486C339.096 347.616 338.67 348.042 336.966 347.616C336.114 347.616 335.262 347.616 334.41 347.616C333.984 345.912 333.984 344.208 333.558 342.93C333.132 342.078 333.132 341.226 332.706 339.948C332.28 339.096 331.854 338.67 331.854 337.818C330.576 334.836 329.724 331.854 328.446 329.298C326.742 325.464 324.612 322.056 322.482 318.648C321.63 316.944 320.352 315.24 319.5 313.11C319.074 312.258 318.222 311.832 318.222 310.98C316.944 308.424 315.666 305.868 313.536 304.164C311.406 302.886 309.702 301.608 308.85 299.478C308.424 298.626 307.146 297.774 306.294 296.922C305.868 296.496 305.868 296.07 305.442 295.218C305.442 294.792 305.442 293.94 305.016 293.94C302.886 291.384 300.756 288.828 298.2 286.698C296.922 285.42 295.644 283.716 293.088 283.716C292.662 283.716 292.236 283.29 292.236 282.864C291.81 282.012 291.384 280.734 290.958 279.882C290.532 278.178 290.958 276.9 291.81 275.622C292.662 274.344 293.94 273.066 294.366 271.788C295.218 270.084 296.07 268.38 296.496 266.676C296.922 264.972 297.348 263.694 296.496 261.99C296.07 261.138 296.07 260.286 295.644 259.434C295.644 257.304 295.644 255.174 295.218 252.618C294.792 250.062 294.366 247.506 295.218 244.95C296.07 241.968 296.922 238.986 297.774 236.004C299.052 231.744 300.33 227.058 301.608 222.798C302.886 218.964 304.164 215.556 305.442 211.722C305.868 210.87 305.442 210.444 305.442 209.592C305.868 207.888 305.442 206.184 306.294 204.48C307.998 200.646 310.128 196.386 312.258 192.552C313.536 190.422 312.258 188.292 312.684 185.736C312.684 185.31 312.258 184.884 311.832 184.458C311.406 184.032 311.406 184.032 310.98 183.606C310.128 181.476 308.85 180.198 306.72 179.772C305.442 179.346 303.738 180.198 302.46 180.624C301.608 181.05 301.182 181.476 300.756 181.902C299.478 183.18 297.774 184.032 297.348 185.31C296.496 187.866 296.07 190.422 295.644 193.404C295.218 195.96 294.792 198.942 294.366 201.498C293.94 203.628 293.088 206.184 292.662 208.314C292.236 209.166 292.236 210.444 292.236 211.296C292.236 212.574 291.81 213.852 291.81 215.556C291.81 218.112 291.384 220.242 291.384 222.798C290.532 224.502 290.106 226.632 289.254 228.336C288.402 230.04 287.976 231.318 287.124 233.022C285.846 235.578 283.29 237.708 283.716 241.116C283.716 241.968 283.29 242.82 282.864 243.672C281.16 244.95 280.734 247.08 280.308 248.784C280.308 249.636 279.882 250.488 279.456 251.34C278.604 253.044 277.752 254.748 275.622 255.6C274.77 256.026 273.918 256.878 273.918 257.304C273.918 258.156 274.77 259.008 275.196 259.434C275.622 259.86 276.048 259.86 276.048 260.286C276.474 261.99 273.918 265.824 272.214 266.676C270.936 267.102 269.658 267.954 269.232 269.232C268.806 271.362 268.806 273.918 271.788 275.622C270.936 276.048 270.51 276.048 270.51 276.048C269.658 274.77 269.232 273.492 268.38 272.214C267.528 271.362 267.102 270.084 266.25 269.232C264.972 268.38 262.842 269.232 262.416 270.51C261.99 272.64 262.842 274.77 263.694 276.474C263.694 276.474 264.12 276.474 264.546 276.474C264.972 276.474 265.398 276.9 266.25 276.9C264.972 277.752 263.694 278.604 261.99 279.456C263.268 280.308 264.546 280.734 265.824 281.586C266.25 282.012 266.676 282.012 267.102 282.438C267.102 282.438 267.102 283.29 266.676 283.29C266.25 283.716 265.398 283.716 264.972 283.716C264.546 283.716 263.694 283.29 263.268 283.716C261.99 284.142 260.286 284.142 259.434 282.864C259.008 282.012 259.008 281.16 259.008 279.882C258.156 279.882 257.304 279.456 256.026 279.456C254.748 279.03 253.47 279.882 253.044 280.734C253.044 281.16 252.618 281.586 252.618 281.586C251.34 282.012 250.488 282.438 249.21 282.864C248.784 282.864 248.784 283.29 248.358 283.716C248.784 284.142 248.784 284.142 249.21 284.142C250.062 284.994 250.914 285.846 251.766 286.698C250.914 287.124 250.488 287.124 249.636 287.55C247.932 288.828 246.654 288.402 244.95 287.976C245.376 285.42 244.95 284.568 243.672 284.142C242.82 284.142 241.542 285.42 241.116 286.698C240.264 287.124 238.986 287.55 238.134 287.976C237.282 288.402 236.004 288.402 235.152 288.402C234.726 288.402 234.3 287.976 233.874 287.55C234.3 287.124 234.3 287.124 234.726 286.698C235.152 286.272 235.152 285.846 235.578 285.42C233.874 284.568 232.596 284.568 231.318 285.42C230.892 285.846 229.614 285.846 229.614 285.42C228.762 284.568 228.762 283.716 228.336 282.438L228.762 282.012C229.188 282.012 229.614 282.012 230.466 282.012C230.466 282.864 230.466 283.29 230.466 283.716C231.318 283.29 232.17 283.29 233.022 282.864C233.022 281.586 233.022 280.308 233.022 278.604C232.596 278.178 231.744 277.326 231.744 276.9C231.318 275.196 230.892 275.196 229.188 275.196C229.188 276.048 229.188 276.474 229.188 277.326C227.91 277.752 226.632 279.03 227.058 279.882C228.336 282.438 225.354 282.864 225.354 284.568H224.928C224.928 284.142 224.928 283.29 224.928 282.438C224.076 282.864 223.65 283.29 223.224 284.568C223.224 285.42 222.372 285.846 221.946 286.698C221.52 286.272 220.668 285.846 220.242 284.994C219.816 284.568 220.242 284.142 220.242 283.29C220.242 283.29 220.242 283.716 219.816 283.716C218.964 283.716 217.686 283.716 217.26 283.29C215.982 281.586 215.13 282.438 213.852 282.864C213 283.716 212.148 284.568 210.87 284.994C210.444 285.42 210.018 284.994 209.592 285.42C208.74 285.846 208.314 286.272 207.462 287.124C207.036 287.55 207.036 287.976 206.61 288.402C206.61 289.254 206.61 289.68 206.184 290.106C205.758 290.532 205.332 290.958 204.48 291.384C204.48 290.532 204.054 290.106 204.054 289.254C204.054 288.828 204.48 288.828 204.48 288.402C205.332 287.55 205.332 284.568 204.48 283.716L204.906 283.29C207.462 284.142 209.166 282.864 210.87 281.586C212.148 280.734 213.426 279.456 214.704 278.178C215.13 277.752 215.556 277.326 215.556 276.9C215.556 275.622 215.13 273.918 215.13 273.066C214.278 272.64 213.852 272.214 213.426 271.788C212.574 270.936 210.87 271.362 210.444 272.64C210.444 273.492 210.87 274.344 210.87 275.196C208.74 277.752 205.332 279.03 201.924 280.308C201.072 278.178 196.812 277.326 195.534 279.03C195.108 279.882 194.682 280.734 195.108 281.586C195.108 282.012 196.386 282.438 197.238 282.864C197.664 282.864 198.09 282.864 198.516 283.29C197.238 284.568 196.812 286.698 194.682 286.272C192.552 286.272 192.126 286.698 192.552 288.828C192.552 289.254 192.552 290.106 192.126 290.106C190.422 291.384 189.996 293.514 187.44 293.94C186.588 293.94 185.736 295.218 185.31 295.644C184.032 297.348 182.328 298.626 180.624 299.478C180.198 299.478 179.772 299.904 179.346 300.33C177.642 302.46 175.512 302.034 172.956 301.608C170.826 301.182 168.27 300.33 166.14 299.478C165.714 299.478 164.862 299.052 164.436 298.626C164.862 298.2 165.288 297.348 165.714 296.922C168.27 295.218 170.4 293.514 172.956 292.662C175.938 291.81 178.068 289.68 181.05 288.828C181.902 288.828 182.754 287.124 183.18 286.272C184.458 284.568 185.736 282.438 187.014 280.734C187.44 279.882 188.718 279.456 189.144 278.604C190.422 277.326 191.274 276.048 192.978 275.196C195.534 273.918 198.09 273.066 200.22 271.362C201.072 270.51 201.498 269.232 203.202 270.51C203.202 270.51 203.628 270.51 204.054 270.084C206.61 268.38 209.592 266.676 212.148 265.398C215.556 263.694 218.964 261.99 222.798 260.712C223.65 260.286 224.502 260.286 224.928 259.434C225.354 259.008 225.78 258.582 226.206 258.156C226.632 257.73 227.058 257.73 227.484 257.304C228.762 256.452 229.614 255.174 230.892 254.748C232.17 254.322 233.448 253.47 234.3 252.192C235.578 250.488 236.856 248.784 238.986 248.358C239.412 248.358 239.838 247.932 240.264 247.506C240.69 247.08 240.264 246.654 240.69 245.802C240.264 245.802 239.838 245.802 239.412 245.802C237.282 247.08 235.152 248.784 233.022 250.062C233.022 250.062 232.596 250.488 232.596 250.914C231.318 254.748 227.058 254.748 224.502 256.452H224.076C221.52 255.174 218.964 256.026 216.834 256.026C215.982 256.026 215.13 256.878 214.278 257.304C213 258.582 212.148 259.86 210.87 260.712C209.592 261.99 207.888 262.842 206.184 264.12C204.906 264.972 203.202 266.25 201.498 265.824C199.368 265.398 197.664 265.824 195.96 267.528C193.83 269.658 191.274 270.936 188.718 273.066C187.866 273.918 186.588 274.77 185.31 274.77C184.884 274.77 184.458 275.196 184.032 275.622C183.18 276.474 182.328 276.9 180.624 276.474C179.772 276.048 178.92 276.474 178.068 276.474C176.79 276.9 175.512 277.752 174.234 278.178C173.382 278.604 172.53 278.604 172.104 279.03C170.4 279.456 168.696 280.308 166.992 280.734C165.288 281.16 164.436 279.456 164.862 278.178C165.288 276.048 166.566 274.77 168.696 273.918C169.122 273.918 169.122 273.492 169.548 273.066C172.104 270.51 174.234 267.528 176.79 264.546C177.216 264.12 177.642 263.694 178.068 263.268C179.346 261.99 181.05 261.138 182.328 259.86C183.606 258.582 184.884 257.304 186.162 256.452C188.718 254.748 191.274 253.044 193.83 251.766C195.108 250.914 195.96 249.21 198.09 249.636C198.516 249.636 198.942 249.21 199.368 248.784C200.22 246.654 202.35 245.376 204.054 244.098C204.48 243.672 205.758 243.246 204.906 241.968C204.054 242.394 202.776 243.246 201.924 243.672C200.22 244.524 198.942 244.95 197.664 246.228C196.812 247.08 195.96 248.358 195.108 248.358C192.978 248.358 191.7 249.636 190.422 250.914C189.144 251.766 187.866 253.044 186.588 253.47C184.458 253.896 182.754 254.748 181.05 256.026C178.92 257.304 177.642 259.86 174.66 259.86C174.66 259.86 174.234 259.86 174.234 260.286C173.382 261.564 172.104 263.268 171.252 264.546C170.4 266.25 169.122 266.25 168.27 264.546C167.418 262.842 167.844 260.712 169.548 259.008C170.826 257.73 172.53 256.878 173.382 255.6C174.234 253.896 175.938 253.044 177.216 251.766C179.772 250.062 181.902 247.932 184.458 245.802C185.31 244.95 184.884 244.098 183.606 243.672C183.18 243.672 182.328 243.246 182.328 243.246C181.05 244.098 180.198 244.524 179.772 245.376C177.216 247.506 174.66 248.784 171.252 249.636C167.418 250.488 163.584 252.192 161.028 255.6C158.898 258.156 157.62 258.582 155.064 256.452C154.638 256.026 154.212 255.174 153.36 254.748C152.082 253.044 152.082 249.636 153.36 248.784C155.49 247.506 157.62 246.654 159.75 245.376C160.176 244.95 160.602 244.524 161.028 244.098C161.88 243.246 162.306 241.968 163.158 241.116C164.01 240.264 165.288 239.838 165.714 238.986C168.27 236.004 171.678 236.856 174.66 236.004H175.086C177.642 236.004 179.772 235.578 181.05 233.448C181.476 232.596 182.328 231.744 183.18 230.892C185.736 229.614 187.866 228.336 189.144 225.354C189.144 224.928 189.996 224.502 190.422 224.076C192.126 223.224 193.404 222.798 195.108 221.946C195.534 223.65 196.812 224.502 198.09 224.502C199.368 224.502 200.646 224.928 201.924 224.928C202.35 224.928 203.202 224.928 203.628 224.928C205.758 224.076 206.61 222.372 207.462 220.668C207.888 220.242 207.888 218.964 207.462 218.538C206.184 217.26 204.48 215.982 203.202 214.704C202.776 214.704 201.924 215.13 201.498 215.556C200.22 216.834 199.368 218.112 198.09 218.964C197.664 219.39 196.812 219.39 195.96 218.964C195.108 218.538 194.256 218.112 192.978 217.686C192.552 217.686 191.7 217.686 191.7 218.112C191.7 218.538 191.7 218.964 191.7 219.39C191.7 219.816 192.126 220.242 192.552 220.668C191.274 221.52 190.422 222.372 189.57 222.798C188.292 223.65 187.014 223.65 185.736 222.798C185.31 222.372 184.458 221.946 183.606 221.946C179.772 221.946 176.364 223.224 173.382 224.502C172.956 224.502 172.53 225.354 172.104 225.78C170.826 228.762 168.696 230.892 166.14 233.022C164.436 234.3 162.306 233.874 161.454 236.43C161.454 236.43 161.028 236.856 160.602 236.856C158.472 237.282 156.768 238.134 154.638 238.56C153.786 238.986 152.508 239.412 151.656 239.838C149.1 241.116 146.97 243.246 143.988 243.672C140.154 244.524 136.746 244.95 132.912 244.098C131.208 243.672 129.078 243.672 128.226 241.116C127.8 240.264 126.948 239.838 126.096 239.412C125.67 238.986 124.818 238.134 124.818 237.708C124.818 235.578 123.966 234.3 122.688 232.596C122.262 231.744 121.41 230.466 121.836 229.188C122.688 226.206 123.114 222.798 124.818 219.816C125.67 218.538 125.67 216.834 126.522 215.556C126.948 214.704 127.8 214.278 128.652 213.426C128.652 215.556 129.078 216.834 128.652 218.112C128.226 219.39 129.078 220.242 129.93 220.668C130.782 221.094 132.486 221.094 133.338 220.242C135.042 218.964 134.616 216.834 133.764 215.13C134.616 214.278 135.042 213.852 135.894 213C137.598 211.296 139.728 210.018 141.006 208.314C142.71 206.184 143.562 203.628 144.84 201.498C146.118 199.368 147.396 197.664 148.674 195.96L149.1 195.534C150.378 195.534 150.378 194.682 150.378 193.83C150.378 193.404 150.804 192.978 151.23 192.978C151.23 192.978 151.656 192.978 151.656 193.404C151.656 193.83 151.656 193.83 151.656 194.256C151.656 197.238 149.526 199.794 150.378 202.776C150.378 203.202 149.952 203.628 149.952 204.054C147.822 206.184 147.822 207.036 149.1 209.592C149.952 210.87 149.952 212.148 148.674 213C147.822 213.852 147.396 214.704 148.248 215.556C148.674 215.982 149.952 216.834 150.804 216.408C151.656 215.982 152.508 215.13 152.082 213.852C151.656 213 151.656 212.148 152.934 211.722C154.638 211.296 155.064 210.018 155.064 208.314C155.49 205.332 155.49 202.35 155.916 198.942C155.916 196.812 155.916 194.682 155.916 192.978C155.916 192.552 155.916 192.126 155.916 191.7C157.194 189.57 158.046 187.866 159.324 186.162C160.176 184.884 160.176 184.032 159.75 182.328C159.324 181.476 159.324 180.198 159.75 178.92C160.602 177.642 161.028 175.938 161.454 174.66C161.454 174.234 161.028 173.382 161.028 172.956C160.602 173.382 159.75 173.382 159.324 173.808C158.898 175.512 158.472 177.216 158.046 178.92C158.046 179.346 157.62 179.772 157.62 180.198C155.916 182.328 154.212 184.458 152.508 186.588C152.082 187.014 152.082 187.44 152.082 187.866C152.082 189.144 151.656 189.996 150.378 189.996C148.674 190.422 147.396 191.274 146.118 192.552C145.266 193.404 144.414 194.682 143.136 195.534C141.432 195.96 140.58 196.812 140.154 198.516C139.728 199.368 139.302 200.22 138.876 201.072C138.45 201.924 138.024 202.776 137.172 203.202C135.468 204.906 132.912 206.184 133.764 209.592C130.356 208.74 128.652 210.87 126.522 212.148C125.67 212.574 124.392 213 123.966 213.852C122.262 216.408 119.706 217.26 117.576 218.538C117.15 218.964 116.724 218.538 116.298 218.538C116.298 215.982 115.446 214.278 113.742 213.852C112.464 213.426 112.038 213.852 112.038 215.13C112.038 217.686 112.038 220.242 112.038 222.372C112.038 223.65 112.464 225.354 112.89 226.632C111.612 227.058 110.76 227.058 109.908 227.484C108.63 227.91 107.778 228.762 106.5 229.188C103.518 230.04 101.814 228.336 99.684 227.058C97.554 225.354 95.4239 223.65 92.8679 222.372C90.7379 220.668 88.182 219.39 87.33 216.408C86.904 215.556 86.904 214.704 86.904 214.278C87.756 210.87 90.738 209.166 93.72 208.74C94.998 208.74 95.8499 208.314 96.7019 207.036C97.5539 205.332 99.2579 204.48 100.962 204.48C104.37 204.48 107.778 205.332 111.612 204.054C112.89 203.628 114.594 203.628 115.872 201.924C116.298 203.628 117.15 203.202 118.428 203.202C119.28 203.202 120.558 203.628 121.836 203.628C124.392 204.054 126.522 204.054 129.078 204.48H129.504C129.93 204.054 130.356 203.628 130.356 203.202C130.356 202.776 129.504 201.924 129.078 201.498C126.948 201.072 125.244 201.072 123.114 200.646C122.262 200.646 121.836 200.646 120.984 200.646C120.132 200.646 119.28 200.646 118.428 200.646C118.428 200.646 118.002 201.072 117.15 201.924C117.15 201.072 116.724 200.646 116.724 199.794C115.872 200.646 115.446 201.072 115.446 201.072C112.89 201.072 110.76 200.646 108.204 200.646C106.926 200.646 106.074 200.646 104.796 200.646C104.37 200.646 104.37 200.22 103.944 200.646C101.814 201.072 100.11 201.498 97.98 201.498C97.128 201.498 96.702 201.498 95.85 201.498C94.146 201.072 92.868 200.22 91.59 200.22C90.312 199.794 89.0339 199.368 88.1819 199.794C86.0519 200.646 83.9219 200.22 81.7919 200.22C79.6619 200.22 77.106 198.09 76.68 195.96C76.254 194.256 75.8279 192.552 75.4019 190.848C75.4019 189.996 75.4019 188.718 75.8279 187.44C77.1059 185.31 78.3839 183.606 79.6619 181.902C80.5139 180.624 81.792 180.624 82.644 181.902C83.496 182.754 84.348 183.606 85.2 184.458C86.904 185.736 89.034 184.884 89.886 183.18C90.312 182.328 91.5899 181.476 92.4419 181.476C94.1459 181.476 95.424 180.624 96.276 179.772C96.702 179.346 97.128 179.346 97.554 179.346C99.684 178.494 101.814 178.068 103.092 175.938C103.518 175.086 104.37 174.66 105.222 174.234C106.5 173.382 108.204 172.53 109.056 171.252C109.908 169.974 111.186 168.696 112.464 168.27C113.742 167.418 115.02 166.566 116.298 165.714C118.428 164.436 120.558 162.732 123.114 162.732C125.67 162.732 126.948 161.028 129.078 160.176C128.652 159.75 128.226 159.75 127.8 159.324C130.356 160.176 132.486 159.324 133.764 157.62C135.468 155.49 138.024 155.064 140.58 155.064C141.432 155.064 142.71 154.638 142.71 154.212C143.136 153.36 142.71 152.508 142.284 151.656C139.302 152.934 136.32 153.786 133.764 155.064C132.06 155.916 129.504 155.916 128.652 158.472C128.652 158.898 127.8 158.898 127.374 158.898C126.948 159.324 126.096 159.324 125.67 159.75C124.392 160.602 122.688 160.602 121.41 160.176C119.706 159.75 118.002 159.75 116.298 161.028C115.02 162.306 113.316 163.584 111.612 164.436C109.056 166.566 105.648 166.14 103.518 168.27C103.518 168.696 102.666 168.27 102.24 168.27C101.814 168.27 101.388 168.696 100.536 168.696C98.406 169.548 96.276 170.4 93.72 171.678C93.72 171.678 93.294 171.678 93.294 171.252C93.72 170.4 93.72 169.548 94.146 168.696C94.572 168.27 95.424 167.418 96.276 167.418C97.98 166.566 99.258 165.288 100.11 164.01C100.962 163.158 101.388 162.306 101.814 161.454C102.666 159.324 103.092 157.194 106.074 156.768C107.352 156.342 109.056 155.49 110.334 154.212C111.612 152.934 113.316 152.508 115.02 152.082C116.724 152.082 118.428 151.23 120.132 151.23L119.706 150.804C119.706 150.378 119.706 149.952 120.132 149.526H120.558C120.984 149.952 120.984 150.378 121.41 150.804C121.836 150.804 122.262 150.378 122.262 150.378C122.688 150.378 122.688 149.952 123.114 149.952C126.096 146.97 129.93 145.692 133.764 143.988C136.32 142.71 139.302 141.432 141.858 140.154C141.858 140.154 141.858 140.154 142.284 140.154C144.84 138.876 147.396 137.598 150.378 137.598C151.23 137.598 152.508 136.746 153.36 135.894C154.212 135.042 153.786 134.19 152.934 133.338C152.082 132.486 149.952 133.338 148.674 134.616C148.248 135.042 147.396 135.894 146.544 135.894C143.988 136.746 141.432 137.598 138.876 138.876L138.45 139.302C138.024 139.728 137.598 139.728 136.746 139.728C135.894 140.154 135.042 140.154 134.616 140.58C133.764 141.006 132.912 141.858 132.06 142.284C129.93 143.136 127.374 143.988 125.244 144.84C124.392 145.266 123.54 145.692 122.688 146.544C120.558 149.1 118.002 149.952 115.02 149.526C114.594 149.526 114.168 149.526 114.168 149.526C112.464 150.378 110.76 151.23 109.056 152.082C108.63 152.082 108.204 152.082 108.204 152.082C106.5 152.508 103.944 152.934 102.666 153.786C100.962 155.49 98.8319 155.916 96.7019 156.768C95.4239 157.194 93.7199 157.194 92.4419 157.62C89.4599 158.472 86.9039 160.176 83.9219 161.028C81.3659 161.88 79.236 162.306 76.68 163.158C74.124 164.01 71.994 162.306 69.864 161.454C69.438 161.454 68.586 159.75 68.586 159.324C69.012 158.046 69.864 156.768 70.716 155.49C71.994 154.212 73.272 153.36 74.55 152.508C77.106 150.804 79.2359 149.1 81.7919 147.396C83.0699 146.544 83.922 146.118 84.774 144.84C85.626 143.562 86.4779 142.284 88.1819 142.284C92.0159 141.858 94.9979 139.302 98.8319 138.45C98.8319 137.598 98.406 137.172 98.406 136.32C96.276 135.894 95.85 137.172 95.424 138.876C94.998 138.45 94.572 138.024 94.146 138.024C90.738 138.024 86.9039 138.024 83.9219 140.58C83.4959 141.006 82.6439 141.432 81.7919 141.432C78.8099 141.432 76.254 143.136 74.124 144.84C71.994 146.544 69.4379 147.822 67.3079 149.1C64.7519 149.952 61.7699 149.1 60.9179 145.692C59.6399 141.006 63.048 135.468 67.734 134.616C69.438 134.19 70.716 134.19 71.994 132.912C73.698 131.634 75.402 129.93 76.68 128.652C78.384 126.948 79.662 124.392 82.644 123.966C83.07 123.966 83.07 123.54 83.496 123.54C84.348 123.114 84.774 122.262 85.626 121.836C86.478 121.41 86.904 120.984 87.756 120.984C89.46 120.558 90.7379 119.28 92.4419 119.28C95.4239 118.854 97.9799 119.28 100.962 119.28C101.388 119.28 102.24 119.28 102.666 118.854C103.944 118.002 105.222 116.724 106.5 115.446C108.204 113.742 110.334 112.464 112.038 111.186C112.464 111.186 112.464 110.76 112.89 110.76C114.168 109.908 115.446 109.056 116.724 107.778C116.724 107.352 116.724 106.926 116.724 106.074C116.298 106.074 115.446 106.074 115.446 106.074C113.742 107.352 112.038 108.63 110.334 109.482C109.056 110.334 107.778 110.76 106.5 111.612C105.222 112.038 104.37 112.464 103.092 112.89C101.814 111.612 100.962 111.612 99.2579 112.89C97.9799 113.742 96.702 114.168 95.424 114.168C93.72 114.168 91.5899 114.168 90.7379 115.446C88.6079 117.576 86.4779 117.576 83.9219 117.576C83.0699 117.576 82.2179 118.002 81.7919 118.428C80.5139 119.28 79.236 120.558 78.384 120.984C77.106 120.984 76.2539 120.984 75.4019 120.984C71.9939 120.984 69.864 122.688 67.734 124.818C66.456 126.096 65.178 128.226 64.326 129.504C63.9 129.93 63.4739 130.356 62.6219 130.782C59.2139 132.06 55.3799 132.912 51.9719 130.782C49.8419 129.504 48.564 127.374 48.99 124.818C49.842 122.262 50.694 120.132 51.546 117.576C51.972 116.298 52.8239 115.446 54.1019 115.446C56.6579 115.02 59.214 114.168 61.344 113.316C63.474 112.464 65.604 111.186 67.734 110.334C68.16 110.334 68.16 109.908 68.16 109.908C68.16 108.204 69.438 108.204 70.29 108.204C71.142 107.778 72.4199 107.778 73.2719 106.926C76.6799 105.222 79.662 102.24 83.07 100.962C85.2 100.11 87.33 98.832 89.034 97.554V97.128C88.182 97.128 87.3299 97.554 86.0519 97.554C84.7739 97.98 83.4959 97.98 82.2179 98.406C80.9399 98.832 79.236 98.832 78.81 99.684C77.958 101.388 76.68 101.814 74.976 102.666C74.124 103.092 73.272 103.092 72.846 103.518C71.142 105.222 69.0119 105.648 66.8819 106.074C64.3259 106.926 61.77 107.352 59.214 108.204C57.084 109.056 54.528 109.482 52.824 111.186C51.972 112.038 50.694 112.464 49.416 112.89C46.86 113.316 44.304 113.742 42.174 113.742C40.896 113.742 39.618 113.742 38.34 113.316C37.488 112.89 36.6359 112.038 37.0619 111.186C38.3399 108.204 41.322 106.5 42.6 103.518C42.6 103.092 43.0259 103.092 43.4519 103.092C44.3039 102.24 45.5819 101.388 46.0079 100.536C47.7119 98.406 48.99 95.85 50.694 93.294C51.12 92.868 51.5459 92.442 51.9719 92.016C52.3979 91.59 52.824 91.59 53.25 91.164C54.954 88.182 57.9359 86.478 60.9179 84.348C62.1959 83.07 63.4739 82.218 65.1779 81.366C66.0299 80.94 66.882 80.088 66.03 79.236C65.178 78.384 64.326 78.81 63.9 79.662C62.622 80.94 61.344 82.644 59.64 83.496C58.788 83.922 57.936 84.774 57.084 85.2C55.806 86.052 54.528 87.33 53.676 88.182C53.25 88.608 52.3979 89.034 51.9719 89.886C51.1199 90.738 50.6939 91.164 49.8419 92.016C49.4159 92.442 48.5639 92.868 47.7119 93.294C46.0079 94.146 43.878 95.424 42.174 96.276C40.896 97.128 39.618 97.554 37.914 97.98C37.488 98.406 36.636 98.406 35.784 98.406C34.08 98.832 33.228 97.128 32.376 96.276C31.098 94.572 29.394 93.294 30.246 90.738C30.672 88.182 29.82 86.478 27.264 85.626C25.986 85.2 25.1339 84.348 24.7079 82.644C24.7079 82.218 23.856 81.792 23.43 81.792C22.152 81.792 20.874 81.792 19.596 81.792C18.744 81.792 17.8919 81.366 17.8919 80.514C17.4659 79.236 17.466 77.958 17.04 77.106C16.614 74.124 16.1879 70.716 15.7619 67.734C15.7619 66.882 15.7619 66.03 15.7619 65.604C17.0399 61.344 17.04 57.084 17.04 52.824C17.04 51.546 16.1879 50.268 16.1879 48.99C16.1879 45.582 13.632 43.452 12.78 40.47C12.78 39.618 12.3539 38.766 11.9279 37.914C11.5019 36.636 11.5019 34.932 11.5019 33.654C11.5019 32.376 11.076 31.098 11.076 29.82C11.076 27.69 11.076 25.986 11.076 23.856C11.076 22.578 10.2239 21.3 9.79795 20.022C8.94595 17.466 8.51995 14.91 7.66795 12.78C7.66795 12.354 8.09397 11.502 8.09397 10.65C8.51997 8.094 8.946 5.964 8.52 3.408C8.52 1.278 6.38992 0 5.11192 0C3.83392 0 0.851922 2.556 0.851922 4.26C0.425922 6.39 0.852 8.09401 0 10.224C0 10.65 0 10.65 0 11.076C0.426 13.632 0.851922 16.614 0.851922 19.17C0.851922 20.448 0.425922 21.726 0.851922 22.578C1.70392 26.412 2.982 29.82 4.26 33.228C4.26 33.654 4.26 33.654 4.26 34.08C3.834 37.914 3.834 41.322 4.26 45.156C4.26 46.008 4.25997 46.86 3.83397 48.138C3.40797 49.842 2.98192 51.12 2.98192 52.824C2.98192 57.084 3.40797 60.918 3.83397 65.178C3.83397 65.604 3.83397 66.03 3.83397 66.03C5.11197 68.16 5.11203 70.29 4.68603 72.846C4.26003 74.55 4.25992 76.68 5.11192 77.958C6.38992 79.662 6.38997 81.366 5.96397 83.07C5.53797 86.052 5.11197 89.034 3.83397 91.59C1.70397 97.554 2.13 103.092 4.26 108.63C5.112 110.76 5.96395 112.464 5.53795 115.02C5.53795 117.15 6.81592 119.28 7.24192 120.984C8.09392 124.818 10.224 128.226 8.94603 132.486C8.09403 135.468 9.37197 138.45 10.224 141.432C11.076 143.988 11.9279 146.544 11.9279 149.526C11.9279 153.36 14.058 155.916 17.04 157.62C18.318 158.472 20.022 158.898 21.726 159.75C23.856 161.028 26.412 161.454 27.69 163.584C28.116 164.01 28.116 164.862 28.116 165.288C28.542 166.992 29.394 168.696 29.82 170.826C30.246 173.382 31.5239 175.086 33.2279 176.79C34.9319 178.494 36.636 179.772 37.914 181.902C39.192 185.31 41.3219 187.866 41.7479 191.7C41.7479 192.978 43.026 194.682 44.304 195.534C45.156 196.386 46.8599 196.386 48.1379 196.812C51.5459 197.664 54.1019 198.942 56.2319 201.498C58.3619 204.054 59.2139 207.036 62.6219 208.74C63.4739 209.166 63.8999 209.592 64.7519 210.018C66.8819 212.148 69.0119 213.852 71.1419 215.982C73.6979 218.538 75.8279 220.668 77.9579 223.65C78.8099 225.354 80.088 226.632 81.366 227.91C82.218 228.762 82.644 229.614 83.496 230.466C86.478 232.596 89.034 234.726 92.016 236.856C92.868 237.282 93.72 237.708 94.146 238.56C94.572 241.116 97.128 241.542 98.406 243.246C100.962 245.802 103.518 247.932 104.796 251.34C105.222 253.044 105.648 254.748 105.648 256.026C106.074 257.73 107.352 259.008 109.056 259.434C110.76 259.86 111.186 258.582 111.612 257.304C112.038 256.452 112.464 256.452 113.316 256.878C115.872 258.582 117.15 261.99 120.558 262.842C120.984 262.842 120.984 263.268 121.41 263.694C122.688 265.398 123.966 267.528 125.67 269.232C127.8 271.788 130.356 273.918 132.486 276.474C134.616 279.456 136.32 282.864 138.024 286.272C138.45 287.124 138.876 287.976 138.876 289.254C139.302 290.958 139.728 292.662 140.154 293.94C137.172 294.366 134.616 294.366 132.06 295.218C129.93 295.644 128.226 295.644 126.522 294.792C126.096 294.792 125.67 294.792 125.244 294.366C122.688 293.514 120.132 295.644 117.576 294.792C117.15 294.792 116.298 295.644 115.872 296.07C115.872 296.496 116.298 296.922 116.298 297.774C116.724 298.626 117.15 299.052 117.576 299.478C118.002 299.052 118.428 298.626 118.854 298.626C118.002 297.774 118.002 297.774 120.132 296.922C120.132 297.348 119.706 298.2 119.706 298.626C120.132 298.626 120.558 298.626 121.41 298.626C120.558 301.182 117.15 302.886 118.002 306.294C117.15 306.294 116.298 306.294 115.02 306.294C115.446 307.146 115.872 307.998 115.872 307.998C116.724 307.998 117.576 307.572 118.428 307.146C118.854 307.998 119.28 309.276 119.706 310.128C119.706 311.406 120.558 312.258 121.836 312.684C123.114 312.684 123.966 311.832 123.966 310.554C123.966 310.128 124.392 309.702 124.392 309.276C124.818 308.424 125.67 307.572 126.522 306.72C126.948 306.294 127.374 305.442 127.8 305.016C129.93 303.738 132.06 302.46 134.19 301.182C134.19 302.034 134.616 302.886 135.042 304.164C135.468 305.442 136.746 305.868 138.024 305.016C138.876 304.164 140.154 303.738 141.006 303.312C141.432 302.886 142.71 303.312 143.136 302.886C143.562 302.46 143.136 301.608 143.136 300.756C143.136 300.756 143.136 300.756 143.562 300.33C144.414 301.608 144.84 302.886 145.692 303.738C143.562 304.59 141.858 305.442 139.728 306.294C139.302 306.72 138.45 306.72 137.598 306.294C135.894 305.868 134.19 307.146 134.19 308.85C134.19 310.554 134.19 311.832 134.19 313.536C134.19 313.962 134.19 314.388 134.19 314.814C135.042 313.11 138.876 313.962 137.598 310.98C139.302 310.554 140.58 309.702 142.284 309.276C143.562 310.554 146.544 310.128 147.396 307.998C148.248 306.294 149.526 306.294 150.804 305.868C150.378 306.72 149.952 307.572 149.1 307.998C147.822 309.276 146.97 311.832 148.248 312.258C150.378 313.536 149.526 315.24 149.952 316.944C148.248 316.092 146.97 316.092 145.692 317.37C145.266 317.796 144.84 317.796 144.414 317.796C141.858 317.796 138.876 317.37 137.172 320.352C135.894 318.648 137.172 318.648 138.024 317.796C136.746 317.796 135.894 318.222 134.616 318.222C134.19 318.222 133.338 318.222 132.912 318.648C131.634 319.074 130.356 319.074 129.504 319.5C128.652 319.926 128.226 319.926 127.8 319.926C127.374 319.926 126.948 319.926 126.522 319.926C126.522 320.352 126.522 320.778 126.522 321.204C126.522 321.63 126.948 322.056 126.948 322.908C127.374 324.612 128.226 324.612 129.504 324.186C129.93 324.186 130.356 323.334 130.782 323.334C131.634 322.908 132.912 322.908 133.764 322.056C135.042 321.204 135.468 321.63 135.894 322.482C136.32 323.334 136.746 324.612 137.172 325.464C137.598 325.89 138.024 326.742 138.024 327.168C138.024 328.446 138.876 329.298 139.728 329.298C141.006 329.298 142.284 328.872 142.71 327.594C143.136 326.742 143.136 325.89 143.562 325.038C144.84 322.908 148.248 323.76 149.526 321.204C150.804 320.352 152.508 319.926 153.786 319.074C154.638 318.648 158.046 317.796 158.898 318.648C160.176 320.352 161.454 322.482 162.306 324.612C161.88 325.038 161.028 325.038 160.602 325.464C158.898 327.594 156.768 327.168 155.064 325.464C153.36 323.76 152.082 323.334 150.804 325.464C150.378 326.316 149.526 326.742 148.674 327.168C147.822 328.02 146.97 328.872 146.118 329.724C145.266 331.002 145.692 331.854 146.544 333.132V333.558C144.414 333.132 142.71 332.28 140.58 333.558C140.154 333.984 139.302 333.984 138.876 333.984C137.598 333.984 135.894 333.558 134.616 333.132C132.912 332.706 132.06 331.854 132.06 330.15C132.06 328.872 131.208 328.02 130.356 327.594C127.374 327.168 125.67 325.038 123.966 322.908C121.41 320.352 118.854 317.796 116.298 315.24C115.02 313.536 113.316 312.258 112.464 310.554C111.612 309.276 111.612 308.424 109.908 309.276C109.056 310.128 107.778 310.98 106.5 310.98C104.796 311.406 104.37 312.258 105.222 313.536C106.926 315.666 108.204 318.222 111.186 319.5C112.464 319.926 113.316 321.63 114.168 322.908C115.446 324.612 116.724 325.89 117.15 327.594C118.002 329.724 116.724 331.854 114.594 331.854C113.742 331.854 112.89 331.428 112.038 330.576C110.76 329.298 109.482 327.594 108.204 325.89C107.778 325.038 107.352 324.186 107.352 322.908C107.352 321.63 106.926 321.204 105.648 320.778C105.222 320.778 104.796 320.352 104.37 320.352C103.092 319.074 101.814 320.352 100.962 321.204C100.11 322.056 100.11 323.334 100.536 324.186C101.388 325.89 101.388 326.742 100.11 327.594C98.406 328.872 98.406 330.15 100.11 331.002C101.388 331.854 102.24 333.132 102.24 334.836C102.24 336.54 103.092 337.818 104.796 339.096C106.5 340.374 106.926 342.078 106.5 344.208C106.5 344.634 106.074 345.486 106.074 345.912C106.074 346.338 106.5 347.19 106.5 347.19C109.056 347.616 111.612 347.616 113.742 347.616C115.446 346.338 117.576 346.764 119.28 346.764C119.28 347.19 119.706 347.616 119.706 348.468C120.132 351.876 120.132 352.302 123.114 352.302C125.67 352.302 128.226 352.302 130.782 351.876C132.06 351.876 132.06 351.024 131.208 350.172C130.356 349.32 129.504 348.894 128.226 348.468C125.67 347.616 122.688 347.19 120.132 346.338C119.706 346.338 119.28 345.912 118.854 345.486C118.428 343.356 120.558 340.374 122.688 339.948C123.114 339.948 123.966 339.522 124.392 339.522C125.244 339.522 126.096 338.244 126.948 339.096C126.522 340.374 126.096 341.226 126.522 342.078C126.522 342.504 127.374 343.356 128.226 343.782C129.504 344.208 131.208 344.634 132.912 345.06C135.042 345.912 136.32 345.912 135.894 348.894C135.894 350.598 136.32 351.45 138.024 351.876C138.45 351.876 139.302 352.302 139.728 352.728C139.728 353.154 139.728 354.006 139.728 354.432C139.302 356.136 139.302 357.84 141.006 359.118C141.432 359.544 141.858 359.97 141.858 360.396C142.284 361.674 143.136 362.526 144.414 362.952C148.248 365.082 147.822 366.786 145.692 370.194C144.84 371.472 143.562 372.324 142.71 373.176C142.284 374.028 141.858 374.454 141.432 375.306C141.006 376.584 140.58 378.714 139.728 379.566C138.024 381.27 135.894 382.548 133.764 383.826C133.338 384.252 132.486 384.678 132.486 385.104C132.06 386.382 131.208 386.808 129.93 387.234C128.652 387.66 126.948 388.086 126.096 388.938C124.392 390.642 122.688 391.92 120.558 393.198C118.002 394.476 116.298 397.032 113.742 398.736C112.038 400.014 110.334 400.866 108.63 401.718C107.352 402.57 105.648 403.422 104.37 404.7C103.944 405.126 103.092 405.126 102.666 405.552C101.814 405.978 100.536 406.404 99.684 406.83C98.406 407.682 96.702 408.534 95.424 409.386C94.146 410.238 92.868 410.238 91.59 411.09C88.608 412.794 85.626 414.498 82.644 415.776C79.662 417.054 76.2539 417.906 73.2719 419.184C71.9939 419.61 70.7159 420.462 69.4379 420.888C67.7339 421.74 65.178 421.74 63.474 423.018C63.048 423.444 62.622 423.018 62.196 423.444C61.344 423.444 60.492 423.444 59.64 423.87C57.084 424.722 54.954 426 52.824 426.852C49.842 428.13 48.99 431.538 51.546 433.668C52.398 434.52 53.6759 435.372 54.5279 436.224C56.6579 437.928 59.2139 437.928 60.9179 439.206C63.0479 440.484 65.178 440.91 66.456 443.04C69.012 446.448 70.29 450.708 74.976 451.986C75.402 454.542 77.958 454.968 79.236 456.246C80.514 457.524 81.3659 457.524 82.2179 456.246C82.6439 455.82 82.644 454.968 82.644 454.116C83.07 451.134 81.366 449.004 80.514 446.874C79.662 444.744 78.3839 443.04 77.5319 441.336C76.6799 440.058 77.1059 439.206 77.9579 437.928C78.3839 437.076 78.81 436.65 79.236 435.798C79.662 434.094 80.9399 433.668 82.2179 433.242C83.0699 433.242 83.4959 433.242 84.3479 433.242C86.9039 433.242 89.4599 431.964 90.3119 428.982C90.3119 428.556 90.7379 428.13 90.7379 428.13C91.5899 427.278 92.0159 426.426 92.8679 425.574C93.2939 425.148 93.294 424.722 93.72 424.296C95.85 422.592 97.98 420.888 100.11 420.036C103.518 418.332 106.5 416.628 108.204 413.22C108.63 412.368 109.908 411.942 110.76 411.516C111.186 411.09 112.038 411.09 112.464 410.664C114.168 409.386 115.446 408.108 117.15 406.404C118.002 405.552 118.854 404.7 119.706 403.848C121.41 402.144 122.688 400.44 124.392 399.162C126.522 397.884 129.078 396.606 131.208 395.754C132.912 394.902 135.042 394.476 136.746 394.05C137.598 394.05 138.876 394.476 139.728 394.476C141.858 394.902 143.562 393.624 145.692 392.772C146.118 392.772 146.544 392.346 146.97 392.346C148.248 393.624 149.1 394.902 150.378 396.606C150.804 397.032 149.952 397.884 149.952 398.736C149.952 399.162 149.952 399.588 149.952 400.014C150.804 401.718 151.23 403.848 152.508 404.7C155.49 406.83 155.916 410.664 158.472 412.794C158.472 412.794 158.472 412.794 158.472 413.22C159.324 415.35 159.75 417.906 160.602 420.036C161.028 420.888 161.454 422.166 162.306 423.018C164.436 424.722 167.418 428.982 167.844 431.964C168.27 434.094 168.696 436.224 171.252 437.076C172.956 437.928 174.234 439.206 174.66 441.336C175.086 443.04 175.938 445.17 178.068 445.596C178.494 445.596 178.92 446.448 178.92 446.874C179.346 450.282 182.328 451.134 184.458 453.264C186.588 455.394 189.996 456.672 191.274 460.506L191.7 460.932C194.256 462.636 195.534 465.618 196.386 468.174C197.238 469.878 197.664 471.582 198.516 473.286C199.794 475.416 202.35 477.12 204.054 479.25C205.332 480.528 206.61 481.806 207.888 483.51C209.592 485.64 210.87 488.196 212.574 490.326C213.852 492.456 215.982 494.586 216.834 497.142C217.686 499.698 218.538 501.828 219.816 503.958C220.668 505.236 221.52 506.088 221.52 507.366C221.52 509.07 221.52 510.348 220.242 511.626C218.964 512.904 217.686 512.478 215.982 511.626C214.278 511.2 213.852 509.922 213.426 508.218C213 506.94 212.574 506.94 211.296 506.94C209.592 506.94 207.888 506.088 207.036 504.384C205.758 501.828 204.906 499.272 204.054 497.142C203.202 495.864 202.35 494.16 201.498 493.308C199.368 491.604 197.238 489.474 196.386 486.492C195.534 482.232 191.7 480.102 190.422 476.268C190.422 475.842 189.996 475.842 189.57 475.416C187.866 472.86 185.736 470.73 185.736 467.322C185.736 466.896 185.31 466.47 184.884 466.044C184.458 465.192 183.606 464.34 182.754 463.488C181.05 461.358 181.05 458.376 178.494 456.672C177.216 455.82 176.364 454.542 175.512 453.264C174.66 452.412 174.234 451.56 172.956 450.708C171.678 449.856 170.4 448.578 170.4 447.726C170.4 445.596 168.696 444.744 168.27 443.466C167.844 442.614 166.992 441.762 166.14 441.336C165.288 440.484 164.01 440.058 164.01 439.206C162.732 435.372 159.75 432.816 156.768 430.686C155.064 429.408 154.212 428.556 153.36 426.426C152.934 425.574 152.934 424.296 152.082 423.87C150.378 422.166 148.674 420.462 147.396 418.758C145.692 416.202 143.562 413.646 142.71 410.664C142.71 410.238 142.284 410.238 141.858 409.812C140.154 408.96 139.728 408.96 137.598 411.516C136.32 413.22 138.024 413.646 138.45 414.498C138.45 414.924 138.876 414.924 139.302 415.35C141.858 417.054 143.562 420.036 145.266 422.592C145.692 423.018 146.118 423.87 146.544 424.296C148.674 425.574 149.526 428.13 150.804 429.834C152.082 431.538 152.934 432.816 154.638 433.242C156.342 434.094 157.194 435.372 157.62 437.076C157.62 437.928 158.046 438.354 158.472 438.78C160.176 440.484 162.732 441.762 162.732 445.17C162.732 445.596 163.158 445.596 163.158 446.022C164.01 447.3 165.714 447.726 165.714 449.43L166.14 449.856C166.992 451.986 170.4 451.986 170.4 454.968C170.4 454.968 170.826 454.968 170.826 455.394C172.53 457.524 174.234 459.228 175.938 461.358C176.79 462.21 177.642 463.914 178.494 464.34C180.198 465.618 181.476 467.322 182.328 469.026C182.754 469.878 182.754 471.156 183.606 472.008C185.736 474.138 186.162 476.694 187.44 478.824C188.718 480.528 189.57 482.232 190.422 483.51C191.274 484.788 192.126 486.492 192.978 487.77C193.404 488.622 193.404 489.474 194.256 490.326C195.96 492.03 198.09 493.734 199.794 495.864C200.646 496.716 201.498 497.994 201.072 499.272C200.646 501.402 201.498 503.106 202.776 504.384C203.628 505.662 203.628 506.94 204.48 508.218C204.48 508.644 204.48 509.07 204.906 509.496C207.036 511.626 207.462 513.756 207.462 516.738C207.462 517.59 208.74 518.016 208.74 518.868C209.166 521.85 210.87 525.258 208.314 528.24V528.666C208.314 530.37 207.462 531.222 206.184 532.074C206.61 533.352 206.61 534.204 204.906 534.63C204.48 534.63 204.054 535.908 204.054 536.334C204.48 537.612 203.628 538.464 203.202 539.316C202.776 539.742 202.776 540.168 202.35 540.594C201.924 542.724 201.924 544.854 201.498 546.558C201.072 548.688 199.794 551.67 201.498 554.226C201.498 554.226 201.072 554.652 201.072 555.078C200.646 556.356 199.794 557.634 200.22 558.486C201.072 560.19 200.22 561.468 200.22 562.746C199.794 562.746 199.368 563.172 198.516 563.172V563.598C204.054 565.728 209.592 567.432 215.13 569.562L215.556 569.136C215.13 568.71 214.704 568.284 214.278 567.432C215.556 566.154 218.538 565.728 217.686 562.746C218.964 563.172 219.816 563.172 220.668 563.598C221.094 563.172 221.52 562.32 221.52 562.32C222.372 562.746 223.224 563.172 223.224 563.598C223.224 565.302 224.076 564.024 224.502 564.024C224.928 564.024 224.928 564.024 225.354 563.598C224.928 564.45 224.502 565.302 224.502 566.154C224.502 566.154 225.78 565.302 226.632 564.876C227.058 565.302 227.058 566.154 227.484 566.58C227.91 564.45 229.188 562.32 230.466 562.32C230.892 562.32 231.318 562.746 231.744 563.172C231.744 562.746 232.17 561.894 232.596 561.042C233.022 561.468 233.448 561.894 234.3 562.746C234.3 562.32 234.726 561.894 234.726 561.468C234.3 561.468 233.874 561.042 233.874 561.042C233.874 560.19 233.874 559.764 234.3 559.338C234.726 558.486 235.152 557.634 236.004 558.486C236.004 558.486 236.004 558.486 236.004 558.912C235.578 558.912 235.152 559.338 234.726 559.764C235.578 559.764 236.004 559.764 236.004 559.764C236.004 559.338 236.43 558.486 236.43 558.06C237.282 558.06 237.708 558.06 238.56 558.486C238.56 557.208 238.134 556.356 238.134 555.93C237.708 556.356 236.856 557.208 236.43 557.208C235.152 557.208 233.448 557.208 232.17 556.782C232.596 555.93 233.022 554.652 233.448 553.8C233.874 554.226 234.3 554.226 234.3 554.652C234.726 554.226 235.578 553.374 236.004 552.948C236.43 552.522 237.282 552.522 238.56 552.096C238.986 552.948 239.412 554.226 239.412 555.078C239.838 555.078 240.69 555.504 241.968 555.504C244.098 553.8 244.524 552.948 244.524 549.966C244.098 550.818 243.246 551.244 242.82 552.096C242.394 552.522 242.394 552.948 241.968 553.374C241.968 553.8 241.968 554.226 241.968 554.652C241.542 554.652 240.69 554.652 240.69 554.652C240.264 553.374 240.264 552.948 239.838 552.096C239.838 551.67 239.412 551.244 239.412 550.818C239.838 551.244 240.264 551.244 240.69 551.67C242.394 551.244 243.246 550.392 242.394 548.262C243.246 549.114 243.672 549.54 244.098 549.966C244.95 548.688 245.376 547.41 246.228 546.132C246.228 545.706 246.228 545.706 246.654 545.28C247.08 543.576 247.506 541.872 247.932 540.168C247.932 539.742 248.358 539.742 248.358 539.316C249.21 538.89 249.636 538.038 250.488 537.612C250.914 537.186 251.766 536.334 251.766 535.482C252.192 534.204 252.192 532.5 252.192 531.648C253.47 531.648 254.322 531.222 254.748 531.222C254.748 530.37 254.748 529.518 255.174 529.092C256.878 527.388 259.008 526.11 260.712 524.832C260.712 524.832 260.712 523.98 260.712 523.554C260.712 523.128 260.286 523.128 259.86 523.128C260.286 521.424 261.564 520.572 262.416 521.424C264.12 522.702 264.972 520.998 266.25 520.998C267.102 520.998 267.954 520.146 268.806 520.146C270.084 519.72 271.362 519.294 272.64 518.868C273.066 518.442 273.918 518.016 274.344 518.016C276.474 516.738 279.03 516.312 280.308 514.182C280.308 513.756 281.16 513.756 281.586 513.33C283.716 512.052 285.42 510.774 287.55 509.496C287.976 509.07 288.828 508.644 289.254 508.218C291.81 506.94 294.366 505.662 294.792 502.68L295.218 502.254C296.496 500.976 297.774 500.124 298.626 498.42C300.33 496.29 302.46 495.012 305.442 495.012C306.294 495.012 307.146 494.586 307.572 494.586C310.554 493.308 313.962 493.308 316.944 494.16C321.204 495.438 325.464 495.012 329.298 494.586C332.706 494.586 336.54 493.734 339.948 493.734C342.93 493.308 345.486 493.308 348.468 493.308C350.172 493.308 352.302 494.16 354.006 494.16C356.562 494.16 359.118 493.734 361.674 492.456C363.804 491.604 366.36 491.604 368.916 491.178C370.194 491.178 371.472 490.752 372.75 490.752C373.176 490.752 373.602 490.752 374.028 490.752C374.028 491.178 374.028 492.03 374.028 492.456C372.75 494.16 373.602 496.716 374.88 497.994C376.158 499.272 378.288 500.124 379.992 499.272C381.696 498.846 382.974 497.994 384.678 497.994C386.382 497.994 387.66 496.716 388.512 495.438C389.364 494.586 389.79 492.882 389.79 492.03C388.938 489.048 387.234 486.066 383.826 485.214C383.4 485.214 383.4 484.788 382.974 484.788C381.27 483.51 379.566 483.084 377.862 483.936C375.732 484.788 373.176 485.64 370.62 486.492C367.212 487.344 364.23 486.492 360.822 486.492C359.118 486.492 356.988 485.214 355.284 486.066C354.858 486.066 354.432 486.066 353.58 486.492C353.58 486.066 354.006 485.64 354.006 485.214C355.284 482.232 354.006 480.528 351.024 479.676C349.32 479.25 348.894 480.102 348.468 481.38C348.042 482.658 348.894 483.936 349.746 484.788C350.172 485.214 351.024 485.64 351.876 486.066C350.172 486.066 348.468 485.64 347.19 485.64C346.338 485.64 345.486 486.066 345.06 486.492C343.782 488.196 341.652 488.622 339.948 488.622C337.392 488.622 335.262 487.77 332.706 487.344C328.02 486.918 323.76 485.64 319.074 486.492C316.944 486.918 316.518 485.64 316.518 483.51C316.944 481.38 318.222 479.676 319.5 478.398C321.63 479.25 323.334 480.954 325.464 479.676C327.168 478.824 327.594 478.824 328.02 480.528C328.446 482.658 331.428 483.936 333.558 483.084C333.984 483.084 334.836 483.084 335.262 483.084C336.54 483.51 337.392 483.51 338.244 482.232C338.67 481.806 339.096 480.954 339.096 480.528C339.096 479.676 339.522 478.398 339.096 477.546C338.67 476.268 337.818 476.268 336.54 476.268C334.836 476.268 332.706 476.268 331.428 474.564C331.428 474.138 330.576 474.138 329.724 474.564C326.316 474.99 323.334 475.416 320.352 473.712C318.648 472.86 316.944 471.582 314.388 472.434C313.962 472.434 313.536 472.434 313.536 472.434C311.406 471.156 309.276 472.434 306.72 473.286C308.85 474.138 308.85 474.99 307.572 476.268C307.146 476.694 307.572 477.546 307.572 477.972C307.572 478.398 307.998 478.824 307.572 478.824C307.146 479.676 306.72 480.528 306.294 481.806C305.868 480.954 305.442 480.528 305.016 479.676C305.016 478.824 305.016 478.398 305.442 477.12C305.016 477.546 304.164 477.972 303.738 477.972C302.886 477.546 302.46 477.12 301.608 476.694C302.034 474.564 300.33 475.416 299.478 475.416C299.478 474.564 299.904 474.138 299.904 473.712C302.886 475.842 302.46 472.434 304.164 471.156C302.886 471.156 302.034 470.73 301.182 470.73C300.756 470.73 300.33 470.73 300.33 470.73C298.626 469.452 296.07 469.026 296.07 466.044C296.07 465.618 295.644 465.618 295.644 465.192C294.366 463.062 292.662 460.932 291.384 458.802C290.532 456.672 290.106 454.542 289.254 452.412C290.532 453.264 291.81 454.116 293.088 454.542C293.94 454.968 294.792 454.542 295.218 454.116C296.07 453.69 296.496 452.838 296.07 451.56C295.218 449.43 293.94 449.004 291.81 449.004C290.532 449.004 289.68 449.43 289.254 450.708C289.254 451.134 289.254 451.56 289.254 452.412C288.402 450.282 287.124 448.152 286.698 446.022C286.272 443.466 284.994 442.188 282.864 440.91C281.16 440.058 279.03 439.206 278.604 437.076C278.178 436.224 278.604 434.946 278.604 433.668C276.474 432.816 276.474 432.816 276.048 431.538C277.752 430.686 279.03 429.834 280.734 428.556C281.16 428.556 281.586 428.556 282.012 428.556C283.29 430.26 285.846 429.834 286.272 431.964C286.272 431.964 286.698 431.964 286.698 432.39C287.55 432.816 288.828 433.242 289.68 433.668C290.958 432.816 292.236 431.964 293.94 432.816C295.644 431.112 299.052 431.538 299.478 428.556C299.478 428.13 300.33 427.704 300.756 427.704C302.034 428.556 303.312 427.704 304.164 426.852C305.016 426 306.294 424.722 307.146 423.87C308.85 422.166 310.98 420.036 312.684 417.906C314.814 414.924 316.944 411.942 319.5 409.386C319.926 408.96 319.926 408.534 320.352 408.108C321.204 406.83 321.204 404.7 323.76 403.848C324.186 405.126 324.612 405.978 324.612 406.83C323.76 409.386 325.89 411.09 327.168 411.942C330.15 414.498 331.428 417.906 333.984 420.462C334.836 421.314 335.688 422.592 336.54 422.592C338.244 423.018 339.096 423.87 339.096 425.574C339.096 426 339.522 426.426 339.948 426.426C340.374 426.426 340.8 426 340.8 425.574C340.8 425.148 340.8 424.722 341.226 424.296C341.652 423.444 342.078 422.592 342.93 422.166C343.356 422.592 343.782 423.018 344.634 423.444C345.912 424.296 347.19 425.574 348.894 426.426C349.746 426.852 350.598 426.426 351.024 427.704C351.024 428.13 352.302 428.556 352.728 428.556C353.154 428.556 353.58 428.13 353.58 427.704C353.58 426.852 353.154 426.426 352.728 425.574C352.728 425.148 352.302 425.148 351.876 425.148C353.154 422.166 351.876 419.184 353.58 416.628C353.58 416.202 353.154 415.35 353.154 414.924C353.154 414.498 353.58 413.646 353.58 413.22C354.432 412.368 354.858 411.516 355.71 410.664C356.136 410.238 356.562 410.238 356.988 410.238C358.692 410.238 359.97 411.09 360.396 412.368C362.1 411.516 363.378 410.664 364.656 410.238C365.082 410.238 365.934 410.238 366.36 410.664C368.064 411.516 369.768 412.794 371.472 413.22C372.75 413.646 374.028 412.794 375.306 412.368C376.158 411.942 377.01 411.942 377.436 411.09C378.288 410.238 378.288 408.96 379.14 408.108C381.696 405.552 380.418 402.996 380.418 400.44C380.418 400.014 379.992 399.162 379.566 398.736C378.714 397.884 377.862 397.032 377.436 396.18C376.584 395.328 376.584 393.624 374.454 394.05C373.176 394.476 371.898 394.476 370.62 395.328C369.768 395.754 369.342 396.606 368.49 397.458C367.638 398.736 366.36 398.736 364.656 399.162C364.656 398.31 364.656 397.458 364.656 396.606C364.23 396.606 364.23 396.606 363.804 396.606C361.248 398.736 359.118 398.31 356.562 397.032C355.71 396.606 354.858 397.032 354.006 397.032C352.728 397.458 351.024 397.884 350.172 396.606C349.32 394.902 348.042 394.476 346.338 394.05C345.486 393.624 344.634 392.772 343.782 391.92C344.208 391.494 345.06 390.642 345.486 390.642C346.338 386.382 346.764 382.548 347.616 378.714C346.338 379.992 345.06 381.27 344.634 382.548C343.782 385.956 341.226 386.808 338.244 388.086C337.392 388.512 336.54 388.086 335.688 388.086C333.558 388.512 331.428 388.938 329.298 389.364C329.298 384.252 331.428 380.844 335.688 378.714C338.244 377.436 340.8 376.158 343.356 374.88C344.208 374.454 345.486 373.602 346.338 372.75C347.616 371.898 348.894 371.472 350.598 370.62C351.45 370.194 351.876 369.768 352.728 369.768C354.432 368.916 356.562 368.064 358.266 366.786C360.822 365.082 362.526 362.526 365.082 361.248C368.916 359.118 373.176 357.414 377.436 355.71C379.14 354.858 380.844 354.006 382.122 352.728C385.104 349.32 388.938 347.19 392.772 345.486C394.476 344.634 395.754 344.208 397.458 343.356C400.866 341.652 404.274 339.522 408.108 341.226C408.534 341.226 408.534 341.226 408.96 341.226C411.516 340.8 414.072 340.8 416.202 340.374C417.054 340.374 417.906 339.948 418.758 339.522C420.462 339.096 422.166 338.244 423.444 337.818C427.278 336.966 431.538 336.54 435.372 334.836C436.65 334.41 437.928 334.41 439.206 334.41C442.614 334.41 445.596 334.41 448.578 332.706C450.708 331.428 453.264 330.15 455.82 331.002C456.672 331.002 457.524 331.002 458.376 330.576C460.08 330.15 461.784 330.15 463.488 329.724C464.34 329.724 465.192 329.298 466.044 328.872C466.896 328.446 468.174 328.446 468.6 328.02C470.304 326.742 472.008 326.316 473.712 326.316C474.99 326.316 476.694 325.89 477.972 325.464C479.25 325.038 480.528 324.186 481.806 323.334C482.658 322.908 483.51 322.908 483.936 322.482C486.492 321.63 488.622 320.352 491.178 319.926C492.456 319.5 493.308 319.074 494.586 318.648C502.68 318.648 503.532 318.648 504.384 318.222ZM172.104 287.124H172.53C172.956 288.402 172.956 289.254 173.382 290.532C172.53 290.532 171.678 290.106 171.678 290.106C171.678 289.254 172.104 288.402 172.104 287.124ZM27.69 123.966C25.986 124.392 25.1339 123.966 24.7079 122.688C23.8559 119.28 23.004 115.872 21.726 112.89C20.874 111.186 19.596 109.482 18.744 107.778C18.744 107.352 17.8919 107.352 17.8919 106.926C17.4659 104.37 17.466 102.24 17.04 99.684C17.04 98.832 17.4659 97.98 17.8919 96.276C17.8919 96.276 18.318 95.85 18.744 95.85C19.17 95.85 20.0219 96.702 20.0219 96.702C19.1699 98.832 21.3 99.684 21.726 100.962C22.152 102.24 23.004 103.518 23.43 105.222C24.282 107.352 24.708 109.056 25.134 111.186C25.134 111.612 25.134 112.464 25.56 112.89C25.986 114.168 26.412 115.446 27.264 116.298C28.116 118.002 28.5419 119.28 28.9679 120.984C30.2459 121.836 28.968 123.54 27.69 123.966ZM204.906 566.154L204.48 565.728C204.48 564.876 204.48 563.598 206.61 563.598C205.758 564.45 205.332 565.302 204.906 566.154ZM226.632 299.904C227.484 300.33 228.762 300.756 229.188 301.608C229.614 302.034 229.614 303.312 229.188 303.738C229.188 304.164 227.91 303.738 227.484 303.738C227.484 303.738 227.484 303.738 227.058 303.738C224.502 302.46 224.502 302.034 226.632 299.904ZM218.538 293.514C217.26 291.81 217.26 291.81 218.964 290.958C219.39 291.384 219.39 292.236 219.39 292.662C221.094 292.662 222.372 292.662 223.65 292.662C224.076 292.662 224.076 293.514 224.076 293.514C221.946 294.366 220.242 295.218 218.112 296.07C218.112 296.07 217.686 295.644 217.26 295.218C217.686 294.366 218.112 293.94 218.538 293.514ZM209.592 310.554C210.018 310.98 210.444 311.832 210.018 312.258C210.018 312.684 209.166 313.11 208.314 313.536C208.314 312.258 207.888 311.832 208.314 310.98C208.314 310.98 209.166 310.554 209.592 310.554ZM198.942 297.348C198.942 298.2 198.942 298.626 199.368 299.478C200.22 299.478 200.646 299.052 201.498 299.052C201.924 299.478 201.924 299.904 202.35 300.33C204.48 298.626 205.332 294.792 208.74 294.792C209.166 298.2 206.184 298.626 204.48 299.904C202.776 301.182 200.646 301.608 198.942 302.46C197.664 300.756 197.238 299.052 198.942 297.348ZM199.368 308.424C197.664 305.016 197.664 305.016 199.794 305.016C200.646 305.868 201.072 307.146 199.368 308.424ZM150.378 346.764C150.378 347.19 149.952 348.042 149.526 348.468C148.674 348.894 147.822 348.894 147.396 347.616C147.396 347.19 146.97 346.764 146.97 346.764C144.84 346.338 144.414 343.782 142.71 342.504C142.284 342.078 142.284 341.226 142.71 340.8C143.562 339.948 144.414 339.522 145.266 338.67C146.118 337.818 146.544 336.966 146.97 336.54C148.674 336.966 150.804 337.392 152.508 337.818C153.786 337.818 154.212 338.244 153.36 339.522C152.508 341.652 151.656 343.782 150.804 345.486C150.378 345.912 150.378 346.338 150.378 346.764ZM228.762 500.976C226.206 498.846 223.65 497.142 221.946 494.586C220.668 492.456 218.964 490.752 217.26 488.622C215.982 486.918 214.278 485.64 213.852 483.084C213.852 482.658 213.426 482.232 213 481.806C210.444 479.25 207.462 476.268 205.758 472.86C205.332 472.008 204.906 471.582 204.054 470.73C203.202 469.878 202.776 469.026 202.35 467.748C202.35 466.044 200.646 464.766 199.794 463.062C198.942 461.358 197.664 460.08 196.812 458.376C196.812 457.95 196.386 457.95 196.386 457.95C195.108 457.098 193.404 456.246 192.978 454.116C192.552 451.56 190.422 450.282 189.144 448.578C187.866 446.874 186.588 444.744 184.458 443.466C184.032 440.484 181.476 438.78 179.346 437.076C177.216 435.798 176.364 432.816 175.086 430.686C174.234 429.408 173.382 428.556 172.53 427.278C172.104 426.426 171.678 426 170.826 425.148C169.548 423.444 168.27 421.74 167.418 419.61C165.288 416.202 163.584 412.368 161.028 409.386C158.898 406.83 158.472 403.848 156.768 401.292C155.916 400.44 155.916 398.736 155.49 397.884C154.212 395.754 152.934 393.624 151.23 391.068C154.638 390.216 157.62 388.512 161.454 389.364C161.454 389.79 161.454 390.216 161.454 391.068C161.88 391.494 162.306 392.346 162.732 392.772C163.158 393.198 163.584 393.198 163.584 393.624C164.862 395.754 165.714 397.458 166.992 399.588C167.844 400.866 169.548 401.718 171.252 402.996C170.826 404.7 172.53 405.552 173.382 406.83C173.808 407.256 174.234 407.256 174.66 407.682C175.086 410.238 177.642 411.942 178.92 413.646C181.05 416.202 182.754 418.758 184.884 421.74C184.884 422.166 185.31 422.166 185.736 422.592C188.292 424.296 189.996 426 190.848 428.982C191.7 431.964 191.7 435.372 194.256 437.928C194.256 437.928 194.682 438.354 194.256 438.354C192.978 440.058 194.682 441.762 194.682 443.466C194.682 444.744 195.96 445.596 195.96 446.874C196.386 449.43 197.238 451.134 199.368 452.838C200.646 453.69 201.924 453.69 203.202 453.264C204.48 452.838 204.906 452.838 205.758 454.116C207.888 456.246 208.314 459.228 209.166 461.358C210.018 463.062 210.87 464.34 212.148 465.618C215.13 467.748 218.112 469.878 218.964 473.712C218.964 474.564 220.242 474.99 220.242 475.416C220.668 476.694 221.094 478.398 221.946 479.676C222.798 481.806 223.65 483.936 225.78 484.788C226.206 484.788 226.206 485.214 226.206 485.214C227.484 487.344 228.762 489.474 230.04 491.604C230.892 492.882 231.744 493.734 233.022 494.586C234.726 495.864 234.726 497.142 233.448 498.846C232.17 500.976 229.614 501.828 228.762 500.976ZM235.578 559.764V560.19C234.726 560.616 234.3 560.616 233.022 561.042C233.448 561.042 233.874 561.468 233.874 561.894C233.022 562.32 232.17 562.746 231.744 563.172C230.892 561.042 232.596 560.616 233.874 559.764C234.3 559.338 235.152 559.764 235.578 559.764ZM238.134 553.374C237.708 552.948 237.282 552.096 236.856 551.67C237.282 551.244 237.708 550.818 238.56 550.392C238.134 551.67 238.134 552.096 238.134 553.374ZM239.838 546.558C240.264 545.28 240.264 544.002 240.69 541.872C241.116 543.15 241.968 544.002 241.968 544.854C241.968 545.706 240.69 546.132 240.264 546.984C240.264 546.558 240.264 546.558 239.838 546.558ZM244.098 549.966C243.246 549.966 242.82 549.966 241.542 549.966C241.968 550.818 242.394 551.244 242.394 551.244V551.67C241.968 551.67 241.116 551.244 240.69 551.244C241.542 549.114 242.394 546.558 243.672 544.428H244.098C243.672 546.558 242.394 548.262 244.098 549.966ZM246.228 545.28H245.802C245.802 544.428 246.228 543.576 246.654 542.724C247.506 543.15 247.932 543.576 248.358 543.576C247.506 544.002 247.08 544.854 246.228 545.28ZM250.914 495.012C249.636 497.142 247.932 497.142 246.228 497.994C245.802 497.994 245.376 497.994 244.524 497.568C244.098 497.142 243.672 496.716 243.246 495.864C241.116 493.734 239.838 491.604 237.282 490.326C234.726 489.048 233.022 487.344 230.892 485.64C228.762 483.936 227.058 481.38 226.206 478.398C225.78 477.546 225.354 476.694 224.928 476.268C224.076 475.416 223.224 474.564 222.798 473.286C221.946 470.73 219.816 468.6 218.538 466.47L218.112 466.044C217.26 463.488 214.704 461.784 213.426 459.654C212.148 457.524 210.018 456.246 209.166 454.116C208.314 451.56 206.184 449.43 208.314 446.448C209.166 445.596 208.74 443.892 209.166 442.614C209.592 440.91 210.018 438.78 211.722 437.502C213 437.076 214.278 436.65 215.556 436.65C217.686 436.65 219.816 437.076 221.52 437.502C223.65 437.928 225.354 437.928 227.484 437.928C229.614 437.928 232.17 437.928 234.3 437.928C235.152 437.928 236.43 438.354 236.43 439.206C237.282 441.336 238.986 442.614 240.264 443.892C241.116 444.744 240.69 446.448 241.116 447.726C241.542 449.43 241.542 451.134 242.82 452.412C243.246 452.838 243.246 453.264 243.246 453.264C243.672 454.542 243.672 456.246 244.95 457.098C246.228 457.95 245.802 459.654 245.802 460.932C245.802 461.784 245.376 462.636 245.376 463.488C245.802 464.34 247.08 465.618 247.932 466.044C249.636 466.47 249.636 467.748 249.21 469.026C248.784 470.304 248.784 471.156 249.636 472.008C249.636 472.008 249.636 472.008 249.636 472.434C250.062 475.416 250.488 478.824 250.914 481.806C251.34 483.084 251.34 484.788 251.34 486.066C252.192 489.048 252.618 492.03 250.914 495.012ZM259.86 526.11C259.86 525.684 260.286 525.258 260.712 523.98C261.564 524.406 261.99 524.832 262.416 525.258C261.138 525.684 260.712 526.11 259.86 526.11ZM265.398 302.886C265.398 303.312 264.546 303.738 264.12 304.164C263.694 303.738 263.268 303.312 263.268 302.886C262.842 302.034 262.416 301.182 261.99 300.33C264.12 300.756 265.398 301.182 265.398 302.886ZM368.064 488.196H368.49C368.064 489.048 368.064 489.9 367.638 490.752H367.212C367.212 489.474 367.638 488.622 368.064 488.196ZM335.688 489.9C337.392 490.326 337.392 491.604 336.966 492.456C336.966 492.882 336.114 492.882 335.688 492.882C335.688 492.456 335.688 492.03 335.688 492.03C335.688 491.604 335.688 490.752 335.688 489.9ZM305.442 485.64C305.868 486.492 306.294 486.918 306.72 487.77C306.72 488.196 306.294 488.622 305.868 489.048C305.442 488.622 305.442 488.622 305.016 488.196C304.59 487.77 304.59 487.344 303.738 486.492C304.59 486.492 305.016 486.066 305.442 485.64ZM280.734 302.886C280.308 303.312 280.308 304.164 279.882 304.59C279.456 304.164 278.604 303.738 278.178 303.312C277.752 303.312 277.752 302.886 277.752 302.46C277.326 302.034 277.326 301.182 277.326 300.756C278.178 300.756 279.03 300.33 279.882 300.33C280.308 300.33 280.734 300.756 281.586 301.608C280.734 302.46 280.734 302.46 280.734 302.886ZM282.012 292.662C282.864 292.236 283.716 292.236 284.994 292.236C284.568 291.81 284.142 291.384 283.716 290.958C283.716 290.532 283.716 290.106 283.716 290.106C283.716 290.106 284.142 290.106 284.568 290.106C285.846 290.958 287.124 291.384 288.402 292.662C288.828 293.088 288.828 293.94 289.254 294.366C289.254 294.792 289.254 295.644 289.254 296.07C288.828 296.922 287.976 296.922 287.55 296.496C286.698 295.644 285.42 295.644 284.142 295.644C283.29 295.644 282.438 294.366 281.586 293.94C281.586 293.514 282.012 293.088 282.012 292.662ZM287.55 311.832C285.846 309.276 284.568 307.572 282.864 305.442L283.29 305.016C283.716 305.442 284.142 305.442 284.994 305.868C285.42 306.294 285.846 306.72 286.272 307.146C287.976 307.572 288.402 308.424 288.828 310.554C288.828 311.406 288.402 311.832 287.55 311.832ZM291.384 308.424C289.68 308.85 289.254 307.998 288.828 306.72C287.976 304.59 286.698 302.034 284.568 300.756C283.29 299.904 284.568 299.478 284.994 299.052C286.272 299.904 286.698 301.182 288.828 301.182C290.106 301.182 291.384 301.608 290.958 303.738C290.958 304.59 291.384 305.868 291.81 306.72H292.236C291.81 307.146 291.81 307.998 291.384 308.424ZM292.236 299.052C291.384 299.478 290.106 299.052 289.68 297.774C290.532 297.348 290.958 296.922 291.81 296.922C292.236 296.922 292.662 297.348 293.514 297.348C292.662 298.2 292.662 299.052 292.236 299.052Z" fill="#303030"/>
<path fill-rule="evenodd" clip-rule="evenodd" d="M336.54 232.17C336.966 234.3 336.966 236.004 336.966 238.134C336.966 239.838 336.54 241.542 336.966 243.246C336.966 244.95 337.818 246.228 338.244 247.506C339.096 249.21 340.374 250.914 340.374 252.618C340.374 255.6 342.93 258.156 340.8 261.138C340.8 261.138 340.8 261.564 340.8 261.99C340.8 263.268 341.226 264.12 341.226 265.398C341.652 268.806 341.652 272.214 342.078 275.622C342.078 276.474 341.652 277.326 341.652 278.178C341.652 279.03 341.652 279.882 341.652 280.734C341.652 281.586 342.078 282.438 342.078 283.29C342.078 285.846 342.078 288.402 341.652 290.958C341.652 293.088 341.226 294.792 341.652 296.922C342.078 299.052 341.652 300.756 341.226 302.46C340.8 304.164 339.948 305.868 341.226 307.998C342.078 309.276 342.078 310.554 341.226 311.832C341.226 312.258 341.226 312.684 341.226 313.11C341.652 315.24 340.8 316.518 338.67 316.944C336.966 317.37 336.114 318.222 336.114 319.926C335.688 321.63 335.262 323.334 333.132 323.76C332.28 323.76 331.854 324.186 331.428 324.612C331.002 324.612 331.002 325.464 331.002 325.464C331.854 326.316 332.28 327.168 333.558 327.594C333.984 328.02 334.836 327.594 335.262 327.594C335.688 327.594 336.114 327.594 336.54 328.02C336.966 328.446 337.392 328.446 337.818 328.872C338.244 329.298 338.67 329.724 339.096 330.576C339.948 331.428 340.8 332.706 341.226 333.558C341.226 333.558 341.652 333.984 342.078 333.984C343.356 334.41 345.06 334.836 346.338 334.836C351.45 335.262 356.136 333.984 360.822 332.28C363.804 331.002 366.786 329.298 369.768 327.594C371.898 326.316 374.028 324.186 376.584 323.76C377.01 323.76 377.436 323.334 377.862 322.908C379.14 321.63 380.844 319.926 382.122 318.648C382.548 318.648 382.548 318.222 382.974 318.222C384.252 318.222 385.53 318.222 387.234 317.37C390.216 316.092 393.624 316.518 396.18 314.388H396.606C397.884 313.962 399.162 313.962 400.44 313.11C401.292 312.684 402.144 311.832 402.996 311.406C405.552 309.702 407.682 308.424 410.238 306.72C411.09 306.294 412.368 305.442 413.22 305.442C416.202 304.59 419.184 303.738 422.166 303.312C424.296 302.886 426.426 302.46 428.556 302.034C428.982 302.034 429.834 301.608 430.26 301.182C430.686 300.756 430.686 300.33 430.26 299.904C430.26 299.478 429.408 299.052 428.982 299.478C427.278 299.904 425.574 300.756 423.87 301.608C423.018 302.034 422.592 302.034 421.74 302.034C420.036 302.46 417.906 302.46 416.202 303.312C412.794 304.59 409.386 305.868 405.978 307.572C404.274 308.424 402.996 309.276 401.292 310.128C399.588 310.98 397.884 312.258 396.18 312.258C393.198 312.258 390.642 312.684 388.086 313.962C387.234 314.388 386.382 314.388 385.53 314.814C384.252 314.814 382.974 314.814 382.122 314.814C380.844 315.24 379.992 315.24 378.714 314.388C378.288 313.962 377.862 313.962 377.862 313.962C375.732 313.536 373.176 312.684 371.046 312.258C369.342 311.832 367.638 310.98 366.36 310.554C363.804 309.702 360.822 310.128 357.84 310.554C357.414 310.554 356.988 310.554 356.988 310.554C354.432 309.702 352.302 308.85 350.172 307.998C349.746 307.998 349.32 307.146 349.32 306.72C348.468 305.442 347.616 304.164 347.19 302.46C346.338 300.756 345.486 299.052 346.338 296.922C346.764 296.496 346.338 295.644 346.338 294.792C346.338 290.958 345.912 287.55 345.912 283.716C345.912 280.734 345.912 277.752 345.486 274.77C345.06 271.788 344.634 268.806 344.634 265.824C344.634 260.712 343.782 256.026 342.504 251.34C341.652 248.358 340.8 245.802 340.8 242.82C340.8 240.69 340.374 238.56 339.522 236.43C339.096 235.578 339.096 235.152 339.096 234.3C339.096 231.744 339.096 229.188 339.096 226.632C338.67 226.632 338.244 226.632 337.818 226.632C336.114 226.206 335.262 227.058 335.688 228.762C336.114 229.614 336.54 230.892 336.54 232.17Z" fill="#303030"/>
<path fill-rule="evenodd" clip-rule="evenodd" d="M153.36 198.516C153.36 199.368 153.36 201.072 154.212 201.924C156.342 203.628 156.342 205.758 155.916 208.314C155.49 210.444 156.342 213 156.342 215.556C156.342 217.26 157.194 218.538 158.898 218.964C159.75 218.964 160.176 219.39 161.028 219.816C159.324 221.094 157.62 222.798 157.194 224.928C157.194 225.78 157.194 226.632 157.62 227.058C158.046 227.484 158.898 227.484 159.75 227.058C160.176 227.058 160.602 226.206 160.602 225.78C161.028 223.65 161.88 221.946 162.306 220.242C163.158 220.668 164.01 221.52 164.862 221.52C166.992 221.52 168.696 221.52 170.826 221.094C173.382 220.668 175.512 219.816 178.068 218.964L178.494 218.538C179.346 219.39 179.772 220.242 180.624 220.668C181.902 221.094 183.606 221.52 184.884 221.946C185.736 221.946 189.144 221.094 189.144 220.668C189.57 219.39 189.57 217.686 189.57 216.408C189.57 215.556 188.718 215.13 187.866 214.704C185.736 213.426 184.032 213.426 181.476 214.278C181.476 212.148 181.476 210.018 181.476 208.314C181.476 207.888 181.476 207.462 181.476 206.61C181.476 205.758 180.624 204.48 181.05 203.628C181.902 200.646 183.606 198.09 183.606 195.108C183.606 194.682 183.606 194.256 184.032 194.256C186.588 192.126 186.588 189.144 187.44 186.162C187.44 185.31 187.866 184.458 188.718 184.032C190.848 182.754 191.274 180.624 191.7 178.494C191.7 178.068 191.274 177.642 190.848 177.216C190.422 178.068 189.996 178.494 189.996 179.346C189.996 179.772 189.57 179.772 189.57 180.198C189.996 181.902 189.144 181.902 188.292 181.476C187.44 182.754 186.588 184.032 185.31 184.884C182.754 187.44 181.05 189.996 180.624 193.83C180.624 194.682 179.772 195.534 179.346 195.534C177.216 196.386 175.086 196.812 172.956 197.238C172.53 197.238 172.104 197.238 171.678 197.238C170.4 196.812 169.122 196.386 167.844 196.812C165.714 197.664 164.01 196.386 162.732 195.534C161.028 194.256 159.75 194.682 158.898 195.534C155.916 195.534 155.064 196.812 153.36 198.516Z" fill="#303030"/>
<path fill-rule="evenodd" clip-rule="evenodd" d="M365.082 442.188C367.212 441.762 368.916 442.614 370.62 443.466C371.046 443.892 371.898 443.892 372.324 443.892C373.602 443.04 374.88 442.188 376.158 441.336C377.436 440.484 378.714 439.206 379.992 439.206C380.844 438.78 381.27 438.78 381.27 437.928C381.696 435.798 379.992 434.946 378.714 433.668C377.436 432.39 375.732 431.964 374.454 433.242C373.176 434.52 372.324 433.668 371.472 432.816C370.194 431.538 368.916 431.112 366.786 431.538C364.656 431.538 362.1 432.39 359.97 430.686C359.118 429.834 356.136 430.686 356.136 431.964C355.71 433.242 356.136 434.52 357.414 435.372C358.266 435.798 359.118 435.798 360.396 435.798C360.396 436.224 360.396 436.65 359.97 436.65C359.544 439.206 362.526 442.614 365.082 442.188Z" fill="#303030"/>
<path fill-rule="evenodd" clip-rule="evenodd" d="M113.742 133.764C113.316 132.06 112.89 130.782 112.464 129.078C111.612 126.948 112.038 124.818 109.482 123.54C108.204 122.688 107.352 123.114 106.5 124.392C105.648 126.096 106.074 128.226 106.074 129.93C106.5 131.634 105.648 132.912 104.37 133.338C103.944 133.338 103.518 133.764 102.666 134.19C101.814 134.616 100.962 135.468 100.11 135.468C97.9803 136.32 96.7024 137.172 96.2764 140.154C99.6844 138.45 102.666 136.746 105.648 135.468C106.074 137.172 106.5 139.728 107.352 141.432C108.63 143.988 111.612 145.692 113.742 143.562C115.446 141.858 116.724 140.58 118.428 138.876C119.28 137.598 119.28 136.746 117.576 135.894C116.724 135.468 115.446 135.042 114.594 134.616C114.594 135.042 113.742 134.19 113.742 133.764Z" fill="#303030"/>
<path fill-rule="evenodd" clip-rule="evenodd" d="M242.82 242.82C244.098 243.672 247.08 243.246 248.784 241.968C250.914 239.838 253.044 237.708 255.6 236.856C257.304 236.004 258.582 234.3 260.286 233.022C260.712 232.596 261.564 232.17 261.99 231.744C262.416 231.318 263.268 230.892 263.268 230.466C262.842 229.614 262.842 228.336 261.99 227.91C261.564 227.484 260.712 226.632 259.434 227.91C258.582 228.762 256.878 229.614 255.6 230.04C254.322 230.466 253.044 230.892 251.766 231.318C250.062 231.744 247.932 232.596 245.802 233.022C243.246 233.448 240.69 234.3 240.264 236.43C239.412 238.986 240.264 241.116 242.82 242.82Z" fill="#303030"/>
<path fill-rule="evenodd" clip-rule="evenodd" d="M51.5455 359.118C51.5455 358.692 51.1195 358.692 51.1195 358.266C50.6935 356.988 50.6934 356.136 50.2674 354.858C50.6934 354.858 51.5454 354.432 51.9714 354.432C54.5274 354.432 55.3795 353.58 55.3795 351.024C55.3795 350.172 54.9534 349.32 54.5274 348.894C54.1014 348.468 52.8234 348.894 52.3974 349.746C51.5454 350.598 50.6934 351.876 49.8414 353.154C49.4154 352.302 49.4155 351.876 49.4155 351.024C49.4155 349.32 48.1375 347.19 46.8595 347.19C46.0075 347.19 44.3034 347.19 43.8774 348.042C43.4514 348.894 43.4514 350.598 43.4514 351.45C44.3034 354.006 44.3034 356.562 46.0074 359.118C47.7114 361.248 48.1375 362.1 50.6935 361.248C52.3975 360.822 52.8235 360.396 51.5455 359.118Z" fill="#303030"/>
<path fill-rule="evenodd" clip-rule="evenodd" d="M446.022 560.19C444.318 560.19 442.188 561.468 442.188 563.172C441.762 566.58 443.04 568.71 445.596 570.84C448.152 572.97 451.134 572.118 452.412 569.136C452.412 568.284 452.838 567.432 452.838 566.58C452.412 563.598 450.708 560.616 446.022 560.19Z" fill="#303030"/>
<path fill-rule="evenodd" clip-rule="evenodd" d="M460.932 507.792C459.654 506.94 458.376 506.514 457.524 506.088C454.542 504.81 451.986 506.514 452.412 509.496C452.838 512.478 454.968 517.164 459.228 516.738C459.654 516.312 459.654 515.886 460.08 515.886C461.358 514.182 462.636 512.052 462.21 509.496C461.784 508.644 461.358 507.792 460.932 507.792Z" fill="#303030"/>
<path fill-rule="evenodd" clip-rule="evenodd" d="M519.72 402.144C520.146 401.292 519.72 400.44 519.294 400.014C518.868 399.162 518.442 398.736 518.016 397.884C516.738 396.606 515.46 394.902 514.182 393.624C512.904 392.346 509.496 392.772 508.218 394.05C506.94 395.328 507.366 397.458 508.644 398.736C509.922 400.014 511.626 400.44 512.478 401.292C514.608 401.718 515.886 402.144 517.59 402.57C518.442 402.996 519.294 402.996 519.72 402.144Z" fill="#303030"/>
<path fill-rule="evenodd" clip-rule="evenodd" d="M519.721 601.512C517.591 600.234 516.313 601.086 514.609 602.79C512.905 604.494 513.756 606.198 514.182 607.902C515.034 610.032 520.147 611.736 522.277 610.458C522.703 610.458 522.702 610.032 522.702 610.032C524.406 607.476 523.555 602.364 519.721 601.512Z" fill="#303030"/>
<path fill-rule="evenodd" clip-rule="evenodd" d="M324.186 291.384C326.742 292.662 327.168 292.662 328.872 290.958C329.724 290.106 330.576 289.254 331.854 288.828C332.706 288.402 333.558 287.55 334.836 287.124C336.114 286.272 336.114 285.42 335.688 284.142C334.836 282.864 333.558 282.864 332.28 283.716C331.854 284.142 331.002 284.142 330.576 284.568C328.872 284.994 327.168 284.994 325.464 285.42C324.186 285.846 322.482 287.55 322.482 289.254C321.63 290.106 322.908 290.958 324.186 291.384Z" fill="#303030"/>
<path fill-rule="evenodd" clip-rule="evenodd" d="M112.038 192.126C112.464 192.978 113.316 194.256 115.02 193.83C115.872 193.404 118.002 189.996 117.576 188.718C117.15 187.014 116.298 185.31 116.298 183.606C116.298 181.476 115.446 180.624 113.742 179.346C112.464 178.494 111.612 178.92 110.76 180.198C110.76 180.624 110.76 181.05 110.76 181.476C111.186 184.032 112.038 186.162 111.186 188.718C111.186 189.996 111.612 191.274 112.038 192.126Z" fill="#303030"/>
<path fill-rule="evenodd" clip-rule="evenodd" d="M423.87 538.038C423.018 540.168 423.018 541.872 424.722 543.576C425.574 544.002 426.426 544.428 427.278 544.854C429.408 546.132 431.538 545.28 431.964 543.15C432.39 541.02 431.112 539.316 430.26 538.038C428.556 535.482 424.722 535.908 423.87 538.038Z" fill="#303030"/>
<path fill-rule="evenodd" clip-rule="evenodd" d="M446.022 500.124C443.466 499.272 440.91 499.698 441.336 503.106C441.762 505.236 442.614 506.94 444.318 509.07C445.596 509.07 446.448 509.07 447.3 508.644C449.856 506.94 449.856 504.81 449.43 502.254C449.004 501.402 447.726 500.976 446.874 500.55C446.448 500.55 446.022 500.124 446.022 500.124Z" fill="#303030"/>
<path fill-rule="evenodd" clip-rule="evenodd" d="M102.24 198.942C103.944 199.794 106.074 198.942 107.352 196.812C108.204 195.534 107.352 194.256 106.5 193.404C106.074 192.552 105.648 191.274 105.222 190.422C105.222 189.996 104.796 189.57 104.37 189.57C103.092 189.996 101.814 189.996 100.962 190.422C100.11 190.848 99.6838 191.7 100.11 192.978C100.11 193.404 100.11 194.256 100.11 195.108C99.6838 196.386 100.536 198.09 102.24 198.942Z" fill="#303030"/>
<path fill-rule="evenodd" clip-rule="evenodd" d="M129.504 230.466C129.078 229.188 128.226 228.762 127.374 229.614C126.522 230.04 126.096 230.892 125.244 231.318C124.818 232.17 124.818 233.022 124.818 233.448C124.818 234.726 124.818 236.004 124.392 236.856C124.392 238.56 125.244 239.412 126.522 239.838C127.374 240.264 128.652 239.838 129.078 238.986C129.93 237.708 130.356 236.004 131.208 234.726C131.208 234.3 131.208 233.874 131.208 233.874C129.93 233.022 129.93 231.744 129.504 230.466Z" fill="#303030"/>
<path fill-rule="evenodd" clip-rule="evenodd" d="M171.252 66.456C173.808 67.308 175.938 66.03 176.364 63.048C176.79 61.344 175.086 60.066 174.66 58.788C174.234 57.936 173.808 57.51 172.956 57.936C170.826 58.362 168.27 61.344 169.122 63.474C169.548 64.752 169.548 66.03 171.252 66.456Z" fill="#303030"/>
<path fill-rule="evenodd" clip-rule="evenodd" d="M401.717 401.718C401.717 401.718 401.291 402.144 401.291 402.57C400.439 404.274 401.717 406.83 403.421 407.256C404.699 407.682 409.385 406.83 410.237 405.978C410.663 405.552 410.664 404.7 410.664 404.274C410.238 403.422 409.386 402.57 408.534 401.718C407.256 400.866 402.569 400.866 401.717 401.718Z" fill="#303030"/>
<path fill-rule="evenodd" clip-rule="evenodd" d="M491.604 622.386C489.9 621.534 487.77 622.812 486.918 624.942C486.492 626.22 488.196 629.628 489.474 630.054C490.752 630.48 493.734 629.202 494.586 627.498C495.012 625.794 493.734 623.238 491.604 622.386Z" fill="#303030"/>
<path fill-rule="evenodd" clip-rule="evenodd" d="M385.956 455.82C385.53 456.672 384.678 457.524 385.104 458.376C385.53 460.08 386.382 461.358 386.808 462.636C387.234 463.914 388.512 463.914 389.364 463.062C390.642 461.784 391.494 460.506 392.346 458.802C393.198 457.524 392.346 456.672 391.068 456.246C390.642 455.82 390.216 455.82 389.364 455.394C388.938 455.394 388.512 454.968 388.086 454.968C387.66 454.968 386.382 455.394 385.956 455.82Z" fill="#303030"/>
<path fill-rule="evenodd" clip-rule="evenodd" d="M100.536 186.588C99.6835 185.31 98.8315 184.458 97.5535 183.606C97.5535 183.606 97.5534 183.606 97.1274 183.606C95.4234 183.606 94.1455 184.458 94.1455 186.162C94.1455 186.588 94.1455 186.588 93.7195 187.014H93.2935C93.7195 188.292 93.7195 189.57 94.1455 190.848C94.5715 192.126 95.4234 192.552 96.7014 192.552C98.4054 192.552 98.8315 191.274 99.6835 190.422C100.961 189.57 101.388 188.292 100.536 186.588Z" fill="#303030"/>
<path fill-rule="evenodd" clip-rule="evenodd" d="M372.75 366.36C373.176 368.064 374.028 368.49 375.732 368.49C377.436 368.49 379.14 368.49 380.844 368.064C381.696 367.638 382.548 366.786 382.974 365.508C383.4 365.082 382.548 363.804 382.122 362.952C379.566 363.378 377.01 363.378 374.88 363.804C373.176 363.804 372.75 364.656 372.75 366.36Z" fill="#303030"/>
<path fill-rule="evenodd" clip-rule="evenodd" d="M184.458 237.282C184.032 236.43 183.606 235.152 181.902 235.152C180.624 235.152 178.92 234.726 178.068 236.856C177.642 238.134 176.79 239.412 176.364 241.116C175.512 242.82 176.364 244.524 178.068 244.098C179.346 243.672 180.624 242.394 181.902 241.116C182.328 240.69 183.18 239.838 183.606 238.986C184.032 238.134 184.458 237.708 184.458 237.282Z" fill="#303030"/>
<path fill-rule="evenodd" clip-rule="evenodd" d="M442.614 488.622C443.04 487.77 443.04 486.918 443.466 486.066C443.892 484.788 443.04 483.084 442.188 482.658C441.336 482.232 439.632 482.232 438.354 483.084C437.076 483.51 436.224 484.788 435.372 486.066C435.798 486.918 436.65 487.344 436.65 487.77C436.65 489.474 437.502 489.474 438.78 489.474C439.206 489.474 439.632 489.474 440.058 489.474C440.91 490.326 442.188 489.9 442.614 488.622Z" fill="#303030"/>
<path fill-rule="evenodd" clip-rule="evenodd" d="M316.944 439.206C316.092 438.354 314.814 437.502 313.962 437.076C312.684 436.224 311.406 436.224 310.554 437.076C309.702 437.502 309.276 438.78 309.276 440.058C309.276 442.188 310.98 442.188 312.258 442.614C313.11 443.04 313.962 443.466 314.388 443.466C315.666 443.466 317.37 443.466 317.796 443.04C319.074 441.336 318.222 440.058 316.944 439.206Z" fill="#303030"/>
<path fill-rule="evenodd" clip-rule="evenodd" d="M247.932 252.618C250.062 252.618 252.192 251.34 253.044 249.636C253.896 247.506 253.044 246.228 250.914 246.228C249.21 246.228 247.932 246.654 246.228 247.08C245.802 247.08 245.376 247.932 245.376 248.358C245.802 249.636 246.228 250.914 246.654 252.192C246.654 252.192 247.08 252.192 247.932 252.618Z" fill="#303030"/>
<path fill-rule="evenodd" clip-rule="evenodd" d="M248.784 281.16C250.488 282.012 252.192 281.16 252.618 279.882C253.896 277.326 252.618 274.77 250.914 273.918C249.21 273.066 247.506 273.918 246.654 275.622C245.802 277.752 247.08 280.734 248.784 281.16Z" fill="#303030"/>
<path fill-rule="evenodd" clip-rule="evenodd" d="M417.48 531.648C416.202 530.796 414.072 531.222 413.22 532.5C412.368 534.63 413.22 537.186 415.776 538.464C415.776 538.464 416.202 538.89 416.628 538.89C419.184 539.316 420.462 538.038 419.61 535.482C419.61 533.352 418.758 532.5 417.48 531.648Z" fill="#303030"/>
<path fill-rule="evenodd" clip-rule="evenodd" d="M216.408 233.874C216.408 234.3 216.834 234.726 216.834 234.726C218.112 234.3 218.112 235.152 218.112 235.578C218.964 236.856 219.816 238.134 221.52 237.708C222.372 237.708 223.225 236.43 224.077 236.004C224.077 234.726 224.503 233.448 224.077 233.022C223.225 231.744 221.946 230.892 221.094 230.04C220.668 230.04 220.243 230.04 219.817 230.466C218.539 231.318 217.686 232.17 216.408 233.022C216.834 233.022 216.408 233.448 216.408 233.874Z" fill="#303030"/>
<path fill-rule="evenodd" clip-rule="evenodd" d="M372.75 529.944C371.472 529.518 368.916 530.796 368.49 532.074C367.638 533.778 368.49 535.908 369.768 536.76C371.472 537.612 374.028 536.76 374.88 535.056C375.306 533.352 374.028 530.37 372.75 529.944Z" fill="#303030"/>
<path fill-rule="evenodd" clip-rule="evenodd" d="M452.838 405.552C453.264 405.552 453.69 405.978 454.116 405.978C455.394 405.978 456.672 405.978 457.098 405.126C457.95 404.274 457.95 402.57 457.524 401.718C457.098 400.866 455.394 400.44 454.542 400.44C453.69 400.44 452.838 400.44 451.986 400.866C451.134 401.292 450.282 401.718 449.856 402.144C449.856 402.996 450.282 403.848 450.708 404.7C451.134 405.552 451.986 405.552 452.838 405.552Z" fill="#303030"/>
<path fill-rule="evenodd" clip-rule="evenodd" d="M483.936 445.17C482.658 444.744 480.102 445.596 479.676 447.3C479.25 448.152 480.528 451.134 481.806 451.56C483.51 452.412 485.64 451.56 486.066 450.282C486.918 448.152 486.066 446.022 483.936 445.17Z" fill="#303030"/>
<path fill-rule="evenodd" clip-rule="evenodd" d="M404.274 498.846C402.144 497.994 399.162 498.846 398.736 500.124C398.31 501.828 399.588 503.958 401.292 504.81C403.422 505.662 403.848 505.662 404.274 503.958C405.126 502.254 405.126 499.272 404.274 498.846Z" fill="#303030"/>
<path fill-rule="evenodd" clip-rule="evenodd" d="M364.23 523.128C363.378 522.702 361.674 523.554 361.248 524.832C360.396 526.536 361.248 528.666 362.526 529.092C363.804 529.518 365.934 528.666 366.36 527.388C367.212 525.684 365.934 523.98 364.23 523.128Z" fill="#303030"/>
<path fill-rule="evenodd" clip-rule="evenodd" d="M508.218 582.768C506.514 581.916 504.81 582.768 503.958 584.046C503.532 584.898 504.384 587.454 505.662 587.88C506.94 588.306 509.07 587.88 509.496 586.602C509.922 585.324 509.496 583.62 508.218 582.768Z" fill="#303030"/>
<path fill-rule="evenodd" clip-rule="evenodd" d="M201.072 251.766C201.924 253.044 203.202 253.47 204.48 253.044C205.758 252.192 206.61 250.914 207.036 250.488C207.462 248.784 207.036 247.932 205.332 247.932C204.054 247.932 203.202 248.784 201.924 249.21C200.646 249.636 200.22 250.488 201.072 251.766Z" fill="#303030"/>
<path fill-rule="evenodd" clip-rule="evenodd" d="M439.631 581.916C439.205 583.62 439.631 585.324 441.761 586.602C442.613 586.176 444.317 586.176 444.743 585.75C445.169 584.472 444.743 582.768 444.317 581.916C443.039 580.212 440.483 580.212 439.631 581.916Z" fill="#303030"/>
<path fill-rule="evenodd" clip-rule="evenodd" d="M124.818 104.37C125.244 104.37 125.671 104.37 125.671 104.37C126.949 103.944 127.8 103.518 129.078 103.092V101.814C128.226 101.814 127.8 101.388 126.948 101.814C123.966 103.092 121.41 104.37 118.428 105.648C117.15 106.074 115.447 106.074 115.447 108.63C117.151 108.204 118.429 107.778 119.281 107.352C121.411 106.5 123.114 105.648 124.818 104.37Z" fill="#303030"/>
<path fill-rule="evenodd" clip-rule="evenodd" d="M365.508 426C366.36 424.296 366.36 423.444 365.082 422.592C363.804 421.74 361.674 422.592 360.822 424.296C359.97 425.574 360.396 427.278 361.248 427.704C362.526 428.556 364.656 427.704 365.508 426Z" fill="#303030"/>
<path fill-rule="evenodd" clip-rule="evenodd" d="M60.9181 360.396C61.7701 359.544 61.7701 356.988 60.9181 356.562C60.4921 356.136 59.2141 356.136 58.7881 356.136C57.9361 356.988 57.0842 357.84 55.8062 358.692C55.8062 359.544 55.806 360.396 56.232 361.248C57.51 362.1 60.0661 361.674 60.9181 360.396Z" fill="#303030"/>
<path fill-rule="evenodd" clip-rule="evenodd" d="M426 467.748C426 467.322 426 467.322 426 467.748C426.426 467.748 426.852 467.748 427.278 467.748C428.556 467.748 429.835 468.174 430.687 466.896C431.539 465.618 430.26 464.766 429.408 463.914C428.982 463.488 427.704 463.488 427.278 463.488C426.852 463.488 426.426 463.488 426 463.488C425.574 463.488 424.723 463.914 424.297 464.34C423.871 464.766 424.297 465.618 424.297 466.044C424.723 466.47 425.148 466.896 426 467.748Z" fill="#303030"/>
<path fill-rule="evenodd" clip-rule="evenodd" d="M504.81 416.628C505.236 416.628 505.236 417.054 505.662 417.054C506.088 417.054 506.94 417.054 507.366 417.054C507.366 416.202 506.94 415.776 506.94 414.924C506.94 414.498 506.514 414.072 506.088 413.646C505.236 412.794 504.384 411.942 503.106 411.516C502.68 411.516 501.828 411.516 501.402 411.942C500.976 412.368 500.976 413.646 501.402 414.072C502.254 415.35 503.532 416.202 504.81 416.628C504.384 417.054 504.81 416.628 504.81 416.628Z" fill="#303030"/>
<path fill-rule="evenodd" clip-rule="evenodd" d="M377.862 477.12C379.14 477.546 381.271 477.12 381.697 475.842C382.123 474.564 381.271 472.86 379.567 472.434C378.289 472.008 376.584 472.434 376.158 473.712C376.158 474.564 377.01 476.694 377.862 477.12Z" fill="#303030"/>
<path fill-rule="evenodd" clip-rule="evenodd" d="M231.744 243.246C233.022 243.672 234.726 243.246 235.152 241.968C235.578 240.69 235.578 239.412 234.3 238.986C232.596 238.134 230.466 238.986 230.04 240.264C229.614 241.542 230.466 242.82 231.744 243.246Z" fill="#303030"/>
<path fill-rule="evenodd" clip-rule="evenodd" d="M397.032 627.498C396.18 627.072 394.902 627.498 394.476 629.202C394.05 630.48 394.476 632.184 395.328 632.61C396.606 633.036 397.884 632.61 398.31 631.758C399.162 629.628 398.736 628.35 397.032 627.498Z" fill="#303030"/>
<path fill-rule="evenodd" clip-rule="evenodd" d="M423.87 523.554C424.296 522.276 423.444 520.572 422.166 520.146C420.888 519.72 420.036 520.146 419.184 521.85C418.758 522.702 419.61 524.832 420.462 525.258C421.74 525.258 423.444 524.832 423.87 523.554Z" fill="#303030"/>
<path fill-rule="evenodd" clip-rule="evenodd" d="M183.606 245.376C184.032 245.376 184.884 244.524 185.736 244.098C186.162 243.672 186.162 243.246 187.014 242.394C187.014 241.542 186.588 240.69 186.162 239.838C185.31 240.264 184.458 240.264 184.032 240.69C183.606 240.69 183.606 241.116 183.18 241.116C182.754 241.542 181.902 242.394 182.328 242.82C182.328 243.672 182.754 244.95 183.606 245.376Z" fill="#303030"/>
<path fill-rule="evenodd" clip-rule="evenodd" d="M412.368 491.178C412.794 490.752 413.22 490.326 413.646 489.9C412.794 489.9 411.942 489.474 411.516 489.474C411.09 489.474 411.09 489.9 410.664 489.9C410.238 490.326 409.386 490.752 408.96 491.178C408.96 491.178 408.534 491.178 408.534 490.752C408.534 489.9 408.534 489.474 408.96 488.622C408.534 488.622 408.108 488.196 407.682 488.196C408.108 489.474 408.108 490.326 408.108 491.604H408.534C408.108 492.03 408.108 492.456 407.682 492.882C408.534 492.882 409.812 492.456 410.238 492.882C411.09 493.308 411.09 494.586 411.942 495.864C412.368 495.012 413.646 494.586 413.22 494.16C413.22 493.308 412.368 492.882 411.516 492.03C411.516 491.604 411.942 491.604 412.368 491.178Z" fill="#303030"/>
<path fill-rule="evenodd" clip-rule="evenodd" d="M90.7378 96.702C92.4418 94.998 94.1457 94.146 96.7017 93.294C97.1277 93.294 97.5538 92.016 97.5538 91.59L97.1278 90.738C96.2758 90.738 95.8498 90.738 94.9978 91.164C94.1458 91.59 92.8679 92.442 92.0159 93.294C91.1639 94.146 89.4599 94.572 89.8859 96.702C90.3119 96.702 90.7378 96.702 90.7378 96.702Z" fill="#303030"/>
<path fill-rule="evenodd" clip-rule="evenodd" d="M341.226 593.418C341.226 587.88 341.652 582.768 341.652 577.23C340.374 579.36 339.948 592.14 341.226 593.418Z" fill="#303030"/>
<path fill-rule="evenodd" clip-rule="evenodd" d="M112.464 437.076C112.89 437.928 112.89 439.206 113.316 440.058C114.168 439.632 115.872 439.206 116.298 438.354C116.724 437.502 116.298 436.224 115.446 435.372C115.02 434.946 113.316 435.798 112.464 437.076Z" fill="#303030"/>
<path fill-rule="evenodd" clip-rule="evenodd" d="M389.79 239.412C389.79 238.986 390.642 237.282 388.512 236.856C387.66 240.264 387.234 243.246 386.382 246.228C386.382 246.654 386.808 247.08 387.234 247.506C388.512 244.95 389.364 241.968 389.79 239.412Z" fill="#303030"/>
<path fill-rule="evenodd" clip-rule="evenodd" d="M212.574 231.744C213.426 229.614 213.426 228.336 212.574 228.762C211.296 228.762 210.444 229.614 209.166 229.614C209.592 230.466 210.018 231.744 210.87 232.17C210.87 232.596 212.148 231.744 212.574 231.744Z" fill="#303030"/>
<path fill-rule="evenodd" clip-rule="evenodd" d="M489.9 400.866C490.326 400.44 491.604 400.44 491.604 400.014C491.604 399.162 492.03 397.458 490.752 397.458C489.9 397.458 488.622 397.458 488.196 397.884C487.344 398.736 488.196 400.44 489.9 400.866Z" fill="#303030"/>
<path fill-rule="evenodd" clip-rule="evenodd" d="M443.04 440.058C443.466 441.762 444.318 442.614 446.022 442.614C446.448 442.614 447.3 442.188 447.3 441.762C447.3 440.91 446.874 440.058 446.448 439.632C445.596 438.78 444.318 438.78 443.04 440.058Z" fill="#303030"/>
<path fill-rule="evenodd" clip-rule="evenodd" d="M345.06 440.484C345.06 441.762 345.06 443.466 345.06 444.744C346.764 444.318 347.616 441.336 346.764 438.78C346.338 439.632 345.486 440.058 345.06 440.484Z" fill="#303030"/>
<path fill-rule="evenodd" clip-rule="evenodd" d="M253.896 250.914C253.896 251.766 254.322 253.044 254.748 253.47C255.6 254.322 256.452 253.896 257.304 252.618C257.73 251.766 256.878 250.062 256.026 250.062C255.6 249.636 254.322 250.488 253.896 250.914Z" fill="#303030"/>
<path fill-rule="evenodd" clip-rule="evenodd" d="M224.502 570.414C222.372 573.396 222.372 573.396 221.094 572.544C221.094 572.118 221.094 571.692 221.52 570.414C220.668 571.266 220.242 572.97 218.964 571.692C219.39 570.414 219.391 569.136 219.817 567.858C219.391 567.858 219.39 567.858 218.964 567.858C218.538 569.136 218.113 570.414 217.687 571.692C220.669 572.97 223.224 573.822 225.78 575.1C225.78 575.1 225.78 575.1 225.78 574.674C224.928 574.248 223.65 573.822 222.798 573.396C223.65 572.118 224.076 571.266 224.502 570.414Z" fill="#303030"/>
<path fill-rule="evenodd" clip-rule="evenodd" d="M378.288 515.46C377.436 515.034 376.584 515.034 375.732 516.312C376.158 517.164 376.158 518.016 377.01 518.442C377.862 518.868 378.714 518.442 379.14 517.59C379.566 516.738 379.14 515.886 378.288 515.46Z" fill="#303030"/>
<path fill-rule="evenodd" clip-rule="evenodd" d="M303.312 250.914C303.312 251.766 303.738 252.618 304.164 253.044C305.016 252.618 305.442 252.618 306.72 252.192C306.294 250.914 306.294 250.062 305.442 249.636C304.59 249.21 303.738 250.062 303.312 250.914Z" fill="#303030"/>
<path fill-rule="evenodd" clip-rule="evenodd" d="M353.58 377.01C353.58 377.436 353.58 377.862 354.006 378.288C354.432 378.714 357.414 378.288 357.84 377.436C357.84 377.436 357.84 376.584 357.414 376.584C356.562 375.732 353.58 376.158 353.58 377.01Z" fill="#303030"/>
<path fill-rule="evenodd" clip-rule="evenodd" d="M217.686 27.6899C217.686 27.2639 217.26 26.4119 216.834 25.1339C215.982 25.5599 214.704 25.9859 214.704 25.9859C214.704 26.8379 215.13 27.6899 215.556 28.5419C215.982 28.5419 217.686 28.1159 217.686 27.6899Z" fill="#303030"/>
<path fill-rule="evenodd" clip-rule="evenodd" d="M462.636 636.87C462.21 637.722 462.636 638.574 464.34 639C464.766 639 465.618 638.574 465.618 638.148C465.618 637.296 465.192 636.444 464.766 636.018C464.34 636.018 463.062 636.444 462.636 636.87Z" fill="#303030"/>
<path fill-rule="evenodd" clip-rule="evenodd" d="M408.108 568.284C408.108 568.71 407.682 569.136 407.682 569.136C408.108 570.84 410.238 571.692 412.368 570.414C411.516 569.988 411.09 569.988 410.664 569.562C409.812 569.136 408.96 568.71 408.108 568.284Z" fill="#303030"/>
<path fill-rule="evenodd" clip-rule="evenodd" d="M208.74 228.336C208.74 227.91 208.314 227.058 207.888 226.632C207.462 226.632 206.61 226.632 206.61 227.058C206.61 227.484 206.61 228.336 207.036 229.614C207.888 228.762 208.74 228.762 208.74 228.336Z" fill="#303030"/>
<path fill-rule="evenodd" clip-rule="evenodd" d="M224.502 247.932C224.502 248.358 224.928 249.21 225.354 249.636C225.78 249.636 226.632 249.21 227.058 248.784C227.058 248.784 226.632 247.932 226.632 247.08C225.354 247.506 224.502 247.506 224.502 247.932Z" fill="#303030"/>
<path fill-rule="evenodd" clip-rule="evenodd" d="M308.423 505.236C309.275 506.514 310.127 507.366 310.979 506.514C311.405 506.088 310.979 505.236 310.979 504.384C310.127 504.81 309.275 504.81 308.423 505.236Z" fill="#303030"/>
<path fill-rule="evenodd" clip-rule="evenodd" d="M388.512 428.13C389.364 428.13 389.79 427.704 390.642 427.704C390.642 427.278 390.216 426.426 390.216 426.426C389.364 426.426 388.938 426.426 387.66 426.426C388.086 427.278 388.086 428.13 388.512 428.13Z" fill="#303030"/>
<path fill-rule="evenodd" clip-rule="evenodd" d="M207.036 241.542C207.036 241.542 207.036 241.116 206.61 241.116C206.184 241.542 205.332 241.542 204.906 241.968C204.48 242.394 204.054 243.246 203.628 243.672C203.202 244.098 202.35 244.098 201.924 244.524C201.924 244.95 202.35 244.95 202.35 245.376C204.054 243.672 205.758 242.82 207.036 241.542Z" fill="#303030"/>
<path fill-rule="evenodd" clip-rule="evenodd" d="M408.96 488.622C410.238 488.196 410.664 488.196 411.516 487.77C411.516 486.492 411.09 485.64 410.238 486.066C409.812 486.492 409.386 487.77 408.96 488.622Z" fill="#303030"/>
<path fill-rule="evenodd" clip-rule="evenodd" d="M124.392 209.166C125.244 208.74 125.671 208.314 126.097 207.888C126.097 207.462 126.097 207.036 125.671 206.61C125.245 206.61 124.393 206.61 123.967 207.036C123.967 207.462 124.392 208.314 124.392 209.166Z" fill="#303030"/>
<path fill-rule="evenodd" clip-rule="evenodd" d="M407.256 398.31C407.682 397.884 408.108 397.884 408.534 397.458C408.534 397.458 408.108 396.606 407.682 396.606C407.256 396.606 406.404 397.032 405.978 397.458C405.552 397.884 405.978 398.31 405.978 398.736C406.404 398.31 406.83 398.31 407.256 398.31Z" fill="#303030"/>
<path fill-rule="evenodd" clip-rule="evenodd" d="M210.444 238.56C209.166 238.134 208.314 239.412 207.036 240.264C209.166 241.542 209.166 238.56 210.444 238.56Z" fill="#303030"/>
<path fill-rule="evenodd" clip-rule="evenodd" d="M67.3077 351.024C66.8817 351.45 66.4558 352.302 66.0298 352.728C66.4558 352.728 66.4557 353.154 66.8817 353.154C67.3077 352.728 67.7338 352.302 68.1598 351.45C68.1598 351.876 67.3077 351.45 67.3077 351.024Z" fill="#303030"/>
<path fill-rule="evenodd" clip-rule="evenodd" d="M386.808 442.188C387.234 441.762 388.086 441.762 388.086 441.336C388.086 440.91 387.66 440.484 387.66 440.058C387.234 440.058 386.382 440.058 386.382 440.484C386.382 440.91 386.382 441.336 386.808 442.188Z" fill="#303030"/>
<path fill-rule="evenodd" clip-rule="evenodd" d="M106.5 512.904H106.926C107.352 511.626 107.778 510.348 107.778 508.644H107.352C107.352 510.348 106.926 511.626 106.5 512.904Z" fill="#303030"/>
</svg>
