<svg width="570" height="102" viewBox="0 0 570 102" fill="none" xmlns="http://www.w3.org/2000/svg">
<g clip-path="url(#clip0_680_13281)">
<path d="M96.8562 55.3262C96.4388 55.3584 96.0536 55.2621 95.7006 55.0374C95.3795 54.8449 95.1547 54.5883 95.0265 54.2674C94.8658 54.1071 94.6413 53.7542 94.3524 53.2086C94.0954 52.6632 93.935 52.2141 93.8709 51.861C93.7424 50.3209 93.6783 49.198 93.6783 48.492C93.6783 47.5938 93.7264 46.3743 93.8227 44.8342C93.9509 43.23 94.1758 41.8343 94.4969 40.6471C94.8499 39.4601 95.2673 38.1925 95.7488 36.8449C95.877 36.5562 95.9733 36.3155 96.0377 36.123C96.1018 35.9305 96.1018 35.8342 96.0377 35.8342C95.8129 35.8664 95.4117 36.5402 94.8339 37.8556C94.7376 38.0481 94.6091 38.305 94.4487 38.6257C94.3202 38.9466 94.1436 39.2995 93.9191 39.6845C93.0201 41.674 91.3671 44.6898 88.9596 48.7326C88.6707 49.0858 88.2692 49.6471 87.7558 50.4171C86.7606 51.9253 85.942 52.9679 85.3001 53.5455C84.4012 54.4118 83.4542 54.8449 82.4593 54.8449C82.0419 54.8449 81.5763 54.7327 81.0629 54.508C80.5492 54.444 80.0517 54.0911 79.5702 53.4492C79.0887 52.8076 78.9121 52.1979 79.0406 51.6203C78.9443 50.8184 79.0243 49.182 79.2813 46.7112C79.5702 44.2086 79.8591 42.1231 80.148 40.4545C80.3725 38.9144 80.8703 36.3799 81.6407 32.8503L82.7 27.6524C82.8926 27.1711 83.1975 26.2086 83.6149 24.7647L84.0482 23.1765C84.0801 22.6633 84.2408 22.2942 84.5297 22.0695C84.8505 21.8129 85.2357 21.6845 85.6853 21.6845C86.0705 21.6845 86.4395 21.7648 86.7928 21.9251C87.1458 22.0536 87.4025 22.2301 87.5632 22.4545C88.2373 23.1927 88.5744 23.9947 88.5744 24.861C88.5744 25.3744 88.4618 25.9198 88.2373 26.4973C86.7928 30.0269 85.6372 34.6791 84.7705 40.4545C84.4494 42.4441 84.1605 44.3211 83.9038 46.0856C83.679 47.8504 83.6308 48.7489 83.7593 48.7808C84.2408 48.9092 84.8505 48.2032 85.589 46.6631C87.7077 43.166 90.1311 38.7541 92.8597 33.4278C92.9238 33.3316 93.6301 32.0161 94.9784 29.4813L96.134 27.3155L96.9044 25.9198C97.7389 24.4119 98.397 23.2727 98.8785 22.5027C99.36 21.7326 99.713 21.2995 99.9379 21.2032C100.74 21.2032 101.35 21.412 101.768 21.8289C102.217 22.2139 102.602 22.7755 102.923 23.5134C102.987 23.7703 103.019 24.075 103.019 24.4278C103.019 24.7488 102.971 25.0535 102.875 25.3422C102.811 25.5348 102.65 26.016 102.394 26.7861C102.169 27.5562 101.976 28.3262 101.816 29.0963C101.206 30.7007 100.756 32.2568 100.468 33.7647C100.339 34.3744 100.21 34.9679 100.082 35.5455C99.9538 36.123 99.8415 36.6686 99.7452 37.1818C99.1993 39.5882 98.7822 41.5937 98.4933 43.1979C98.2363 44.8023 98.0919 46.23 98.06 47.4813C98.0278 48.3157 98.0278 48.877 98.06 49.1658C98.1241 49.4545 98.2204 49.7596 98.3489 50.0802C98.3808 50.2408 98.4611 50.3209 98.5896 50.3209C98.7822 50.3209 99.0711 50.0802 99.4563 49.5989C99.9057 48.9895 100.259 48.3957 100.516 47.8182C100.805 47.2406 100.997 46.8556 101.093 46.6631C101.479 45.7327 101.88 44.8986 102.297 44.1604C103.421 42.0428 104.624 39.6045 105.908 36.8449C107.225 34.0857 108.348 31.6152 109.279 29.4332C110.21 26.7702 110.932 24.8772 111.446 23.754C111.991 22.5989 112.505 21.877 112.987 21.5882C113.179 21.4601 113.484 21.3957 113.901 21.3957C114.511 21.3957 114.961 21.5242 115.25 21.7808C115.314 21.8129 115.522 21.9895 115.876 22.3102C116.229 22.6311 116.389 23.0002 116.357 23.4171C116.068 24.4119 115.282 26.4973 113.998 29.6738C112.714 32.8503 111.718 35.2086 111.012 36.7487C110.884 36.9734 110.627 37.4065 110.242 38.0481C110.178 38.1444 110.033 38.385 109.809 38.7701C109.616 39.1232 109.52 39.3957 109.52 39.5882C109.52 39.9092 108.669 41.5937 106.968 44.6417C105.298 47.6579 104.063 49.6792 103.26 50.7059C102.522 51.6366 101.703 52.4385 100.805 53.1123C99.9057 53.8183 99.0871 54.3636 98.3489 54.7487C97.6104 55.1337 97.1129 55.3262 96.8562 55.3262ZM116.296 54.0267C115.044 53.0964 114.081 52.2622 113.407 51.5241C112.733 50.7862 112.379 50.0802 112.347 49.4064C112.315 49.2461 112.299 48.9573 112.299 48.5401C112.299 47.6419 112.379 46.5187 112.54 45.1711C112.7 43.8235 112.861 42.7488 113.022 41.9465C113.15 41.8184 113.214 41.6259 113.214 41.369C113.246 41.1124 113.246 40.9521 113.214 40.8877C113.214 40.7914 113.294 40.4708 113.455 39.9251C113.84 38.7382 114.113 37.7434 114.273 36.9412C115.14 34.3104 115.991 32.2087 116.825 30.6364C117.66 29.0644 118.591 27.5883 119.618 26.2086C121.801 23.9628 124.128 22.262 126.6 21.107C127.852 20.3691 128.75 20 129.296 20C129.393 20 129.537 20.0322 129.73 20.0963C133.678 20.9626 136.037 23.4652 136.808 27.6043C137.097 29.5616 137.241 31.0376 137.241 32.0321C137.241 33.6366 136.952 35.2567 136.374 36.8931C135.797 38.5294 134.753 40.583 133.245 43.0535C131.961 45.6205 130.5 47.8182 128.863 49.6471C127.258 51.4441 125.637 52.7916 124 53.6898C122.395 54.5883 120.886 55.0374 119.474 55.0374C118.222 55.0374 117.162 54.7005 116.296 54.0267ZM120.148 50.8503C120.918 50.754 121.512 50.6096 121.929 50.4171C122.379 50.2246 122.828 49.9039 123.278 49.4545C123.759 48.9733 124.529 48.1232 125.589 46.9037C126.937 45.3636 127.884 44.2407 128.43 43.5348C128.975 42.7969 129.473 41.8825 129.922 40.7914C130.404 39.7007 130.933 38.1284 131.511 36.0749L131.8 34.9679C131.993 34.2941 132.121 33.7488 132.185 33.3316C132.282 32.8825 132.33 32.4012 132.33 31.8877L132.282 28.8556C132.249 28.2781 132.137 27.6524 131.945 26.9786C131.752 26.3048 131.527 25.8235 131.27 25.5348C131.013 25.246 130.661 25.0053 130.211 24.8128C129.794 24.5884 129.36 24.4759 128.911 24.4759C128.59 24.4759 128.221 24.5563 127.804 24.7166C127.194 24.9735 126.343 25.6632 125.252 26.7861C124.16 27.8771 123.181 29 122.315 30.1551C121.48 31.3102 121.063 32.0802 121.063 32.4652C121.063 32.4974 121.046 32.5937 121.014 32.754C120.982 32.9146 120.918 33.059 120.822 33.1872C119.987 34.0857 119.137 35.9786 118.27 38.8663C117.435 41.754 116.954 44.2729 116.825 46.4225C116.793 47.3531 116.793 47.9948 116.825 48.3476C116.889 48.7007 117.066 49.1017 117.355 49.5508C117.58 49.9039 117.981 50.2408 118.559 50.5615C119.169 50.8503 119.698 50.9465 120.148 50.8503ZM152.836 56C152.002 56 151.247 55.599 150.573 54.7968C149.931 53.9949 149.61 53.0482 149.61 51.9572C149.61 51.6685 149.674 51.1072 149.803 50.2727C149.931 49.4064 150.027 48.8289 150.092 48.5401C149.321 50.2087 148.551 51.5403 147.78 52.5348C147.17 53.1767 146.561 53.6739 145.951 54.0267C145.373 54.4118 144.972 54.6846 144.747 54.8449C144.651 54.9093 144.41 55.0374 144.025 55.2299C143.639 55.4546 143.351 55.5668 143.158 55.5668C142.998 55.5668 142.741 55.4225 142.388 55.1337C141.81 54.9734 141.2 54.6365 140.558 54.123C139.948 53.6417 139.579 53.1604 139.45 52.6791C139.226 52.1016 139.049 51.3156 138.921 50.3209C138.792 49.3264 138.728 48.2513 138.728 47.0963C138.728 45.2033 138.873 43.6632 139.161 42.4759C139.29 42.0268 139.386 41.4974 139.45 40.8877C139.483 40.4064 139.563 39.9573 139.691 39.5401C139.627 39.0269 140.076 37.3584 141.039 34.5348C142.035 31.7114 143.126 28.9359 144.314 26.2086C145.501 23.4815 146.4 21.8611 147.01 21.3476C147.524 20.7382 148.15 20.4332 148.888 20.4332C149.209 20.4332 149.482 20.5135 149.706 20.6738C149.963 20.8022 150.092 20.9466 150.092 21.107C150.188 21.2995 150.268 21.492 150.332 21.6845C150.396 21.877 150.477 22.0376 150.573 22.1658C150.637 22.4227 150.669 22.6311 150.669 22.7914C150.669 23.1446 150.557 23.5937 150.332 24.139C150.14 24.6847 149.722 25.6791 149.08 27.123C147.315 30.2676 145.887 34.0053 144.795 38.3369C143.704 42.6366 143.238 46.2621 143.399 49.2139C143.399 50.1765 143.543 50.6578 143.832 50.6578C144.153 50.6578 144.651 50.2568 145.325 49.4545C145.646 49.0376 146.015 48.476 146.432 47.7701C146.85 47.0322 147.122 46.535 147.251 46.2781C147.315 46.1818 147.443 45.9412 147.636 45.5562C147.829 45.1711 148.053 44.6739 148.31 44.0642C148.952 43.1338 149.899 41.2087 151.151 38.2888C152.435 35.3692 153.189 33.3478 153.414 32.2246C153.703 31.1658 154.056 30.6364 154.473 30.6364C154.794 30.4439 155.131 30.3476 155.484 30.3476C156.126 30.3476 156.624 30.7648 156.977 31.5989L158.277 32.8984L157.218 35.7861C155.645 40.3102 154.618 44.6739 154.136 48.877C154.072 48.9733 153.976 49.1658 153.847 49.4545C153.719 49.7114 153.655 49.968 153.655 50.2246C153.655 50.6096 153.88 50.7862 154.329 50.754C154.778 50.4652 155.163 50.1283 155.484 49.7433C155.837 49.3264 156.303 48.6845 156.881 47.8182C157.94 46.3424 158.711 45.2836 159.192 44.6417C159.545 44.2248 159.882 43.7916 160.203 43.3422C160.524 42.861 160.733 42.5563 160.829 42.4278L161.551 40.8396C161.808 40.3905 162.033 40.0376 162.225 39.7807C162.418 39.5242 162.547 39.3638 162.611 39.2995C162.996 38.9788 163.574 37.9519 164.344 36.2193C165.147 34.4547 165.885 32.6096 166.559 30.6845C167.265 28.7594 167.651 27.428 167.715 26.6898C167.875 24.7647 168.084 23.4334 168.341 22.6952C168.629 21.9251 168.982 21.5082 169.4 21.4439C170.523 21.476 171.23 21.8932 171.518 22.6952C171.84 23.4652 172 24.5081 172 25.8235C172 26.7542 171.888 27.7968 171.663 28.9519C171.47 30.0751 171.23 30.9573 170.941 31.5989C170.844 31.8558 170.716 32.1765 170.555 32.5615C170.395 32.9146 170.218 33.3316 170.026 33.8128C169.801 33.8128 169.577 34.0535 169.352 34.5348C169.159 35.016 169.031 35.3048 168.967 35.4011C168.967 35.6258 168.854 36.0911 168.629 36.7968C168.405 37.4706 168.164 38.0322 167.907 38.4813L163.622 45.6524C162.948 46.4546 162.514 47.1125 162.322 47.6257C161.615 48.7807 160.444 50.1446 158.807 51.7166C157.17 53.2889 155.886 54.3799 154.955 54.9893C154.602 55.2781 154.2 55.5187 153.751 55.7112C153.302 55.9037 152.997 56 152.836 56Z" fill="#F4D36D"/>
<path fill-rule="evenodd" clip-rule="evenodd" d="M59.5691 28.8272C56.8383 28.0718 53.9791 27.6907 51.2056 27.3416C50.6082 27.2684 50.0536 27.6767 50.0109 28.2522C49.9256 28.8282 50.3525 29.3548 50.9072 29.428C53.5954 29.7642 56.3687 30.1237 58.9716 30.8511C59.5264 31.0089 60.1239 30.684 60.2946 30.1254C60.4652 29.5672 60.1239 28.9855 59.5691 28.8272Z" fill="#F4D36D"/>
<path fill-rule="evenodd" clip-rule="evenodd" d="M67.8465 18.1161C63.4514 13.6944 58.5017 9.84192 54.192 5.30167C53.8079 4.87763 53.1252 4.85491 52.6985 5.25077C52.2718 5.64703 52.2293 6.31338 52.656 6.73739C56.9656 11.2907 61.9155 15.1558 66.3104 19.5905C66.7373 20.0044 67.4196 20.0103 67.8465 19.6031C68.2304 19.1963 68.2731 18.53 67.8465 18.1161Z" fill="#F4D36D"/>
<path fill-rule="evenodd" clip-rule="evenodd" d="M76.0828 1.10878C76.2108 3.63952 76.3385 6.17026 76.4665 8.7014C76.4665 9.28109 76.9787 9.72867 77.5762 9.70049C78.1734 9.67188 78.6001 9.17846 78.6001 8.59834C78.4721 6.0634 78.3441 3.52888 78.2161 0.994356C78.1734 0.414677 77.6615 -0.0299696 77.064 0.00158036C76.5094 0.0331304 76.0401 0.529521 76.0828 1.10878Z" fill="#F4D36D"/>
<path fill-rule="evenodd" clip-rule="evenodd" d="M480.695 56.912C480.623 56.4352 480.568 55.9638 480.533 55.4924C480.48 54.7852 480.513 54.0727 480.494 53.3655C480.486 53.0655 480.453 52.2834 480.466 52.1709C480.584 51.1906 481.297 51.0405 481.505 51.0138C481.606 50.9977 482.64 50.8692 482.864 52.1442C483.137 53.7031 483.225 55.2727 483.128 56.8102C483.354 58.1174 483.741 59.4191 484.252 60.5977C486.283 65.2852 490.155 65.7406 494.35 65.6977C494.995 65.687 495.53 66.2495 495.564 66.962C495.598 67.6798 495.118 68.3013 494.476 68.3656C492.131 68.6173 487.971 70.7067 486.533 72.8817C486.232 73.337 486.057 74.4352 485.825 75.512C485.502 77.0067 485.118 78.4852 484.688 79.1066C484.623 79.2031 483.837 80.1888 483.603 80.3335C483.04 80.6763 482.589 80.4781 482.333 80.2959C482.077 80.1138 481.787 79.7549 481.672 79.1602C481.551 78.5388 481.653 77.2638 481.634 76.9905C481.566 75.9995 481.387 74.0548 481.023 72.3834C480.827 71.4834 480.618 70.6531 480.272 70.2406C478.99 68.7138 476.941 68.9388 475.215 69.1906C475.017 69.2174 474.819 69.2495 474.621 69.2763C473.919 69.5067 473.173 69.6781 472.385 69.7798C471.194 69.9352 470.999 68.7191 470.988 68.6388C470.966 68.462 470.883 67.5513 471.781 67.187C471.878 67.1495 472.601 66.9727 472.879 66.9031C473.267 66.8066 473.658 66.7317 474.052 66.662C478.116 65.2584 480.323 61.3155 480.695 56.912ZM482.09 61.7817C483.624 65.3067 485.952 67.0102 488.712 67.7816H488.711C486.988 68.7834 485.421 70.037 484.59 71.296C484.275 71.7727 483.986 72.7316 483.725 73.8084C483.583 72.8066 483.392 71.7405 483.14 70.8298C482.853 69.7905 482.467 68.9281 482.036 68.4138C481.204 67.4227 480.16 66.8709 479.037 66.5977C480.381 65.2745 481.4 63.6245 482.09 61.7817Z" fill="#E77AC1"/>
<path fill-rule="evenodd" clip-rule="evenodd" d="M384.734 86.7442C384.688 86.4423 384.654 86.1437 384.632 85.8451C384.598 85.3973 384.619 84.946 384.607 84.4982C384.602 84.3082 384.582 83.8128 384.59 83.7416C384.664 83.1207 385.113 83.0256 385.244 83.0087C385.307 82.9985 385.959 82.9171 386.099 83.7246C386.272 84.7119 386.327 85.706 386.266 86.6798C386.408 87.5076 386.652 88.3321 386.973 89.0785C388.253 92.0473 390.69 92.3357 393.331 92.3085C393.737 92.3017 394.075 92.658 394.096 93.1092C394.117 93.5639 393.815 93.9574 393.411 93.9982C391.934 94.1576 389.315 95.4808 388.409 96.8583C388.22 97.1467 388.11 97.8423 387.964 98.5243C387.761 99.4709 387.519 100.407 387.248 100.801C387.207 100.862 386.712 101.486 386.565 101.578C386.21 101.795 385.927 101.669 385.765 101.554C385.604 101.439 385.422 101.211 385.349 100.835C385.273 100.441 385.337 99.6337 385.325 99.4606C385.282 98.833 385.17 97.6014 384.941 96.5428C384.817 95.9728 384.685 95.4469 384.467 95.1857C383.66 94.2187 382.37 94.3612 381.284 94.5207C381.159 94.5376 381.034 94.558 380.91 94.575C380.467 94.7209 379.998 94.8294 379.501 94.8939C378.752 94.9923 378.629 94.2221 378.622 94.1712C378.608 94.0592 378.556 93.4825 379.121 93.2517C379.183 93.228 379.637 93.116 379.813 93.0719C380.057 93.0108 380.303 92.9634 380.551 92.9192C383.11 92.0303 384.5 89.5331 384.734 86.7442ZM385.612 89.8284C386.578 92.0609 388.044 93.1398 389.782 93.6283H389.781C388.696 94.2628 387.709 95.0568 387.186 95.8541C386.988 96.156 386.806 96.7633 386.641 97.4453C386.553 96.8108 386.432 96.1356 386.274 95.5589C386.093 94.9006 385.85 94.3544 385.578 94.0287C385.054 93.401 384.397 93.0516 383.69 92.8785C384.536 92.0405 385.178 90.9955 385.612 89.8284Z" fill="#F4D36D"/>
<path fill-rule="evenodd" clip-rule="evenodd" d="M518.714 80.9266C518.655 80.5293 518.611 80.1365 518.582 79.7436C518.539 79.1543 518.566 78.5605 518.551 77.9713C518.544 77.7213 518.518 77.0695 518.528 76.9757C518.624 76.1588 519.205 76.0338 519.374 76.0114C519.456 75.998 520.3 75.8909 520.481 76.9534C520.705 78.2526 520.776 79.5606 520.697 80.8418C520.881 81.9311 521.196 83.0159 521.612 83.998C523.268 87.9043 526.423 88.2838 529.84 88.2481C530.366 88.2391 530.803 88.7079 530.83 89.3016C530.858 89.8998 530.466 90.4177 529.943 90.4713C528.033 90.6811 524.643 92.4222 523.471 94.2347C523.226 94.6141 523.083 95.5293 522.895 96.4267C522.632 97.6722 522.318 98.9043 521.968 99.4222C521.915 99.5025 521.275 100.324 521.084 100.445C520.625 100.73 520.258 100.565 520.049 100.413C519.841 100.261 519.605 99.9623 519.51 99.4668C519.412 98.949 519.495 97.8864 519.48 97.6588C519.424 96.8329 519.279 95.2123 518.982 93.8195C518.822 93.0695 518.652 92.3775 518.369 92.0338C517.325 90.7614 515.656 90.949 514.25 91.1588C514.088 91.1811 513.927 91.2079 513.766 91.2302C513.193 91.4222 512.585 91.565 511.943 91.6498C510.973 91.7793 510.814 90.7659 510.805 90.6989C510.787 90.5516 510.72 89.7927 511.451 89.4891C511.531 89.4579 512.119 89.3106 512.346 89.2525C512.662 89.1722 512.981 89.1097 513.302 89.0516C516.613 87.882 518.411 84.5963 518.714 80.9266ZM519.851 84.9847C521.101 87.9222 522.998 89.3418 525.247 89.9847H525.246C523.842 90.8195 522.565 91.8642 521.888 92.9133C521.631 93.3106 521.396 94.1097 521.183 95.007C521.068 94.1722 520.912 93.2838 520.707 92.5248C520.473 91.6588 520.158 90.9401 519.807 90.5115C519.129 89.6856 518.278 89.2258 517.363 88.9981C518.459 87.8954 519.289 86.5204 519.851 84.9847Z" fill="#F4D36D"/>
<g clip-path="url(#clip1_680_13281)">
<path fill-rule="evenodd" clip-rule="evenodd" d="M213.557 40.5107C214.373 40.0886 215.073 39.7209 215.442 39.5246C217.686 38.3249 223.62 36.0211 227.196 33.0174C229.925 30.7267 231.294 28.023 229.564 25.1301C227.992 22.5007 224.593 21.6381 220.405 22.0394C211.39 22.9033 198.631 29.4194 195.284 32.3834C194.919 32.7072 194.885 33.264 195.209 33.6291C195.531 33.9926 196.088 34.027 196.453 33.7032C199.665 30.8597 211.919 24.6241 220.573 23.7946C223.956 23.4709 226.781 23.9119 228.051 26.0363C229.305 28.1322 228.041 30.0057 226.062 31.6663C222.583 34.5902 216.795 36.802 214.61 37.969C213.241 38.7013 207.939 41.3467 207.539 41.6829C207.038 42.1035 207.21 42.5874 207.279 42.7419C207.332 42.8618 207.634 43.4423 208.406 43.2261C219.416 40.1495 238.442 43.0495 253.267 51.5238C267.962 59.9234 278.544 73.8586 272.772 93.0561C272.632 93.5226 272.897 94.0149 273.362 94.1557C273.829 94.295 274.321 94.0302 274.46 93.5636C280.508 73.4488 269.538 58.7925 254.143 49.9927C241.169 42.5759 225.061 39.3625 213.557 40.5107Z" fill="#E77AC1"/>
<path fill-rule="evenodd" clip-rule="evenodd" d="M273.78 92.2723C272.986 90.3503 272.257 88.4113 271.313 86.5498C268.8 81.5901 265.138 76.969 260.578 73.7529C260.178 73.4724 259.628 73.5686 259.348 73.9652C259.067 74.3649 259.164 74.9145 259.56 75.1951C263.89 78.2448 267.355 82.6414 269.739 87.3471C270.818 89.4783 271.614 91.715 272.552 93.9068C272.601 94.0156 272.979 94.9805 273.115 95.1622C273.429 95.587 273.831 95.5624 274.015 95.5272C274.169 95.4997 274.348 95.4298 274.52 95.2686C274.661 95.1356 274.868 94.8205 275.056 94.34C275.664 92.8029 276.566 89.0143 276.78 88.4082C279.232 81.459 282.679 75.4055 286.149 68.9415C286.378 68.5116 286.217 67.9758 285.789 67.7455C285.36 67.5151 284.826 67.6775 284.596 68.1058C281.081 74.6514 277.599 80.7865 275.119 87.8204C274.97 88.2366 274.275 90.5867 273.78 92.2723Z" fill="#E77AC1"/>
</g>
</g>
<defs>
<clipPath id="clip0_680_13281">
<rect width="570" height="102" fill="white"/>
</clipPath>
<clipPath id="clip1_680_13281">
<rect width="100" height="94" fill="white" transform="translate(196 10)"/>
</clipPath>
</defs>
</svg>
