<svg width="26" height="26" viewBox="0 0 26 26" fill="none" xmlns="http://www.w3.org/2000/svg">
<path fill-rule="evenodd" clip-rule="evenodd" d="M10.2988 5.12371C10.2291 4.7105 10.1767 4.30197 10.1428 3.8934C10.0917 3.28054 10.1233 2.663 10.1052 2.05014C10.0973 1.79014 10.0662 1.11229 10.0787 1.01479C10.1925 0.165152 10.8782 0.0351358 11.0788 0.0119215C11.1758 -0.0020071 12.1722 -0.113386 12.3871 0.991614C12.6509 2.34269 12.7354 3.70302 12.642 5.03552C12.8598 6.16838 13.2322 7.29657 13.7238 8.318C15.6803 12.3805 19.4085 12.7752 23.4478 12.738C24.069 12.7287 24.5849 13.2162 24.6174 13.8337C24.6499 14.4559 24.1874 14.9944 23.569 15.0501C21.3112 15.2684 17.3053 17.0791 15.9203 18.9641C15.6306 19.3587 15.4621 20.3105 15.2392 21.2438C14.9282 22.5391 14.5581 23.8205 14.1435 24.3591C14.0813 24.4427 13.325 25.297 13.0994 25.4223C12.5571 25.7195 12.123 25.5477 11.8764 25.3898C11.6299 25.2319 11.3509 24.9209 11.2394 24.4055C11.1229 23.8669 11.2213 22.7619 11.2032 22.5251C11.1373 21.6662 10.9655 19.9809 10.615 18.5323C10.426 17.7523 10.2245 17.0326 9.89115 16.6751C8.65708 15.3519 6.68386 15.5469 5.02219 15.7652C4.83136 15.7884 4.64054 15.8162 4.45019 15.8395C3.77372 16.0391 3.05546 16.1876 2.29635 16.2759C1.15003 16.4105 0.961539 15.3566 0.951325 15.2869C0.929968 15.1337 0.850566 14.3444 1.7146 14.0287C1.80885 13.9962 2.50436 13.843 2.77225 13.7827C3.14554 13.6991 3.52299 13.6341 3.90185 13.5737C7.81532 12.3573 9.94082 8.94014 10.2988 5.12371ZM11.642 9.34411C13.1193 12.3991 15.3614 13.8755 18.0189 14.5441H18.0185C16.3591 15.4123 14.8497 16.4988 14.0497 17.5898C13.7461 18.003 13.4675 18.8341 13.2164 19.7673C13.0803 18.8991 12.8965 17.9751 12.6537 17.1858C12.3774 16.2851 12.0055 15.5377 11.5904 15.092C10.7891 14.233 9.78342 13.7548 8.7021 13.518C9.99653 12.3712 10.978 10.9413 11.642 9.34411Z" fill="#F2C94C"/>
</svg>
