<svg width="36" height="40" viewBox="0 0 36 40" fill="none" xmlns="http://www.w3.org/2000/svg">
<path fill-rule="evenodd" clip-rule="evenodd" d="M14.2599 7.8826C14.1634 7.24689 14.0908 6.61839 14.0439 5.98982C13.9731 5.04696 14.0169 4.09689 13.9918 3.15404C13.9809 2.75404 13.9378 1.71119 13.9551 1.56119C14.1126 0.254049 15.0621 0.0540245 15.3399 0.0183102C15.4742 -0.00311836 16.8538 -0.17447 17.1514 1.52553C17.5166 3.6041 17.6336 5.69693 17.5044 7.74693C17.8059 9.48979 18.3214 11.2255 19.0022 12.7969C21.7112 19.0469 26.8734 19.6541 32.4662 19.5969C33.3264 19.5826 34.0406 20.3326 34.0856 21.2826C34.1306 22.2398 33.4903 23.0683 32.634 23.154C29.5078 23.4898 23.9612 26.2755 22.0436 29.1755C21.6424 29.7826 21.4091 31.247 21.1005 32.6827C20.6698 34.6755 20.1574 36.6469 19.5834 37.4755C19.4972 37.6041 18.45 38.9184 18.1376 39.1112C17.3867 39.5684 16.7857 39.3041 16.4443 39.0612C16.1029 38.8183 15.7166 38.3398 15.5623 37.5469C15.4009 36.7183 15.5372 35.0183 15.5121 34.654C15.4209 33.3326 15.183 30.7398 14.6977 28.5112C14.436 27.3112 14.157 26.204 13.6954 25.654C11.9867 23.6183 9.25458 23.9184 6.95379 24.2541C6.68958 24.2898 6.42537 24.3327 6.1618 24.3684C5.22515 24.6755 4.23063 24.904 3.17956 25.0398C1.59234 25.2469 1.33136 23.6255 1.31722 23.5183C1.28765 23.2826 1.17771 22.0684 2.37406 21.5826C2.50456 21.5326 3.46757 21.2969 3.8385 21.2041C4.35536 21.0755 4.87799 20.9755 5.40256 20.8827C10.8212 19.0112 13.7642 13.754 14.2599 7.8826ZM16.1197 14.3755C18.1652 19.0755 21.2696 21.3469 24.9493 22.3755H24.9487C22.6511 23.7112 20.5611 25.3827 19.4535 27.0612C19.0331 27.697 18.6474 28.9755 18.2996 30.4112C18.1112 29.0755 17.8567 27.654 17.5204 26.4397C17.1379 25.054 16.623 23.9041 16.0483 23.2184C14.9387 21.897 13.5463 21.1612 12.0491 20.7969C13.8413 19.0327 15.2004 16.8327 16.1197 14.3755Z" fill="#E77AC1"/>
</svg>
